%
M48
M72
T01C0.02362
T02C0.03200
T03C0.04000
T04C0.04700
T05C0.05200
T06C0.12598
%
T01
X176980Y112400
X150210Y190290
X167120Y190290
X167170Y142610
X166080Y174540
X262480Y96640
X267140Y60520
X329160Y194300
X256000Y165200
X280980Y67570
X280850Y82750
X257550Y128690
X257550Y87690
X213350Y209720
X336840Y194440
X146980Y99400
X287900Y169880
X263360Y156920
X221970Y195300
X243740Y197320
X231000Y191440
X253800Y191530
X241730Y219730
X229550Y220170
X297410Y158430
X294140Y219730
X294360Y189030
T02
X313790Y217720
X313790Y207720
T03
X146980Y70450
X156980Y70450
X166980Y70450
X186980Y229400
X186980Y219400
X186980Y209400
X186980Y199400
X186980Y189400
X186980Y179400
X186980Y169400
X186980Y159400
X186980Y149400
X186980Y139400
X186980Y129400
X186980Y119400
X126980Y119400
X126980Y129400
X126980Y139400
X126980Y149400
X126980Y159400
X126980Y169400
X126980Y179400
X126980Y189400
X126980Y199400
X126980Y209400
X126980Y219400
X126980Y229400
X126980Y69600
X126980Y79600
X126980Y89600
X126980Y99600
X126980Y109600
X186980Y109400
X186980Y99400
X186980Y89400
X186980Y79400
X186980Y69400
X146900Y227930
X156900Y227930
X166900Y227930
X88430Y194150
X88430Y184150
X88430Y174150
X88430Y164150
X88430Y154150
X88430Y144150
X98430Y194150
X98430Y184150
X98430Y174150
X98430Y164150
X98430Y154150
X98430Y144150
X88430Y134150
X98430Y134150
X88220Y89040
X98220Y89040
T04
X350580Y95322
X350580Y115007
X350580Y134693
X350580Y154378
T05
X288010Y104130
X288010Y144130
X307010Y124130
T06
X87848Y66448
X351628Y66448
X351628Y231802
X87848Y231802
M30
