G75*
%MOIN*%
%OFA0B0*%
%FSLAX25Y25*%
%IPPOS*%
%LPD*%
%AMOC8*
5,1,8,0,0,1.08239X$1,22.5*
%
%ADD10C,0.00200*%
%ADD11C,0.00300*%
%ADD12C,0.00400*%
%ADD13C,0.00000*%
D10*
X0080672Y0087170D02*
X0082206Y0087170D01*
X0082590Y0087554D01*
X0082590Y0088321D01*
X0082206Y0088705D01*
X0081439Y0088705D01*
X0081439Y0087937D01*
X0080672Y0087170D02*
X0080288Y0087554D01*
X0080288Y0088321D01*
X0080672Y0088705D01*
X0080288Y0089472D02*
X0082590Y0091007D01*
X0080288Y0091007D01*
X0080288Y0091774D02*
X0080288Y0092925D01*
X0080672Y0093309D01*
X0082206Y0093309D01*
X0082590Y0092925D01*
X0082590Y0091774D01*
X0080288Y0091774D01*
X0080288Y0089472D02*
X0082590Y0089472D01*
X0143310Y0058051D02*
X0144845Y0058051D01*
X0145612Y0058051D02*
X0146379Y0058435D01*
X0146763Y0058435D01*
X0147147Y0058051D01*
X0147147Y0057284D01*
X0146763Y0056900D01*
X0145996Y0056900D01*
X0145612Y0057284D01*
X0145612Y0058051D02*
X0145612Y0059202D01*
X0147147Y0059202D01*
X0147914Y0059202D02*
X0147914Y0057667D01*
X0148681Y0056900D01*
X0149449Y0057667D01*
X0149449Y0059202D01*
X0153250Y0059202D02*
X0154401Y0059202D01*
X0154785Y0058818D01*
X0154785Y0057284D01*
X0154401Y0056900D01*
X0153250Y0056900D01*
X0153250Y0059202D01*
X0155552Y0058435D02*
X0156319Y0059202D01*
X0157087Y0058435D01*
X0157087Y0056900D01*
X0157087Y0058051D02*
X0155552Y0058051D01*
X0155552Y0058435D02*
X0155552Y0056900D01*
X0158621Y0056900D02*
X0158621Y0059202D01*
X0157854Y0059202D02*
X0159389Y0059202D01*
X0160156Y0058435D02*
X0160923Y0059202D01*
X0161691Y0058435D01*
X0161691Y0056900D01*
X0161691Y0058051D02*
X0160156Y0058051D01*
X0160156Y0058435D02*
X0160156Y0056900D01*
X0164830Y0057284D02*
X0165214Y0056900D01*
X0165981Y0056900D01*
X0166365Y0057284D01*
X0166365Y0058051D01*
X0165597Y0058051D01*
X0164830Y0058818D02*
X0164830Y0057284D01*
X0164830Y0058818D02*
X0165214Y0059202D01*
X0165981Y0059202D01*
X0166365Y0058818D01*
X0167132Y0059202D02*
X0168667Y0056900D01*
X0168667Y0059202D01*
X0169434Y0059202D02*
X0170585Y0059202D01*
X0170969Y0058818D01*
X0170969Y0057284D01*
X0170585Y0056900D01*
X0169434Y0056900D01*
X0169434Y0059202D01*
X0167132Y0059202D02*
X0167132Y0056900D01*
X0144077Y0057284D02*
X0144077Y0058818D01*
X0149958Y0101490D02*
X0149958Y0102641D01*
X0150342Y0103025D01*
X0151109Y0103025D01*
X0151493Y0102641D01*
X0151493Y0101490D01*
X0152260Y0101490D02*
X0149958Y0101490D01*
X0151493Y0102257D02*
X0152260Y0103025D01*
X0152260Y0103792D02*
X0152260Y0105327D01*
X0152260Y0106094D02*
X0152260Y0107629D01*
X0152260Y0106861D02*
X0149958Y0106861D01*
X0150725Y0106094D01*
X0149958Y0104559D02*
X0152260Y0104559D01*
X0150725Y0103792D02*
X0149958Y0104559D01*
X0175568Y0104163D02*
X0177870Y0104163D01*
X0177870Y0103396D02*
X0177870Y0104931D01*
X0177486Y0105698D02*
X0177870Y0106082D01*
X0177870Y0106849D01*
X0177486Y0107233D01*
X0176719Y0107233D01*
X0176335Y0106849D01*
X0176335Y0106465D01*
X0176719Y0105698D01*
X0175568Y0105698D01*
X0175568Y0107233D01*
X0175568Y0104163D02*
X0176335Y0103396D01*
X0175952Y0102629D02*
X0176719Y0102629D01*
X0177103Y0102245D01*
X0177103Y0101094D01*
X0177870Y0101094D02*
X0175568Y0101094D01*
X0175568Y0102245D01*
X0175952Y0102629D01*
X0177103Y0101861D02*
X0177870Y0102629D01*
X0203476Y0091502D02*
X0203476Y0089200D01*
X0203476Y0089967D02*
X0204627Y0089967D01*
X0205011Y0090351D01*
X0205011Y0091118D01*
X0204627Y0091502D01*
X0203476Y0091502D01*
X0204243Y0089967D02*
X0205011Y0089200D01*
X0205778Y0089584D02*
X0206162Y0089200D01*
X0206929Y0089200D01*
X0207313Y0089584D01*
X0207313Y0089967D01*
X0206929Y0090351D01*
X0205778Y0090351D01*
X0205778Y0089584D01*
X0205778Y0090351D02*
X0206545Y0091118D01*
X0207313Y0091502D01*
X0226744Y0104290D02*
X0226744Y0106592D01*
X0227895Y0106592D01*
X0228279Y0106208D01*
X0228279Y0105441D01*
X0227895Y0105057D01*
X0226744Y0105057D01*
X0227511Y0105057D02*
X0228279Y0104290D01*
X0229046Y0104290D02*
X0230581Y0104290D01*
X0229813Y0104290D02*
X0229813Y0106592D01*
X0229046Y0105825D01*
X0231348Y0105441D02*
X0232499Y0105441D01*
X0232883Y0105057D01*
X0232883Y0104674D01*
X0232499Y0104290D01*
X0231732Y0104290D01*
X0231348Y0104674D01*
X0231348Y0105441D01*
X0232115Y0106208D01*
X0232883Y0106592D01*
X0234296Y0091502D02*
X0235447Y0091502D01*
X0235831Y0091118D01*
X0235831Y0090351D01*
X0235447Y0089967D01*
X0234296Y0089967D01*
X0234296Y0089200D02*
X0234296Y0091502D01*
X0235063Y0089967D02*
X0235831Y0089200D01*
X0236598Y0089200D02*
X0238133Y0089200D01*
X0237365Y0089200D02*
X0237365Y0091502D01*
X0236598Y0090735D01*
X0236598Y0085842D02*
X0236598Y0084691D01*
X0237365Y0085075D01*
X0237749Y0085075D01*
X0238133Y0084691D01*
X0238133Y0083924D01*
X0237749Y0083540D01*
X0236982Y0083540D01*
X0236598Y0083924D01*
X0235831Y0083540D02*
X0235063Y0084307D01*
X0235447Y0084307D02*
X0234296Y0084307D01*
X0234296Y0083540D02*
X0234296Y0085842D01*
X0235447Y0085842D01*
X0235831Y0085458D01*
X0235831Y0084691D01*
X0235447Y0084307D01*
X0236598Y0085842D02*
X0238133Y0085842D01*
X0232499Y0064732D02*
X0231348Y0063581D01*
X0232883Y0063581D01*
X0232499Y0062430D02*
X0232499Y0064732D01*
X0230581Y0064348D02*
X0230581Y0063581D01*
X0230197Y0063197D01*
X0229046Y0063197D01*
X0229046Y0062430D02*
X0229046Y0064732D01*
X0230197Y0064732D01*
X0230581Y0064348D01*
X0229813Y0063197D02*
X0230581Y0062430D01*
X0234296Y0123790D02*
X0234296Y0126092D01*
X0235447Y0126092D01*
X0235831Y0125708D01*
X0235831Y0124941D01*
X0235447Y0124557D01*
X0234296Y0124557D01*
X0235063Y0124557D02*
X0235831Y0123790D01*
X0236598Y0123790D02*
X0238133Y0125325D01*
X0238133Y0125708D01*
X0237749Y0126092D01*
X0236982Y0126092D01*
X0236598Y0125708D01*
X0236598Y0123790D02*
X0238133Y0123790D01*
X0237831Y0142790D02*
X0236296Y0142790D01*
X0235529Y0142790D02*
X0234761Y0143557D01*
X0235145Y0143557D02*
X0233994Y0143557D01*
X0233994Y0142790D02*
X0233994Y0145092D01*
X0235145Y0145092D01*
X0235529Y0144708D01*
X0235529Y0143941D01*
X0235145Y0143557D01*
X0236296Y0144325D02*
X0237063Y0145092D01*
X0237063Y0142790D01*
X0238598Y0142790D02*
X0240133Y0144325D01*
X0240133Y0144708D01*
X0239749Y0145092D01*
X0238982Y0145092D01*
X0238598Y0144708D01*
X0238598Y0142790D02*
X0240133Y0142790D01*
X0228383Y0144458D02*
X0226848Y0142924D01*
X0226848Y0142540D01*
X0226081Y0142540D02*
X0225313Y0143307D01*
X0225697Y0143307D02*
X0224546Y0143307D01*
X0224546Y0142540D02*
X0224546Y0144842D01*
X0225697Y0144842D01*
X0226081Y0144458D01*
X0226081Y0143691D01*
X0225697Y0143307D01*
X0226848Y0144842D02*
X0228383Y0144842D01*
X0228383Y0144458D01*
X0227999Y0159040D02*
X0227232Y0159040D01*
X0226848Y0159424D01*
X0226081Y0159040D02*
X0225313Y0159807D01*
X0225697Y0159807D02*
X0224546Y0159807D01*
X0224546Y0159040D02*
X0224546Y0161342D01*
X0225697Y0161342D01*
X0226081Y0160958D01*
X0226081Y0160191D01*
X0225697Y0159807D01*
X0226848Y0160958D02*
X0227232Y0161342D01*
X0227999Y0161342D01*
X0228383Y0160958D01*
X0228383Y0160575D01*
X0227999Y0160191D01*
X0228383Y0159807D01*
X0228383Y0159424D01*
X0227999Y0159040D01*
X0227999Y0160191D02*
X0227615Y0160191D01*
X0234546Y0160057D02*
X0235697Y0160057D01*
X0236081Y0160441D01*
X0236081Y0161208D01*
X0235697Y0161592D01*
X0234546Y0161592D01*
X0234546Y0159290D01*
X0235313Y0160057D02*
X0236081Y0159290D01*
X0236848Y0159674D02*
X0237232Y0159290D01*
X0237999Y0159290D01*
X0238383Y0159674D01*
X0238383Y0161208D01*
X0237999Y0161592D01*
X0237232Y0161592D01*
X0236848Y0161208D01*
X0236848Y0160825D01*
X0237232Y0160441D01*
X0238383Y0160441D01*
X0262746Y0167884D02*
X0263130Y0167500D01*
X0263897Y0167500D01*
X0264281Y0167884D01*
X0265048Y0167500D02*
X0266583Y0167500D01*
X0265815Y0167500D02*
X0265815Y0169802D01*
X0265048Y0169035D01*
X0264281Y0169418D02*
X0263897Y0169802D01*
X0263130Y0169802D01*
X0262746Y0169418D01*
X0262746Y0167884D01*
X0263130Y0187060D02*
X0263897Y0187060D01*
X0264281Y0187444D01*
X0265048Y0187060D02*
X0266583Y0188595D01*
X0266583Y0188978D01*
X0266199Y0189362D01*
X0265432Y0189362D01*
X0265048Y0188978D01*
X0264281Y0188978D02*
X0263897Y0189362D01*
X0263130Y0189362D01*
X0262746Y0188978D01*
X0262746Y0187444D01*
X0263130Y0187060D01*
X0265048Y0187060D02*
X0266583Y0187060D01*
X0307828Y0197880D02*
X0308212Y0197496D01*
X0309746Y0197496D01*
X0310130Y0197880D01*
X0310130Y0198647D01*
X0309746Y0199031D01*
X0309746Y0199798D02*
X0310130Y0200182D01*
X0310130Y0200949D01*
X0309746Y0201333D01*
X0309363Y0201333D01*
X0308979Y0200949D01*
X0308979Y0199798D01*
X0309746Y0199798D01*
X0308979Y0199798D02*
X0308212Y0200565D01*
X0307828Y0201333D01*
X0308212Y0199031D02*
X0307828Y0198647D01*
X0307828Y0197880D01*
X0308022Y0222100D02*
X0309556Y0222100D01*
X0309940Y0222484D01*
X0309940Y0223251D01*
X0309556Y0223635D01*
X0309556Y0224402D02*
X0309940Y0224786D01*
X0309940Y0225553D01*
X0309556Y0225937D01*
X0308789Y0225937D01*
X0308405Y0225553D01*
X0308405Y0225169D01*
X0308789Y0224402D01*
X0307638Y0224402D01*
X0307638Y0225937D01*
X0308022Y0223635D02*
X0307638Y0223251D01*
X0307638Y0222484D01*
X0308022Y0222100D01*
X0329083Y0171837D02*
X0329467Y0171837D01*
X0331001Y0170302D01*
X0331385Y0170302D01*
X0331001Y0169535D02*
X0331385Y0169151D01*
X0331385Y0168384D01*
X0331001Y0168000D01*
X0329467Y0168000D01*
X0329083Y0168384D01*
X0329083Y0169151D01*
X0329467Y0169535D01*
X0329083Y0170302D02*
X0329083Y0171837D01*
X0342028Y0171453D02*
X0343179Y0170302D01*
X0343179Y0171837D01*
X0344330Y0171453D02*
X0342028Y0171453D01*
X0342412Y0169535D02*
X0342028Y0169151D01*
X0342028Y0168384D01*
X0342412Y0168000D01*
X0343946Y0168000D01*
X0344330Y0168384D01*
X0344330Y0169151D01*
X0343946Y0169535D01*
X0356688Y0169151D02*
X0356688Y0168384D01*
X0357072Y0168000D01*
X0358606Y0168000D01*
X0358990Y0168384D01*
X0358990Y0169151D01*
X0358606Y0169535D01*
X0358606Y0170302D02*
X0358990Y0170686D01*
X0358990Y0171453D01*
X0358606Y0171837D01*
X0358223Y0171837D01*
X0357839Y0171453D01*
X0357839Y0171069D01*
X0357839Y0171453D02*
X0357455Y0171837D01*
X0357072Y0171837D01*
X0356688Y0171453D01*
X0356688Y0170686D01*
X0357072Y0170302D01*
X0357072Y0169535D02*
X0356688Y0169151D01*
X0329860Y0161371D02*
X0329493Y0161738D01*
X0328025Y0161738D01*
X0327658Y0161371D01*
X0327658Y0160270D01*
X0329860Y0160270D01*
X0329860Y0161371D01*
X0329860Y0159528D02*
X0327658Y0159528D01*
X0327658Y0158060D02*
X0329860Y0159528D01*
X0329860Y0158060D02*
X0327658Y0158060D01*
X0328025Y0157318D02*
X0327658Y0156951D01*
X0327658Y0156217D01*
X0328025Y0155850D01*
X0329493Y0155850D01*
X0329860Y0156217D01*
X0329860Y0156951D01*
X0329493Y0157318D01*
X0328759Y0157318D01*
X0328759Y0156584D01*
X0327248Y0141878D02*
X0327248Y0140410D01*
X0327248Y0141144D02*
X0329450Y0141144D01*
X0329450Y0139668D02*
X0327982Y0139668D01*
X0327248Y0138934D01*
X0327982Y0138200D01*
X0329450Y0138200D01*
X0329083Y0137458D02*
X0329450Y0137091D01*
X0329450Y0135990D01*
X0327248Y0135990D01*
X0327248Y0137091D01*
X0327615Y0137458D01*
X0327982Y0137458D01*
X0328349Y0137091D01*
X0328349Y0135990D01*
X0328349Y0137091D02*
X0328716Y0137458D01*
X0329083Y0137458D01*
X0328349Y0138200D02*
X0328349Y0139668D01*
X0329817Y0135248D02*
X0329817Y0133780D01*
X0329083Y0133038D02*
X0329450Y0132671D01*
X0329450Y0131938D01*
X0329083Y0131571D01*
X0328349Y0131938D02*
X0328349Y0132671D01*
X0328716Y0133038D01*
X0329083Y0133038D01*
X0328349Y0131938D02*
X0327982Y0131571D01*
X0327615Y0131571D01*
X0327248Y0131938D01*
X0327248Y0132671D01*
X0327615Y0133038D01*
X0327435Y0125078D02*
X0327068Y0124711D01*
X0327068Y0123610D01*
X0329270Y0123610D01*
X0329270Y0124711D01*
X0328903Y0125078D01*
X0327435Y0125078D01*
X0327802Y0122868D02*
X0329270Y0122868D01*
X0328169Y0122868D02*
X0328169Y0121400D01*
X0327802Y0121400D02*
X0327068Y0122134D01*
X0327802Y0122868D01*
X0327802Y0121400D02*
X0329270Y0121400D01*
X0328903Y0120658D02*
X0327435Y0120658D01*
X0327068Y0120291D01*
X0327068Y0119557D01*
X0327435Y0119190D01*
X0328903Y0119190D01*
X0329270Y0119557D01*
X0329270Y0120291D01*
X0328903Y0120658D01*
X0329270Y0118448D02*
X0329270Y0116980D01*
X0327068Y0116980D01*
X0329637Y0116238D02*
X0329637Y0114771D01*
X0328903Y0114029D02*
X0329270Y0113662D01*
X0329270Y0112928D01*
X0328903Y0112561D01*
X0328169Y0112928D02*
X0328169Y0113662D01*
X0328536Y0114029D01*
X0328903Y0114029D01*
X0328169Y0112928D02*
X0327802Y0112561D01*
X0327435Y0112561D01*
X0327068Y0112928D01*
X0327068Y0113662D01*
X0327435Y0114029D01*
X0327455Y0105507D02*
X0327088Y0105140D01*
X0327088Y0104039D01*
X0329290Y0104039D01*
X0329290Y0105140D01*
X0328923Y0105507D01*
X0327455Y0105507D01*
X0327822Y0103297D02*
X0329290Y0103297D01*
X0328189Y0103297D02*
X0328189Y0101830D01*
X0327822Y0101830D02*
X0327088Y0102563D01*
X0327822Y0103297D01*
X0327822Y0101830D02*
X0329290Y0101830D01*
X0328923Y0101088D02*
X0327455Y0101088D01*
X0327088Y0100721D01*
X0327088Y0099987D01*
X0327455Y0099620D01*
X0328923Y0099620D01*
X0329290Y0099987D01*
X0329290Y0100721D01*
X0328923Y0101088D01*
X0329290Y0098878D02*
X0329290Y0097410D01*
X0327088Y0097410D01*
X0329657Y0096668D02*
X0329657Y0095200D01*
X0328923Y0094458D02*
X0327088Y0094458D01*
X0327088Y0092990D02*
X0328923Y0092990D01*
X0329290Y0093357D01*
X0329290Y0094091D01*
X0328923Y0094458D01*
X0177080Y0122600D02*
X0174778Y0122600D01*
X0174778Y0123751D01*
X0175162Y0124135D01*
X0175929Y0124135D01*
X0176313Y0123751D01*
X0176313Y0122600D01*
X0176313Y0123367D02*
X0177080Y0124135D01*
X0177080Y0124902D02*
X0177080Y0126437D01*
X0177080Y0125669D02*
X0174778Y0125669D01*
X0175545Y0124902D01*
X0175162Y0127204D02*
X0174778Y0127588D01*
X0174778Y0128355D01*
X0175162Y0128739D01*
X0176696Y0127204D01*
X0177080Y0127588D01*
X0177080Y0128355D01*
X0176696Y0128739D01*
X0175162Y0128739D01*
X0175162Y0127204D02*
X0176696Y0127204D01*
X0152640Y0126073D02*
X0152640Y0125306D01*
X0152256Y0124922D01*
X0151873Y0124922D01*
X0151489Y0125306D01*
X0151489Y0126073D01*
X0151873Y0126457D01*
X0152256Y0126457D01*
X0152640Y0126073D01*
X0151489Y0126073D02*
X0151105Y0126457D01*
X0150722Y0126457D01*
X0150338Y0126073D01*
X0150338Y0125306D01*
X0150722Y0124922D01*
X0151105Y0124922D01*
X0151489Y0125306D01*
X0151489Y0124155D02*
X0151873Y0123771D01*
X0151873Y0122620D01*
X0152640Y0122620D02*
X0150338Y0122620D01*
X0150338Y0123771D01*
X0150722Y0124155D01*
X0151489Y0124155D01*
X0151873Y0123387D02*
X0152640Y0124155D01*
X0153223Y0195600D02*
X0153223Y0196751D01*
X0152839Y0197135D01*
X0152072Y0197135D01*
X0151688Y0196751D01*
X0151688Y0195600D01*
X0153990Y0195600D01*
X0153223Y0196367D02*
X0153990Y0197135D01*
X0153990Y0197902D02*
X0153990Y0199437D01*
X0153990Y0198669D02*
X0151688Y0198669D01*
X0152455Y0197902D01*
X0152839Y0200204D02*
X0152839Y0201739D01*
X0151688Y0201355D02*
X0152839Y0200204D01*
X0153990Y0201355D02*
X0151688Y0201355D01*
X0160128Y0201739D02*
X0160512Y0201739D01*
X0162046Y0200204D01*
X0162430Y0200204D01*
X0162430Y0199437D02*
X0162430Y0197902D01*
X0162430Y0198669D02*
X0160128Y0198669D01*
X0160895Y0197902D01*
X0160512Y0197135D02*
X0161279Y0197135D01*
X0161663Y0196751D01*
X0161663Y0195600D01*
X0162430Y0195600D02*
X0160128Y0195600D01*
X0160128Y0196751D01*
X0160512Y0197135D01*
X0161663Y0196367D02*
X0162430Y0197135D01*
X0160128Y0200204D02*
X0160128Y0201739D01*
X0163458Y0218600D02*
X0164225Y0218600D01*
X0164609Y0218984D01*
X0164609Y0219751D01*
X0163841Y0219751D01*
X0163074Y0220518D02*
X0163074Y0218984D01*
X0163458Y0218600D01*
X0165376Y0218600D02*
X0165376Y0220902D01*
X0166911Y0218600D01*
X0166911Y0220902D01*
X0167678Y0220902D02*
X0168829Y0220902D01*
X0169213Y0220518D01*
X0169213Y0218984D01*
X0168829Y0218600D01*
X0167678Y0218600D01*
X0167678Y0220902D01*
X0164609Y0220518D02*
X0164225Y0220902D01*
X0163458Y0220902D01*
X0163074Y0220518D01*
X0155493Y0218600D02*
X0153958Y0218600D01*
X0153958Y0220902D01*
X0153191Y0220518D02*
X0152807Y0220902D01*
X0152040Y0220902D01*
X0151656Y0220518D01*
X0151656Y0218984D01*
X0152040Y0218600D01*
X0152807Y0218600D01*
X0153191Y0218984D01*
X0150889Y0218984D02*
X0150505Y0218600D01*
X0149738Y0218600D01*
X0149354Y0218984D01*
X0149738Y0219751D02*
X0149354Y0220135D01*
X0149354Y0220518D01*
X0149738Y0220902D01*
X0150505Y0220902D01*
X0150889Y0220518D01*
X0150505Y0219751D02*
X0150889Y0219367D01*
X0150889Y0218984D01*
X0150505Y0219751D02*
X0149738Y0219751D01*
X0144513Y0219751D02*
X0142978Y0219751D01*
X0142978Y0220135D02*
X0143745Y0220902D01*
X0144513Y0220135D01*
X0144513Y0218600D01*
X0142978Y0218600D02*
X0142978Y0220135D01*
X0142211Y0220518D02*
X0141827Y0220902D01*
X0140676Y0220902D01*
X0140676Y0218600D01*
X0141827Y0218600D01*
X0142211Y0218984D01*
X0142211Y0220518D01*
X0139909Y0220518D02*
X0139525Y0220902D01*
X0138758Y0220902D01*
X0138374Y0220518D01*
X0138374Y0220135D01*
X0138758Y0219751D01*
X0139525Y0219751D01*
X0139909Y0219367D01*
X0139909Y0218984D01*
X0139525Y0218600D01*
X0138758Y0218600D01*
X0138374Y0218984D01*
D11*
X0133439Y0234830D02*
X0133439Y0238033D01*
X0134506Y0238033D02*
X0132371Y0238033D01*
X0131283Y0238033D02*
X0129148Y0238033D01*
X0129148Y0234830D01*
X0131283Y0234830D01*
X0130216Y0236431D02*
X0129148Y0236431D01*
X0128061Y0235898D02*
X0128061Y0235364D01*
X0127527Y0234830D01*
X0126459Y0234830D01*
X0125925Y0235364D01*
X0126459Y0236431D02*
X0127527Y0236431D01*
X0128061Y0235898D01*
X0128061Y0237499D02*
X0127527Y0238033D01*
X0126459Y0238033D01*
X0125925Y0237499D01*
X0125925Y0236965D01*
X0126459Y0236431D01*
X0124838Y0234830D02*
X0122703Y0234830D01*
X0122703Y0238033D01*
X0124838Y0238033D01*
X0123770Y0236431D02*
X0122703Y0236431D01*
X0121615Y0236431D02*
X0121081Y0235898D01*
X0119480Y0235898D01*
X0120548Y0235898D02*
X0121615Y0234830D01*
X0121615Y0236431D02*
X0121615Y0237499D01*
X0121081Y0238033D01*
X0119480Y0238033D01*
X0119480Y0234830D01*
X0102012Y0201982D02*
X0102012Y0201615D01*
X0101278Y0200881D01*
X0101278Y0199780D01*
X0101278Y0200881D02*
X0100544Y0201615D01*
X0100544Y0201982D01*
X0099710Y0201248D02*
X0099710Y0199780D01*
X0099710Y0200881D02*
X0098242Y0200881D01*
X0098242Y0201248D02*
X0098976Y0201982D01*
X0099710Y0201248D01*
X0098242Y0201248D02*
X0098242Y0199780D01*
X0097408Y0199780D02*
X0095941Y0199780D01*
X0095941Y0201982D01*
X0095106Y0201615D02*
X0095106Y0200881D01*
X0094739Y0200514D01*
X0093639Y0200514D01*
X0093639Y0199780D02*
X0093639Y0201982D01*
X0094739Y0201982D01*
X0095106Y0201615D01*
X0092805Y0201615D02*
X0092438Y0201982D01*
X0091704Y0201982D01*
X0091337Y0201615D01*
X0091337Y0201248D01*
X0091704Y0200881D01*
X0092438Y0200881D01*
X0092805Y0200514D01*
X0092805Y0200147D01*
X0092438Y0199780D01*
X0091704Y0199780D01*
X0091337Y0200147D01*
X0090536Y0199780D02*
X0089802Y0199780D01*
X0090169Y0199780D02*
X0090169Y0201982D01*
X0089802Y0201982D02*
X0090536Y0201982D01*
X0088968Y0201615D02*
X0088601Y0201982D01*
X0087500Y0201982D01*
X0087500Y0199780D01*
X0088601Y0199780D01*
X0088968Y0200147D01*
X0088968Y0201615D01*
X0103388Y0100128D02*
X0105590Y0100128D01*
X0103388Y0098660D01*
X0105590Y0098660D01*
X0105223Y0097826D02*
X0103755Y0097826D01*
X0103388Y0097459D01*
X0103388Y0096725D01*
X0103755Y0096358D01*
X0105223Y0096358D01*
X0105590Y0096725D01*
X0105590Y0097459D01*
X0105223Y0097826D01*
X0103388Y0095524D02*
X0103388Y0094056D01*
X0103388Y0094790D02*
X0105590Y0094790D01*
X0105590Y0092488D02*
X0103388Y0092488D01*
X0103388Y0091754D02*
X0103388Y0093222D01*
X0103388Y0090920D02*
X0105223Y0090920D01*
X0105590Y0090553D01*
X0105590Y0089819D01*
X0105223Y0089452D01*
X0103388Y0089452D01*
X0103755Y0088618D02*
X0104122Y0088618D01*
X0104489Y0088251D01*
X0104489Y0087150D01*
X0103388Y0087150D02*
X0103388Y0088251D01*
X0103755Y0088618D01*
X0104489Y0088251D02*
X0104856Y0088618D01*
X0105223Y0088618D01*
X0105590Y0088251D01*
X0105590Y0087150D01*
X0103388Y0087150D01*
X0296308Y0122937D02*
X0296675Y0122570D01*
X0298143Y0122570D01*
X0298510Y0122937D01*
X0298510Y0123671D01*
X0298143Y0124038D01*
X0297409Y0124038D01*
X0297409Y0123304D01*
X0296675Y0124038D02*
X0296308Y0123671D01*
X0296308Y0122937D01*
X0297042Y0124872D02*
X0296308Y0125606D01*
X0298510Y0125606D01*
X0298510Y0124872D02*
X0298510Y0126340D01*
X0323557Y0212670D02*
X0323190Y0213037D01*
X0323190Y0214505D01*
X0323557Y0214872D01*
X0324291Y0214872D01*
X0324658Y0214505D01*
X0324658Y0213037D01*
X0324291Y0212670D01*
X0323557Y0212670D01*
X0323924Y0213404D02*
X0324658Y0212670D01*
X0325492Y0212670D02*
X0326960Y0212670D01*
X0326226Y0212670D02*
X0326226Y0214872D01*
X0325492Y0214138D01*
D12*
X0141950Y0223880D02*
X0141950Y0224914D01*
X0141950Y0224397D02*
X0138847Y0224397D01*
X0138847Y0223880D02*
X0138847Y0224914D01*
X0139364Y0226028D02*
X0138847Y0226546D01*
X0138847Y0227580D01*
X0139364Y0228097D01*
X0139882Y0228097D01*
X0141950Y0226028D01*
X0141950Y0228097D01*
X0141433Y0229251D02*
X0141950Y0229768D01*
X0141950Y0230803D01*
X0141433Y0231320D01*
X0139364Y0231320D02*
X0138847Y0230803D01*
X0138847Y0229768D01*
X0139364Y0229251D01*
X0141433Y0229251D01*
X0172647Y0065653D02*
X0172130Y0065136D01*
X0172130Y0063067D01*
X0172647Y0062550D01*
X0173681Y0062550D01*
X0174198Y0063067D01*
X0174198Y0065136D01*
X0173681Y0065653D01*
X0172647Y0065653D01*
X0175353Y0065653D02*
X0175353Y0062550D01*
X0176387Y0063584D01*
X0177421Y0062550D01*
X0177421Y0065653D01*
D13*
X0087848Y0050700D02*
X0351628Y0050700D01*
X0345329Y0066448D02*
X0345331Y0066606D01*
X0345337Y0066764D01*
X0345347Y0066922D01*
X0345361Y0067080D01*
X0345379Y0067237D01*
X0345400Y0067394D01*
X0345426Y0067550D01*
X0345456Y0067706D01*
X0345489Y0067861D01*
X0345527Y0068014D01*
X0345568Y0068167D01*
X0345613Y0068319D01*
X0345662Y0068470D01*
X0345715Y0068619D01*
X0345771Y0068767D01*
X0345831Y0068913D01*
X0345895Y0069058D01*
X0345963Y0069201D01*
X0346034Y0069343D01*
X0346108Y0069483D01*
X0346186Y0069620D01*
X0346268Y0069756D01*
X0346352Y0069890D01*
X0346441Y0070021D01*
X0346532Y0070150D01*
X0346627Y0070277D01*
X0346724Y0070402D01*
X0346825Y0070524D01*
X0346929Y0070643D01*
X0347036Y0070760D01*
X0347146Y0070874D01*
X0347259Y0070985D01*
X0347374Y0071094D01*
X0347492Y0071199D01*
X0347613Y0071301D01*
X0347736Y0071401D01*
X0347862Y0071497D01*
X0347990Y0071590D01*
X0348120Y0071680D01*
X0348253Y0071766D01*
X0348388Y0071850D01*
X0348524Y0071929D01*
X0348663Y0072006D01*
X0348804Y0072078D01*
X0348946Y0072148D01*
X0349090Y0072213D01*
X0349236Y0072275D01*
X0349383Y0072333D01*
X0349532Y0072388D01*
X0349682Y0072439D01*
X0349833Y0072486D01*
X0349985Y0072529D01*
X0350138Y0072568D01*
X0350293Y0072604D01*
X0350448Y0072635D01*
X0350604Y0072663D01*
X0350760Y0072687D01*
X0350917Y0072707D01*
X0351075Y0072723D01*
X0351232Y0072735D01*
X0351391Y0072743D01*
X0351549Y0072747D01*
X0351707Y0072747D01*
X0351865Y0072743D01*
X0352024Y0072735D01*
X0352181Y0072723D01*
X0352339Y0072707D01*
X0352496Y0072687D01*
X0352652Y0072663D01*
X0352808Y0072635D01*
X0352963Y0072604D01*
X0353118Y0072568D01*
X0353271Y0072529D01*
X0353423Y0072486D01*
X0353574Y0072439D01*
X0353724Y0072388D01*
X0353873Y0072333D01*
X0354020Y0072275D01*
X0354166Y0072213D01*
X0354310Y0072148D01*
X0354452Y0072078D01*
X0354593Y0072006D01*
X0354732Y0071929D01*
X0354868Y0071850D01*
X0355003Y0071766D01*
X0355136Y0071680D01*
X0355266Y0071590D01*
X0355394Y0071497D01*
X0355520Y0071401D01*
X0355643Y0071301D01*
X0355764Y0071199D01*
X0355882Y0071094D01*
X0355997Y0070985D01*
X0356110Y0070874D01*
X0356220Y0070760D01*
X0356327Y0070643D01*
X0356431Y0070524D01*
X0356532Y0070402D01*
X0356629Y0070277D01*
X0356724Y0070150D01*
X0356815Y0070021D01*
X0356904Y0069890D01*
X0356988Y0069756D01*
X0357070Y0069620D01*
X0357148Y0069483D01*
X0357222Y0069343D01*
X0357293Y0069201D01*
X0357361Y0069058D01*
X0357425Y0068913D01*
X0357485Y0068767D01*
X0357541Y0068619D01*
X0357594Y0068470D01*
X0357643Y0068319D01*
X0357688Y0068167D01*
X0357729Y0068014D01*
X0357767Y0067861D01*
X0357800Y0067706D01*
X0357830Y0067550D01*
X0357856Y0067394D01*
X0357877Y0067237D01*
X0357895Y0067080D01*
X0357909Y0066922D01*
X0357919Y0066764D01*
X0357925Y0066606D01*
X0357927Y0066448D01*
X0357925Y0066290D01*
X0357919Y0066132D01*
X0357909Y0065974D01*
X0357895Y0065816D01*
X0357877Y0065659D01*
X0357856Y0065502D01*
X0357830Y0065346D01*
X0357800Y0065190D01*
X0357767Y0065035D01*
X0357729Y0064882D01*
X0357688Y0064729D01*
X0357643Y0064577D01*
X0357594Y0064426D01*
X0357541Y0064277D01*
X0357485Y0064129D01*
X0357425Y0063983D01*
X0357361Y0063838D01*
X0357293Y0063695D01*
X0357222Y0063553D01*
X0357148Y0063413D01*
X0357070Y0063276D01*
X0356988Y0063140D01*
X0356904Y0063006D01*
X0356815Y0062875D01*
X0356724Y0062746D01*
X0356629Y0062619D01*
X0356532Y0062494D01*
X0356431Y0062372D01*
X0356327Y0062253D01*
X0356220Y0062136D01*
X0356110Y0062022D01*
X0355997Y0061911D01*
X0355882Y0061802D01*
X0355764Y0061697D01*
X0355643Y0061595D01*
X0355520Y0061495D01*
X0355394Y0061399D01*
X0355266Y0061306D01*
X0355136Y0061216D01*
X0355003Y0061130D01*
X0354868Y0061046D01*
X0354732Y0060967D01*
X0354593Y0060890D01*
X0354452Y0060818D01*
X0354310Y0060748D01*
X0354166Y0060683D01*
X0354020Y0060621D01*
X0353873Y0060563D01*
X0353724Y0060508D01*
X0353574Y0060457D01*
X0353423Y0060410D01*
X0353271Y0060367D01*
X0353118Y0060328D01*
X0352963Y0060292D01*
X0352808Y0060261D01*
X0352652Y0060233D01*
X0352496Y0060209D01*
X0352339Y0060189D01*
X0352181Y0060173D01*
X0352024Y0060161D01*
X0351865Y0060153D01*
X0351707Y0060149D01*
X0351549Y0060149D01*
X0351391Y0060153D01*
X0351232Y0060161D01*
X0351075Y0060173D01*
X0350917Y0060189D01*
X0350760Y0060209D01*
X0350604Y0060233D01*
X0350448Y0060261D01*
X0350293Y0060292D01*
X0350138Y0060328D01*
X0349985Y0060367D01*
X0349833Y0060410D01*
X0349682Y0060457D01*
X0349532Y0060508D01*
X0349383Y0060563D01*
X0349236Y0060621D01*
X0349090Y0060683D01*
X0348946Y0060748D01*
X0348804Y0060818D01*
X0348663Y0060890D01*
X0348524Y0060967D01*
X0348388Y0061046D01*
X0348253Y0061130D01*
X0348120Y0061216D01*
X0347990Y0061306D01*
X0347862Y0061399D01*
X0347736Y0061495D01*
X0347613Y0061595D01*
X0347492Y0061697D01*
X0347374Y0061802D01*
X0347259Y0061911D01*
X0347146Y0062022D01*
X0347036Y0062136D01*
X0346929Y0062253D01*
X0346825Y0062372D01*
X0346724Y0062494D01*
X0346627Y0062619D01*
X0346532Y0062746D01*
X0346441Y0062875D01*
X0346352Y0063006D01*
X0346268Y0063140D01*
X0346186Y0063276D01*
X0346108Y0063413D01*
X0346034Y0063553D01*
X0345963Y0063695D01*
X0345895Y0063838D01*
X0345831Y0063983D01*
X0345771Y0064129D01*
X0345715Y0064277D01*
X0345662Y0064426D01*
X0345613Y0064577D01*
X0345568Y0064729D01*
X0345527Y0064882D01*
X0345489Y0065035D01*
X0345456Y0065190D01*
X0345426Y0065346D01*
X0345400Y0065502D01*
X0345379Y0065659D01*
X0345361Y0065816D01*
X0345347Y0065974D01*
X0345337Y0066132D01*
X0345331Y0066290D01*
X0345329Y0066448D01*
X0351628Y0050700D02*
X0352009Y0050705D01*
X0352389Y0050718D01*
X0352769Y0050741D01*
X0353148Y0050774D01*
X0353526Y0050815D01*
X0353903Y0050865D01*
X0354279Y0050925D01*
X0354654Y0050993D01*
X0355026Y0051071D01*
X0355397Y0051158D01*
X0355765Y0051253D01*
X0356131Y0051358D01*
X0356494Y0051471D01*
X0356855Y0051593D01*
X0357212Y0051723D01*
X0357566Y0051863D01*
X0357917Y0052010D01*
X0358264Y0052167D01*
X0358607Y0052331D01*
X0358946Y0052504D01*
X0359281Y0052685D01*
X0359612Y0052874D01*
X0359937Y0053071D01*
X0360258Y0053275D01*
X0360574Y0053488D01*
X0360884Y0053708D01*
X0361190Y0053935D01*
X0361489Y0054170D01*
X0361783Y0054412D01*
X0362071Y0054660D01*
X0362353Y0054916D01*
X0362628Y0055179D01*
X0362897Y0055448D01*
X0363160Y0055723D01*
X0363416Y0056005D01*
X0363664Y0056293D01*
X0363906Y0056587D01*
X0364141Y0056886D01*
X0364368Y0057192D01*
X0364588Y0057502D01*
X0364801Y0057818D01*
X0365005Y0058139D01*
X0365202Y0058464D01*
X0365391Y0058795D01*
X0365572Y0059130D01*
X0365745Y0059469D01*
X0365909Y0059812D01*
X0366066Y0060159D01*
X0366213Y0060510D01*
X0366353Y0060864D01*
X0366483Y0061221D01*
X0366605Y0061582D01*
X0366718Y0061945D01*
X0366823Y0062311D01*
X0366918Y0062679D01*
X0367005Y0063050D01*
X0367083Y0063422D01*
X0367151Y0063797D01*
X0367211Y0064173D01*
X0367261Y0064550D01*
X0367302Y0064928D01*
X0367335Y0065307D01*
X0367358Y0065687D01*
X0367371Y0066067D01*
X0367376Y0066448D01*
X0367376Y0231802D01*
X0345329Y0231802D02*
X0345331Y0231960D01*
X0345337Y0232118D01*
X0345347Y0232276D01*
X0345361Y0232434D01*
X0345379Y0232591D01*
X0345400Y0232748D01*
X0345426Y0232904D01*
X0345456Y0233060D01*
X0345489Y0233215D01*
X0345527Y0233368D01*
X0345568Y0233521D01*
X0345613Y0233673D01*
X0345662Y0233824D01*
X0345715Y0233973D01*
X0345771Y0234121D01*
X0345831Y0234267D01*
X0345895Y0234412D01*
X0345963Y0234555D01*
X0346034Y0234697D01*
X0346108Y0234837D01*
X0346186Y0234974D01*
X0346268Y0235110D01*
X0346352Y0235244D01*
X0346441Y0235375D01*
X0346532Y0235504D01*
X0346627Y0235631D01*
X0346724Y0235756D01*
X0346825Y0235878D01*
X0346929Y0235997D01*
X0347036Y0236114D01*
X0347146Y0236228D01*
X0347259Y0236339D01*
X0347374Y0236448D01*
X0347492Y0236553D01*
X0347613Y0236655D01*
X0347736Y0236755D01*
X0347862Y0236851D01*
X0347990Y0236944D01*
X0348120Y0237034D01*
X0348253Y0237120D01*
X0348388Y0237204D01*
X0348524Y0237283D01*
X0348663Y0237360D01*
X0348804Y0237432D01*
X0348946Y0237502D01*
X0349090Y0237567D01*
X0349236Y0237629D01*
X0349383Y0237687D01*
X0349532Y0237742D01*
X0349682Y0237793D01*
X0349833Y0237840D01*
X0349985Y0237883D01*
X0350138Y0237922D01*
X0350293Y0237958D01*
X0350448Y0237989D01*
X0350604Y0238017D01*
X0350760Y0238041D01*
X0350917Y0238061D01*
X0351075Y0238077D01*
X0351232Y0238089D01*
X0351391Y0238097D01*
X0351549Y0238101D01*
X0351707Y0238101D01*
X0351865Y0238097D01*
X0352024Y0238089D01*
X0352181Y0238077D01*
X0352339Y0238061D01*
X0352496Y0238041D01*
X0352652Y0238017D01*
X0352808Y0237989D01*
X0352963Y0237958D01*
X0353118Y0237922D01*
X0353271Y0237883D01*
X0353423Y0237840D01*
X0353574Y0237793D01*
X0353724Y0237742D01*
X0353873Y0237687D01*
X0354020Y0237629D01*
X0354166Y0237567D01*
X0354310Y0237502D01*
X0354452Y0237432D01*
X0354593Y0237360D01*
X0354732Y0237283D01*
X0354868Y0237204D01*
X0355003Y0237120D01*
X0355136Y0237034D01*
X0355266Y0236944D01*
X0355394Y0236851D01*
X0355520Y0236755D01*
X0355643Y0236655D01*
X0355764Y0236553D01*
X0355882Y0236448D01*
X0355997Y0236339D01*
X0356110Y0236228D01*
X0356220Y0236114D01*
X0356327Y0235997D01*
X0356431Y0235878D01*
X0356532Y0235756D01*
X0356629Y0235631D01*
X0356724Y0235504D01*
X0356815Y0235375D01*
X0356904Y0235244D01*
X0356988Y0235110D01*
X0357070Y0234974D01*
X0357148Y0234837D01*
X0357222Y0234697D01*
X0357293Y0234555D01*
X0357361Y0234412D01*
X0357425Y0234267D01*
X0357485Y0234121D01*
X0357541Y0233973D01*
X0357594Y0233824D01*
X0357643Y0233673D01*
X0357688Y0233521D01*
X0357729Y0233368D01*
X0357767Y0233215D01*
X0357800Y0233060D01*
X0357830Y0232904D01*
X0357856Y0232748D01*
X0357877Y0232591D01*
X0357895Y0232434D01*
X0357909Y0232276D01*
X0357919Y0232118D01*
X0357925Y0231960D01*
X0357927Y0231802D01*
X0357925Y0231644D01*
X0357919Y0231486D01*
X0357909Y0231328D01*
X0357895Y0231170D01*
X0357877Y0231013D01*
X0357856Y0230856D01*
X0357830Y0230700D01*
X0357800Y0230544D01*
X0357767Y0230389D01*
X0357729Y0230236D01*
X0357688Y0230083D01*
X0357643Y0229931D01*
X0357594Y0229780D01*
X0357541Y0229631D01*
X0357485Y0229483D01*
X0357425Y0229337D01*
X0357361Y0229192D01*
X0357293Y0229049D01*
X0357222Y0228907D01*
X0357148Y0228767D01*
X0357070Y0228630D01*
X0356988Y0228494D01*
X0356904Y0228360D01*
X0356815Y0228229D01*
X0356724Y0228100D01*
X0356629Y0227973D01*
X0356532Y0227848D01*
X0356431Y0227726D01*
X0356327Y0227607D01*
X0356220Y0227490D01*
X0356110Y0227376D01*
X0355997Y0227265D01*
X0355882Y0227156D01*
X0355764Y0227051D01*
X0355643Y0226949D01*
X0355520Y0226849D01*
X0355394Y0226753D01*
X0355266Y0226660D01*
X0355136Y0226570D01*
X0355003Y0226484D01*
X0354868Y0226400D01*
X0354732Y0226321D01*
X0354593Y0226244D01*
X0354452Y0226172D01*
X0354310Y0226102D01*
X0354166Y0226037D01*
X0354020Y0225975D01*
X0353873Y0225917D01*
X0353724Y0225862D01*
X0353574Y0225811D01*
X0353423Y0225764D01*
X0353271Y0225721D01*
X0353118Y0225682D01*
X0352963Y0225646D01*
X0352808Y0225615D01*
X0352652Y0225587D01*
X0352496Y0225563D01*
X0352339Y0225543D01*
X0352181Y0225527D01*
X0352024Y0225515D01*
X0351865Y0225507D01*
X0351707Y0225503D01*
X0351549Y0225503D01*
X0351391Y0225507D01*
X0351232Y0225515D01*
X0351075Y0225527D01*
X0350917Y0225543D01*
X0350760Y0225563D01*
X0350604Y0225587D01*
X0350448Y0225615D01*
X0350293Y0225646D01*
X0350138Y0225682D01*
X0349985Y0225721D01*
X0349833Y0225764D01*
X0349682Y0225811D01*
X0349532Y0225862D01*
X0349383Y0225917D01*
X0349236Y0225975D01*
X0349090Y0226037D01*
X0348946Y0226102D01*
X0348804Y0226172D01*
X0348663Y0226244D01*
X0348524Y0226321D01*
X0348388Y0226400D01*
X0348253Y0226484D01*
X0348120Y0226570D01*
X0347990Y0226660D01*
X0347862Y0226753D01*
X0347736Y0226849D01*
X0347613Y0226949D01*
X0347492Y0227051D01*
X0347374Y0227156D01*
X0347259Y0227265D01*
X0347146Y0227376D01*
X0347036Y0227490D01*
X0346929Y0227607D01*
X0346825Y0227726D01*
X0346724Y0227848D01*
X0346627Y0227973D01*
X0346532Y0228100D01*
X0346441Y0228229D01*
X0346352Y0228360D01*
X0346268Y0228494D01*
X0346186Y0228630D01*
X0346108Y0228767D01*
X0346034Y0228907D01*
X0345963Y0229049D01*
X0345895Y0229192D01*
X0345831Y0229337D01*
X0345771Y0229483D01*
X0345715Y0229631D01*
X0345662Y0229780D01*
X0345613Y0229931D01*
X0345568Y0230083D01*
X0345527Y0230236D01*
X0345489Y0230389D01*
X0345456Y0230544D01*
X0345426Y0230700D01*
X0345400Y0230856D01*
X0345379Y0231013D01*
X0345361Y0231170D01*
X0345347Y0231328D01*
X0345337Y0231486D01*
X0345331Y0231644D01*
X0345329Y0231802D01*
X0351628Y0247550D02*
X0352009Y0247545D01*
X0352389Y0247532D01*
X0352769Y0247509D01*
X0353148Y0247476D01*
X0353526Y0247435D01*
X0353903Y0247385D01*
X0354279Y0247325D01*
X0354654Y0247257D01*
X0355026Y0247179D01*
X0355397Y0247092D01*
X0355765Y0246997D01*
X0356131Y0246892D01*
X0356494Y0246779D01*
X0356855Y0246657D01*
X0357212Y0246527D01*
X0357566Y0246387D01*
X0357917Y0246240D01*
X0358264Y0246083D01*
X0358607Y0245919D01*
X0358946Y0245746D01*
X0359281Y0245565D01*
X0359612Y0245376D01*
X0359937Y0245179D01*
X0360258Y0244975D01*
X0360574Y0244762D01*
X0360884Y0244542D01*
X0361190Y0244315D01*
X0361489Y0244080D01*
X0361783Y0243838D01*
X0362071Y0243590D01*
X0362353Y0243334D01*
X0362628Y0243071D01*
X0362897Y0242802D01*
X0363160Y0242527D01*
X0363416Y0242245D01*
X0363664Y0241957D01*
X0363906Y0241663D01*
X0364141Y0241364D01*
X0364368Y0241058D01*
X0364588Y0240748D01*
X0364801Y0240432D01*
X0365005Y0240111D01*
X0365202Y0239786D01*
X0365391Y0239455D01*
X0365572Y0239120D01*
X0365745Y0238781D01*
X0365909Y0238438D01*
X0366066Y0238091D01*
X0366213Y0237740D01*
X0366353Y0237386D01*
X0366483Y0237029D01*
X0366605Y0236668D01*
X0366718Y0236305D01*
X0366823Y0235939D01*
X0366918Y0235571D01*
X0367005Y0235200D01*
X0367083Y0234828D01*
X0367151Y0234453D01*
X0367211Y0234077D01*
X0367261Y0233700D01*
X0367302Y0233322D01*
X0367335Y0232943D01*
X0367358Y0232563D01*
X0367371Y0232183D01*
X0367376Y0231802D01*
X0351628Y0247550D02*
X0087848Y0247550D01*
X0081549Y0231802D02*
X0081551Y0231960D01*
X0081557Y0232118D01*
X0081567Y0232276D01*
X0081581Y0232434D01*
X0081599Y0232591D01*
X0081620Y0232748D01*
X0081646Y0232904D01*
X0081676Y0233060D01*
X0081709Y0233215D01*
X0081747Y0233368D01*
X0081788Y0233521D01*
X0081833Y0233673D01*
X0081882Y0233824D01*
X0081935Y0233973D01*
X0081991Y0234121D01*
X0082051Y0234267D01*
X0082115Y0234412D01*
X0082183Y0234555D01*
X0082254Y0234697D01*
X0082328Y0234837D01*
X0082406Y0234974D01*
X0082488Y0235110D01*
X0082572Y0235244D01*
X0082661Y0235375D01*
X0082752Y0235504D01*
X0082847Y0235631D01*
X0082944Y0235756D01*
X0083045Y0235878D01*
X0083149Y0235997D01*
X0083256Y0236114D01*
X0083366Y0236228D01*
X0083479Y0236339D01*
X0083594Y0236448D01*
X0083712Y0236553D01*
X0083833Y0236655D01*
X0083956Y0236755D01*
X0084082Y0236851D01*
X0084210Y0236944D01*
X0084340Y0237034D01*
X0084473Y0237120D01*
X0084608Y0237204D01*
X0084744Y0237283D01*
X0084883Y0237360D01*
X0085024Y0237432D01*
X0085166Y0237502D01*
X0085310Y0237567D01*
X0085456Y0237629D01*
X0085603Y0237687D01*
X0085752Y0237742D01*
X0085902Y0237793D01*
X0086053Y0237840D01*
X0086205Y0237883D01*
X0086358Y0237922D01*
X0086513Y0237958D01*
X0086668Y0237989D01*
X0086824Y0238017D01*
X0086980Y0238041D01*
X0087137Y0238061D01*
X0087295Y0238077D01*
X0087452Y0238089D01*
X0087611Y0238097D01*
X0087769Y0238101D01*
X0087927Y0238101D01*
X0088085Y0238097D01*
X0088244Y0238089D01*
X0088401Y0238077D01*
X0088559Y0238061D01*
X0088716Y0238041D01*
X0088872Y0238017D01*
X0089028Y0237989D01*
X0089183Y0237958D01*
X0089338Y0237922D01*
X0089491Y0237883D01*
X0089643Y0237840D01*
X0089794Y0237793D01*
X0089944Y0237742D01*
X0090093Y0237687D01*
X0090240Y0237629D01*
X0090386Y0237567D01*
X0090530Y0237502D01*
X0090672Y0237432D01*
X0090813Y0237360D01*
X0090952Y0237283D01*
X0091088Y0237204D01*
X0091223Y0237120D01*
X0091356Y0237034D01*
X0091486Y0236944D01*
X0091614Y0236851D01*
X0091740Y0236755D01*
X0091863Y0236655D01*
X0091984Y0236553D01*
X0092102Y0236448D01*
X0092217Y0236339D01*
X0092330Y0236228D01*
X0092440Y0236114D01*
X0092547Y0235997D01*
X0092651Y0235878D01*
X0092752Y0235756D01*
X0092849Y0235631D01*
X0092944Y0235504D01*
X0093035Y0235375D01*
X0093124Y0235244D01*
X0093208Y0235110D01*
X0093290Y0234974D01*
X0093368Y0234837D01*
X0093442Y0234697D01*
X0093513Y0234555D01*
X0093581Y0234412D01*
X0093645Y0234267D01*
X0093705Y0234121D01*
X0093761Y0233973D01*
X0093814Y0233824D01*
X0093863Y0233673D01*
X0093908Y0233521D01*
X0093949Y0233368D01*
X0093987Y0233215D01*
X0094020Y0233060D01*
X0094050Y0232904D01*
X0094076Y0232748D01*
X0094097Y0232591D01*
X0094115Y0232434D01*
X0094129Y0232276D01*
X0094139Y0232118D01*
X0094145Y0231960D01*
X0094147Y0231802D01*
X0094145Y0231644D01*
X0094139Y0231486D01*
X0094129Y0231328D01*
X0094115Y0231170D01*
X0094097Y0231013D01*
X0094076Y0230856D01*
X0094050Y0230700D01*
X0094020Y0230544D01*
X0093987Y0230389D01*
X0093949Y0230236D01*
X0093908Y0230083D01*
X0093863Y0229931D01*
X0093814Y0229780D01*
X0093761Y0229631D01*
X0093705Y0229483D01*
X0093645Y0229337D01*
X0093581Y0229192D01*
X0093513Y0229049D01*
X0093442Y0228907D01*
X0093368Y0228767D01*
X0093290Y0228630D01*
X0093208Y0228494D01*
X0093124Y0228360D01*
X0093035Y0228229D01*
X0092944Y0228100D01*
X0092849Y0227973D01*
X0092752Y0227848D01*
X0092651Y0227726D01*
X0092547Y0227607D01*
X0092440Y0227490D01*
X0092330Y0227376D01*
X0092217Y0227265D01*
X0092102Y0227156D01*
X0091984Y0227051D01*
X0091863Y0226949D01*
X0091740Y0226849D01*
X0091614Y0226753D01*
X0091486Y0226660D01*
X0091356Y0226570D01*
X0091223Y0226484D01*
X0091088Y0226400D01*
X0090952Y0226321D01*
X0090813Y0226244D01*
X0090672Y0226172D01*
X0090530Y0226102D01*
X0090386Y0226037D01*
X0090240Y0225975D01*
X0090093Y0225917D01*
X0089944Y0225862D01*
X0089794Y0225811D01*
X0089643Y0225764D01*
X0089491Y0225721D01*
X0089338Y0225682D01*
X0089183Y0225646D01*
X0089028Y0225615D01*
X0088872Y0225587D01*
X0088716Y0225563D01*
X0088559Y0225543D01*
X0088401Y0225527D01*
X0088244Y0225515D01*
X0088085Y0225507D01*
X0087927Y0225503D01*
X0087769Y0225503D01*
X0087611Y0225507D01*
X0087452Y0225515D01*
X0087295Y0225527D01*
X0087137Y0225543D01*
X0086980Y0225563D01*
X0086824Y0225587D01*
X0086668Y0225615D01*
X0086513Y0225646D01*
X0086358Y0225682D01*
X0086205Y0225721D01*
X0086053Y0225764D01*
X0085902Y0225811D01*
X0085752Y0225862D01*
X0085603Y0225917D01*
X0085456Y0225975D01*
X0085310Y0226037D01*
X0085166Y0226102D01*
X0085024Y0226172D01*
X0084883Y0226244D01*
X0084744Y0226321D01*
X0084608Y0226400D01*
X0084473Y0226484D01*
X0084340Y0226570D01*
X0084210Y0226660D01*
X0084082Y0226753D01*
X0083956Y0226849D01*
X0083833Y0226949D01*
X0083712Y0227051D01*
X0083594Y0227156D01*
X0083479Y0227265D01*
X0083366Y0227376D01*
X0083256Y0227490D01*
X0083149Y0227607D01*
X0083045Y0227726D01*
X0082944Y0227848D01*
X0082847Y0227973D01*
X0082752Y0228100D01*
X0082661Y0228229D01*
X0082572Y0228360D01*
X0082488Y0228494D01*
X0082406Y0228630D01*
X0082328Y0228767D01*
X0082254Y0228907D01*
X0082183Y0229049D01*
X0082115Y0229192D01*
X0082051Y0229337D01*
X0081991Y0229483D01*
X0081935Y0229631D01*
X0081882Y0229780D01*
X0081833Y0229931D01*
X0081788Y0230083D01*
X0081747Y0230236D01*
X0081709Y0230389D01*
X0081676Y0230544D01*
X0081646Y0230700D01*
X0081620Y0230856D01*
X0081599Y0231013D01*
X0081581Y0231170D01*
X0081567Y0231328D01*
X0081557Y0231486D01*
X0081551Y0231644D01*
X0081549Y0231802D01*
X0072100Y0231802D02*
X0072105Y0232183D01*
X0072118Y0232563D01*
X0072141Y0232943D01*
X0072174Y0233322D01*
X0072215Y0233700D01*
X0072265Y0234077D01*
X0072325Y0234453D01*
X0072393Y0234828D01*
X0072471Y0235200D01*
X0072558Y0235571D01*
X0072653Y0235939D01*
X0072758Y0236305D01*
X0072871Y0236668D01*
X0072993Y0237029D01*
X0073123Y0237386D01*
X0073263Y0237740D01*
X0073410Y0238091D01*
X0073567Y0238438D01*
X0073731Y0238781D01*
X0073904Y0239120D01*
X0074085Y0239455D01*
X0074274Y0239786D01*
X0074471Y0240111D01*
X0074675Y0240432D01*
X0074888Y0240748D01*
X0075108Y0241058D01*
X0075335Y0241364D01*
X0075570Y0241663D01*
X0075812Y0241957D01*
X0076060Y0242245D01*
X0076316Y0242527D01*
X0076579Y0242802D01*
X0076848Y0243071D01*
X0077123Y0243334D01*
X0077405Y0243590D01*
X0077693Y0243838D01*
X0077987Y0244080D01*
X0078286Y0244315D01*
X0078592Y0244542D01*
X0078902Y0244762D01*
X0079218Y0244975D01*
X0079539Y0245179D01*
X0079864Y0245376D01*
X0080195Y0245565D01*
X0080530Y0245746D01*
X0080869Y0245919D01*
X0081212Y0246083D01*
X0081559Y0246240D01*
X0081910Y0246387D01*
X0082264Y0246527D01*
X0082621Y0246657D01*
X0082982Y0246779D01*
X0083345Y0246892D01*
X0083711Y0246997D01*
X0084079Y0247092D01*
X0084450Y0247179D01*
X0084822Y0247257D01*
X0085197Y0247325D01*
X0085573Y0247385D01*
X0085950Y0247435D01*
X0086328Y0247476D01*
X0086707Y0247509D01*
X0087087Y0247532D01*
X0087467Y0247545D01*
X0087848Y0247550D01*
X0072100Y0231802D02*
X0072100Y0066448D01*
X0081549Y0066448D02*
X0081551Y0066606D01*
X0081557Y0066764D01*
X0081567Y0066922D01*
X0081581Y0067080D01*
X0081599Y0067237D01*
X0081620Y0067394D01*
X0081646Y0067550D01*
X0081676Y0067706D01*
X0081709Y0067861D01*
X0081747Y0068014D01*
X0081788Y0068167D01*
X0081833Y0068319D01*
X0081882Y0068470D01*
X0081935Y0068619D01*
X0081991Y0068767D01*
X0082051Y0068913D01*
X0082115Y0069058D01*
X0082183Y0069201D01*
X0082254Y0069343D01*
X0082328Y0069483D01*
X0082406Y0069620D01*
X0082488Y0069756D01*
X0082572Y0069890D01*
X0082661Y0070021D01*
X0082752Y0070150D01*
X0082847Y0070277D01*
X0082944Y0070402D01*
X0083045Y0070524D01*
X0083149Y0070643D01*
X0083256Y0070760D01*
X0083366Y0070874D01*
X0083479Y0070985D01*
X0083594Y0071094D01*
X0083712Y0071199D01*
X0083833Y0071301D01*
X0083956Y0071401D01*
X0084082Y0071497D01*
X0084210Y0071590D01*
X0084340Y0071680D01*
X0084473Y0071766D01*
X0084608Y0071850D01*
X0084744Y0071929D01*
X0084883Y0072006D01*
X0085024Y0072078D01*
X0085166Y0072148D01*
X0085310Y0072213D01*
X0085456Y0072275D01*
X0085603Y0072333D01*
X0085752Y0072388D01*
X0085902Y0072439D01*
X0086053Y0072486D01*
X0086205Y0072529D01*
X0086358Y0072568D01*
X0086513Y0072604D01*
X0086668Y0072635D01*
X0086824Y0072663D01*
X0086980Y0072687D01*
X0087137Y0072707D01*
X0087295Y0072723D01*
X0087452Y0072735D01*
X0087611Y0072743D01*
X0087769Y0072747D01*
X0087927Y0072747D01*
X0088085Y0072743D01*
X0088244Y0072735D01*
X0088401Y0072723D01*
X0088559Y0072707D01*
X0088716Y0072687D01*
X0088872Y0072663D01*
X0089028Y0072635D01*
X0089183Y0072604D01*
X0089338Y0072568D01*
X0089491Y0072529D01*
X0089643Y0072486D01*
X0089794Y0072439D01*
X0089944Y0072388D01*
X0090093Y0072333D01*
X0090240Y0072275D01*
X0090386Y0072213D01*
X0090530Y0072148D01*
X0090672Y0072078D01*
X0090813Y0072006D01*
X0090952Y0071929D01*
X0091088Y0071850D01*
X0091223Y0071766D01*
X0091356Y0071680D01*
X0091486Y0071590D01*
X0091614Y0071497D01*
X0091740Y0071401D01*
X0091863Y0071301D01*
X0091984Y0071199D01*
X0092102Y0071094D01*
X0092217Y0070985D01*
X0092330Y0070874D01*
X0092440Y0070760D01*
X0092547Y0070643D01*
X0092651Y0070524D01*
X0092752Y0070402D01*
X0092849Y0070277D01*
X0092944Y0070150D01*
X0093035Y0070021D01*
X0093124Y0069890D01*
X0093208Y0069756D01*
X0093290Y0069620D01*
X0093368Y0069483D01*
X0093442Y0069343D01*
X0093513Y0069201D01*
X0093581Y0069058D01*
X0093645Y0068913D01*
X0093705Y0068767D01*
X0093761Y0068619D01*
X0093814Y0068470D01*
X0093863Y0068319D01*
X0093908Y0068167D01*
X0093949Y0068014D01*
X0093987Y0067861D01*
X0094020Y0067706D01*
X0094050Y0067550D01*
X0094076Y0067394D01*
X0094097Y0067237D01*
X0094115Y0067080D01*
X0094129Y0066922D01*
X0094139Y0066764D01*
X0094145Y0066606D01*
X0094147Y0066448D01*
X0094145Y0066290D01*
X0094139Y0066132D01*
X0094129Y0065974D01*
X0094115Y0065816D01*
X0094097Y0065659D01*
X0094076Y0065502D01*
X0094050Y0065346D01*
X0094020Y0065190D01*
X0093987Y0065035D01*
X0093949Y0064882D01*
X0093908Y0064729D01*
X0093863Y0064577D01*
X0093814Y0064426D01*
X0093761Y0064277D01*
X0093705Y0064129D01*
X0093645Y0063983D01*
X0093581Y0063838D01*
X0093513Y0063695D01*
X0093442Y0063553D01*
X0093368Y0063413D01*
X0093290Y0063276D01*
X0093208Y0063140D01*
X0093124Y0063006D01*
X0093035Y0062875D01*
X0092944Y0062746D01*
X0092849Y0062619D01*
X0092752Y0062494D01*
X0092651Y0062372D01*
X0092547Y0062253D01*
X0092440Y0062136D01*
X0092330Y0062022D01*
X0092217Y0061911D01*
X0092102Y0061802D01*
X0091984Y0061697D01*
X0091863Y0061595D01*
X0091740Y0061495D01*
X0091614Y0061399D01*
X0091486Y0061306D01*
X0091356Y0061216D01*
X0091223Y0061130D01*
X0091088Y0061046D01*
X0090952Y0060967D01*
X0090813Y0060890D01*
X0090672Y0060818D01*
X0090530Y0060748D01*
X0090386Y0060683D01*
X0090240Y0060621D01*
X0090093Y0060563D01*
X0089944Y0060508D01*
X0089794Y0060457D01*
X0089643Y0060410D01*
X0089491Y0060367D01*
X0089338Y0060328D01*
X0089183Y0060292D01*
X0089028Y0060261D01*
X0088872Y0060233D01*
X0088716Y0060209D01*
X0088559Y0060189D01*
X0088401Y0060173D01*
X0088244Y0060161D01*
X0088085Y0060153D01*
X0087927Y0060149D01*
X0087769Y0060149D01*
X0087611Y0060153D01*
X0087452Y0060161D01*
X0087295Y0060173D01*
X0087137Y0060189D01*
X0086980Y0060209D01*
X0086824Y0060233D01*
X0086668Y0060261D01*
X0086513Y0060292D01*
X0086358Y0060328D01*
X0086205Y0060367D01*
X0086053Y0060410D01*
X0085902Y0060457D01*
X0085752Y0060508D01*
X0085603Y0060563D01*
X0085456Y0060621D01*
X0085310Y0060683D01*
X0085166Y0060748D01*
X0085024Y0060818D01*
X0084883Y0060890D01*
X0084744Y0060967D01*
X0084608Y0061046D01*
X0084473Y0061130D01*
X0084340Y0061216D01*
X0084210Y0061306D01*
X0084082Y0061399D01*
X0083956Y0061495D01*
X0083833Y0061595D01*
X0083712Y0061697D01*
X0083594Y0061802D01*
X0083479Y0061911D01*
X0083366Y0062022D01*
X0083256Y0062136D01*
X0083149Y0062253D01*
X0083045Y0062372D01*
X0082944Y0062494D01*
X0082847Y0062619D01*
X0082752Y0062746D01*
X0082661Y0062875D01*
X0082572Y0063006D01*
X0082488Y0063140D01*
X0082406Y0063276D01*
X0082328Y0063413D01*
X0082254Y0063553D01*
X0082183Y0063695D01*
X0082115Y0063838D01*
X0082051Y0063983D01*
X0081991Y0064129D01*
X0081935Y0064277D01*
X0081882Y0064426D01*
X0081833Y0064577D01*
X0081788Y0064729D01*
X0081747Y0064882D01*
X0081709Y0065035D01*
X0081676Y0065190D01*
X0081646Y0065346D01*
X0081620Y0065502D01*
X0081599Y0065659D01*
X0081581Y0065816D01*
X0081567Y0065974D01*
X0081557Y0066132D01*
X0081551Y0066290D01*
X0081549Y0066448D01*
X0072100Y0066448D02*
X0072105Y0066067D01*
X0072118Y0065687D01*
X0072141Y0065307D01*
X0072174Y0064928D01*
X0072215Y0064550D01*
X0072265Y0064173D01*
X0072325Y0063797D01*
X0072393Y0063422D01*
X0072471Y0063050D01*
X0072558Y0062679D01*
X0072653Y0062311D01*
X0072758Y0061945D01*
X0072871Y0061582D01*
X0072993Y0061221D01*
X0073123Y0060864D01*
X0073263Y0060510D01*
X0073410Y0060159D01*
X0073567Y0059812D01*
X0073731Y0059469D01*
X0073904Y0059130D01*
X0074085Y0058795D01*
X0074274Y0058464D01*
X0074471Y0058139D01*
X0074675Y0057818D01*
X0074888Y0057502D01*
X0075108Y0057192D01*
X0075335Y0056886D01*
X0075570Y0056587D01*
X0075812Y0056293D01*
X0076060Y0056005D01*
X0076316Y0055723D01*
X0076579Y0055448D01*
X0076848Y0055179D01*
X0077123Y0054916D01*
X0077405Y0054660D01*
X0077693Y0054412D01*
X0077987Y0054170D01*
X0078286Y0053935D01*
X0078592Y0053708D01*
X0078902Y0053488D01*
X0079218Y0053275D01*
X0079539Y0053071D01*
X0079864Y0052874D01*
X0080195Y0052685D01*
X0080530Y0052504D01*
X0080869Y0052331D01*
X0081212Y0052167D01*
X0081559Y0052010D01*
X0081910Y0051863D01*
X0082264Y0051723D01*
X0082621Y0051593D01*
X0082982Y0051471D01*
X0083345Y0051358D01*
X0083711Y0051253D01*
X0084079Y0051158D01*
X0084450Y0051071D01*
X0084822Y0050993D01*
X0085197Y0050925D01*
X0085573Y0050865D01*
X0085950Y0050815D01*
X0086328Y0050774D01*
X0086707Y0050741D01*
X0087087Y0050718D01*
X0087467Y0050705D01*
X0087848Y0050700D01*
M02*
