G75*
%MOIN*%
%OFA0B0*%
%FSLAX25Y25*%
%IPPOS*%
%LPD*%
%AMOC8*
5,1,8,0,0,1.08239X$1,22.5*
%
%ADD10C,0.00500*%
%ADD11C,0.00200*%
%ADD12C,0.00300*%
%ADD13C,0.00600*%
%ADD14C,0.00400*%
%ADD15C,0.00000*%
D10*
X0221197Y0066527D02*
X0221197Y0071040D01*
X0221197Y0066527D02*
X0225134Y0066527D01*
X0229071Y0066527D02*
X0233008Y0066527D01*
X0236945Y0066527D02*
X0240882Y0066527D01*
X0244819Y0066527D02*
X0248756Y0066527D01*
X0252693Y0066527D02*
X0256630Y0066527D01*
X0260567Y0066527D02*
X0264504Y0066527D01*
X0268441Y0066527D02*
X0272378Y0066527D01*
X0272378Y0071040D01*
X0272378Y0074977D02*
X0272378Y0079489D01*
X0272378Y0083426D02*
X0272378Y0087939D01*
X0272378Y0091876D02*
X0272378Y0096388D01*
X0272378Y0100325D02*
X0272378Y0104837D01*
X0272378Y0108774D02*
X0272378Y0113287D01*
X0272378Y0117224D02*
X0272378Y0121736D01*
X0272378Y0125673D02*
X0272378Y0130186D01*
X0272378Y0134123D02*
X0272378Y0138635D01*
X0272378Y0142572D02*
X0272378Y0147084D01*
X0272378Y0151022D02*
X0272378Y0155534D01*
X0272378Y0159471D02*
X0272378Y0163983D01*
X0272378Y0167920D02*
X0272378Y0172433D01*
X0268441Y0172433D01*
X0264504Y0172433D02*
X0260567Y0172433D01*
X0256630Y0172433D02*
X0252693Y0172433D01*
X0248756Y0172433D02*
X0244819Y0172433D01*
X0240882Y0172433D02*
X0236945Y0172433D01*
X0233008Y0172433D02*
X0229071Y0172433D01*
X0225134Y0172433D02*
X0221197Y0172433D01*
X0221197Y0167920D01*
X0221197Y0163983D02*
X0221197Y0159471D01*
X0221197Y0155534D02*
X0221197Y0151022D01*
X0221197Y0147084D02*
X0221197Y0142572D01*
X0221197Y0138635D02*
X0221197Y0134123D01*
X0221197Y0130186D02*
X0221197Y0125673D01*
X0221197Y0121736D02*
X0221197Y0117224D01*
X0221197Y0113287D02*
X0221197Y0108774D01*
X0221197Y0104837D02*
X0221197Y0100325D01*
X0221197Y0096388D02*
X0221197Y0091876D01*
X0221197Y0087939D02*
X0221197Y0083426D01*
X0221197Y0079489D02*
X0221197Y0074977D01*
D11*
X0226482Y0082278D02*
X0225014Y0084480D01*
X0227224Y0083379D02*
X0227224Y0082278D01*
X0227224Y0083379D02*
X0227591Y0083746D01*
X0228692Y0083746D01*
X0228692Y0082278D01*
X0229434Y0082278D02*
X0230535Y0082278D01*
X0230902Y0082645D01*
X0230902Y0083379D01*
X0230535Y0083746D01*
X0229434Y0083746D01*
X0231640Y0082645D02*
X0231640Y0082278D01*
X0232007Y0082278D01*
X0232007Y0082645D01*
X0231640Y0082645D01*
X0232749Y0082645D02*
X0232749Y0083379D01*
X0233116Y0083746D01*
X0233850Y0083746D01*
X0234217Y0083379D01*
X0234217Y0082645D01*
X0233850Y0082278D01*
X0233116Y0082278D01*
X0232749Y0082645D01*
X0234959Y0083012D02*
X0236060Y0083012D01*
X0236427Y0082645D01*
X0236060Y0082278D01*
X0234959Y0082278D01*
X0234959Y0083379D01*
X0235326Y0083746D01*
X0236060Y0083746D01*
X0237169Y0083379D02*
X0237169Y0082278D01*
X0237903Y0082278D02*
X0237903Y0083379D01*
X0237536Y0083746D01*
X0237169Y0083379D01*
X0237903Y0083379D02*
X0238270Y0083746D01*
X0238636Y0083746D01*
X0238636Y0082278D01*
X0239378Y0082278D02*
X0240479Y0082278D01*
X0240846Y0082645D01*
X0240479Y0083012D01*
X0239378Y0083012D01*
X0239378Y0083379D02*
X0239378Y0082278D01*
X0239378Y0083379D02*
X0239745Y0083746D01*
X0240479Y0083746D01*
X0241588Y0083746D02*
X0241588Y0082278D01*
X0242689Y0082278D01*
X0243056Y0082645D01*
X0243056Y0083746D01*
X0243798Y0083379D02*
X0243798Y0082278D01*
X0243798Y0083379D02*
X0244165Y0083746D01*
X0244899Y0083746D01*
X0245266Y0083379D01*
X0246008Y0083379D02*
X0246008Y0082278D01*
X0245266Y0082278D02*
X0245266Y0084480D01*
X0246008Y0083379D02*
X0246375Y0083746D01*
X0247476Y0083746D01*
X0247476Y0082278D01*
X0248215Y0081911D02*
X0248215Y0083746D01*
X0248215Y0084480D02*
X0248215Y0084847D01*
X0249687Y0082645D02*
X0249687Y0082278D01*
X0250054Y0082278D01*
X0250054Y0082645D01*
X0249687Y0082645D01*
X0250796Y0082645D02*
X0250796Y0083746D01*
X0250796Y0082645D02*
X0251163Y0082278D01*
X0251530Y0082645D01*
X0251897Y0082278D01*
X0252264Y0082645D01*
X0252264Y0083746D01*
X0253006Y0083746D02*
X0253006Y0082645D01*
X0253373Y0082278D01*
X0253740Y0082645D01*
X0254107Y0082278D01*
X0254474Y0082645D01*
X0254474Y0083746D01*
X0255216Y0083746D02*
X0255216Y0082645D01*
X0255583Y0082278D01*
X0255950Y0082645D01*
X0256317Y0082278D01*
X0256684Y0082645D01*
X0256684Y0083746D01*
X0257426Y0084480D02*
X0258894Y0082278D01*
X0261104Y0082278D02*
X0259636Y0084480D01*
X0261842Y0083746D02*
X0261842Y0083379D01*
X0262209Y0083379D01*
X0262209Y0083746D01*
X0261842Y0083746D01*
X0261842Y0082645D02*
X0261842Y0082278D01*
X0262209Y0082278D01*
X0262209Y0082645D01*
X0261842Y0082645D01*
X0262950Y0082645D02*
X0263317Y0082278D01*
X0264418Y0082278D01*
X0264418Y0081544D02*
X0264418Y0083746D01*
X0263317Y0083746D01*
X0262950Y0083379D01*
X0262950Y0082645D01*
X0265158Y0082278D02*
X0265525Y0082645D01*
X0265525Y0084113D01*
X0265892Y0083746D02*
X0265158Y0083746D01*
X0266631Y0083746D02*
X0267365Y0083746D01*
X0266998Y0084113D02*
X0266998Y0082645D01*
X0266631Y0082278D01*
X0268107Y0082278D02*
X0268107Y0083379D01*
X0268474Y0083746D01*
X0269208Y0083746D01*
X0269575Y0083379D01*
X0269575Y0084480D02*
X0269575Y0082278D01*
X0248949Y0081544D02*
X0248582Y0081544D01*
X0248215Y0081911D01*
X0171002Y0081900D02*
X0171002Y0083051D01*
X0170618Y0083435D01*
X0169851Y0083435D01*
X0169467Y0083051D01*
X0169467Y0081900D01*
X0168700Y0081900D02*
X0171002Y0081900D01*
X0169467Y0082667D02*
X0168700Y0083435D01*
X0168700Y0084202D02*
X0168700Y0085737D01*
X0168700Y0084969D02*
X0171002Y0084969D01*
X0170235Y0084202D01*
X0170618Y0086504D02*
X0171002Y0086888D01*
X0171002Y0087655D01*
X0170618Y0088039D01*
X0170235Y0088039D01*
X0169851Y0087655D01*
X0169467Y0088039D01*
X0169084Y0088039D01*
X0168700Y0087655D01*
X0168700Y0086888D01*
X0169084Y0086504D01*
X0169851Y0087271D02*
X0169851Y0087655D01*
X0223858Y0164182D02*
X0223599Y0164631D01*
X0223884Y0165695D01*
X0226011Y0165125D01*
X0225726Y0164061D01*
X0225276Y0163802D01*
X0223858Y0164182D01*
X0224076Y0166411D02*
X0226203Y0165841D01*
X0224456Y0167829D01*
X0226583Y0167259D01*
X0226420Y0168071D02*
X0225711Y0168261D01*
X0225901Y0168970D01*
X0225002Y0168451D02*
X0224743Y0168900D01*
X0224933Y0169609D01*
X0225382Y0169869D01*
X0226800Y0169489D01*
X0227060Y0169040D01*
X0226870Y0168331D01*
X0226420Y0168071D01*
X0266655Y0168516D02*
X0266915Y0168965D01*
X0268333Y0169345D01*
X0268782Y0169086D01*
X0269067Y0168022D01*
X0266940Y0167453D01*
X0266655Y0168516D01*
X0267132Y0166736D02*
X0269259Y0167306D01*
X0269639Y0165888D02*
X0267132Y0166736D01*
X0267512Y0165318D02*
X0269639Y0165888D01*
X0269476Y0165076D02*
X0269926Y0164817D01*
X0270116Y0164108D01*
X0269856Y0163658D01*
X0268438Y0163278D01*
X0267989Y0163538D01*
X0267799Y0164247D01*
X0268059Y0164696D01*
X0268768Y0164886D01*
X0268957Y0164177D01*
X0266210Y0215000D02*
X0226210Y0215000D01*
D12*
X0267710Y0218550D02*
X0267710Y0219284D01*
X0267710Y0218917D02*
X0269912Y0218917D01*
X0269912Y0218550D02*
X0269912Y0219284D01*
X0269545Y0220085D02*
X0268077Y0220085D01*
X0267710Y0220452D01*
X0267710Y0221186D01*
X0268077Y0221553D01*
X0267710Y0222387D02*
X0267710Y0223854D01*
X0267710Y0223121D02*
X0269912Y0223121D01*
X0269178Y0222387D01*
X0269545Y0221553D02*
X0269912Y0221186D01*
X0269912Y0220452D01*
X0269545Y0220085D01*
X0261552Y0167437D02*
X0261552Y0165502D01*
X0262520Y0166470D02*
X0260585Y0166470D01*
X0260585Y0164491D02*
X0262520Y0164491D01*
X0263003Y0164007D01*
X0263003Y0162556D01*
X0260101Y0162556D01*
X0260101Y0164007D01*
X0260585Y0164491D01*
X0261413Y0160893D02*
X0261413Y0160409D01*
X0260446Y0159442D01*
X0260446Y0157991D01*
X0260446Y0159442D02*
X0259478Y0160409D01*
X0259478Y0160893D01*
X0262425Y0160893D02*
X0264360Y0160893D01*
X0264360Y0157991D01*
X0262425Y0157991D01*
X0263393Y0159442D02*
X0264360Y0159442D01*
X0265372Y0160893D02*
X0267307Y0158958D01*
X0266823Y0159442D02*
X0265372Y0157991D01*
X0267307Y0157991D02*
X0267307Y0160893D01*
X0267307Y0154988D02*
X0267307Y0152085D01*
X0265372Y0152085D01*
X0264360Y0152085D02*
X0262425Y0152085D01*
X0261413Y0152085D02*
X0259962Y0152085D01*
X0259478Y0152569D01*
X0259478Y0154504D01*
X0259962Y0154988D01*
X0261413Y0154988D01*
X0261413Y0152085D01*
X0263393Y0153536D02*
X0264360Y0153536D01*
X0264360Y0152085D02*
X0264360Y0154988D01*
X0262425Y0154988D01*
X0261912Y0149082D02*
X0262396Y0148598D01*
X0261912Y0149082D02*
X0260944Y0149082D01*
X0260461Y0148598D01*
X0260461Y0148115D01*
X0262396Y0146180D01*
X0260461Y0146180D01*
X0263407Y0146663D02*
X0263407Y0148598D01*
X0263891Y0149082D01*
X0264858Y0149082D01*
X0265342Y0148598D01*
X0265342Y0146663D01*
X0264858Y0146180D01*
X0263891Y0146180D01*
X0263407Y0146663D01*
X0266339Y0146180D02*
X0267307Y0146180D01*
X0266823Y0146180D02*
X0266823Y0149082D01*
X0267307Y0149082D02*
X0266339Y0149082D01*
X0266339Y0143177D02*
X0267307Y0143177D01*
X0266823Y0143177D02*
X0266823Y0140274D01*
X0267307Y0140274D02*
X0266339Y0140274D01*
X0265342Y0140758D02*
X0264858Y0140274D01*
X0263891Y0140274D01*
X0263407Y0140758D01*
X0263407Y0142693D01*
X0263891Y0143177D01*
X0264858Y0143177D01*
X0265342Y0142693D01*
X0265342Y0140758D01*
X0262396Y0140758D02*
X0261912Y0140274D01*
X0260944Y0140274D01*
X0260461Y0140758D01*
X0260461Y0141242D01*
X0260944Y0141725D01*
X0261428Y0141725D01*
X0260944Y0141725D02*
X0260461Y0142209D01*
X0260461Y0142693D01*
X0260944Y0143177D01*
X0261912Y0143177D01*
X0262396Y0142693D01*
X0260944Y0137271D02*
X0262396Y0135820D01*
X0260461Y0135820D01*
X0260944Y0134369D02*
X0260944Y0137271D01*
X0263407Y0136787D02*
X0263891Y0137271D01*
X0264858Y0137271D01*
X0265342Y0136787D01*
X0265342Y0134852D01*
X0264858Y0134369D01*
X0263891Y0134369D01*
X0263407Y0134852D01*
X0263407Y0136787D01*
X0266339Y0137271D02*
X0267307Y0137271D01*
X0266823Y0137271D02*
X0266823Y0134369D01*
X0267307Y0134369D02*
X0266339Y0134369D01*
X0266339Y0131366D02*
X0267307Y0131366D01*
X0266823Y0131366D02*
X0266823Y0128463D01*
X0267307Y0128463D02*
X0266339Y0128463D01*
X0265342Y0128947D02*
X0264858Y0128463D01*
X0263891Y0128463D01*
X0263407Y0128947D01*
X0263407Y0130882D01*
X0263891Y0131366D01*
X0264858Y0131366D01*
X0265342Y0130882D01*
X0265342Y0128947D01*
X0262396Y0128947D02*
X0261912Y0128463D01*
X0260944Y0128463D01*
X0260461Y0128947D01*
X0260461Y0129914D01*
X0260944Y0130398D01*
X0261428Y0130398D01*
X0262396Y0129914D01*
X0262396Y0131366D01*
X0260461Y0131366D01*
X0260461Y0125460D02*
X0261428Y0124976D01*
X0262396Y0124009D01*
X0260944Y0124009D01*
X0260461Y0123525D01*
X0260461Y0123041D01*
X0260944Y0122558D01*
X0261912Y0122558D01*
X0262396Y0123041D01*
X0262396Y0124009D01*
X0263407Y0123041D02*
X0263407Y0124976D01*
X0263891Y0125460D01*
X0264858Y0125460D01*
X0265342Y0124976D01*
X0265342Y0123041D01*
X0264858Y0122558D01*
X0263891Y0122558D01*
X0263407Y0123041D01*
X0266339Y0122558D02*
X0267307Y0122558D01*
X0266823Y0122558D02*
X0266823Y0125460D01*
X0267307Y0125460D02*
X0266339Y0125460D01*
X0266339Y0119555D02*
X0267307Y0119555D01*
X0266823Y0119555D02*
X0266823Y0116652D01*
X0267307Y0116652D02*
X0266339Y0116652D01*
X0265342Y0117136D02*
X0264858Y0116652D01*
X0263891Y0116652D01*
X0263407Y0117136D01*
X0263407Y0119071D01*
X0263891Y0119555D01*
X0264858Y0119555D01*
X0265342Y0119071D01*
X0265342Y0117136D01*
X0262396Y0117136D02*
X0260461Y0119071D01*
X0260461Y0119555D01*
X0262396Y0119555D01*
X0262396Y0117136D02*
X0262396Y0116652D01*
X0261912Y0113649D02*
X0260944Y0113649D01*
X0260461Y0113165D01*
X0260461Y0112682D01*
X0260944Y0112198D01*
X0261912Y0112198D01*
X0262396Y0112682D01*
X0262396Y0113165D01*
X0261912Y0113649D01*
X0261912Y0112198D02*
X0262396Y0111714D01*
X0262396Y0111230D01*
X0261912Y0110747D01*
X0260944Y0110747D01*
X0260461Y0111230D01*
X0260461Y0111714D01*
X0260944Y0112198D01*
X0263407Y0111230D02*
X0263407Y0113165D01*
X0263891Y0113649D01*
X0264858Y0113649D01*
X0265342Y0113165D01*
X0265342Y0111230D01*
X0264858Y0110747D01*
X0263891Y0110747D01*
X0263407Y0111230D01*
X0266339Y0110747D02*
X0267307Y0110747D01*
X0266823Y0110747D02*
X0266823Y0113649D01*
X0267307Y0113649D02*
X0266339Y0113649D01*
X0266339Y0107744D02*
X0267307Y0107744D01*
X0266823Y0107744D02*
X0266823Y0104841D01*
X0267307Y0104841D02*
X0266339Y0104841D01*
X0265342Y0105325D02*
X0264858Y0104841D01*
X0263891Y0104841D01*
X0263407Y0105325D01*
X0263407Y0107260D01*
X0263891Y0107744D01*
X0264858Y0107744D01*
X0265342Y0107260D01*
X0265342Y0105325D01*
X0262396Y0105325D02*
X0261912Y0104841D01*
X0260944Y0104841D01*
X0260461Y0105325D01*
X0260461Y0107260D01*
X0260944Y0107744D01*
X0261912Y0107744D01*
X0262396Y0107260D01*
X0262396Y0106776D01*
X0261912Y0106292D01*
X0260461Y0106292D01*
X0261428Y0101838D02*
X0261428Y0098936D01*
X0260461Y0098936D02*
X0262396Y0098936D01*
X0263407Y0099419D02*
X0263407Y0101354D01*
X0263891Y0101838D01*
X0264858Y0101838D01*
X0265342Y0101354D01*
X0265342Y0099419D01*
X0264858Y0098936D01*
X0263891Y0098936D01*
X0263407Y0099419D01*
X0262396Y0100871D02*
X0261428Y0101838D01*
X0259449Y0101354D02*
X0259449Y0099419D01*
X0257514Y0101354D01*
X0257514Y0099419D01*
X0257998Y0098936D01*
X0258965Y0098936D01*
X0259449Y0099419D01*
X0259449Y0101354D02*
X0258965Y0101838D01*
X0257998Y0101838D01*
X0257514Y0101354D01*
X0258482Y0095932D02*
X0258482Y0093030D01*
X0259449Y0093030D02*
X0257514Y0093030D01*
X0259449Y0094965D02*
X0258482Y0095932D01*
X0261428Y0095932D02*
X0261428Y0093030D01*
X0260461Y0093030D02*
X0262396Y0093030D01*
X0263407Y0093514D02*
X0263407Y0095449D01*
X0263891Y0095932D01*
X0264858Y0095932D01*
X0265342Y0095449D01*
X0265342Y0093514D01*
X0264858Y0093030D01*
X0263891Y0093030D01*
X0263407Y0093514D01*
X0262396Y0094965D02*
X0261428Y0095932D01*
X0266339Y0095932D02*
X0267307Y0095932D01*
X0266823Y0095932D02*
X0266823Y0093030D01*
X0267307Y0093030D02*
X0266339Y0093030D01*
X0266339Y0098936D02*
X0267307Y0098936D01*
X0266823Y0098936D02*
X0266823Y0101838D01*
X0267307Y0101838D02*
X0266339Y0101838D01*
X0234807Y0105325D02*
X0234324Y0104841D01*
X0233356Y0104841D01*
X0232873Y0105325D01*
X0234807Y0105325D02*
X0234807Y0107260D01*
X0234324Y0107744D01*
X0233356Y0107744D01*
X0232873Y0107260D01*
X0231861Y0107744D02*
X0229926Y0107744D01*
X0230893Y0107744D02*
X0230893Y0104841D01*
X0228914Y0105325D02*
X0228431Y0104841D01*
X0227463Y0104841D01*
X0226979Y0105325D01*
X0226979Y0105809D01*
X0227463Y0106292D01*
X0228431Y0106292D01*
X0228914Y0106776D01*
X0228914Y0107260D01*
X0228431Y0107744D01*
X0227463Y0107744D01*
X0226979Y0107260D01*
X0227463Y0110747D02*
X0228431Y0110747D01*
X0228914Y0111230D01*
X0228431Y0112198D02*
X0227463Y0112198D01*
X0226979Y0111714D01*
X0226979Y0111230D01*
X0227463Y0110747D01*
X0228431Y0112198D02*
X0228914Y0112682D01*
X0228914Y0113165D01*
X0228431Y0113649D01*
X0227463Y0113649D01*
X0226979Y0113165D01*
X0229926Y0113649D02*
X0231861Y0113649D01*
X0230893Y0113649D02*
X0230893Y0110747D01*
X0232873Y0110747D02*
X0233840Y0111714D01*
X0233356Y0111714D02*
X0234807Y0111714D01*
X0234807Y0110747D02*
X0234807Y0113649D01*
X0233356Y0113649D01*
X0232873Y0113165D01*
X0232873Y0112198D01*
X0233356Y0111714D01*
X0231861Y0101838D02*
X0230410Y0101838D01*
X0229926Y0101354D01*
X0229926Y0100387D01*
X0230410Y0099903D01*
X0231861Y0099903D01*
X0231861Y0098936D02*
X0231861Y0101838D01*
X0230893Y0099903D02*
X0229926Y0098936D01*
X0228914Y0098936D02*
X0226979Y0101838D01*
X0228914Y0101838D02*
X0226979Y0098936D01*
X0226979Y0095932D02*
X0228914Y0093030D01*
X0226979Y0093030D02*
X0228914Y0095932D01*
X0229926Y0095932D02*
X0231861Y0095932D01*
X0230893Y0095932D02*
X0230893Y0093030D01*
X0230410Y0152085D02*
X0231377Y0152085D01*
X0231861Y0152569D01*
X0231377Y0153536D02*
X0230410Y0153536D01*
X0229926Y0153053D01*
X0229926Y0152569D01*
X0230410Y0152085D01*
X0231377Y0153536D02*
X0231861Y0154020D01*
X0231861Y0154504D01*
X0231377Y0154988D01*
X0230410Y0154988D01*
X0229926Y0154504D01*
X0228914Y0154988D02*
X0226979Y0154988D01*
X0227947Y0154988D02*
X0227947Y0152085D01*
X0232873Y0152085D02*
X0233840Y0153053D01*
X0233356Y0153053D02*
X0234807Y0153053D01*
X0234807Y0152085D02*
X0234807Y0154988D01*
X0233356Y0154988D01*
X0232873Y0154504D01*
X0232873Y0153536D01*
X0233356Y0153053D01*
X0233334Y0157991D02*
X0232850Y0157991D01*
X0232850Y0158474D01*
X0233334Y0158474D01*
X0233334Y0157991D01*
X0234346Y0158474D02*
X0234830Y0157991D01*
X0235797Y0157991D01*
X0236281Y0158474D01*
X0235313Y0159442D02*
X0234830Y0159442D01*
X0234346Y0158958D01*
X0234346Y0158474D01*
X0234830Y0159442D02*
X0234346Y0159926D01*
X0234346Y0160409D01*
X0234830Y0160893D01*
X0235797Y0160893D01*
X0236281Y0160409D01*
X0237292Y0159442D02*
X0239227Y0159442D01*
X0238260Y0160409D02*
X0238260Y0158474D01*
X0233476Y0162556D02*
X0230573Y0162556D01*
X0230573Y0164007D01*
X0231057Y0164491D01*
X0232992Y0164491D01*
X0233476Y0164007D01*
X0233476Y0162556D01*
X0231377Y0160893D02*
X0230410Y0160893D01*
X0229926Y0160409D01*
X0229926Y0159926D01*
X0230410Y0159442D01*
X0229926Y0158958D01*
X0229926Y0158474D01*
X0230410Y0157991D01*
X0231377Y0157991D01*
X0231861Y0158474D01*
X0230893Y0159442D02*
X0230410Y0159442D01*
X0228914Y0158958D02*
X0227947Y0157991D01*
X0226979Y0158958D01*
X0226979Y0160893D01*
X0228914Y0160893D02*
X0228914Y0158958D01*
X0231377Y0160893D02*
X0231861Y0160409D01*
X0232025Y0165502D02*
X0232025Y0167437D01*
D13*
X0227710Y0213600D02*
X0264710Y0213600D01*
X0264786Y0213602D01*
X0264862Y0213608D01*
X0264937Y0213617D01*
X0265012Y0213631D01*
X0265086Y0213648D01*
X0265159Y0213669D01*
X0265231Y0213693D01*
X0265302Y0213722D01*
X0265371Y0213753D01*
X0265438Y0213788D01*
X0265503Y0213827D01*
X0265567Y0213869D01*
X0265628Y0213914D01*
X0265687Y0213962D01*
X0265743Y0214013D01*
X0265797Y0214067D01*
X0265848Y0214123D01*
X0265896Y0214182D01*
X0265941Y0214243D01*
X0265983Y0214307D01*
X0266022Y0214372D01*
X0266057Y0214439D01*
X0266088Y0214508D01*
X0266117Y0214579D01*
X0266141Y0214651D01*
X0266162Y0214724D01*
X0266179Y0214798D01*
X0266193Y0214873D01*
X0266202Y0214948D01*
X0266208Y0215024D01*
X0266210Y0215100D01*
X0266210Y0219300D01*
X0266210Y0223300D01*
X0266210Y0227500D01*
X0266208Y0227576D01*
X0266202Y0227652D01*
X0266193Y0227727D01*
X0266179Y0227802D01*
X0266162Y0227876D01*
X0266141Y0227949D01*
X0266117Y0228021D01*
X0266088Y0228092D01*
X0266057Y0228161D01*
X0266022Y0228228D01*
X0265983Y0228293D01*
X0265941Y0228357D01*
X0265896Y0228418D01*
X0265848Y0228477D01*
X0265797Y0228533D01*
X0265743Y0228587D01*
X0265687Y0228638D01*
X0265628Y0228686D01*
X0265567Y0228731D01*
X0265503Y0228773D01*
X0265438Y0228812D01*
X0265371Y0228847D01*
X0265302Y0228878D01*
X0265231Y0228907D01*
X0265159Y0228931D01*
X0265086Y0228952D01*
X0265012Y0228969D01*
X0264937Y0228983D01*
X0264862Y0228992D01*
X0264786Y0228998D01*
X0264710Y0229000D01*
X0227710Y0229000D01*
X0227634Y0228998D01*
X0227558Y0228992D01*
X0227483Y0228983D01*
X0227408Y0228969D01*
X0227334Y0228952D01*
X0227261Y0228931D01*
X0227189Y0228907D01*
X0227118Y0228878D01*
X0227049Y0228847D01*
X0226982Y0228812D01*
X0226917Y0228773D01*
X0226853Y0228731D01*
X0226792Y0228686D01*
X0226733Y0228638D01*
X0226677Y0228587D01*
X0226623Y0228533D01*
X0226572Y0228477D01*
X0226524Y0228418D01*
X0226479Y0228357D01*
X0226437Y0228293D01*
X0226398Y0228228D01*
X0226363Y0228161D01*
X0226332Y0228092D01*
X0226303Y0228021D01*
X0226279Y0227949D01*
X0226258Y0227876D01*
X0226241Y0227802D01*
X0226227Y0227727D01*
X0226218Y0227652D01*
X0226212Y0227576D01*
X0226210Y0227500D01*
X0226210Y0215100D01*
X0226212Y0215024D01*
X0226218Y0214948D01*
X0226227Y0214873D01*
X0226241Y0214798D01*
X0226258Y0214724D01*
X0226279Y0214651D01*
X0226303Y0214579D01*
X0226332Y0214508D01*
X0226363Y0214439D01*
X0226398Y0214372D01*
X0226437Y0214307D01*
X0226479Y0214243D01*
X0226524Y0214182D01*
X0226572Y0214123D01*
X0226623Y0214067D01*
X0226677Y0214013D01*
X0226733Y0213962D01*
X0226792Y0213914D01*
X0226853Y0213869D01*
X0226917Y0213827D01*
X0226982Y0213788D01*
X0227049Y0213753D01*
X0227118Y0213722D01*
X0227189Y0213693D01*
X0227261Y0213669D01*
X0227334Y0213648D01*
X0227408Y0213631D01*
X0227483Y0213617D01*
X0227558Y0213608D01*
X0227634Y0213602D01*
X0227710Y0213600D01*
X0266210Y0219300D02*
X0266122Y0219302D01*
X0266033Y0219308D01*
X0265945Y0219318D01*
X0265858Y0219331D01*
X0265771Y0219349D01*
X0265685Y0219370D01*
X0265600Y0219395D01*
X0265517Y0219424D01*
X0265434Y0219457D01*
X0265354Y0219493D01*
X0265275Y0219532D01*
X0265197Y0219575D01*
X0265122Y0219622D01*
X0265049Y0219672D01*
X0264978Y0219725D01*
X0264909Y0219781D01*
X0264843Y0219840D01*
X0264780Y0219902D01*
X0264720Y0219966D01*
X0264662Y0220033D01*
X0264608Y0220103D01*
X0264556Y0220175D01*
X0264508Y0220249D01*
X0264463Y0220326D01*
X0264422Y0220404D01*
X0264384Y0220484D01*
X0264350Y0220565D01*
X0264319Y0220648D01*
X0264292Y0220733D01*
X0264269Y0220818D01*
X0264250Y0220904D01*
X0264234Y0220992D01*
X0264222Y0221079D01*
X0264214Y0221167D01*
X0264210Y0221256D01*
X0264210Y0221344D01*
X0264214Y0221433D01*
X0264222Y0221521D01*
X0264234Y0221608D01*
X0264250Y0221696D01*
X0264269Y0221782D01*
X0264292Y0221867D01*
X0264319Y0221952D01*
X0264350Y0222035D01*
X0264384Y0222116D01*
X0264422Y0222196D01*
X0264463Y0222274D01*
X0264508Y0222351D01*
X0264556Y0222425D01*
X0264608Y0222497D01*
X0264662Y0222567D01*
X0264720Y0222634D01*
X0264780Y0222698D01*
X0264843Y0222760D01*
X0264909Y0222819D01*
X0264978Y0222875D01*
X0265049Y0222928D01*
X0265122Y0222978D01*
X0265197Y0223025D01*
X0265275Y0223068D01*
X0265354Y0223107D01*
X0265434Y0223143D01*
X0265517Y0223176D01*
X0265600Y0223205D01*
X0265685Y0223230D01*
X0265771Y0223251D01*
X0265858Y0223269D01*
X0265945Y0223282D01*
X0266033Y0223292D01*
X0266122Y0223298D01*
X0266210Y0223300D01*
X0262837Y0080678D02*
X0262837Y0074272D01*
X0262837Y0077475D02*
X0258567Y0077475D01*
X0258567Y0080678D02*
X0258567Y0074272D01*
X0256392Y0074272D02*
X0256392Y0080678D01*
X0254257Y0078542D01*
X0252121Y0080678D01*
X0252121Y0074272D01*
X0249946Y0077475D02*
X0245676Y0077475D01*
X0243501Y0078542D02*
X0241366Y0080678D01*
X0241366Y0074272D01*
X0243501Y0074272D02*
X0239230Y0074272D01*
X0237055Y0075340D02*
X0232785Y0079610D01*
X0232785Y0075340D01*
X0233852Y0074272D01*
X0235988Y0074272D01*
X0237055Y0075340D01*
X0237055Y0079610D01*
X0235988Y0080678D01*
X0233852Y0080678D01*
X0232785Y0079610D01*
D14*
X0244940Y0155472D02*
X0244940Y0158541D01*
X0244940Y0160076D02*
X0244940Y0163145D01*
X0244940Y0161611D02*
X0249544Y0161611D01*
X0248009Y0160076D01*
X0249544Y0158541D02*
X0249544Y0155472D01*
X0244940Y0155472D01*
X0247242Y0155472D02*
X0247242Y0157007D01*
D15*
X0351628Y0050700D02*
X0087848Y0050700D01*
X0081549Y0066448D02*
X0081551Y0066606D01*
X0081557Y0066764D01*
X0081567Y0066922D01*
X0081581Y0067080D01*
X0081599Y0067237D01*
X0081620Y0067394D01*
X0081646Y0067550D01*
X0081676Y0067706D01*
X0081709Y0067861D01*
X0081747Y0068014D01*
X0081788Y0068167D01*
X0081833Y0068319D01*
X0081882Y0068470D01*
X0081935Y0068619D01*
X0081991Y0068767D01*
X0082051Y0068913D01*
X0082115Y0069058D01*
X0082183Y0069201D01*
X0082254Y0069343D01*
X0082328Y0069483D01*
X0082406Y0069620D01*
X0082488Y0069756D01*
X0082572Y0069890D01*
X0082661Y0070021D01*
X0082752Y0070150D01*
X0082847Y0070277D01*
X0082944Y0070402D01*
X0083045Y0070524D01*
X0083149Y0070643D01*
X0083256Y0070760D01*
X0083366Y0070874D01*
X0083479Y0070985D01*
X0083594Y0071094D01*
X0083712Y0071199D01*
X0083833Y0071301D01*
X0083956Y0071401D01*
X0084082Y0071497D01*
X0084210Y0071590D01*
X0084340Y0071680D01*
X0084473Y0071766D01*
X0084608Y0071850D01*
X0084744Y0071929D01*
X0084883Y0072006D01*
X0085024Y0072078D01*
X0085166Y0072148D01*
X0085310Y0072213D01*
X0085456Y0072275D01*
X0085603Y0072333D01*
X0085752Y0072388D01*
X0085902Y0072439D01*
X0086053Y0072486D01*
X0086205Y0072529D01*
X0086358Y0072568D01*
X0086513Y0072604D01*
X0086668Y0072635D01*
X0086824Y0072663D01*
X0086980Y0072687D01*
X0087137Y0072707D01*
X0087295Y0072723D01*
X0087452Y0072735D01*
X0087611Y0072743D01*
X0087769Y0072747D01*
X0087927Y0072747D01*
X0088085Y0072743D01*
X0088244Y0072735D01*
X0088401Y0072723D01*
X0088559Y0072707D01*
X0088716Y0072687D01*
X0088872Y0072663D01*
X0089028Y0072635D01*
X0089183Y0072604D01*
X0089338Y0072568D01*
X0089491Y0072529D01*
X0089643Y0072486D01*
X0089794Y0072439D01*
X0089944Y0072388D01*
X0090093Y0072333D01*
X0090240Y0072275D01*
X0090386Y0072213D01*
X0090530Y0072148D01*
X0090672Y0072078D01*
X0090813Y0072006D01*
X0090952Y0071929D01*
X0091088Y0071850D01*
X0091223Y0071766D01*
X0091356Y0071680D01*
X0091486Y0071590D01*
X0091614Y0071497D01*
X0091740Y0071401D01*
X0091863Y0071301D01*
X0091984Y0071199D01*
X0092102Y0071094D01*
X0092217Y0070985D01*
X0092330Y0070874D01*
X0092440Y0070760D01*
X0092547Y0070643D01*
X0092651Y0070524D01*
X0092752Y0070402D01*
X0092849Y0070277D01*
X0092944Y0070150D01*
X0093035Y0070021D01*
X0093124Y0069890D01*
X0093208Y0069756D01*
X0093290Y0069620D01*
X0093368Y0069483D01*
X0093442Y0069343D01*
X0093513Y0069201D01*
X0093581Y0069058D01*
X0093645Y0068913D01*
X0093705Y0068767D01*
X0093761Y0068619D01*
X0093814Y0068470D01*
X0093863Y0068319D01*
X0093908Y0068167D01*
X0093949Y0068014D01*
X0093987Y0067861D01*
X0094020Y0067706D01*
X0094050Y0067550D01*
X0094076Y0067394D01*
X0094097Y0067237D01*
X0094115Y0067080D01*
X0094129Y0066922D01*
X0094139Y0066764D01*
X0094145Y0066606D01*
X0094147Y0066448D01*
X0094145Y0066290D01*
X0094139Y0066132D01*
X0094129Y0065974D01*
X0094115Y0065816D01*
X0094097Y0065659D01*
X0094076Y0065502D01*
X0094050Y0065346D01*
X0094020Y0065190D01*
X0093987Y0065035D01*
X0093949Y0064882D01*
X0093908Y0064729D01*
X0093863Y0064577D01*
X0093814Y0064426D01*
X0093761Y0064277D01*
X0093705Y0064129D01*
X0093645Y0063983D01*
X0093581Y0063838D01*
X0093513Y0063695D01*
X0093442Y0063553D01*
X0093368Y0063413D01*
X0093290Y0063276D01*
X0093208Y0063140D01*
X0093124Y0063006D01*
X0093035Y0062875D01*
X0092944Y0062746D01*
X0092849Y0062619D01*
X0092752Y0062494D01*
X0092651Y0062372D01*
X0092547Y0062253D01*
X0092440Y0062136D01*
X0092330Y0062022D01*
X0092217Y0061911D01*
X0092102Y0061802D01*
X0091984Y0061697D01*
X0091863Y0061595D01*
X0091740Y0061495D01*
X0091614Y0061399D01*
X0091486Y0061306D01*
X0091356Y0061216D01*
X0091223Y0061130D01*
X0091088Y0061046D01*
X0090952Y0060967D01*
X0090813Y0060890D01*
X0090672Y0060818D01*
X0090530Y0060748D01*
X0090386Y0060683D01*
X0090240Y0060621D01*
X0090093Y0060563D01*
X0089944Y0060508D01*
X0089794Y0060457D01*
X0089643Y0060410D01*
X0089491Y0060367D01*
X0089338Y0060328D01*
X0089183Y0060292D01*
X0089028Y0060261D01*
X0088872Y0060233D01*
X0088716Y0060209D01*
X0088559Y0060189D01*
X0088401Y0060173D01*
X0088244Y0060161D01*
X0088085Y0060153D01*
X0087927Y0060149D01*
X0087769Y0060149D01*
X0087611Y0060153D01*
X0087452Y0060161D01*
X0087295Y0060173D01*
X0087137Y0060189D01*
X0086980Y0060209D01*
X0086824Y0060233D01*
X0086668Y0060261D01*
X0086513Y0060292D01*
X0086358Y0060328D01*
X0086205Y0060367D01*
X0086053Y0060410D01*
X0085902Y0060457D01*
X0085752Y0060508D01*
X0085603Y0060563D01*
X0085456Y0060621D01*
X0085310Y0060683D01*
X0085166Y0060748D01*
X0085024Y0060818D01*
X0084883Y0060890D01*
X0084744Y0060967D01*
X0084608Y0061046D01*
X0084473Y0061130D01*
X0084340Y0061216D01*
X0084210Y0061306D01*
X0084082Y0061399D01*
X0083956Y0061495D01*
X0083833Y0061595D01*
X0083712Y0061697D01*
X0083594Y0061802D01*
X0083479Y0061911D01*
X0083366Y0062022D01*
X0083256Y0062136D01*
X0083149Y0062253D01*
X0083045Y0062372D01*
X0082944Y0062494D01*
X0082847Y0062619D01*
X0082752Y0062746D01*
X0082661Y0062875D01*
X0082572Y0063006D01*
X0082488Y0063140D01*
X0082406Y0063276D01*
X0082328Y0063413D01*
X0082254Y0063553D01*
X0082183Y0063695D01*
X0082115Y0063838D01*
X0082051Y0063983D01*
X0081991Y0064129D01*
X0081935Y0064277D01*
X0081882Y0064426D01*
X0081833Y0064577D01*
X0081788Y0064729D01*
X0081747Y0064882D01*
X0081709Y0065035D01*
X0081676Y0065190D01*
X0081646Y0065346D01*
X0081620Y0065502D01*
X0081599Y0065659D01*
X0081581Y0065816D01*
X0081567Y0065974D01*
X0081557Y0066132D01*
X0081551Y0066290D01*
X0081549Y0066448D01*
X0072100Y0066448D02*
X0072105Y0066067D01*
X0072118Y0065687D01*
X0072141Y0065307D01*
X0072174Y0064928D01*
X0072215Y0064550D01*
X0072265Y0064173D01*
X0072325Y0063797D01*
X0072393Y0063422D01*
X0072471Y0063050D01*
X0072558Y0062679D01*
X0072653Y0062311D01*
X0072758Y0061945D01*
X0072871Y0061582D01*
X0072993Y0061221D01*
X0073123Y0060864D01*
X0073263Y0060510D01*
X0073410Y0060159D01*
X0073567Y0059812D01*
X0073731Y0059469D01*
X0073904Y0059130D01*
X0074085Y0058795D01*
X0074274Y0058464D01*
X0074471Y0058139D01*
X0074675Y0057818D01*
X0074888Y0057502D01*
X0075108Y0057192D01*
X0075335Y0056886D01*
X0075570Y0056587D01*
X0075812Y0056293D01*
X0076060Y0056005D01*
X0076316Y0055723D01*
X0076579Y0055448D01*
X0076848Y0055179D01*
X0077123Y0054916D01*
X0077405Y0054660D01*
X0077693Y0054412D01*
X0077987Y0054170D01*
X0078286Y0053935D01*
X0078592Y0053708D01*
X0078902Y0053488D01*
X0079218Y0053275D01*
X0079539Y0053071D01*
X0079864Y0052874D01*
X0080195Y0052685D01*
X0080530Y0052504D01*
X0080869Y0052331D01*
X0081212Y0052167D01*
X0081559Y0052010D01*
X0081910Y0051863D01*
X0082264Y0051723D01*
X0082621Y0051593D01*
X0082982Y0051471D01*
X0083345Y0051358D01*
X0083711Y0051253D01*
X0084079Y0051158D01*
X0084450Y0051071D01*
X0084822Y0050993D01*
X0085197Y0050925D01*
X0085573Y0050865D01*
X0085950Y0050815D01*
X0086328Y0050774D01*
X0086707Y0050741D01*
X0087087Y0050718D01*
X0087467Y0050705D01*
X0087848Y0050700D01*
X0072100Y0066448D02*
X0072100Y0231802D01*
X0081549Y0231802D02*
X0081551Y0231960D01*
X0081557Y0232118D01*
X0081567Y0232276D01*
X0081581Y0232434D01*
X0081599Y0232591D01*
X0081620Y0232748D01*
X0081646Y0232904D01*
X0081676Y0233060D01*
X0081709Y0233215D01*
X0081747Y0233368D01*
X0081788Y0233521D01*
X0081833Y0233673D01*
X0081882Y0233824D01*
X0081935Y0233973D01*
X0081991Y0234121D01*
X0082051Y0234267D01*
X0082115Y0234412D01*
X0082183Y0234555D01*
X0082254Y0234697D01*
X0082328Y0234837D01*
X0082406Y0234974D01*
X0082488Y0235110D01*
X0082572Y0235244D01*
X0082661Y0235375D01*
X0082752Y0235504D01*
X0082847Y0235631D01*
X0082944Y0235756D01*
X0083045Y0235878D01*
X0083149Y0235997D01*
X0083256Y0236114D01*
X0083366Y0236228D01*
X0083479Y0236339D01*
X0083594Y0236448D01*
X0083712Y0236553D01*
X0083833Y0236655D01*
X0083956Y0236755D01*
X0084082Y0236851D01*
X0084210Y0236944D01*
X0084340Y0237034D01*
X0084473Y0237120D01*
X0084608Y0237204D01*
X0084744Y0237283D01*
X0084883Y0237360D01*
X0085024Y0237432D01*
X0085166Y0237502D01*
X0085310Y0237567D01*
X0085456Y0237629D01*
X0085603Y0237687D01*
X0085752Y0237742D01*
X0085902Y0237793D01*
X0086053Y0237840D01*
X0086205Y0237883D01*
X0086358Y0237922D01*
X0086513Y0237958D01*
X0086668Y0237989D01*
X0086824Y0238017D01*
X0086980Y0238041D01*
X0087137Y0238061D01*
X0087295Y0238077D01*
X0087452Y0238089D01*
X0087611Y0238097D01*
X0087769Y0238101D01*
X0087927Y0238101D01*
X0088085Y0238097D01*
X0088244Y0238089D01*
X0088401Y0238077D01*
X0088559Y0238061D01*
X0088716Y0238041D01*
X0088872Y0238017D01*
X0089028Y0237989D01*
X0089183Y0237958D01*
X0089338Y0237922D01*
X0089491Y0237883D01*
X0089643Y0237840D01*
X0089794Y0237793D01*
X0089944Y0237742D01*
X0090093Y0237687D01*
X0090240Y0237629D01*
X0090386Y0237567D01*
X0090530Y0237502D01*
X0090672Y0237432D01*
X0090813Y0237360D01*
X0090952Y0237283D01*
X0091088Y0237204D01*
X0091223Y0237120D01*
X0091356Y0237034D01*
X0091486Y0236944D01*
X0091614Y0236851D01*
X0091740Y0236755D01*
X0091863Y0236655D01*
X0091984Y0236553D01*
X0092102Y0236448D01*
X0092217Y0236339D01*
X0092330Y0236228D01*
X0092440Y0236114D01*
X0092547Y0235997D01*
X0092651Y0235878D01*
X0092752Y0235756D01*
X0092849Y0235631D01*
X0092944Y0235504D01*
X0093035Y0235375D01*
X0093124Y0235244D01*
X0093208Y0235110D01*
X0093290Y0234974D01*
X0093368Y0234837D01*
X0093442Y0234697D01*
X0093513Y0234555D01*
X0093581Y0234412D01*
X0093645Y0234267D01*
X0093705Y0234121D01*
X0093761Y0233973D01*
X0093814Y0233824D01*
X0093863Y0233673D01*
X0093908Y0233521D01*
X0093949Y0233368D01*
X0093987Y0233215D01*
X0094020Y0233060D01*
X0094050Y0232904D01*
X0094076Y0232748D01*
X0094097Y0232591D01*
X0094115Y0232434D01*
X0094129Y0232276D01*
X0094139Y0232118D01*
X0094145Y0231960D01*
X0094147Y0231802D01*
X0094145Y0231644D01*
X0094139Y0231486D01*
X0094129Y0231328D01*
X0094115Y0231170D01*
X0094097Y0231013D01*
X0094076Y0230856D01*
X0094050Y0230700D01*
X0094020Y0230544D01*
X0093987Y0230389D01*
X0093949Y0230236D01*
X0093908Y0230083D01*
X0093863Y0229931D01*
X0093814Y0229780D01*
X0093761Y0229631D01*
X0093705Y0229483D01*
X0093645Y0229337D01*
X0093581Y0229192D01*
X0093513Y0229049D01*
X0093442Y0228907D01*
X0093368Y0228767D01*
X0093290Y0228630D01*
X0093208Y0228494D01*
X0093124Y0228360D01*
X0093035Y0228229D01*
X0092944Y0228100D01*
X0092849Y0227973D01*
X0092752Y0227848D01*
X0092651Y0227726D01*
X0092547Y0227607D01*
X0092440Y0227490D01*
X0092330Y0227376D01*
X0092217Y0227265D01*
X0092102Y0227156D01*
X0091984Y0227051D01*
X0091863Y0226949D01*
X0091740Y0226849D01*
X0091614Y0226753D01*
X0091486Y0226660D01*
X0091356Y0226570D01*
X0091223Y0226484D01*
X0091088Y0226400D01*
X0090952Y0226321D01*
X0090813Y0226244D01*
X0090672Y0226172D01*
X0090530Y0226102D01*
X0090386Y0226037D01*
X0090240Y0225975D01*
X0090093Y0225917D01*
X0089944Y0225862D01*
X0089794Y0225811D01*
X0089643Y0225764D01*
X0089491Y0225721D01*
X0089338Y0225682D01*
X0089183Y0225646D01*
X0089028Y0225615D01*
X0088872Y0225587D01*
X0088716Y0225563D01*
X0088559Y0225543D01*
X0088401Y0225527D01*
X0088244Y0225515D01*
X0088085Y0225507D01*
X0087927Y0225503D01*
X0087769Y0225503D01*
X0087611Y0225507D01*
X0087452Y0225515D01*
X0087295Y0225527D01*
X0087137Y0225543D01*
X0086980Y0225563D01*
X0086824Y0225587D01*
X0086668Y0225615D01*
X0086513Y0225646D01*
X0086358Y0225682D01*
X0086205Y0225721D01*
X0086053Y0225764D01*
X0085902Y0225811D01*
X0085752Y0225862D01*
X0085603Y0225917D01*
X0085456Y0225975D01*
X0085310Y0226037D01*
X0085166Y0226102D01*
X0085024Y0226172D01*
X0084883Y0226244D01*
X0084744Y0226321D01*
X0084608Y0226400D01*
X0084473Y0226484D01*
X0084340Y0226570D01*
X0084210Y0226660D01*
X0084082Y0226753D01*
X0083956Y0226849D01*
X0083833Y0226949D01*
X0083712Y0227051D01*
X0083594Y0227156D01*
X0083479Y0227265D01*
X0083366Y0227376D01*
X0083256Y0227490D01*
X0083149Y0227607D01*
X0083045Y0227726D01*
X0082944Y0227848D01*
X0082847Y0227973D01*
X0082752Y0228100D01*
X0082661Y0228229D01*
X0082572Y0228360D01*
X0082488Y0228494D01*
X0082406Y0228630D01*
X0082328Y0228767D01*
X0082254Y0228907D01*
X0082183Y0229049D01*
X0082115Y0229192D01*
X0082051Y0229337D01*
X0081991Y0229483D01*
X0081935Y0229631D01*
X0081882Y0229780D01*
X0081833Y0229931D01*
X0081788Y0230083D01*
X0081747Y0230236D01*
X0081709Y0230389D01*
X0081676Y0230544D01*
X0081646Y0230700D01*
X0081620Y0230856D01*
X0081599Y0231013D01*
X0081581Y0231170D01*
X0081567Y0231328D01*
X0081557Y0231486D01*
X0081551Y0231644D01*
X0081549Y0231802D01*
X0072100Y0231802D02*
X0072105Y0232183D01*
X0072118Y0232563D01*
X0072141Y0232943D01*
X0072174Y0233322D01*
X0072215Y0233700D01*
X0072265Y0234077D01*
X0072325Y0234453D01*
X0072393Y0234828D01*
X0072471Y0235200D01*
X0072558Y0235571D01*
X0072653Y0235939D01*
X0072758Y0236305D01*
X0072871Y0236668D01*
X0072993Y0237029D01*
X0073123Y0237386D01*
X0073263Y0237740D01*
X0073410Y0238091D01*
X0073567Y0238438D01*
X0073731Y0238781D01*
X0073904Y0239120D01*
X0074085Y0239455D01*
X0074274Y0239786D01*
X0074471Y0240111D01*
X0074675Y0240432D01*
X0074888Y0240748D01*
X0075108Y0241058D01*
X0075335Y0241364D01*
X0075570Y0241663D01*
X0075812Y0241957D01*
X0076060Y0242245D01*
X0076316Y0242527D01*
X0076579Y0242802D01*
X0076848Y0243071D01*
X0077123Y0243334D01*
X0077405Y0243590D01*
X0077693Y0243838D01*
X0077987Y0244080D01*
X0078286Y0244315D01*
X0078592Y0244542D01*
X0078902Y0244762D01*
X0079218Y0244975D01*
X0079539Y0245179D01*
X0079864Y0245376D01*
X0080195Y0245565D01*
X0080530Y0245746D01*
X0080869Y0245919D01*
X0081212Y0246083D01*
X0081559Y0246240D01*
X0081910Y0246387D01*
X0082264Y0246527D01*
X0082621Y0246657D01*
X0082982Y0246779D01*
X0083345Y0246892D01*
X0083711Y0246997D01*
X0084079Y0247092D01*
X0084450Y0247179D01*
X0084822Y0247257D01*
X0085197Y0247325D01*
X0085573Y0247385D01*
X0085950Y0247435D01*
X0086328Y0247476D01*
X0086707Y0247509D01*
X0087087Y0247532D01*
X0087467Y0247545D01*
X0087848Y0247550D01*
X0351628Y0247550D01*
X0345329Y0231802D02*
X0345331Y0231960D01*
X0345337Y0232118D01*
X0345347Y0232276D01*
X0345361Y0232434D01*
X0345379Y0232591D01*
X0345400Y0232748D01*
X0345426Y0232904D01*
X0345456Y0233060D01*
X0345489Y0233215D01*
X0345527Y0233368D01*
X0345568Y0233521D01*
X0345613Y0233673D01*
X0345662Y0233824D01*
X0345715Y0233973D01*
X0345771Y0234121D01*
X0345831Y0234267D01*
X0345895Y0234412D01*
X0345963Y0234555D01*
X0346034Y0234697D01*
X0346108Y0234837D01*
X0346186Y0234974D01*
X0346268Y0235110D01*
X0346352Y0235244D01*
X0346441Y0235375D01*
X0346532Y0235504D01*
X0346627Y0235631D01*
X0346724Y0235756D01*
X0346825Y0235878D01*
X0346929Y0235997D01*
X0347036Y0236114D01*
X0347146Y0236228D01*
X0347259Y0236339D01*
X0347374Y0236448D01*
X0347492Y0236553D01*
X0347613Y0236655D01*
X0347736Y0236755D01*
X0347862Y0236851D01*
X0347990Y0236944D01*
X0348120Y0237034D01*
X0348253Y0237120D01*
X0348388Y0237204D01*
X0348524Y0237283D01*
X0348663Y0237360D01*
X0348804Y0237432D01*
X0348946Y0237502D01*
X0349090Y0237567D01*
X0349236Y0237629D01*
X0349383Y0237687D01*
X0349532Y0237742D01*
X0349682Y0237793D01*
X0349833Y0237840D01*
X0349985Y0237883D01*
X0350138Y0237922D01*
X0350293Y0237958D01*
X0350448Y0237989D01*
X0350604Y0238017D01*
X0350760Y0238041D01*
X0350917Y0238061D01*
X0351075Y0238077D01*
X0351232Y0238089D01*
X0351391Y0238097D01*
X0351549Y0238101D01*
X0351707Y0238101D01*
X0351865Y0238097D01*
X0352024Y0238089D01*
X0352181Y0238077D01*
X0352339Y0238061D01*
X0352496Y0238041D01*
X0352652Y0238017D01*
X0352808Y0237989D01*
X0352963Y0237958D01*
X0353118Y0237922D01*
X0353271Y0237883D01*
X0353423Y0237840D01*
X0353574Y0237793D01*
X0353724Y0237742D01*
X0353873Y0237687D01*
X0354020Y0237629D01*
X0354166Y0237567D01*
X0354310Y0237502D01*
X0354452Y0237432D01*
X0354593Y0237360D01*
X0354732Y0237283D01*
X0354868Y0237204D01*
X0355003Y0237120D01*
X0355136Y0237034D01*
X0355266Y0236944D01*
X0355394Y0236851D01*
X0355520Y0236755D01*
X0355643Y0236655D01*
X0355764Y0236553D01*
X0355882Y0236448D01*
X0355997Y0236339D01*
X0356110Y0236228D01*
X0356220Y0236114D01*
X0356327Y0235997D01*
X0356431Y0235878D01*
X0356532Y0235756D01*
X0356629Y0235631D01*
X0356724Y0235504D01*
X0356815Y0235375D01*
X0356904Y0235244D01*
X0356988Y0235110D01*
X0357070Y0234974D01*
X0357148Y0234837D01*
X0357222Y0234697D01*
X0357293Y0234555D01*
X0357361Y0234412D01*
X0357425Y0234267D01*
X0357485Y0234121D01*
X0357541Y0233973D01*
X0357594Y0233824D01*
X0357643Y0233673D01*
X0357688Y0233521D01*
X0357729Y0233368D01*
X0357767Y0233215D01*
X0357800Y0233060D01*
X0357830Y0232904D01*
X0357856Y0232748D01*
X0357877Y0232591D01*
X0357895Y0232434D01*
X0357909Y0232276D01*
X0357919Y0232118D01*
X0357925Y0231960D01*
X0357927Y0231802D01*
X0357925Y0231644D01*
X0357919Y0231486D01*
X0357909Y0231328D01*
X0357895Y0231170D01*
X0357877Y0231013D01*
X0357856Y0230856D01*
X0357830Y0230700D01*
X0357800Y0230544D01*
X0357767Y0230389D01*
X0357729Y0230236D01*
X0357688Y0230083D01*
X0357643Y0229931D01*
X0357594Y0229780D01*
X0357541Y0229631D01*
X0357485Y0229483D01*
X0357425Y0229337D01*
X0357361Y0229192D01*
X0357293Y0229049D01*
X0357222Y0228907D01*
X0357148Y0228767D01*
X0357070Y0228630D01*
X0356988Y0228494D01*
X0356904Y0228360D01*
X0356815Y0228229D01*
X0356724Y0228100D01*
X0356629Y0227973D01*
X0356532Y0227848D01*
X0356431Y0227726D01*
X0356327Y0227607D01*
X0356220Y0227490D01*
X0356110Y0227376D01*
X0355997Y0227265D01*
X0355882Y0227156D01*
X0355764Y0227051D01*
X0355643Y0226949D01*
X0355520Y0226849D01*
X0355394Y0226753D01*
X0355266Y0226660D01*
X0355136Y0226570D01*
X0355003Y0226484D01*
X0354868Y0226400D01*
X0354732Y0226321D01*
X0354593Y0226244D01*
X0354452Y0226172D01*
X0354310Y0226102D01*
X0354166Y0226037D01*
X0354020Y0225975D01*
X0353873Y0225917D01*
X0353724Y0225862D01*
X0353574Y0225811D01*
X0353423Y0225764D01*
X0353271Y0225721D01*
X0353118Y0225682D01*
X0352963Y0225646D01*
X0352808Y0225615D01*
X0352652Y0225587D01*
X0352496Y0225563D01*
X0352339Y0225543D01*
X0352181Y0225527D01*
X0352024Y0225515D01*
X0351865Y0225507D01*
X0351707Y0225503D01*
X0351549Y0225503D01*
X0351391Y0225507D01*
X0351232Y0225515D01*
X0351075Y0225527D01*
X0350917Y0225543D01*
X0350760Y0225563D01*
X0350604Y0225587D01*
X0350448Y0225615D01*
X0350293Y0225646D01*
X0350138Y0225682D01*
X0349985Y0225721D01*
X0349833Y0225764D01*
X0349682Y0225811D01*
X0349532Y0225862D01*
X0349383Y0225917D01*
X0349236Y0225975D01*
X0349090Y0226037D01*
X0348946Y0226102D01*
X0348804Y0226172D01*
X0348663Y0226244D01*
X0348524Y0226321D01*
X0348388Y0226400D01*
X0348253Y0226484D01*
X0348120Y0226570D01*
X0347990Y0226660D01*
X0347862Y0226753D01*
X0347736Y0226849D01*
X0347613Y0226949D01*
X0347492Y0227051D01*
X0347374Y0227156D01*
X0347259Y0227265D01*
X0347146Y0227376D01*
X0347036Y0227490D01*
X0346929Y0227607D01*
X0346825Y0227726D01*
X0346724Y0227848D01*
X0346627Y0227973D01*
X0346532Y0228100D01*
X0346441Y0228229D01*
X0346352Y0228360D01*
X0346268Y0228494D01*
X0346186Y0228630D01*
X0346108Y0228767D01*
X0346034Y0228907D01*
X0345963Y0229049D01*
X0345895Y0229192D01*
X0345831Y0229337D01*
X0345771Y0229483D01*
X0345715Y0229631D01*
X0345662Y0229780D01*
X0345613Y0229931D01*
X0345568Y0230083D01*
X0345527Y0230236D01*
X0345489Y0230389D01*
X0345456Y0230544D01*
X0345426Y0230700D01*
X0345400Y0230856D01*
X0345379Y0231013D01*
X0345361Y0231170D01*
X0345347Y0231328D01*
X0345337Y0231486D01*
X0345331Y0231644D01*
X0345329Y0231802D01*
X0351628Y0247550D02*
X0352009Y0247545D01*
X0352389Y0247532D01*
X0352769Y0247509D01*
X0353148Y0247476D01*
X0353526Y0247435D01*
X0353903Y0247385D01*
X0354279Y0247325D01*
X0354654Y0247257D01*
X0355026Y0247179D01*
X0355397Y0247092D01*
X0355765Y0246997D01*
X0356131Y0246892D01*
X0356494Y0246779D01*
X0356855Y0246657D01*
X0357212Y0246527D01*
X0357566Y0246387D01*
X0357917Y0246240D01*
X0358264Y0246083D01*
X0358607Y0245919D01*
X0358946Y0245746D01*
X0359281Y0245565D01*
X0359612Y0245376D01*
X0359937Y0245179D01*
X0360258Y0244975D01*
X0360574Y0244762D01*
X0360884Y0244542D01*
X0361190Y0244315D01*
X0361489Y0244080D01*
X0361783Y0243838D01*
X0362071Y0243590D01*
X0362353Y0243334D01*
X0362628Y0243071D01*
X0362897Y0242802D01*
X0363160Y0242527D01*
X0363416Y0242245D01*
X0363664Y0241957D01*
X0363906Y0241663D01*
X0364141Y0241364D01*
X0364368Y0241058D01*
X0364588Y0240748D01*
X0364801Y0240432D01*
X0365005Y0240111D01*
X0365202Y0239786D01*
X0365391Y0239455D01*
X0365572Y0239120D01*
X0365745Y0238781D01*
X0365909Y0238438D01*
X0366066Y0238091D01*
X0366213Y0237740D01*
X0366353Y0237386D01*
X0366483Y0237029D01*
X0366605Y0236668D01*
X0366718Y0236305D01*
X0366823Y0235939D01*
X0366918Y0235571D01*
X0367005Y0235200D01*
X0367083Y0234828D01*
X0367151Y0234453D01*
X0367211Y0234077D01*
X0367261Y0233700D01*
X0367302Y0233322D01*
X0367335Y0232943D01*
X0367358Y0232563D01*
X0367371Y0232183D01*
X0367376Y0231802D01*
X0367376Y0066448D01*
X0345329Y0066448D02*
X0345331Y0066606D01*
X0345337Y0066764D01*
X0345347Y0066922D01*
X0345361Y0067080D01*
X0345379Y0067237D01*
X0345400Y0067394D01*
X0345426Y0067550D01*
X0345456Y0067706D01*
X0345489Y0067861D01*
X0345527Y0068014D01*
X0345568Y0068167D01*
X0345613Y0068319D01*
X0345662Y0068470D01*
X0345715Y0068619D01*
X0345771Y0068767D01*
X0345831Y0068913D01*
X0345895Y0069058D01*
X0345963Y0069201D01*
X0346034Y0069343D01*
X0346108Y0069483D01*
X0346186Y0069620D01*
X0346268Y0069756D01*
X0346352Y0069890D01*
X0346441Y0070021D01*
X0346532Y0070150D01*
X0346627Y0070277D01*
X0346724Y0070402D01*
X0346825Y0070524D01*
X0346929Y0070643D01*
X0347036Y0070760D01*
X0347146Y0070874D01*
X0347259Y0070985D01*
X0347374Y0071094D01*
X0347492Y0071199D01*
X0347613Y0071301D01*
X0347736Y0071401D01*
X0347862Y0071497D01*
X0347990Y0071590D01*
X0348120Y0071680D01*
X0348253Y0071766D01*
X0348388Y0071850D01*
X0348524Y0071929D01*
X0348663Y0072006D01*
X0348804Y0072078D01*
X0348946Y0072148D01*
X0349090Y0072213D01*
X0349236Y0072275D01*
X0349383Y0072333D01*
X0349532Y0072388D01*
X0349682Y0072439D01*
X0349833Y0072486D01*
X0349985Y0072529D01*
X0350138Y0072568D01*
X0350293Y0072604D01*
X0350448Y0072635D01*
X0350604Y0072663D01*
X0350760Y0072687D01*
X0350917Y0072707D01*
X0351075Y0072723D01*
X0351232Y0072735D01*
X0351391Y0072743D01*
X0351549Y0072747D01*
X0351707Y0072747D01*
X0351865Y0072743D01*
X0352024Y0072735D01*
X0352181Y0072723D01*
X0352339Y0072707D01*
X0352496Y0072687D01*
X0352652Y0072663D01*
X0352808Y0072635D01*
X0352963Y0072604D01*
X0353118Y0072568D01*
X0353271Y0072529D01*
X0353423Y0072486D01*
X0353574Y0072439D01*
X0353724Y0072388D01*
X0353873Y0072333D01*
X0354020Y0072275D01*
X0354166Y0072213D01*
X0354310Y0072148D01*
X0354452Y0072078D01*
X0354593Y0072006D01*
X0354732Y0071929D01*
X0354868Y0071850D01*
X0355003Y0071766D01*
X0355136Y0071680D01*
X0355266Y0071590D01*
X0355394Y0071497D01*
X0355520Y0071401D01*
X0355643Y0071301D01*
X0355764Y0071199D01*
X0355882Y0071094D01*
X0355997Y0070985D01*
X0356110Y0070874D01*
X0356220Y0070760D01*
X0356327Y0070643D01*
X0356431Y0070524D01*
X0356532Y0070402D01*
X0356629Y0070277D01*
X0356724Y0070150D01*
X0356815Y0070021D01*
X0356904Y0069890D01*
X0356988Y0069756D01*
X0357070Y0069620D01*
X0357148Y0069483D01*
X0357222Y0069343D01*
X0357293Y0069201D01*
X0357361Y0069058D01*
X0357425Y0068913D01*
X0357485Y0068767D01*
X0357541Y0068619D01*
X0357594Y0068470D01*
X0357643Y0068319D01*
X0357688Y0068167D01*
X0357729Y0068014D01*
X0357767Y0067861D01*
X0357800Y0067706D01*
X0357830Y0067550D01*
X0357856Y0067394D01*
X0357877Y0067237D01*
X0357895Y0067080D01*
X0357909Y0066922D01*
X0357919Y0066764D01*
X0357925Y0066606D01*
X0357927Y0066448D01*
X0357925Y0066290D01*
X0357919Y0066132D01*
X0357909Y0065974D01*
X0357895Y0065816D01*
X0357877Y0065659D01*
X0357856Y0065502D01*
X0357830Y0065346D01*
X0357800Y0065190D01*
X0357767Y0065035D01*
X0357729Y0064882D01*
X0357688Y0064729D01*
X0357643Y0064577D01*
X0357594Y0064426D01*
X0357541Y0064277D01*
X0357485Y0064129D01*
X0357425Y0063983D01*
X0357361Y0063838D01*
X0357293Y0063695D01*
X0357222Y0063553D01*
X0357148Y0063413D01*
X0357070Y0063276D01*
X0356988Y0063140D01*
X0356904Y0063006D01*
X0356815Y0062875D01*
X0356724Y0062746D01*
X0356629Y0062619D01*
X0356532Y0062494D01*
X0356431Y0062372D01*
X0356327Y0062253D01*
X0356220Y0062136D01*
X0356110Y0062022D01*
X0355997Y0061911D01*
X0355882Y0061802D01*
X0355764Y0061697D01*
X0355643Y0061595D01*
X0355520Y0061495D01*
X0355394Y0061399D01*
X0355266Y0061306D01*
X0355136Y0061216D01*
X0355003Y0061130D01*
X0354868Y0061046D01*
X0354732Y0060967D01*
X0354593Y0060890D01*
X0354452Y0060818D01*
X0354310Y0060748D01*
X0354166Y0060683D01*
X0354020Y0060621D01*
X0353873Y0060563D01*
X0353724Y0060508D01*
X0353574Y0060457D01*
X0353423Y0060410D01*
X0353271Y0060367D01*
X0353118Y0060328D01*
X0352963Y0060292D01*
X0352808Y0060261D01*
X0352652Y0060233D01*
X0352496Y0060209D01*
X0352339Y0060189D01*
X0352181Y0060173D01*
X0352024Y0060161D01*
X0351865Y0060153D01*
X0351707Y0060149D01*
X0351549Y0060149D01*
X0351391Y0060153D01*
X0351232Y0060161D01*
X0351075Y0060173D01*
X0350917Y0060189D01*
X0350760Y0060209D01*
X0350604Y0060233D01*
X0350448Y0060261D01*
X0350293Y0060292D01*
X0350138Y0060328D01*
X0349985Y0060367D01*
X0349833Y0060410D01*
X0349682Y0060457D01*
X0349532Y0060508D01*
X0349383Y0060563D01*
X0349236Y0060621D01*
X0349090Y0060683D01*
X0348946Y0060748D01*
X0348804Y0060818D01*
X0348663Y0060890D01*
X0348524Y0060967D01*
X0348388Y0061046D01*
X0348253Y0061130D01*
X0348120Y0061216D01*
X0347990Y0061306D01*
X0347862Y0061399D01*
X0347736Y0061495D01*
X0347613Y0061595D01*
X0347492Y0061697D01*
X0347374Y0061802D01*
X0347259Y0061911D01*
X0347146Y0062022D01*
X0347036Y0062136D01*
X0346929Y0062253D01*
X0346825Y0062372D01*
X0346724Y0062494D01*
X0346627Y0062619D01*
X0346532Y0062746D01*
X0346441Y0062875D01*
X0346352Y0063006D01*
X0346268Y0063140D01*
X0346186Y0063276D01*
X0346108Y0063413D01*
X0346034Y0063553D01*
X0345963Y0063695D01*
X0345895Y0063838D01*
X0345831Y0063983D01*
X0345771Y0064129D01*
X0345715Y0064277D01*
X0345662Y0064426D01*
X0345613Y0064577D01*
X0345568Y0064729D01*
X0345527Y0064882D01*
X0345489Y0065035D01*
X0345456Y0065190D01*
X0345426Y0065346D01*
X0345400Y0065502D01*
X0345379Y0065659D01*
X0345361Y0065816D01*
X0345347Y0065974D01*
X0345337Y0066132D01*
X0345331Y0066290D01*
X0345329Y0066448D01*
X0351628Y0050700D02*
X0352009Y0050705D01*
X0352389Y0050718D01*
X0352769Y0050741D01*
X0353148Y0050774D01*
X0353526Y0050815D01*
X0353903Y0050865D01*
X0354279Y0050925D01*
X0354654Y0050993D01*
X0355026Y0051071D01*
X0355397Y0051158D01*
X0355765Y0051253D01*
X0356131Y0051358D01*
X0356494Y0051471D01*
X0356855Y0051593D01*
X0357212Y0051723D01*
X0357566Y0051863D01*
X0357917Y0052010D01*
X0358264Y0052167D01*
X0358607Y0052331D01*
X0358946Y0052504D01*
X0359281Y0052685D01*
X0359612Y0052874D01*
X0359937Y0053071D01*
X0360258Y0053275D01*
X0360574Y0053488D01*
X0360884Y0053708D01*
X0361190Y0053935D01*
X0361489Y0054170D01*
X0361783Y0054412D01*
X0362071Y0054660D01*
X0362353Y0054916D01*
X0362628Y0055179D01*
X0362897Y0055448D01*
X0363160Y0055723D01*
X0363416Y0056005D01*
X0363664Y0056293D01*
X0363906Y0056587D01*
X0364141Y0056886D01*
X0364368Y0057192D01*
X0364588Y0057502D01*
X0364801Y0057818D01*
X0365005Y0058139D01*
X0365202Y0058464D01*
X0365391Y0058795D01*
X0365572Y0059130D01*
X0365745Y0059469D01*
X0365909Y0059812D01*
X0366066Y0060159D01*
X0366213Y0060510D01*
X0366353Y0060864D01*
X0366483Y0061221D01*
X0366605Y0061582D01*
X0366718Y0061945D01*
X0366823Y0062311D01*
X0366918Y0062679D01*
X0367005Y0063050D01*
X0367083Y0063422D01*
X0367151Y0063797D01*
X0367211Y0064173D01*
X0367261Y0064550D01*
X0367302Y0064928D01*
X0367335Y0065307D01*
X0367358Y0065687D01*
X0367371Y0066067D01*
X0367376Y0066448D01*
M02*
