G75*
%MOIN*%
%OFA0B0*%
%FSLAX25Y25*%
%IPPOS*%
%LPD*%
%AMOC8*
5,1,8,0,0,1.08239X$1,22.5*
%
%ADD10C,0.07100*%
%ADD11C,0.06400*%
%ADD12OC8,0.06400*%
%ADD13R,0.05906X0.02500*%
%ADD14R,0.02500X0.05906*%
%ADD15R,0.02600X0.08000*%
%ADD16OC8,0.12400*%
%ADD17C,0.05600*%
%ADD18C,0.00000*%
%ADD19R,0.06299X0.07098*%
%ADD20C,0.01600*%
%ADD21R,0.03962X0.03962*%
%ADD22C,0.01200*%
%ADD23C,0.03962*%
D10*
X0347030Y0095322D02*
X0354130Y0095322D01*
X0354130Y0115007D02*
X0347030Y0115007D01*
X0347030Y0134693D02*
X0354130Y0134693D01*
X0354130Y0154378D02*
X0347030Y0154378D01*
D11*
X0190180Y0149400D02*
X0183780Y0149400D01*
X0183780Y0139400D02*
X0190180Y0139400D01*
X0190180Y0129400D02*
X0183780Y0129400D01*
X0183780Y0119400D02*
X0190180Y0119400D01*
X0190180Y0109400D02*
X0183780Y0109400D01*
X0183780Y0099400D02*
X0190180Y0099400D01*
X0190180Y0089400D02*
X0183780Y0089400D01*
X0183780Y0079400D02*
X0190180Y0079400D01*
X0190180Y0069400D02*
X0183780Y0069400D01*
X0166980Y0067250D02*
X0166980Y0073650D01*
X0156980Y0073650D02*
X0156980Y0067250D01*
X0146980Y0067250D02*
X0146980Y0073650D01*
X0130180Y0069600D02*
X0123780Y0069600D01*
X0123780Y0079600D02*
X0130180Y0079600D01*
X0130180Y0089600D02*
X0123780Y0089600D01*
X0123780Y0099600D02*
X0130180Y0099600D01*
X0130180Y0109600D02*
X0123780Y0109600D01*
X0123780Y0119400D02*
X0130180Y0119400D01*
X0130180Y0129400D02*
X0123780Y0129400D01*
X0123780Y0139400D02*
X0130180Y0139400D01*
X0130180Y0149400D02*
X0123780Y0149400D01*
X0123780Y0159400D02*
X0130180Y0159400D01*
X0130180Y0169400D02*
X0123780Y0169400D01*
X0123780Y0179400D02*
X0130180Y0179400D01*
X0130180Y0189400D02*
X0123780Y0189400D01*
X0123780Y0199400D02*
X0130180Y0199400D01*
X0130180Y0209400D02*
X0123780Y0209400D01*
X0123780Y0219400D02*
X0130180Y0219400D01*
X0130180Y0229400D02*
X0123780Y0229400D01*
X0146900Y0231130D02*
X0146900Y0224730D01*
X0156900Y0224730D02*
X0156900Y0231130D01*
X0166900Y0231130D02*
X0166900Y0224730D01*
X0183780Y0229400D02*
X0190180Y0229400D01*
X0190180Y0219400D02*
X0183780Y0219400D01*
X0183780Y0209400D02*
X0190180Y0209400D01*
X0190180Y0199400D02*
X0183780Y0199400D01*
X0183780Y0189400D02*
X0190180Y0189400D01*
X0190180Y0179400D02*
X0183780Y0179400D01*
X0183780Y0169400D02*
X0190180Y0169400D01*
X0190180Y0159400D02*
X0183780Y0159400D01*
X0098220Y0092240D02*
X0098220Y0085840D01*
X0088220Y0085840D02*
X0088220Y0092240D01*
D12*
X0088430Y0134150D03*
X0098430Y0134150D03*
X0098430Y0144150D03*
X0088430Y0144150D03*
X0088430Y0154150D03*
X0098430Y0154150D03*
X0098430Y0164150D03*
X0088430Y0164150D03*
X0088430Y0174150D03*
X0098430Y0174150D03*
X0098430Y0184150D03*
X0088430Y0184150D03*
X0088430Y0194150D03*
X0098430Y0194150D03*
D13*
X0220212Y0165346D03*
X0220212Y0159441D03*
X0220212Y0153535D03*
X0220212Y0147630D03*
X0220212Y0141724D03*
X0220212Y0135819D03*
X0220212Y0129913D03*
X0220212Y0124008D03*
X0220212Y0118102D03*
X0220212Y0112197D03*
X0220212Y0106291D03*
X0220212Y0100386D03*
X0220212Y0094480D03*
X0273362Y0094480D03*
X0273362Y0100386D03*
X0273362Y0106291D03*
X0273362Y0112197D03*
X0273362Y0118102D03*
X0273362Y0124008D03*
X0273362Y0129913D03*
X0273362Y0135819D03*
X0273362Y0141724D03*
X0273362Y0147630D03*
X0273362Y0153535D03*
X0273362Y0159441D03*
X0273362Y0165346D03*
D14*
X0267457Y0172728D03*
X0261551Y0172728D03*
X0255645Y0172728D03*
X0249740Y0172728D03*
X0243834Y0172728D03*
X0237929Y0172728D03*
X0232023Y0172728D03*
X0226118Y0172728D03*
D15*
X0228710Y0209200D03*
X0233710Y0209200D03*
X0238710Y0209200D03*
X0243710Y0209200D03*
X0248710Y0209200D03*
X0253710Y0209200D03*
X0258710Y0209200D03*
X0263710Y0209200D03*
X0263710Y0233400D03*
X0258710Y0233400D03*
X0253710Y0233400D03*
X0248710Y0233400D03*
X0243710Y0233400D03*
X0238710Y0233400D03*
X0233710Y0233400D03*
X0228710Y0233400D03*
D16*
X0288010Y0144130D03*
X0307010Y0124130D03*
X0288010Y0104130D03*
D17*
X0313790Y0207720D03*
X0313790Y0217720D03*
D18*
X0351628Y0050700D02*
X0087848Y0050700D01*
X0081549Y0066448D02*
X0081551Y0066606D01*
X0081557Y0066764D01*
X0081567Y0066922D01*
X0081581Y0067080D01*
X0081599Y0067237D01*
X0081620Y0067394D01*
X0081646Y0067550D01*
X0081676Y0067706D01*
X0081709Y0067861D01*
X0081747Y0068014D01*
X0081788Y0068167D01*
X0081833Y0068319D01*
X0081882Y0068470D01*
X0081935Y0068619D01*
X0081991Y0068767D01*
X0082051Y0068913D01*
X0082115Y0069058D01*
X0082183Y0069201D01*
X0082254Y0069343D01*
X0082328Y0069483D01*
X0082406Y0069620D01*
X0082488Y0069756D01*
X0082572Y0069890D01*
X0082661Y0070021D01*
X0082752Y0070150D01*
X0082847Y0070277D01*
X0082944Y0070402D01*
X0083045Y0070524D01*
X0083149Y0070643D01*
X0083256Y0070760D01*
X0083366Y0070874D01*
X0083479Y0070985D01*
X0083594Y0071094D01*
X0083712Y0071199D01*
X0083833Y0071301D01*
X0083956Y0071401D01*
X0084082Y0071497D01*
X0084210Y0071590D01*
X0084340Y0071680D01*
X0084473Y0071766D01*
X0084608Y0071850D01*
X0084744Y0071929D01*
X0084883Y0072006D01*
X0085024Y0072078D01*
X0085166Y0072148D01*
X0085310Y0072213D01*
X0085456Y0072275D01*
X0085603Y0072333D01*
X0085752Y0072388D01*
X0085902Y0072439D01*
X0086053Y0072486D01*
X0086205Y0072529D01*
X0086358Y0072568D01*
X0086513Y0072604D01*
X0086668Y0072635D01*
X0086824Y0072663D01*
X0086980Y0072687D01*
X0087137Y0072707D01*
X0087295Y0072723D01*
X0087452Y0072735D01*
X0087611Y0072743D01*
X0087769Y0072747D01*
X0087927Y0072747D01*
X0088085Y0072743D01*
X0088244Y0072735D01*
X0088401Y0072723D01*
X0088559Y0072707D01*
X0088716Y0072687D01*
X0088872Y0072663D01*
X0089028Y0072635D01*
X0089183Y0072604D01*
X0089338Y0072568D01*
X0089491Y0072529D01*
X0089643Y0072486D01*
X0089794Y0072439D01*
X0089944Y0072388D01*
X0090093Y0072333D01*
X0090240Y0072275D01*
X0090386Y0072213D01*
X0090530Y0072148D01*
X0090672Y0072078D01*
X0090813Y0072006D01*
X0090952Y0071929D01*
X0091088Y0071850D01*
X0091223Y0071766D01*
X0091356Y0071680D01*
X0091486Y0071590D01*
X0091614Y0071497D01*
X0091740Y0071401D01*
X0091863Y0071301D01*
X0091984Y0071199D01*
X0092102Y0071094D01*
X0092217Y0070985D01*
X0092330Y0070874D01*
X0092440Y0070760D01*
X0092547Y0070643D01*
X0092651Y0070524D01*
X0092752Y0070402D01*
X0092849Y0070277D01*
X0092944Y0070150D01*
X0093035Y0070021D01*
X0093124Y0069890D01*
X0093208Y0069756D01*
X0093290Y0069620D01*
X0093368Y0069483D01*
X0093442Y0069343D01*
X0093513Y0069201D01*
X0093581Y0069058D01*
X0093645Y0068913D01*
X0093705Y0068767D01*
X0093761Y0068619D01*
X0093814Y0068470D01*
X0093863Y0068319D01*
X0093908Y0068167D01*
X0093949Y0068014D01*
X0093987Y0067861D01*
X0094020Y0067706D01*
X0094050Y0067550D01*
X0094076Y0067394D01*
X0094097Y0067237D01*
X0094115Y0067080D01*
X0094129Y0066922D01*
X0094139Y0066764D01*
X0094145Y0066606D01*
X0094147Y0066448D01*
X0094145Y0066290D01*
X0094139Y0066132D01*
X0094129Y0065974D01*
X0094115Y0065816D01*
X0094097Y0065659D01*
X0094076Y0065502D01*
X0094050Y0065346D01*
X0094020Y0065190D01*
X0093987Y0065035D01*
X0093949Y0064882D01*
X0093908Y0064729D01*
X0093863Y0064577D01*
X0093814Y0064426D01*
X0093761Y0064277D01*
X0093705Y0064129D01*
X0093645Y0063983D01*
X0093581Y0063838D01*
X0093513Y0063695D01*
X0093442Y0063553D01*
X0093368Y0063413D01*
X0093290Y0063276D01*
X0093208Y0063140D01*
X0093124Y0063006D01*
X0093035Y0062875D01*
X0092944Y0062746D01*
X0092849Y0062619D01*
X0092752Y0062494D01*
X0092651Y0062372D01*
X0092547Y0062253D01*
X0092440Y0062136D01*
X0092330Y0062022D01*
X0092217Y0061911D01*
X0092102Y0061802D01*
X0091984Y0061697D01*
X0091863Y0061595D01*
X0091740Y0061495D01*
X0091614Y0061399D01*
X0091486Y0061306D01*
X0091356Y0061216D01*
X0091223Y0061130D01*
X0091088Y0061046D01*
X0090952Y0060967D01*
X0090813Y0060890D01*
X0090672Y0060818D01*
X0090530Y0060748D01*
X0090386Y0060683D01*
X0090240Y0060621D01*
X0090093Y0060563D01*
X0089944Y0060508D01*
X0089794Y0060457D01*
X0089643Y0060410D01*
X0089491Y0060367D01*
X0089338Y0060328D01*
X0089183Y0060292D01*
X0089028Y0060261D01*
X0088872Y0060233D01*
X0088716Y0060209D01*
X0088559Y0060189D01*
X0088401Y0060173D01*
X0088244Y0060161D01*
X0088085Y0060153D01*
X0087927Y0060149D01*
X0087769Y0060149D01*
X0087611Y0060153D01*
X0087452Y0060161D01*
X0087295Y0060173D01*
X0087137Y0060189D01*
X0086980Y0060209D01*
X0086824Y0060233D01*
X0086668Y0060261D01*
X0086513Y0060292D01*
X0086358Y0060328D01*
X0086205Y0060367D01*
X0086053Y0060410D01*
X0085902Y0060457D01*
X0085752Y0060508D01*
X0085603Y0060563D01*
X0085456Y0060621D01*
X0085310Y0060683D01*
X0085166Y0060748D01*
X0085024Y0060818D01*
X0084883Y0060890D01*
X0084744Y0060967D01*
X0084608Y0061046D01*
X0084473Y0061130D01*
X0084340Y0061216D01*
X0084210Y0061306D01*
X0084082Y0061399D01*
X0083956Y0061495D01*
X0083833Y0061595D01*
X0083712Y0061697D01*
X0083594Y0061802D01*
X0083479Y0061911D01*
X0083366Y0062022D01*
X0083256Y0062136D01*
X0083149Y0062253D01*
X0083045Y0062372D01*
X0082944Y0062494D01*
X0082847Y0062619D01*
X0082752Y0062746D01*
X0082661Y0062875D01*
X0082572Y0063006D01*
X0082488Y0063140D01*
X0082406Y0063276D01*
X0082328Y0063413D01*
X0082254Y0063553D01*
X0082183Y0063695D01*
X0082115Y0063838D01*
X0082051Y0063983D01*
X0081991Y0064129D01*
X0081935Y0064277D01*
X0081882Y0064426D01*
X0081833Y0064577D01*
X0081788Y0064729D01*
X0081747Y0064882D01*
X0081709Y0065035D01*
X0081676Y0065190D01*
X0081646Y0065346D01*
X0081620Y0065502D01*
X0081599Y0065659D01*
X0081581Y0065816D01*
X0081567Y0065974D01*
X0081557Y0066132D01*
X0081551Y0066290D01*
X0081549Y0066448D01*
X0072100Y0066448D02*
X0072105Y0066067D01*
X0072118Y0065687D01*
X0072141Y0065307D01*
X0072174Y0064928D01*
X0072215Y0064550D01*
X0072265Y0064173D01*
X0072325Y0063797D01*
X0072393Y0063422D01*
X0072471Y0063050D01*
X0072558Y0062679D01*
X0072653Y0062311D01*
X0072758Y0061945D01*
X0072871Y0061582D01*
X0072993Y0061221D01*
X0073123Y0060864D01*
X0073263Y0060510D01*
X0073410Y0060159D01*
X0073567Y0059812D01*
X0073731Y0059469D01*
X0073904Y0059130D01*
X0074085Y0058795D01*
X0074274Y0058464D01*
X0074471Y0058139D01*
X0074675Y0057818D01*
X0074888Y0057502D01*
X0075108Y0057192D01*
X0075335Y0056886D01*
X0075570Y0056587D01*
X0075812Y0056293D01*
X0076060Y0056005D01*
X0076316Y0055723D01*
X0076579Y0055448D01*
X0076848Y0055179D01*
X0077123Y0054916D01*
X0077405Y0054660D01*
X0077693Y0054412D01*
X0077987Y0054170D01*
X0078286Y0053935D01*
X0078592Y0053708D01*
X0078902Y0053488D01*
X0079218Y0053275D01*
X0079539Y0053071D01*
X0079864Y0052874D01*
X0080195Y0052685D01*
X0080530Y0052504D01*
X0080869Y0052331D01*
X0081212Y0052167D01*
X0081559Y0052010D01*
X0081910Y0051863D01*
X0082264Y0051723D01*
X0082621Y0051593D01*
X0082982Y0051471D01*
X0083345Y0051358D01*
X0083711Y0051253D01*
X0084079Y0051158D01*
X0084450Y0051071D01*
X0084822Y0050993D01*
X0085197Y0050925D01*
X0085573Y0050865D01*
X0085950Y0050815D01*
X0086328Y0050774D01*
X0086707Y0050741D01*
X0087087Y0050718D01*
X0087467Y0050705D01*
X0087848Y0050700D01*
X0072100Y0066448D02*
X0072100Y0231802D01*
X0081549Y0231802D02*
X0081551Y0231960D01*
X0081557Y0232118D01*
X0081567Y0232276D01*
X0081581Y0232434D01*
X0081599Y0232591D01*
X0081620Y0232748D01*
X0081646Y0232904D01*
X0081676Y0233060D01*
X0081709Y0233215D01*
X0081747Y0233368D01*
X0081788Y0233521D01*
X0081833Y0233673D01*
X0081882Y0233824D01*
X0081935Y0233973D01*
X0081991Y0234121D01*
X0082051Y0234267D01*
X0082115Y0234412D01*
X0082183Y0234555D01*
X0082254Y0234697D01*
X0082328Y0234837D01*
X0082406Y0234974D01*
X0082488Y0235110D01*
X0082572Y0235244D01*
X0082661Y0235375D01*
X0082752Y0235504D01*
X0082847Y0235631D01*
X0082944Y0235756D01*
X0083045Y0235878D01*
X0083149Y0235997D01*
X0083256Y0236114D01*
X0083366Y0236228D01*
X0083479Y0236339D01*
X0083594Y0236448D01*
X0083712Y0236553D01*
X0083833Y0236655D01*
X0083956Y0236755D01*
X0084082Y0236851D01*
X0084210Y0236944D01*
X0084340Y0237034D01*
X0084473Y0237120D01*
X0084608Y0237204D01*
X0084744Y0237283D01*
X0084883Y0237360D01*
X0085024Y0237432D01*
X0085166Y0237502D01*
X0085310Y0237567D01*
X0085456Y0237629D01*
X0085603Y0237687D01*
X0085752Y0237742D01*
X0085902Y0237793D01*
X0086053Y0237840D01*
X0086205Y0237883D01*
X0086358Y0237922D01*
X0086513Y0237958D01*
X0086668Y0237989D01*
X0086824Y0238017D01*
X0086980Y0238041D01*
X0087137Y0238061D01*
X0087295Y0238077D01*
X0087452Y0238089D01*
X0087611Y0238097D01*
X0087769Y0238101D01*
X0087927Y0238101D01*
X0088085Y0238097D01*
X0088244Y0238089D01*
X0088401Y0238077D01*
X0088559Y0238061D01*
X0088716Y0238041D01*
X0088872Y0238017D01*
X0089028Y0237989D01*
X0089183Y0237958D01*
X0089338Y0237922D01*
X0089491Y0237883D01*
X0089643Y0237840D01*
X0089794Y0237793D01*
X0089944Y0237742D01*
X0090093Y0237687D01*
X0090240Y0237629D01*
X0090386Y0237567D01*
X0090530Y0237502D01*
X0090672Y0237432D01*
X0090813Y0237360D01*
X0090952Y0237283D01*
X0091088Y0237204D01*
X0091223Y0237120D01*
X0091356Y0237034D01*
X0091486Y0236944D01*
X0091614Y0236851D01*
X0091740Y0236755D01*
X0091863Y0236655D01*
X0091984Y0236553D01*
X0092102Y0236448D01*
X0092217Y0236339D01*
X0092330Y0236228D01*
X0092440Y0236114D01*
X0092547Y0235997D01*
X0092651Y0235878D01*
X0092752Y0235756D01*
X0092849Y0235631D01*
X0092944Y0235504D01*
X0093035Y0235375D01*
X0093124Y0235244D01*
X0093208Y0235110D01*
X0093290Y0234974D01*
X0093368Y0234837D01*
X0093442Y0234697D01*
X0093513Y0234555D01*
X0093581Y0234412D01*
X0093645Y0234267D01*
X0093705Y0234121D01*
X0093761Y0233973D01*
X0093814Y0233824D01*
X0093863Y0233673D01*
X0093908Y0233521D01*
X0093949Y0233368D01*
X0093987Y0233215D01*
X0094020Y0233060D01*
X0094050Y0232904D01*
X0094076Y0232748D01*
X0094097Y0232591D01*
X0094115Y0232434D01*
X0094129Y0232276D01*
X0094139Y0232118D01*
X0094145Y0231960D01*
X0094147Y0231802D01*
X0094145Y0231644D01*
X0094139Y0231486D01*
X0094129Y0231328D01*
X0094115Y0231170D01*
X0094097Y0231013D01*
X0094076Y0230856D01*
X0094050Y0230700D01*
X0094020Y0230544D01*
X0093987Y0230389D01*
X0093949Y0230236D01*
X0093908Y0230083D01*
X0093863Y0229931D01*
X0093814Y0229780D01*
X0093761Y0229631D01*
X0093705Y0229483D01*
X0093645Y0229337D01*
X0093581Y0229192D01*
X0093513Y0229049D01*
X0093442Y0228907D01*
X0093368Y0228767D01*
X0093290Y0228630D01*
X0093208Y0228494D01*
X0093124Y0228360D01*
X0093035Y0228229D01*
X0092944Y0228100D01*
X0092849Y0227973D01*
X0092752Y0227848D01*
X0092651Y0227726D01*
X0092547Y0227607D01*
X0092440Y0227490D01*
X0092330Y0227376D01*
X0092217Y0227265D01*
X0092102Y0227156D01*
X0091984Y0227051D01*
X0091863Y0226949D01*
X0091740Y0226849D01*
X0091614Y0226753D01*
X0091486Y0226660D01*
X0091356Y0226570D01*
X0091223Y0226484D01*
X0091088Y0226400D01*
X0090952Y0226321D01*
X0090813Y0226244D01*
X0090672Y0226172D01*
X0090530Y0226102D01*
X0090386Y0226037D01*
X0090240Y0225975D01*
X0090093Y0225917D01*
X0089944Y0225862D01*
X0089794Y0225811D01*
X0089643Y0225764D01*
X0089491Y0225721D01*
X0089338Y0225682D01*
X0089183Y0225646D01*
X0089028Y0225615D01*
X0088872Y0225587D01*
X0088716Y0225563D01*
X0088559Y0225543D01*
X0088401Y0225527D01*
X0088244Y0225515D01*
X0088085Y0225507D01*
X0087927Y0225503D01*
X0087769Y0225503D01*
X0087611Y0225507D01*
X0087452Y0225515D01*
X0087295Y0225527D01*
X0087137Y0225543D01*
X0086980Y0225563D01*
X0086824Y0225587D01*
X0086668Y0225615D01*
X0086513Y0225646D01*
X0086358Y0225682D01*
X0086205Y0225721D01*
X0086053Y0225764D01*
X0085902Y0225811D01*
X0085752Y0225862D01*
X0085603Y0225917D01*
X0085456Y0225975D01*
X0085310Y0226037D01*
X0085166Y0226102D01*
X0085024Y0226172D01*
X0084883Y0226244D01*
X0084744Y0226321D01*
X0084608Y0226400D01*
X0084473Y0226484D01*
X0084340Y0226570D01*
X0084210Y0226660D01*
X0084082Y0226753D01*
X0083956Y0226849D01*
X0083833Y0226949D01*
X0083712Y0227051D01*
X0083594Y0227156D01*
X0083479Y0227265D01*
X0083366Y0227376D01*
X0083256Y0227490D01*
X0083149Y0227607D01*
X0083045Y0227726D01*
X0082944Y0227848D01*
X0082847Y0227973D01*
X0082752Y0228100D01*
X0082661Y0228229D01*
X0082572Y0228360D01*
X0082488Y0228494D01*
X0082406Y0228630D01*
X0082328Y0228767D01*
X0082254Y0228907D01*
X0082183Y0229049D01*
X0082115Y0229192D01*
X0082051Y0229337D01*
X0081991Y0229483D01*
X0081935Y0229631D01*
X0081882Y0229780D01*
X0081833Y0229931D01*
X0081788Y0230083D01*
X0081747Y0230236D01*
X0081709Y0230389D01*
X0081676Y0230544D01*
X0081646Y0230700D01*
X0081620Y0230856D01*
X0081599Y0231013D01*
X0081581Y0231170D01*
X0081567Y0231328D01*
X0081557Y0231486D01*
X0081551Y0231644D01*
X0081549Y0231802D01*
X0072100Y0231802D02*
X0072105Y0232183D01*
X0072118Y0232563D01*
X0072141Y0232943D01*
X0072174Y0233322D01*
X0072215Y0233700D01*
X0072265Y0234077D01*
X0072325Y0234453D01*
X0072393Y0234828D01*
X0072471Y0235200D01*
X0072558Y0235571D01*
X0072653Y0235939D01*
X0072758Y0236305D01*
X0072871Y0236668D01*
X0072993Y0237029D01*
X0073123Y0237386D01*
X0073263Y0237740D01*
X0073410Y0238091D01*
X0073567Y0238438D01*
X0073731Y0238781D01*
X0073904Y0239120D01*
X0074085Y0239455D01*
X0074274Y0239786D01*
X0074471Y0240111D01*
X0074675Y0240432D01*
X0074888Y0240748D01*
X0075108Y0241058D01*
X0075335Y0241364D01*
X0075570Y0241663D01*
X0075812Y0241957D01*
X0076060Y0242245D01*
X0076316Y0242527D01*
X0076579Y0242802D01*
X0076848Y0243071D01*
X0077123Y0243334D01*
X0077405Y0243590D01*
X0077693Y0243838D01*
X0077987Y0244080D01*
X0078286Y0244315D01*
X0078592Y0244542D01*
X0078902Y0244762D01*
X0079218Y0244975D01*
X0079539Y0245179D01*
X0079864Y0245376D01*
X0080195Y0245565D01*
X0080530Y0245746D01*
X0080869Y0245919D01*
X0081212Y0246083D01*
X0081559Y0246240D01*
X0081910Y0246387D01*
X0082264Y0246527D01*
X0082621Y0246657D01*
X0082982Y0246779D01*
X0083345Y0246892D01*
X0083711Y0246997D01*
X0084079Y0247092D01*
X0084450Y0247179D01*
X0084822Y0247257D01*
X0085197Y0247325D01*
X0085573Y0247385D01*
X0085950Y0247435D01*
X0086328Y0247476D01*
X0086707Y0247509D01*
X0087087Y0247532D01*
X0087467Y0247545D01*
X0087848Y0247550D01*
X0351628Y0247550D01*
X0345329Y0231802D02*
X0345331Y0231960D01*
X0345337Y0232118D01*
X0345347Y0232276D01*
X0345361Y0232434D01*
X0345379Y0232591D01*
X0345400Y0232748D01*
X0345426Y0232904D01*
X0345456Y0233060D01*
X0345489Y0233215D01*
X0345527Y0233368D01*
X0345568Y0233521D01*
X0345613Y0233673D01*
X0345662Y0233824D01*
X0345715Y0233973D01*
X0345771Y0234121D01*
X0345831Y0234267D01*
X0345895Y0234412D01*
X0345963Y0234555D01*
X0346034Y0234697D01*
X0346108Y0234837D01*
X0346186Y0234974D01*
X0346268Y0235110D01*
X0346352Y0235244D01*
X0346441Y0235375D01*
X0346532Y0235504D01*
X0346627Y0235631D01*
X0346724Y0235756D01*
X0346825Y0235878D01*
X0346929Y0235997D01*
X0347036Y0236114D01*
X0347146Y0236228D01*
X0347259Y0236339D01*
X0347374Y0236448D01*
X0347492Y0236553D01*
X0347613Y0236655D01*
X0347736Y0236755D01*
X0347862Y0236851D01*
X0347990Y0236944D01*
X0348120Y0237034D01*
X0348253Y0237120D01*
X0348388Y0237204D01*
X0348524Y0237283D01*
X0348663Y0237360D01*
X0348804Y0237432D01*
X0348946Y0237502D01*
X0349090Y0237567D01*
X0349236Y0237629D01*
X0349383Y0237687D01*
X0349532Y0237742D01*
X0349682Y0237793D01*
X0349833Y0237840D01*
X0349985Y0237883D01*
X0350138Y0237922D01*
X0350293Y0237958D01*
X0350448Y0237989D01*
X0350604Y0238017D01*
X0350760Y0238041D01*
X0350917Y0238061D01*
X0351075Y0238077D01*
X0351232Y0238089D01*
X0351391Y0238097D01*
X0351549Y0238101D01*
X0351707Y0238101D01*
X0351865Y0238097D01*
X0352024Y0238089D01*
X0352181Y0238077D01*
X0352339Y0238061D01*
X0352496Y0238041D01*
X0352652Y0238017D01*
X0352808Y0237989D01*
X0352963Y0237958D01*
X0353118Y0237922D01*
X0353271Y0237883D01*
X0353423Y0237840D01*
X0353574Y0237793D01*
X0353724Y0237742D01*
X0353873Y0237687D01*
X0354020Y0237629D01*
X0354166Y0237567D01*
X0354310Y0237502D01*
X0354452Y0237432D01*
X0354593Y0237360D01*
X0354732Y0237283D01*
X0354868Y0237204D01*
X0355003Y0237120D01*
X0355136Y0237034D01*
X0355266Y0236944D01*
X0355394Y0236851D01*
X0355520Y0236755D01*
X0355643Y0236655D01*
X0355764Y0236553D01*
X0355882Y0236448D01*
X0355997Y0236339D01*
X0356110Y0236228D01*
X0356220Y0236114D01*
X0356327Y0235997D01*
X0356431Y0235878D01*
X0356532Y0235756D01*
X0356629Y0235631D01*
X0356724Y0235504D01*
X0356815Y0235375D01*
X0356904Y0235244D01*
X0356988Y0235110D01*
X0357070Y0234974D01*
X0357148Y0234837D01*
X0357222Y0234697D01*
X0357293Y0234555D01*
X0357361Y0234412D01*
X0357425Y0234267D01*
X0357485Y0234121D01*
X0357541Y0233973D01*
X0357594Y0233824D01*
X0357643Y0233673D01*
X0357688Y0233521D01*
X0357729Y0233368D01*
X0357767Y0233215D01*
X0357800Y0233060D01*
X0357830Y0232904D01*
X0357856Y0232748D01*
X0357877Y0232591D01*
X0357895Y0232434D01*
X0357909Y0232276D01*
X0357919Y0232118D01*
X0357925Y0231960D01*
X0357927Y0231802D01*
X0357925Y0231644D01*
X0357919Y0231486D01*
X0357909Y0231328D01*
X0357895Y0231170D01*
X0357877Y0231013D01*
X0357856Y0230856D01*
X0357830Y0230700D01*
X0357800Y0230544D01*
X0357767Y0230389D01*
X0357729Y0230236D01*
X0357688Y0230083D01*
X0357643Y0229931D01*
X0357594Y0229780D01*
X0357541Y0229631D01*
X0357485Y0229483D01*
X0357425Y0229337D01*
X0357361Y0229192D01*
X0357293Y0229049D01*
X0357222Y0228907D01*
X0357148Y0228767D01*
X0357070Y0228630D01*
X0356988Y0228494D01*
X0356904Y0228360D01*
X0356815Y0228229D01*
X0356724Y0228100D01*
X0356629Y0227973D01*
X0356532Y0227848D01*
X0356431Y0227726D01*
X0356327Y0227607D01*
X0356220Y0227490D01*
X0356110Y0227376D01*
X0355997Y0227265D01*
X0355882Y0227156D01*
X0355764Y0227051D01*
X0355643Y0226949D01*
X0355520Y0226849D01*
X0355394Y0226753D01*
X0355266Y0226660D01*
X0355136Y0226570D01*
X0355003Y0226484D01*
X0354868Y0226400D01*
X0354732Y0226321D01*
X0354593Y0226244D01*
X0354452Y0226172D01*
X0354310Y0226102D01*
X0354166Y0226037D01*
X0354020Y0225975D01*
X0353873Y0225917D01*
X0353724Y0225862D01*
X0353574Y0225811D01*
X0353423Y0225764D01*
X0353271Y0225721D01*
X0353118Y0225682D01*
X0352963Y0225646D01*
X0352808Y0225615D01*
X0352652Y0225587D01*
X0352496Y0225563D01*
X0352339Y0225543D01*
X0352181Y0225527D01*
X0352024Y0225515D01*
X0351865Y0225507D01*
X0351707Y0225503D01*
X0351549Y0225503D01*
X0351391Y0225507D01*
X0351232Y0225515D01*
X0351075Y0225527D01*
X0350917Y0225543D01*
X0350760Y0225563D01*
X0350604Y0225587D01*
X0350448Y0225615D01*
X0350293Y0225646D01*
X0350138Y0225682D01*
X0349985Y0225721D01*
X0349833Y0225764D01*
X0349682Y0225811D01*
X0349532Y0225862D01*
X0349383Y0225917D01*
X0349236Y0225975D01*
X0349090Y0226037D01*
X0348946Y0226102D01*
X0348804Y0226172D01*
X0348663Y0226244D01*
X0348524Y0226321D01*
X0348388Y0226400D01*
X0348253Y0226484D01*
X0348120Y0226570D01*
X0347990Y0226660D01*
X0347862Y0226753D01*
X0347736Y0226849D01*
X0347613Y0226949D01*
X0347492Y0227051D01*
X0347374Y0227156D01*
X0347259Y0227265D01*
X0347146Y0227376D01*
X0347036Y0227490D01*
X0346929Y0227607D01*
X0346825Y0227726D01*
X0346724Y0227848D01*
X0346627Y0227973D01*
X0346532Y0228100D01*
X0346441Y0228229D01*
X0346352Y0228360D01*
X0346268Y0228494D01*
X0346186Y0228630D01*
X0346108Y0228767D01*
X0346034Y0228907D01*
X0345963Y0229049D01*
X0345895Y0229192D01*
X0345831Y0229337D01*
X0345771Y0229483D01*
X0345715Y0229631D01*
X0345662Y0229780D01*
X0345613Y0229931D01*
X0345568Y0230083D01*
X0345527Y0230236D01*
X0345489Y0230389D01*
X0345456Y0230544D01*
X0345426Y0230700D01*
X0345400Y0230856D01*
X0345379Y0231013D01*
X0345361Y0231170D01*
X0345347Y0231328D01*
X0345337Y0231486D01*
X0345331Y0231644D01*
X0345329Y0231802D01*
X0351628Y0247550D02*
X0352009Y0247545D01*
X0352389Y0247532D01*
X0352769Y0247509D01*
X0353148Y0247476D01*
X0353526Y0247435D01*
X0353903Y0247385D01*
X0354279Y0247325D01*
X0354654Y0247257D01*
X0355026Y0247179D01*
X0355397Y0247092D01*
X0355765Y0246997D01*
X0356131Y0246892D01*
X0356494Y0246779D01*
X0356855Y0246657D01*
X0357212Y0246527D01*
X0357566Y0246387D01*
X0357917Y0246240D01*
X0358264Y0246083D01*
X0358607Y0245919D01*
X0358946Y0245746D01*
X0359281Y0245565D01*
X0359612Y0245376D01*
X0359937Y0245179D01*
X0360258Y0244975D01*
X0360574Y0244762D01*
X0360884Y0244542D01*
X0361190Y0244315D01*
X0361489Y0244080D01*
X0361783Y0243838D01*
X0362071Y0243590D01*
X0362353Y0243334D01*
X0362628Y0243071D01*
X0362897Y0242802D01*
X0363160Y0242527D01*
X0363416Y0242245D01*
X0363664Y0241957D01*
X0363906Y0241663D01*
X0364141Y0241364D01*
X0364368Y0241058D01*
X0364588Y0240748D01*
X0364801Y0240432D01*
X0365005Y0240111D01*
X0365202Y0239786D01*
X0365391Y0239455D01*
X0365572Y0239120D01*
X0365745Y0238781D01*
X0365909Y0238438D01*
X0366066Y0238091D01*
X0366213Y0237740D01*
X0366353Y0237386D01*
X0366483Y0237029D01*
X0366605Y0236668D01*
X0366718Y0236305D01*
X0366823Y0235939D01*
X0366918Y0235571D01*
X0367005Y0235200D01*
X0367083Y0234828D01*
X0367151Y0234453D01*
X0367211Y0234077D01*
X0367261Y0233700D01*
X0367302Y0233322D01*
X0367335Y0232943D01*
X0367358Y0232563D01*
X0367371Y0232183D01*
X0367376Y0231802D01*
X0367376Y0066448D01*
X0345329Y0066448D02*
X0345331Y0066606D01*
X0345337Y0066764D01*
X0345347Y0066922D01*
X0345361Y0067080D01*
X0345379Y0067237D01*
X0345400Y0067394D01*
X0345426Y0067550D01*
X0345456Y0067706D01*
X0345489Y0067861D01*
X0345527Y0068014D01*
X0345568Y0068167D01*
X0345613Y0068319D01*
X0345662Y0068470D01*
X0345715Y0068619D01*
X0345771Y0068767D01*
X0345831Y0068913D01*
X0345895Y0069058D01*
X0345963Y0069201D01*
X0346034Y0069343D01*
X0346108Y0069483D01*
X0346186Y0069620D01*
X0346268Y0069756D01*
X0346352Y0069890D01*
X0346441Y0070021D01*
X0346532Y0070150D01*
X0346627Y0070277D01*
X0346724Y0070402D01*
X0346825Y0070524D01*
X0346929Y0070643D01*
X0347036Y0070760D01*
X0347146Y0070874D01*
X0347259Y0070985D01*
X0347374Y0071094D01*
X0347492Y0071199D01*
X0347613Y0071301D01*
X0347736Y0071401D01*
X0347862Y0071497D01*
X0347990Y0071590D01*
X0348120Y0071680D01*
X0348253Y0071766D01*
X0348388Y0071850D01*
X0348524Y0071929D01*
X0348663Y0072006D01*
X0348804Y0072078D01*
X0348946Y0072148D01*
X0349090Y0072213D01*
X0349236Y0072275D01*
X0349383Y0072333D01*
X0349532Y0072388D01*
X0349682Y0072439D01*
X0349833Y0072486D01*
X0349985Y0072529D01*
X0350138Y0072568D01*
X0350293Y0072604D01*
X0350448Y0072635D01*
X0350604Y0072663D01*
X0350760Y0072687D01*
X0350917Y0072707D01*
X0351075Y0072723D01*
X0351232Y0072735D01*
X0351391Y0072743D01*
X0351549Y0072747D01*
X0351707Y0072747D01*
X0351865Y0072743D01*
X0352024Y0072735D01*
X0352181Y0072723D01*
X0352339Y0072707D01*
X0352496Y0072687D01*
X0352652Y0072663D01*
X0352808Y0072635D01*
X0352963Y0072604D01*
X0353118Y0072568D01*
X0353271Y0072529D01*
X0353423Y0072486D01*
X0353574Y0072439D01*
X0353724Y0072388D01*
X0353873Y0072333D01*
X0354020Y0072275D01*
X0354166Y0072213D01*
X0354310Y0072148D01*
X0354452Y0072078D01*
X0354593Y0072006D01*
X0354732Y0071929D01*
X0354868Y0071850D01*
X0355003Y0071766D01*
X0355136Y0071680D01*
X0355266Y0071590D01*
X0355394Y0071497D01*
X0355520Y0071401D01*
X0355643Y0071301D01*
X0355764Y0071199D01*
X0355882Y0071094D01*
X0355997Y0070985D01*
X0356110Y0070874D01*
X0356220Y0070760D01*
X0356327Y0070643D01*
X0356431Y0070524D01*
X0356532Y0070402D01*
X0356629Y0070277D01*
X0356724Y0070150D01*
X0356815Y0070021D01*
X0356904Y0069890D01*
X0356988Y0069756D01*
X0357070Y0069620D01*
X0357148Y0069483D01*
X0357222Y0069343D01*
X0357293Y0069201D01*
X0357361Y0069058D01*
X0357425Y0068913D01*
X0357485Y0068767D01*
X0357541Y0068619D01*
X0357594Y0068470D01*
X0357643Y0068319D01*
X0357688Y0068167D01*
X0357729Y0068014D01*
X0357767Y0067861D01*
X0357800Y0067706D01*
X0357830Y0067550D01*
X0357856Y0067394D01*
X0357877Y0067237D01*
X0357895Y0067080D01*
X0357909Y0066922D01*
X0357919Y0066764D01*
X0357925Y0066606D01*
X0357927Y0066448D01*
X0357925Y0066290D01*
X0357919Y0066132D01*
X0357909Y0065974D01*
X0357895Y0065816D01*
X0357877Y0065659D01*
X0357856Y0065502D01*
X0357830Y0065346D01*
X0357800Y0065190D01*
X0357767Y0065035D01*
X0357729Y0064882D01*
X0357688Y0064729D01*
X0357643Y0064577D01*
X0357594Y0064426D01*
X0357541Y0064277D01*
X0357485Y0064129D01*
X0357425Y0063983D01*
X0357361Y0063838D01*
X0357293Y0063695D01*
X0357222Y0063553D01*
X0357148Y0063413D01*
X0357070Y0063276D01*
X0356988Y0063140D01*
X0356904Y0063006D01*
X0356815Y0062875D01*
X0356724Y0062746D01*
X0356629Y0062619D01*
X0356532Y0062494D01*
X0356431Y0062372D01*
X0356327Y0062253D01*
X0356220Y0062136D01*
X0356110Y0062022D01*
X0355997Y0061911D01*
X0355882Y0061802D01*
X0355764Y0061697D01*
X0355643Y0061595D01*
X0355520Y0061495D01*
X0355394Y0061399D01*
X0355266Y0061306D01*
X0355136Y0061216D01*
X0355003Y0061130D01*
X0354868Y0061046D01*
X0354732Y0060967D01*
X0354593Y0060890D01*
X0354452Y0060818D01*
X0354310Y0060748D01*
X0354166Y0060683D01*
X0354020Y0060621D01*
X0353873Y0060563D01*
X0353724Y0060508D01*
X0353574Y0060457D01*
X0353423Y0060410D01*
X0353271Y0060367D01*
X0353118Y0060328D01*
X0352963Y0060292D01*
X0352808Y0060261D01*
X0352652Y0060233D01*
X0352496Y0060209D01*
X0352339Y0060189D01*
X0352181Y0060173D01*
X0352024Y0060161D01*
X0351865Y0060153D01*
X0351707Y0060149D01*
X0351549Y0060149D01*
X0351391Y0060153D01*
X0351232Y0060161D01*
X0351075Y0060173D01*
X0350917Y0060189D01*
X0350760Y0060209D01*
X0350604Y0060233D01*
X0350448Y0060261D01*
X0350293Y0060292D01*
X0350138Y0060328D01*
X0349985Y0060367D01*
X0349833Y0060410D01*
X0349682Y0060457D01*
X0349532Y0060508D01*
X0349383Y0060563D01*
X0349236Y0060621D01*
X0349090Y0060683D01*
X0348946Y0060748D01*
X0348804Y0060818D01*
X0348663Y0060890D01*
X0348524Y0060967D01*
X0348388Y0061046D01*
X0348253Y0061130D01*
X0348120Y0061216D01*
X0347990Y0061306D01*
X0347862Y0061399D01*
X0347736Y0061495D01*
X0347613Y0061595D01*
X0347492Y0061697D01*
X0347374Y0061802D01*
X0347259Y0061911D01*
X0347146Y0062022D01*
X0347036Y0062136D01*
X0346929Y0062253D01*
X0346825Y0062372D01*
X0346724Y0062494D01*
X0346627Y0062619D01*
X0346532Y0062746D01*
X0346441Y0062875D01*
X0346352Y0063006D01*
X0346268Y0063140D01*
X0346186Y0063276D01*
X0346108Y0063413D01*
X0346034Y0063553D01*
X0345963Y0063695D01*
X0345895Y0063838D01*
X0345831Y0063983D01*
X0345771Y0064129D01*
X0345715Y0064277D01*
X0345662Y0064426D01*
X0345613Y0064577D01*
X0345568Y0064729D01*
X0345527Y0064882D01*
X0345489Y0065035D01*
X0345456Y0065190D01*
X0345426Y0065346D01*
X0345400Y0065502D01*
X0345379Y0065659D01*
X0345361Y0065816D01*
X0345347Y0065974D01*
X0345337Y0066132D01*
X0345331Y0066290D01*
X0345329Y0066448D01*
X0351628Y0050700D02*
X0352009Y0050705D01*
X0352389Y0050718D01*
X0352769Y0050741D01*
X0353148Y0050774D01*
X0353526Y0050815D01*
X0353903Y0050865D01*
X0354279Y0050925D01*
X0354654Y0050993D01*
X0355026Y0051071D01*
X0355397Y0051158D01*
X0355765Y0051253D01*
X0356131Y0051358D01*
X0356494Y0051471D01*
X0356855Y0051593D01*
X0357212Y0051723D01*
X0357566Y0051863D01*
X0357917Y0052010D01*
X0358264Y0052167D01*
X0358607Y0052331D01*
X0358946Y0052504D01*
X0359281Y0052685D01*
X0359612Y0052874D01*
X0359937Y0053071D01*
X0360258Y0053275D01*
X0360574Y0053488D01*
X0360884Y0053708D01*
X0361190Y0053935D01*
X0361489Y0054170D01*
X0361783Y0054412D01*
X0362071Y0054660D01*
X0362353Y0054916D01*
X0362628Y0055179D01*
X0362897Y0055448D01*
X0363160Y0055723D01*
X0363416Y0056005D01*
X0363664Y0056293D01*
X0363906Y0056587D01*
X0364141Y0056886D01*
X0364368Y0057192D01*
X0364588Y0057502D01*
X0364801Y0057818D01*
X0365005Y0058139D01*
X0365202Y0058464D01*
X0365391Y0058795D01*
X0365572Y0059130D01*
X0365745Y0059469D01*
X0365909Y0059812D01*
X0366066Y0060159D01*
X0366213Y0060510D01*
X0366353Y0060864D01*
X0366483Y0061221D01*
X0366605Y0061582D01*
X0366718Y0061945D01*
X0366823Y0062311D01*
X0366918Y0062679D01*
X0367005Y0063050D01*
X0367083Y0063422D01*
X0367151Y0063797D01*
X0367211Y0064173D01*
X0367261Y0064550D01*
X0367302Y0064928D01*
X0367335Y0065307D01*
X0367358Y0065687D01*
X0367371Y0066067D01*
X0367376Y0066448D01*
D19*
X0162598Y0085300D03*
X0151402Y0085300D03*
D20*
X0147975Y0078650D02*
X0145985Y0078650D01*
X0144148Y0077889D01*
X0142741Y0076482D01*
X0141980Y0074645D01*
X0141980Y0066255D01*
X0142741Y0064418D01*
X0144148Y0063011D01*
X0145985Y0062250D01*
X0147975Y0062250D01*
X0149812Y0063011D01*
X0151219Y0064418D01*
X0151980Y0066255D01*
X0151980Y0074645D01*
X0151219Y0076482D01*
X0149812Y0077889D01*
X0147975Y0078650D01*
X0150602Y0077099D02*
X0153358Y0077099D01*
X0152741Y0076482D02*
X0151980Y0074645D01*
X0151980Y0066255D01*
X0152741Y0064418D01*
X0154148Y0063011D01*
X0155985Y0062250D01*
X0157975Y0062250D01*
X0159812Y0063011D01*
X0161219Y0064418D01*
X0161781Y0065776D01*
X0161976Y0065177D01*
X0162362Y0064420D01*
X0162861Y0063732D01*
X0163462Y0063131D01*
X0164150Y0062632D01*
X0164907Y0062246D01*
X0165715Y0061983D01*
X0166555Y0061850D01*
X0166780Y0061850D01*
X0166780Y0070250D01*
X0167180Y0070250D01*
X0167180Y0070650D01*
X0172380Y0070650D01*
X0172380Y0074075D01*
X0172247Y0074915D01*
X0171984Y0075723D01*
X0171598Y0076480D01*
X0171099Y0077168D01*
X0170498Y0077769D01*
X0169810Y0078268D01*
X0169053Y0078654D01*
X0168245Y0078917D01*
X0167405Y0079050D01*
X0167180Y0079050D01*
X0167180Y0070650D01*
X0166780Y0070650D01*
X0166780Y0079050D01*
X0166555Y0079050D01*
X0165715Y0078917D01*
X0164907Y0078654D01*
X0164150Y0078268D01*
X0163462Y0077769D01*
X0162861Y0077168D01*
X0162362Y0076480D01*
X0161976Y0075723D01*
X0161781Y0075124D01*
X0161219Y0076482D01*
X0159812Y0077889D01*
X0157975Y0078650D01*
X0155985Y0078650D01*
X0154148Y0077889D01*
X0152741Y0076482D01*
X0152334Y0075500D02*
X0151626Y0075500D01*
X0151980Y0073902D02*
X0151980Y0073902D01*
X0151980Y0072303D02*
X0151980Y0072303D01*
X0151980Y0070705D02*
X0151980Y0070705D01*
X0151980Y0069106D02*
X0151980Y0069106D01*
X0151980Y0067508D02*
X0151980Y0067508D01*
X0151837Y0065909D02*
X0152123Y0065909D01*
X0152848Y0064311D02*
X0151112Y0064311D01*
X0149090Y0062712D02*
X0154870Y0062712D01*
X0159090Y0062712D02*
X0164039Y0062712D01*
X0162441Y0064311D02*
X0161112Y0064311D01*
X0166780Y0064311D02*
X0167180Y0064311D01*
X0167180Y0065909D02*
X0166780Y0065909D01*
X0166780Y0067508D02*
X0167180Y0067508D01*
X0167180Y0069106D02*
X0166780Y0069106D01*
X0167180Y0070250D02*
X0167180Y0061850D01*
X0167405Y0061850D01*
X0168245Y0061983D01*
X0169053Y0062246D01*
X0169810Y0062632D01*
X0170498Y0063131D01*
X0171099Y0063732D01*
X0171598Y0064420D01*
X0171984Y0065177D01*
X0172247Y0065985D01*
X0172380Y0066825D01*
X0172380Y0070250D01*
X0167180Y0070250D01*
X0167180Y0070705D02*
X0166780Y0070705D01*
X0166780Y0072303D02*
X0167180Y0072303D01*
X0167180Y0073902D02*
X0166780Y0073902D01*
X0166780Y0075500D02*
X0167180Y0075500D01*
X0167180Y0077099D02*
X0166780Y0077099D01*
X0166780Y0078697D02*
X0167180Y0078697D01*
X0168921Y0078697D02*
X0178780Y0078697D01*
X0178780Y0078405D02*
X0179541Y0076568D01*
X0180948Y0075161D01*
X0182785Y0074400D01*
X0191175Y0074400D01*
X0193012Y0075161D01*
X0194419Y0076568D01*
X0195180Y0078405D01*
X0195180Y0080395D01*
X0194700Y0081553D01*
X0194700Y0086800D01*
X0223417Y0086800D01*
X0224373Y0087196D01*
X0230173Y0092996D01*
X0230904Y0093727D01*
X0231300Y0094683D01*
X0231300Y0154320D01*
X0259579Y0154320D01*
X0259579Y0154193D01*
X0260633Y0153139D01*
X0266087Y0153139D01*
X0267141Y0154193D01*
X0267141Y0159647D01*
X0266087Y0160701D01*
X0260633Y0160701D01*
X0259579Y0159647D01*
X0259579Y0159520D01*
X0229247Y0159520D01*
X0227774Y0160993D01*
X0227043Y0161724D01*
X0226087Y0162120D01*
X0224281Y0162120D01*
X0224230Y0162171D01*
X0224516Y0162336D01*
X0224926Y0162745D01*
X0225215Y0163247D01*
X0225365Y0163807D01*
X0225365Y0165346D01*
X0221950Y0165346D01*
X0221950Y0165346D01*
X0225365Y0165346D01*
X0225365Y0166886D01*
X0225215Y0167445D01*
X0225140Y0167575D01*
X0226118Y0167575D01*
X0227658Y0167575D01*
X0228217Y0167725D01*
X0228719Y0168015D01*
X0229128Y0168424D01*
X0229293Y0168710D01*
X0230028Y0167975D01*
X0234019Y0167975D01*
X0234976Y0168932D01*
X0235933Y0167975D01*
X0239925Y0167975D01*
X0240882Y0168932D01*
X0241839Y0167975D01*
X0245830Y0167975D01*
X0246787Y0168932D01*
X0247744Y0167975D01*
X0251736Y0167975D01*
X0252693Y0168932D01*
X0253650Y0167975D01*
X0257641Y0167975D01*
X0258598Y0168932D01*
X0259555Y0167975D01*
X0263547Y0167975D01*
X0264281Y0168710D01*
X0264446Y0168424D01*
X0264856Y0168015D01*
X0265357Y0167725D01*
X0265917Y0167575D01*
X0267456Y0167575D01*
X0267456Y0172728D01*
X0267457Y0172728D01*
X0267457Y0172728D01*
X0270906Y0172728D01*
X0270906Y0175970D01*
X0270757Y0176530D01*
X0270467Y0177032D01*
X0270279Y0177220D01*
X0283553Y0177220D01*
X0285300Y0175473D01*
X0285300Y0173661D01*
X0285173Y0173661D01*
X0284119Y0172607D01*
X0284119Y0167153D01*
X0285173Y0166099D01*
X0290627Y0166099D01*
X0291681Y0167153D01*
X0291681Y0172607D01*
X0290627Y0173661D01*
X0290500Y0173661D01*
X0290500Y0177067D01*
X0290104Y0178023D01*
X0289373Y0178754D01*
X0286103Y0182024D01*
X0285147Y0182420D01*
X0269477Y0182420D01*
X0266310Y0185587D01*
X0266310Y0203954D01*
X0266810Y0204454D01*
X0266810Y0213946D01*
X0265756Y0215000D01*
X0261664Y0215000D01*
X0261210Y0214546D01*
X0260756Y0215000D01*
X0256664Y0215000D01*
X0256210Y0214546D01*
X0255756Y0215000D01*
X0251664Y0215000D01*
X0251210Y0214546D01*
X0250756Y0215000D01*
X0246664Y0215000D01*
X0246210Y0214546D01*
X0245756Y0215000D01*
X0241664Y0215000D01*
X0241210Y0214546D01*
X0240756Y0215000D01*
X0236664Y0215000D01*
X0236210Y0214546D01*
X0235756Y0215000D01*
X0231664Y0215000D01*
X0231493Y0214828D01*
X0231361Y0214960D01*
X0230859Y0215250D01*
X0230300Y0215400D01*
X0228710Y0215400D01*
X0228710Y0209200D01*
X0228710Y0208610D01*
X0220630Y0216690D01*
X0220630Y0236290D01*
X0224110Y0239770D01*
X0325040Y0239770D01*
X0329160Y0235650D01*
X0329160Y0194300D01*
X0329160Y0162020D01*
X0331065Y0160115D01*
X0325834Y0165346D02*
X0273362Y0165346D01*
X0268209Y0165346D01*
X0268209Y0163807D01*
X0268359Y0163247D01*
X0268649Y0162745D01*
X0269058Y0162336D01*
X0269344Y0162171D01*
X0268609Y0161436D01*
X0268609Y0157445D01*
X0269566Y0156488D01*
X0268609Y0155531D01*
X0268609Y0151540D01*
X0269566Y0150582D01*
X0268609Y0149625D01*
X0268609Y0145634D01*
X0269566Y0144677D01*
X0268609Y0143720D01*
X0268609Y0139729D01*
X0269566Y0138771D01*
X0268609Y0137814D01*
X0268609Y0133823D01*
X0269566Y0132866D01*
X0268609Y0131909D01*
X0268609Y0127917D01*
X0269566Y0126960D01*
X0268609Y0126003D01*
X0268609Y0122012D01*
X0269566Y0121055D01*
X0268609Y0120098D01*
X0268609Y0116106D01*
X0269566Y0115149D01*
X0268609Y0114192D01*
X0268609Y0110201D01*
X0269566Y0109244D01*
X0268609Y0108287D01*
X0268609Y0104295D01*
X0269566Y0103338D01*
X0268609Y0102381D01*
X0268609Y0098390D01*
X0269566Y0097433D01*
X0268609Y0096476D01*
X0268609Y0092484D01*
X0269664Y0091430D01*
X0277060Y0091430D01*
X0278115Y0092484D01*
X0278115Y0096476D01*
X0277158Y0097433D01*
X0278115Y0098390D01*
X0278115Y0102381D01*
X0277158Y0103338D01*
X0278115Y0104295D01*
X0278115Y0108287D01*
X0277158Y0109244D01*
X0278115Y0110201D01*
X0278115Y0114192D01*
X0277158Y0115149D01*
X0278115Y0116106D01*
X0278115Y0120098D01*
X0277158Y0121055D01*
X0278115Y0122012D01*
X0278115Y0126003D01*
X0277158Y0126960D01*
X0278115Y0127917D01*
X0278115Y0131909D01*
X0277158Y0132866D01*
X0278115Y0133823D01*
X0278115Y0137814D01*
X0277158Y0138771D01*
X0278115Y0139729D01*
X0278115Y0143720D01*
X0277158Y0144677D01*
X0278115Y0145634D01*
X0278115Y0149625D01*
X0277158Y0150582D01*
X0278115Y0151540D01*
X0278115Y0155531D01*
X0277158Y0156488D01*
X0278115Y0157445D01*
X0278115Y0161436D01*
X0277380Y0162171D01*
X0277666Y0162336D01*
X0278075Y0162745D01*
X0278365Y0163247D01*
X0278515Y0163807D01*
X0278515Y0165346D01*
X0273362Y0165346D01*
X0273362Y0165346D01*
X0273362Y0165346D01*
X0275094Y0165346D01*
X0275430Y0165010D01*
X0275175Y0165010D01*
X0273362Y0165346D02*
X0278515Y0165346D01*
X0278515Y0166886D01*
X0278365Y0167445D01*
X0278075Y0167947D01*
X0277666Y0168357D01*
X0277164Y0168646D01*
X0276604Y0168796D01*
X0273362Y0168796D01*
X0270682Y0168796D01*
X0270757Y0168926D01*
X0270906Y0169486D01*
X0270906Y0172728D01*
X0267457Y0172728D01*
X0267457Y0167575D01*
X0268434Y0167575D01*
X0268359Y0167445D01*
X0268209Y0166886D01*
X0268209Y0165346D01*
X0273362Y0165346D01*
X0267457Y0171252D01*
X0267457Y0172728D01*
X0267470Y0172715D01*
X0267470Y0167260D01*
X0265556Y0165346D01*
X0255400Y0165346D01*
X0255546Y0165200D01*
X0256000Y0165200D01*
X0255400Y0165346D02*
X0230270Y0165346D01*
X0226118Y0169498D01*
X0226118Y0172728D01*
X0226118Y0169805D02*
X0226118Y0167575D01*
X0226118Y0169805D01*
X0226118Y0169805D01*
X0226118Y0168214D02*
X0226118Y0168214D01*
X0225365Y0166615D02*
X0268209Y0166615D01*
X0268209Y0165017D02*
X0225365Y0165017D01*
X0225261Y0163418D02*
X0268313Y0163418D01*
X0268993Y0161820D02*
X0226812Y0161820D01*
X0228546Y0160221D02*
X0260154Y0160221D01*
X0263360Y0156920D02*
X0228170Y0156920D01*
X0225570Y0159520D01*
X0220292Y0159520D01*
X0220212Y0159441D01*
X0220212Y0165346D02*
X0230270Y0165346D01*
X0229789Y0168214D02*
X0228918Y0168214D01*
X0234258Y0168214D02*
X0235695Y0168214D01*
X0240163Y0168214D02*
X0241600Y0168214D01*
X0246069Y0168214D02*
X0247506Y0168214D01*
X0251974Y0168214D02*
X0253411Y0168214D01*
X0257880Y0168214D02*
X0259317Y0168214D01*
X0263785Y0168214D02*
X0264657Y0168214D01*
X0267456Y0168214D02*
X0267457Y0168214D01*
X0267456Y0169812D02*
X0267457Y0169812D01*
X0267456Y0171411D02*
X0267457Y0171411D01*
X0270906Y0171411D02*
X0284119Y0171411D01*
X0284119Y0169812D02*
X0270906Y0169812D01*
X0273362Y0168796D02*
X0273362Y0165346D01*
X0273362Y0165346D01*
X0273362Y0168796D01*
X0273362Y0168214D02*
X0273362Y0168214D01*
X0273362Y0166615D02*
X0273362Y0166615D01*
X0277808Y0168214D02*
X0284119Y0168214D01*
X0284657Y0166615D02*
X0278515Y0166615D01*
X0278515Y0165017D02*
X0365176Y0165017D01*
X0365176Y0166615D02*
X0291143Y0166615D01*
X0291681Y0168214D02*
X0365176Y0168214D01*
X0365176Y0169812D02*
X0291681Y0169812D01*
X0291681Y0171411D02*
X0365176Y0171411D01*
X0365176Y0173009D02*
X0291278Y0173009D01*
X0290500Y0174608D02*
X0365176Y0174608D01*
X0365176Y0176206D02*
X0290500Y0176206D01*
X0290194Y0177805D02*
X0365176Y0177805D01*
X0365176Y0179403D02*
X0288723Y0179403D01*
X0287125Y0181002D02*
X0365176Y0181002D01*
X0365176Y0182601D02*
X0269296Y0182601D01*
X0267698Y0184199D02*
X0365176Y0184199D01*
X0365176Y0185798D02*
X0297635Y0185798D01*
X0298141Y0186303D02*
X0298141Y0191757D01*
X0297087Y0192811D01*
X0296740Y0192811D01*
X0296740Y0215949D01*
X0296867Y0215949D01*
X0297921Y0217003D01*
X0297921Y0222457D01*
X0296867Y0223511D01*
X0291413Y0223511D01*
X0290359Y0222457D01*
X0290359Y0217003D01*
X0291413Y0215949D01*
X0291540Y0215949D01*
X0291540Y0192718D01*
X0290579Y0191757D01*
X0290579Y0186303D01*
X0291633Y0185249D01*
X0297087Y0185249D01*
X0298141Y0186303D01*
X0298141Y0187396D02*
X0365176Y0187396D01*
X0365176Y0188995D02*
X0298141Y0188995D01*
X0298141Y0190593D02*
X0365176Y0190593D01*
X0365176Y0192192D02*
X0340621Y0192192D01*
X0340621Y0191713D02*
X0340621Y0197167D01*
X0339567Y0198221D01*
X0338650Y0198221D01*
X0338650Y0234967D01*
X0338254Y0235923D01*
X0337523Y0236654D01*
X0329403Y0244774D01*
X0328447Y0245170D01*
X0328187Y0245170D01*
X0328186Y0245170D01*
X0327668Y0245170D01*
X0327153Y0245170D01*
X0327152Y0245170D01*
X0222669Y0245120D01*
X0222662Y0245123D01*
X0222152Y0245120D01*
X0221642Y0245120D01*
X0221635Y0245117D01*
X0221628Y0245117D01*
X0221159Y0244920D01*
X0220686Y0244723D01*
X0220681Y0244719D01*
X0220675Y0244716D01*
X0220316Y0244353D01*
X0219955Y0243992D01*
X0219952Y0243985D01*
X0211506Y0235443D01*
X0211146Y0235083D01*
X0211143Y0235076D01*
X0211138Y0235070D01*
X0210945Y0234598D01*
X0210750Y0234127D01*
X0210750Y0234120D01*
X0210747Y0234112D01*
X0210750Y0233603D01*
X0210750Y0213501D01*
X0210623Y0213501D01*
X0209569Y0212447D01*
X0209569Y0212000D01*
X0194515Y0212000D01*
X0194419Y0212232D01*
X0193012Y0213639D01*
X0191175Y0214400D01*
X0193012Y0215161D01*
X0194419Y0216568D01*
X0195180Y0218405D01*
X0195180Y0220395D01*
X0194419Y0222232D01*
X0194157Y0222494D01*
X0194450Y0222787D01*
X0194450Y0226643D01*
X0195180Y0228405D01*
X0195180Y0230395D01*
X0194419Y0232232D01*
X0193012Y0233639D01*
X0191175Y0234400D01*
X0182785Y0234400D01*
X0182080Y0234108D01*
X0182080Y0237883D01*
X0182083Y0238391D01*
X0182080Y0238399D01*
X0182080Y0238407D01*
X0181885Y0238878D01*
X0181693Y0239349D01*
X0181687Y0239355D01*
X0181684Y0239363D01*
X0181325Y0239722D01*
X0177707Y0243385D01*
X0177704Y0243393D01*
X0177345Y0243752D01*
X0176987Y0244115D01*
X0176979Y0244118D01*
X0176973Y0244124D01*
X0176502Y0244319D01*
X0176033Y0244517D01*
X0176025Y0244517D01*
X0176017Y0244520D01*
X0175507Y0244520D01*
X0174999Y0244523D01*
X0174991Y0244520D01*
X0110582Y0244520D01*
X0110577Y0244522D01*
X0110066Y0244520D01*
X0109553Y0244520D01*
X0109548Y0244518D01*
X0109543Y0244518D01*
X0109071Y0244320D01*
X0108597Y0244124D01*
X0108594Y0244121D01*
X0108589Y0244119D01*
X0108228Y0243755D01*
X0107866Y0243393D01*
X0107864Y0243388D01*
X0101579Y0237055D01*
X0101216Y0236693D01*
X0101214Y0236688D01*
X0101210Y0236685D01*
X0101016Y0236211D01*
X0100820Y0235737D01*
X0100820Y0235732D01*
X0100818Y0235727D01*
X0100820Y0235215D01*
X0100820Y0234703D01*
X0100822Y0234698D01*
X0100822Y0234693D01*
X0100850Y0234626D01*
X0100850Y0210136D01*
X0100064Y0208956D01*
X0085665Y0208998D01*
X0085627Y0209033D01*
X0085010Y0209000D01*
X0084392Y0209002D01*
X0084355Y0208965D01*
X0084303Y0208962D01*
X0083890Y0208503D01*
X0083452Y0208067D01*
X0083452Y0208015D01*
X0079888Y0204051D01*
X0079450Y0203613D01*
X0079450Y0203563D01*
X0079417Y0203527D01*
X0079450Y0202907D01*
X0079450Y0140887D01*
X0079550Y0140787D01*
X0079550Y0130483D01*
X0079946Y0129527D01*
X0080677Y0128796D01*
X0083217Y0126256D01*
X0084173Y0125860D01*
X0112023Y0125860D01*
X0112730Y0125153D01*
X0112730Y0098203D01*
X0113126Y0097247D01*
X0115600Y0094773D01*
X0115600Y0080583D01*
X0115996Y0079627D01*
X0118177Y0077446D01*
X0119133Y0077050D01*
X0119424Y0077050D01*
X0119541Y0076768D01*
X0120948Y0075361D01*
X0122785Y0074600D01*
X0131175Y0074600D01*
X0133012Y0075361D01*
X0134419Y0076768D01*
X0135180Y0078605D01*
X0135180Y0079800D01*
X0178780Y0079800D01*
X0178780Y0078405D01*
X0179321Y0077099D02*
X0171149Y0077099D01*
X0172057Y0075500D02*
X0180609Y0075500D01*
X0181583Y0073902D02*
X0172380Y0073902D01*
X0172380Y0072303D02*
X0179612Y0072303D01*
X0179541Y0072232D02*
X0178780Y0070395D01*
X0178780Y0068405D01*
X0179541Y0066568D01*
X0180948Y0065161D01*
X0182785Y0064400D01*
X0191175Y0064400D01*
X0193012Y0065161D01*
X0194419Y0066568D01*
X0195180Y0068405D01*
X0195180Y0070395D01*
X0194419Y0072232D01*
X0193012Y0073639D01*
X0191175Y0074400D01*
X0182785Y0074400D01*
X0180948Y0073639D01*
X0179541Y0072232D01*
X0178908Y0070705D02*
X0172380Y0070705D01*
X0172380Y0069106D02*
X0178780Y0069106D01*
X0179152Y0067508D02*
X0172380Y0067508D01*
X0172222Y0065909D02*
X0180200Y0065909D01*
X0171519Y0064311D02*
X0277732Y0064311D01*
X0278253Y0063789D02*
X0283707Y0063789D01*
X0284761Y0064843D01*
X0284761Y0070297D01*
X0283707Y0071351D01*
X0283580Y0071351D01*
X0283580Y0078972D01*
X0284631Y0080023D01*
X0284631Y0085477D01*
X0283577Y0086531D01*
X0278123Y0086531D01*
X0277069Y0085477D01*
X0277069Y0080023D01*
X0278123Y0078969D01*
X0278380Y0078969D01*
X0278380Y0071351D01*
X0278253Y0071351D01*
X0277199Y0070297D01*
X0277199Y0064843D01*
X0278253Y0063789D01*
X0277199Y0065909D02*
X0193760Y0065909D01*
X0194808Y0067508D02*
X0277199Y0067508D01*
X0277199Y0069106D02*
X0195180Y0069106D01*
X0195052Y0070705D02*
X0277607Y0070705D01*
X0278380Y0072303D02*
X0194348Y0072303D01*
X0192377Y0073902D02*
X0278380Y0073902D01*
X0278380Y0075500D02*
X0193351Y0075500D01*
X0194639Y0077099D02*
X0278380Y0077099D01*
X0278380Y0078697D02*
X0195180Y0078697D01*
X0195180Y0080296D02*
X0277069Y0080296D01*
X0277069Y0081894D02*
X0194700Y0081894D01*
X0194700Y0083493D02*
X0277069Y0083493D01*
X0277069Y0085091D02*
X0260299Y0085091D01*
X0260755Y0085548D02*
X0261331Y0086938D01*
X0261331Y0088442D01*
X0260755Y0089832D01*
X0260150Y0090437D01*
X0260150Y0125943D01*
X0260755Y0126548D01*
X0261331Y0127938D01*
X0261331Y0129442D01*
X0260755Y0130832D01*
X0259692Y0131895D01*
X0258302Y0132471D01*
X0256798Y0132471D01*
X0255408Y0131895D01*
X0254345Y0130832D01*
X0253769Y0129442D01*
X0253769Y0127938D01*
X0254345Y0126548D01*
X0254950Y0125943D01*
X0254950Y0090437D01*
X0254345Y0089832D01*
X0253769Y0088442D01*
X0253769Y0086938D01*
X0254345Y0085548D01*
X0255408Y0084485D01*
X0256798Y0083909D01*
X0258302Y0083909D01*
X0259692Y0084485D01*
X0260755Y0085548D01*
X0261228Y0086690D02*
X0365176Y0086690D01*
X0365176Y0088288D02*
X0261331Y0088288D01*
X0260700Y0089887D02*
X0365176Y0089887D01*
X0365176Y0091485D02*
X0357859Y0091485D01*
X0357161Y0090787D02*
X0358666Y0092292D01*
X0359480Y0094258D01*
X0359480Y0096387D01*
X0358666Y0098353D01*
X0357161Y0099858D01*
X0355194Y0100672D01*
X0345966Y0100672D01*
X0343999Y0099858D01*
X0342495Y0098353D01*
X0341680Y0096387D01*
X0341680Y0094258D01*
X0342495Y0092292D01*
X0343999Y0090787D01*
X0345966Y0089972D01*
X0355194Y0089972D01*
X0357161Y0090787D01*
X0358994Y0093084D02*
X0365176Y0093084D01*
X0365176Y0094682D02*
X0359480Y0094682D01*
X0359480Y0096281D02*
X0365176Y0096281D01*
X0365176Y0097879D02*
X0358862Y0097879D01*
X0357541Y0099478D02*
X0365176Y0099478D01*
X0365176Y0101076D02*
X0296010Y0101076D01*
X0296010Y0100816D02*
X0296010Y0104423D01*
X0299614Y0108027D01*
X0300010Y0108983D01*
X0300010Y0119251D01*
X0303531Y0115730D01*
X0306510Y0115730D01*
X0306510Y0123630D01*
X0307510Y0123630D01*
X0307510Y0124630D01*
X0315410Y0124630D01*
X0315410Y0127609D01*
X0310489Y0132530D01*
X0307510Y0132530D01*
X0307510Y0124630D01*
X0306510Y0124630D01*
X0306510Y0132530D01*
X0303531Y0132530D01*
X0300010Y0129009D01*
X0300010Y0154649D01*
X0300137Y0154649D01*
X0301191Y0155703D01*
X0301191Y0161157D01*
X0300137Y0162211D01*
X0294683Y0162211D01*
X0293629Y0161157D01*
X0293629Y0155703D01*
X0294683Y0154649D01*
X0294810Y0154649D01*
X0294810Y0148644D01*
X0291324Y0152130D01*
X0284696Y0152130D01*
X0280010Y0147444D01*
X0280010Y0140816D01*
X0284696Y0136130D01*
X0291324Y0136130D01*
X0294810Y0139616D01*
X0294810Y0110577D01*
X0293843Y0109610D01*
X0291324Y0112130D01*
X0284696Y0112130D01*
X0280010Y0107444D01*
X0280010Y0100816D01*
X0284696Y0096130D01*
X0291324Y0096130D01*
X0296010Y0100816D01*
X0296010Y0102675D02*
X0365176Y0102675D01*
X0365176Y0104273D02*
X0296010Y0104273D01*
X0297459Y0105872D02*
X0365176Y0105872D01*
X0365176Y0107470D02*
X0299057Y0107470D01*
X0300010Y0109069D02*
X0365176Y0109069D01*
X0365176Y0110668D02*
X0357356Y0110668D01*
X0357161Y0110472D02*
X0358666Y0111977D01*
X0359480Y0113943D01*
X0359480Y0116072D01*
X0358666Y0118038D01*
X0357161Y0119543D01*
X0355194Y0120357D01*
X0345966Y0120357D01*
X0343999Y0119543D01*
X0342495Y0118038D01*
X0341680Y0116072D01*
X0341680Y0113943D01*
X0342495Y0111977D01*
X0343999Y0110472D01*
X0345966Y0109657D01*
X0355194Y0109657D01*
X0357161Y0110472D01*
X0358785Y0112266D02*
X0365176Y0112266D01*
X0365176Y0113865D02*
X0359447Y0113865D01*
X0359480Y0115463D02*
X0365176Y0115463D01*
X0365176Y0117062D02*
X0359070Y0117062D01*
X0358043Y0118660D02*
X0365176Y0118660D01*
X0365176Y0120259D02*
X0355433Y0120259D01*
X0345727Y0120259D02*
X0315018Y0120259D01*
X0315410Y0120651D02*
X0315410Y0123630D01*
X0307510Y0123630D01*
X0307510Y0115730D01*
X0310489Y0115730D01*
X0315410Y0120651D01*
X0315410Y0121857D02*
X0365176Y0121857D01*
X0365176Y0123456D02*
X0315410Y0123456D01*
X0315410Y0125054D02*
X0365176Y0125054D01*
X0365176Y0126653D02*
X0315410Y0126653D01*
X0314768Y0128251D02*
X0365176Y0128251D01*
X0365176Y0129850D02*
X0356418Y0129850D01*
X0357161Y0130157D02*
X0355194Y0129343D01*
X0345966Y0129343D01*
X0343999Y0130157D01*
X0342495Y0131662D01*
X0341680Y0133628D01*
X0341680Y0135757D01*
X0342495Y0137723D01*
X0343999Y0139228D01*
X0345966Y0140043D01*
X0355194Y0140043D01*
X0357161Y0139228D01*
X0358666Y0137723D01*
X0359480Y0135757D01*
X0359480Y0133628D01*
X0358666Y0131662D01*
X0357161Y0130157D01*
X0358452Y0131448D02*
X0365176Y0131448D01*
X0365176Y0133047D02*
X0359239Y0133047D01*
X0359480Y0134645D02*
X0365176Y0134645D01*
X0365176Y0136244D02*
X0359278Y0136244D01*
X0358546Y0137842D02*
X0365176Y0137842D01*
X0365176Y0139441D02*
X0356647Y0139441D01*
X0365176Y0141039D02*
X0300010Y0141039D01*
X0300010Y0139441D02*
X0344513Y0139441D01*
X0342614Y0137842D02*
X0300010Y0137842D01*
X0300010Y0136244D02*
X0341882Y0136244D01*
X0341680Y0134645D02*
X0300010Y0134645D01*
X0300010Y0133047D02*
X0341921Y0133047D01*
X0342708Y0131448D02*
X0311571Y0131448D01*
X0313170Y0129850D02*
X0344742Y0129850D01*
X0343117Y0118660D02*
X0313419Y0118660D01*
X0311821Y0117062D02*
X0342090Y0117062D01*
X0341680Y0115463D02*
X0300010Y0115463D01*
X0300010Y0113865D02*
X0341713Y0113865D01*
X0342375Y0112266D02*
X0300010Y0112266D01*
X0300010Y0110668D02*
X0343804Y0110668D01*
X0343619Y0099478D02*
X0294672Y0099478D01*
X0293073Y0097879D02*
X0342298Y0097879D01*
X0341680Y0096281D02*
X0291475Y0096281D01*
X0284545Y0096281D02*
X0278115Y0096281D01*
X0278115Y0094682D02*
X0341680Y0094682D01*
X0342166Y0093084D02*
X0278115Y0093084D01*
X0277116Y0091485D02*
X0343301Y0091485D01*
X0347806Y0078492D02*
X0347771Y0078437D01*
X0346691Y0078034D01*
X0346629Y0078053D01*
X0346388Y0077921D01*
X0346131Y0077825D01*
X0346104Y0077766D01*
X0345092Y0077214D01*
X0345028Y0077223D01*
X0344808Y0077059D01*
X0344568Y0076927D01*
X0344549Y0076865D01*
X0343627Y0076174D01*
X0343562Y0076174D01*
X0343368Y0075980D01*
X0343148Y0075816D01*
X0343139Y0075752D01*
X0342324Y0074937D01*
X0342260Y0074927D01*
X0342095Y0074708D01*
X0341901Y0074514D01*
X0341901Y0074449D01*
X0341211Y0073526D01*
X0341148Y0073508D01*
X0341017Y0073267D01*
X0340852Y0073048D01*
X0340862Y0072983D01*
X0340309Y0071972D01*
X0340250Y0071945D01*
X0340154Y0071688D01*
X0340023Y0071447D01*
X0340041Y0071385D01*
X0339638Y0070305D01*
X0339584Y0070269D01*
X0339525Y0070002D01*
X0339430Y0069745D01*
X0339457Y0069685D01*
X0339212Y0068559D01*
X0339162Y0068516D01*
X0339143Y0068243D01*
X0339085Y0067975D01*
X0339120Y0067920D01*
X0339040Y0066803D01*
X0339017Y0066779D01*
X0339017Y0066477D01*
X0338995Y0066175D01*
X0339017Y0066150D01*
X0339017Y0052900D01*
X0100459Y0052900D01*
X0100459Y0066150D01*
X0100481Y0066175D01*
X0100459Y0066477D01*
X0100459Y0066779D01*
X0100436Y0066803D01*
X0100356Y0067920D01*
X0100391Y0067975D01*
X0100333Y0068243D01*
X0100313Y0068516D01*
X0100264Y0068559D01*
X0100019Y0069685D01*
X0100046Y0069745D01*
X0099950Y0070002D01*
X0099892Y0070269D01*
X0099837Y0070305D01*
X0099434Y0071385D01*
X0099453Y0071447D01*
X0099321Y0071688D01*
X0099225Y0071945D01*
X0099166Y0071972D01*
X0098614Y0072983D01*
X0098623Y0073048D01*
X0098459Y0073267D01*
X0098327Y0073508D01*
X0098265Y0073526D01*
X0097574Y0074449D01*
X0097574Y0074514D01*
X0097380Y0074708D01*
X0097216Y0074927D01*
X0097152Y0074937D01*
X0096337Y0075752D01*
X0096327Y0075816D01*
X0096108Y0075980D01*
X0095914Y0076174D01*
X0095849Y0076174D01*
X0094926Y0076865D01*
X0094908Y0076927D01*
X0094667Y0077059D01*
X0094448Y0077223D01*
X0094383Y0077214D01*
X0093372Y0077766D01*
X0093345Y0077825D01*
X0093088Y0077921D01*
X0092847Y0078053D01*
X0092785Y0078034D01*
X0091705Y0078437D01*
X0091669Y0078492D01*
X0091402Y0078550D01*
X0091145Y0078646D01*
X0091085Y0078619D01*
X0089959Y0078864D01*
X0089916Y0078913D01*
X0089643Y0078933D01*
X0089375Y0078991D01*
X0089320Y0078956D01*
X0088203Y0079036D01*
X0088179Y0079059D01*
X0087877Y0079059D01*
X0087575Y0079081D01*
X0087550Y0079059D01*
X0074300Y0079059D01*
X0074300Y0219191D01*
X0087550Y0219191D01*
X0087575Y0219170D01*
X0087877Y0219191D01*
X0088179Y0219191D01*
X0088203Y0219215D01*
X0089320Y0219295D01*
X0089375Y0219259D01*
X0089643Y0219318D01*
X0089916Y0219337D01*
X0089959Y0219386D01*
X0091085Y0219631D01*
X0091145Y0219604D01*
X0091402Y0219700D01*
X0091669Y0219758D01*
X0091705Y0219813D01*
X0092785Y0220216D01*
X0092847Y0220198D01*
X0093088Y0220329D01*
X0093345Y0220425D01*
X0093372Y0220484D01*
X0094383Y0221037D01*
X0094448Y0221027D01*
X0094667Y0221192D01*
X0094908Y0221323D01*
X0094926Y0221385D01*
X0095849Y0222076D01*
X0095914Y0222076D01*
X0096108Y0222270D01*
X0096327Y0222434D01*
X0096337Y0222499D01*
X0097152Y0223314D01*
X0097216Y0223323D01*
X0097380Y0223543D01*
X0097574Y0223736D01*
X0097574Y0223802D01*
X0098265Y0224724D01*
X0098327Y0224743D01*
X0098459Y0224983D01*
X0098623Y0225203D01*
X0098614Y0225267D01*
X0099166Y0226279D01*
X0099225Y0226306D01*
X0099321Y0226563D01*
X0099453Y0226803D01*
X0099434Y0226866D01*
X0099837Y0227946D01*
X0099892Y0227981D01*
X0099950Y0228249D01*
X0100046Y0228506D01*
X0100019Y0228565D01*
X0100264Y0229691D01*
X0100313Y0229734D01*
X0100333Y0230007D01*
X0100391Y0230275D01*
X0100356Y0230330D01*
X0100436Y0231448D01*
X0100459Y0231471D01*
X0100459Y0231774D01*
X0100481Y0232076D01*
X0100459Y0232101D01*
X0100459Y0245350D01*
X0339017Y0245350D01*
X0339017Y0232101D01*
X0338995Y0232076D01*
X0339017Y0231774D01*
X0339017Y0231471D01*
X0339040Y0231448D01*
X0339120Y0230330D01*
X0339085Y0230275D01*
X0339143Y0230007D01*
X0339162Y0229734D01*
X0339212Y0229691D01*
X0339457Y0228565D01*
X0339430Y0228506D01*
X0339525Y0228249D01*
X0339584Y0227981D01*
X0339638Y0227946D01*
X0340041Y0226866D01*
X0340023Y0226803D01*
X0340154Y0226563D01*
X0340250Y0226306D01*
X0340309Y0226279D01*
X0340862Y0225267D01*
X0340852Y0225203D01*
X0341017Y0224983D01*
X0341148Y0224743D01*
X0341211Y0224724D01*
X0341901Y0223802D01*
X0341901Y0223736D01*
X0342095Y0223543D01*
X0342260Y0223323D01*
X0342324Y0223314D01*
X0343139Y0222499D01*
X0343148Y0222434D01*
X0343368Y0222270D01*
X0343562Y0222076D01*
X0343627Y0222076D01*
X0344549Y0221385D01*
X0344568Y0221323D01*
X0344808Y0221192D01*
X0345028Y0221027D01*
X0345092Y0221037D01*
X0346104Y0220484D01*
X0346131Y0220425D01*
X0346388Y0220329D01*
X0346629Y0220198D01*
X0346691Y0220216D01*
X0347771Y0219813D01*
X0347806Y0219758D01*
X0348074Y0219700D01*
X0348331Y0219604D01*
X0348390Y0219631D01*
X0349516Y0219386D01*
X0349559Y0219337D01*
X0349833Y0219318D01*
X0350100Y0219259D01*
X0350155Y0219295D01*
X0351273Y0219215D01*
X0351296Y0219191D01*
X0351599Y0219191D01*
X0351901Y0219170D01*
X0351926Y0219191D01*
X0365176Y0219191D01*
X0365176Y0079059D01*
X0351926Y0079059D01*
X0351901Y0079081D01*
X0351599Y0079059D01*
X0351296Y0079059D01*
X0351273Y0079036D01*
X0350155Y0078956D01*
X0350100Y0078991D01*
X0349833Y0078933D01*
X0349559Y0078913D01*
X0349516Y0078864D01*
X0348390Y0078619D01*
X0348331Y0078646D01*
X0348074Y0078550D01*
X0347806Y0078492D01*
X0348750Y0078697D02*
X0283580Y0078697D01*
X0283580Y0077099D02*
X0344862Y0077099D01*
X0342888Y0075500D02*
X0283580Y0075500D01*
X0283580Y0073902D02*
X0341492Y0073902D01*
X0340490Y0072303D02*
X0283580Y0072303D01*
X0284353Y0070705D02*
X0339788Y0070705D01*
X0339331Y0069106D02*
X0284761Y0069106D01*
X0284761Y0067508D02*
X0339090Y0067508D01*
X0339017Y0065909D02*
X0284761Y0065909D01*
X0284228Y0064311D02*
X0339017Y0064311D01*
X0339017Y0062712D02*
X0169921Y0062712D01*
X0167180Y0062712D02*
X0166780Y0062712D01*
X0161903Y0075500D02*
X0161626Y0075500D01*
X0160602Y0077099D02*
X0162811Y0077099D01*
X0165039Y0078697D02*
X0135180Y0078697D01*
X0134556Y0077099D02*
X0143358Y0077099D01*
X0142334Y0075500D02*
X0133151Y0075500D01*
X0132860Y0073902D02*
X0141980Y0073902D01*
X0141980Y0072303D02*
X0134472Y0072303D01*
X0134419Y0072432D02*
X0133012Y0073839D01*
X0131175Y0074600D01*
X0122785Y0074600D01*
X0120948Y0073839D01*
X0119541Y0072432D01*
X0118780Y0070595D01*
X0118780Y0068605D01*
X0119541Y0066768D01*
X0120948Y0065361D01*
X0122785Y0064600D01*
X0131175Y0064600D01*
X0133012Y0065361D01*
X0134419Y0066768D01*
X0135180Y0068605D01*
X0135180Y0070595D01*
X0134419Y0072432D01*
X0135134Y0070705D02*
X0141980Y0070705D01*
X0141980Y0069106D02*
X0135180Y0069106D01*
X0134725Y0067508D02*
X0141980Y0067508D01*
X0142123Y0065909D02*
X0133560Y0065909D01*
X0142848Y0064311D02*
X0100459Y0064311D01*
X0100459Y0065909D02*
X0120400Y0065909D01*
X0119235Y0067508D02*
X0100385Y0067508D01*
X0100145Y0069106D02*
X0118780Y0069106D01*
X0118826Y0070705D02*
X0099688Y0070705D01*
X0098985Y0072303D02*
X0119488Y0072303D01*
X0121100Y0073902D02*
X0097984Y0073902D01*
X0096588Y0075500D02*
X0120809Y0075500D01*
X0119015Y0077099D02*
X0094614Y0077099D01*
X0090725Y0078697D02*
X0116926Y0078697D01*
X0115719Y0080296D02*
X0074300Y0080296D01*
X0074300Y0081894D02*
X0084529Y0081894D01*
X0084702Y0081721D02*
X0085390Y0081222D01*
X0086147Y0080836D01*
X0086955Y0080573D01*
X0087795Y0080440D01*
X0088020Y0080440D01*
X0088020Y0088840D01*
X0088420Y0088840D01*
X0088420Y0080440D01*
X0088645Y0080440D01*
X0089485Y0080573D01*
X0090293Y0080836D01*
X0091050Y0081222D01*
X0091738Y0081721D01*
X0092339Y0082322D01*
X0092838Y0083010D01*
X0093224Y0083767D01*
X0093419Y0084366D01*
X0093981Y0083008D01*
X0095388Y0081601D01*
X0097225Y0080840D01*
X0099215Y0080840D01*
X0101052Y0081601D01*
X0102459Y0083008D01*
X0103220Y0084845D01*
X0103220Y0093235D01*
X0102459Y0095072D01*
X0101052Y0096479D01*
X0099215Y0097240D01*
X0097225Y0097240D01*
X0095388Y0096479D01*
X0093981Y0095072D01*
X0093419Y0093714D01*
X0093224Y0094313D01*
X0092838Y0095070D01*
X0092339Y0095758D01*
X0091738Y0096359D01*
X0091050Y0096858D01*
X0090293Y0097244D01*
X0089485Y0097507D01*
X0088645Y0097640D01*
X0088420Y0097640D01*
X0088420Y0089240D01*
X0088020Y0089240D01*
X0088020Y0097640D01*
X0087795Y0097640D01*
X0086955Y0097507D01*
X0086147Y0097244D01*
X0085390Y0096858D01*
X0084702Y0096359D01*
X0084101Y0095758D01*
X0083602Y0095070D01*
X0083216Y0094313D01*
X0082953Y0093505D01*
X0082820Y0092665D01*
X0082820Y0089240D01*
X0088020Y0089240D01*
X0088020Y0088840D01*
X0082820Y0088840D01*
X0082820Y0085415D01*
X0082953Y0084575D01*
X0083216Y0083767D01*
X0083602Y0083010D01*
X0084101Y0082322D01*
X0084702Y0081721D01*
X0083355Y0083493D02*
X0074300Y0083493D01*
X0074300Y0085091D02*
X0082871Y0085091D01*
X0082820Y0086690D02*
X0074300Y0086690D01*
X0074300Y0088288D02*
X0082820Y0088288D01*
X0082820Y0089887D02*
X0074300Y0089887D01*
X0074300Y0091485D02*
X0082820Y0091485D01*
X0082886Y0093084D02*
X0074300Y0093084D01*
X0074300Y0094682D02*
X0083404Y0094682D01*
X0084624Y0096281D02*
X0074300Y0096281D01*
X0074300Y0097879D02*
X0112864Y0097879D01*
X0112730Y0099478D02*
X0074300Y0099478D01*
X0074300Y0101076D02*
X0112730Y0101076D01*
X0112730Y0102675D02*
X0074300Y0102675D01*
X0074300Y0104273D02*
X0112730Y0104273D01*
X0112730Y0105872D02*
X0074300Y0105872D01*
X0074300Y0107470D02*
X0112730Y0107470D01*
X0112730Y0109069D02*
X0074300Y0109069D01*
X0074300Y0110668D02*
X0112730Y0110668D01*
X0112730Y0112266D02*
X0074300Y0112266D01*
X0074300Y0113865D02*
X0112730Y0113865D01*
X0112730Y0115463D02*
X0074300Y0115463D01*
X0074300Y0117062D02*
X0112730Y0117062D01*
X0112730Y0118660D02*
X0074300Y0118660D01*
X0074300Y0120259D02*
X0112730Y0120259D01*
X0112730Y0121857D02*
X0074300Y0121857D01*
X0074300Y0123456D02*
X0112730Y0123456D01*
X0112730Y0125054D02*
X0074300Y0125054D01*
X0074300Y0126653D02*
X0082820Y0126653D01*
X0081222Y0128251D02*
X0074300Y0128251D01*
X0074300Y0129850D02*
X0079812Y0129850D01*
X0079550Y0131448D02*
X0074300Y0131448D01*
X0074300Y0133047D02*
X0079550Y0133047D01*
X0079550Y0134645D02*
X0074300Y0134645D01*
X0074300Y0136244D02*
X0079550Y0136244D01*
X0079550Y0137842D02*
X0074300Y0137842D01*
X0074300Y0139441D02*
X0079550Y0139441D01*
X0079450Y0141039D02*
X0074300Y0141039D01*
X0074300Y0142638D02*
X0079450Y0142638D01*
X0079450Y0144236D02*
X0074300Y0144236D01*
X0074300Y0145835D02*
X0079450Y0145835D01*
X0079450Y0147433D02*
X0074300Y0147433D01*
X0074300Y0149032D02*
X0079450Y0149032D01*
X0079450Y0150630D02*
X0074300Y0150630D01*
X0074300Y0152229D02*
X0079450Y0152229D01*
X0079450Y0153827D02*
X0074300Y0153827D01*
X0074300Y0155426D02*
X0079450Y0155426D01*
X0079450Y0157024D02*
X0074300Y0157024D01*
X0074300Y0158623D02*
X0079450Y0158623D01*
X0079450Y0160221D02*
X0074300Y0160221D01*
X0074300Y0161820D02*
X0079450Y0161820D01*
X0079450Y0163418D02*
X0074300Y0163418D01*
X0074300Y0165017D02*
X0079450Y0165017D01*
X0079450Y0166615D02*
X0074300Y0166615D01*
X0074300Y0168214D02*
X0079450Y0168214D01*
X0079450Y0169812D02*
X0074300Y0169812D01*
X0074300Y0171411D02*
X0079450Y0171411D01*
X0079450Y0173009D02*
X0074300Y0173009D01*
X0074300Y0174608D02*
X0079450Y0174608D01*
X0079450Y0176206D02*
X0074300Y0176206D01*
X0074300Y0177805D02*
X0079450Y0177805D01*
X0079450Y0179403D02*
X0074300Y0179403D01*
X0074300Y0181002D02*
X0079450Y0181002D01*
X0079450Y0182601D02*
X0074300Y0182601D01*
X0074300Y0184199D02*
X0079450Y0184199D01*
X0079450Y0185798D02*
X0074300Y0185798D01*
X0074300Y0187396D02*
X0079450Y0187396D01*
X0079450Y0188995D02*
X0074300Y0188995D01*
X0074300Y0190593D02*
X0079450Y0190593D01*
X0079450Y0192192D02*
X0074300Y0192192D01*
X0074300Y0193790D02*
X0079450Y0193790D01*
X0079450Y0195389D02*
X0074300Y0195389D01*
X0074300Y0196987D02*
X0079450Y0196987D01*
X0079450Y0198586D02*
X0074300Y0198586D01*
X0074300Y0200184D02*
X0079450Y0200184D01*
X0079450Y0201783D02*
X0074300Y0201783D01*
X0074300Y0203381D02*
X0079425Y0203381D01*
X0080723Y0204980D02*
X0074300Y0204980D01*
X0074300Y0206578D02*
X0082160Y0206578D01*
X0083562Y0208177D02*
X0074300Y0208177D01*
X0074300Y0209775D02*
X0100610Y0209775D01*
X0100850Y0211374D02*
X0074300Y0211374D01*
X0074300Y0212972D02*
X0100850Y0212972D01*
X0100850Y0214571D02*
X0074300Y0214571D01*
X0074300Y0216169D02*
X0100850Y0216169D01*
X0100850Y0217768D02*
X0074300Y0217768D01*
X0089942Y0219366D02*
X0100850Y0219366D01*
X0100850Y0220965D02*
X0094252Y0220965D01*
X0096401Y0222563D02*
X0100850Y0222563D01*
X0100850Y0224162D02*
X0097844Y0224162D01*
X0098883Y0225760D02*
X0100850Y0225760D01*
X0100850Y0227359D02*
X0099618Y0227359D01*
X0100104Y0228957D02*
X0100850Y0228957D01*
X0100850Y0230556D02*
X0100372Y0230556D01*
X0100459Y0232154D02*
X0100850Y0232154D01*
X0100850Y0233753D02*
X0100459Y0233753D01*
X0100459Y0235351D02*
X0100819Y0235351D01*
X0100459Y0236950D02*
X0101473Y0236950D01*
X0100459Y0238548D02*
X0103060Y0238548D01*
X0104647Y0240147D02*
X0100459Y0240147D01*
X0100459Y0241745D02*
X0106234Y0241745D01*
X0107820Y0243344D02*
X0100459Y0243344D01*
X0100459Y0244942D02*
X0221213Y0244942D01*
X0219318Y0243344D02*
X0177748Y0243344D01*
X0179327Y0241745D02*
X0217738Y0241745D01*
X0216157Y0240147D02*
X0180905Y0240147D01*
X0182021Y0238548D02*
X0214577Y0238548D01*
X0212996Y0236950D02*
X0182080Y0236950D01*
X0182080Y0235351D02*
X0211414Y0235351D01*
X0210749Y0233753D02*
X0192737Y0233753D01*
X0194451Y0232154D02*
X0210750Y0232154D01*
X0210750Y0230556D02*
X0195113Y0230556D01*
X0195180Y0228957D02*
X0210750Y0228957D01*
X0210750Y0227359D02*
X0194746Y0227359D01*
X0194450Y0225760D02*
X0210750Y0225760D01*
X0210750Y0224162D02*
X0194450Y0224162D01*
X0194226Y0222563D02*
X0210750Y0222563D01*
X0210750Y0220965D02*
X0194944Y0220965D01*
X0195180Y0219366D02*
X0210750Y0219366D01*
X0210750Y0217768D02*
X0194916Y0217768D01*
X0194020Y0216169D02*
X0210750Y0216169D01*
X0210750Y0214571D02*
X0191587Y0214571D01*
X0191175Y0214400D02*
X0182785Y0214400D01*
X0180948Y0215161D01*
X0179541Y0216568D01*
X0179445Y0216800D01*
X0179103Y0216800D01*
X0178147Y0217196D01*
X0174017Y0221326D01*
X0173286Y0222057D01*
X0172890Y0223013D01*
X0172890Y0232586D01*
X0172850Y0232683D01*
X0172850Y0232945D01*
X0172799Y0233203D01*
X0172850Y0233458D01*
X0172850Y0235099D01*
X0171417Y0236580D01*
X0163850Y0236580D01*
X0163850Y0235589D01*
X0164070Y0235748D01*
X0164827Y0236134D01*
X0165635Y0236397D01*
X0166475Y0236530D01*
X0166700Y0236530D01*
X0166700Y0228130D01*
X0167100Y0228130D01*
X0172300Y0228130D01*
X0172300Y0231555D01*
X0172167Y0232395D01*
X0171904Y0233203D01*
X0171518Y0233960D01*
X0171019Y0234648D01*
X0170418Y0235249D01*
X0169730Y0235748D01*
X0168973Y0236134D01*
X0168164Y0236397D01*
X0167325Y0236530D01*
X0167100Y0236530D01*
X0167100Y0228130D01*
X0167100Y0227730D01*
X0172300Y0227730D01*
X0172300Y0224305D01*
X0172167Y0223465D01*
X0171904Y0222657D01*
X0171518Y0221900D01*
X0171019Y0221212D01*
X0170418Y0220611D01*
X0169730Y0220112D01*
X0168973Y0219726D01*
X0168164Y0219463D01*
X0167325Y0219330D01*
X0167100Y0219330D01*
X0167100Y0227730D01*
X0166700Y0227730D01*
X0166700Y0219330D01*
X0166475Y0219330D01*
X0165635Y0219463D01*
X0164827Y0219726D01*
X0164070Y0220112D01*
X0163850Y0220271D01*
X0163850Y0212580D01*
X0170197Y0212580D01*
X0171153Y0212184D01*
X0171884Y0211453D01*
X0175274Y0208063D01*
X0175670Y0207107D01*
X0175670Y0199857D01*
X0178527Y0197000D01*
X0178942Y0197000D01*
X0178776Y0197327D01*
X0178513Y0198135D01*
X0178380Y0198975D01*
X0178380Y0199200D01*
X0186780Y0199200D01*
X0186780Y0199600D01*
X0178380Y0199600D01*
X0178380Y0199825D01*
X0178513Y0200665D01*
X0178776Y0201473D01*
X0179162Y0202230D01*
X0179661Y0202918D01*
X0180262Y0203519D01*
X0180950Y0204018D01*
X0181707Y0204404D01*
X0182305Y0204599D01*
X0180948Y0205161D01*
X0179541Y0206568D01*
X0178780Y0208405D01*
X0178780Y0210395D01*
X0179541Y0212232D01*
X0180948Y0213639D01*
X0182785Y0214400D01*
X0191175Y0214400D01*
X0193679Y0212972D02*
X0210094Y0212972D01*
X0213350Y0209720D02*
X0213350Y0233610D01*
X0222160Y0242520D01*
X0327670Y0242570D01*
X0327930Y0242570D01*
X0336050Y0234450D01*
X0336050Y0195230D01*
X0336840Y0194440D01*
X0336920Y0194520D01*
X0340621Y0193790D02*
X0365176Y0193790D01*
X0365176Y0195389D02*
X0340621Y0195389D01*
X0340621Y0196987D02*
X0365176Y0196987D01*
X0365176Y0198586D02*
X0338650Y0198586D01*
X0338650Y0200184D02*
X0365176Y0200184D01*
X0365176Y0201783D02*
X0338650Y0201783D01*
X0338650Y0203381D02*
X0365176Y0203381D01*
X0365176Y0204980D02*
X0338650Y0204980D01*
X0338650Y0206578D02*
X0365176Y0206578D01*
X0365176Y0208177D02*
X0338650Y0208177D01*
X0338650Y0209775D02*
X0365176Y0209775D01*
X0365176Y0211374D02*
X0338650Y0211374D01*
X0338650Y0212972D02*
X0365176Y0212972D01*
X0365176Y0214571D02*
X0338650Y0214571D01*
X0338650Y0216169D02*
X0365176Y0216169D01*
X0365176Y0217768D02*
X0338650Y0217768D01*
X0338650Y0219366D02*
X0349534Y0219366D01*
X0345224Y0220965D02*
X0338650Y0220965D01*
X0338650Y0222563D02*
X0343074Y0222563D01*
X0341632Y0224162D02*
X0338650Y0224162D01*
X0338650Y0225760D02*
X0340592Y0225760D01*
X0339857Y0227359D02*
X0338650Y0227359D01*
X0338650Y0228957D02*
X0339371Y0228957D01*
X0339104Y0230556D02*
X0338650Y0230556D01*
X0338650Y0232154D02*
X0339017Y0232154D01*
X0339017Y0233753D02*
X0338650Y0233753D01*
X0338491Y0235351D02*
X0339017Y0235351D01*
X0339017Y0236950D02*
X0337227Y0236950D01*
X0335629Y0238548D02*
X0339017Y0238548D01*
X0339017Y0240147D02*
X0334030Y0240147D01*
X0332431Y0241745D02*
X0339017Y0241745D01*
X0339017Y0243344D02*
X0330833Y0243344D01*
X0328996Y0244942D02*
X0339017Y0244942D01*
X0329873Y0236950D02*
X0266810Y0236950D01*
X0266810Y0238146D02*
X0265756Y0239200D01*
X0261664Y0239200D01*
X0261210Y0238746D01*
X0260756Y0239200D01*
X0256664Y0239200D01*
X0256210Y0238746D01*
X0255756Y0239200D01*
X0251664Y0239200D01*
X0251210Y0238746D01*
X0250756Y0239200D01*
X0246664Y0239200D01*
X0246210Y0238746D01*
X0245756Y0239200D01*
X0241664Y0239200D01*
X0241210Y0238746D01*
X0240756Y0239200D01*
X0236664Y0239200D01*
X0236210Y0238746D01*
X0235756Y0239200D01*
X0231664Y0239200D01*
X0231210Y0238746D01*
X0230756Y0239200D01*
X0226664Y0239200D01*
X0225610Y0238146D01*
X0225610Y0228654D01*
X0226664Y0227600D01*
X0230756Y0227600D01*
X0231210Y0228054D01*
X0231664Y0227600D01*
X0235756Y0227600D01*
X0236210Y0228054D01*
X0236664Y0227600D01*
X0240756Y0227600D01*
X0241210Y0228054D01*
X0241664Y0227600D01*
X0245756Y0227600D01*
X0246210Y0228054D01*
X0246664Y0227600D01*
X0250756Y0227600D01*
X0251210Y0228054D01*
X0251664Y0227600D01*
X0255756Y0227600D01*
X0256210Y0228054D01*
X0256664Y0227600D01*
X0260756Y0227600D01*
X0261210Y0228054D01*
X0261664Y0227600D01*
X0265756Y0227600D01*
X0266810Y0228654D01*
X0266810Y0238146D01*
X0266407Y0238548D02*
X0328275Y0238548D01*
X0326853Y0239970D02*
X0333450Y0233373D01*
X0333450Y0197558D01*
X0333059Y0197167D01*
X0333059Y0191713D01*
X0334113Y0190659D01*
X0339567Y0190659D01*
X0340621Y0191713D01*
X0333059Y0192192D02*
X0297706Y0192192D01*
X0296740Y0193790D02*
X0333059Y0193790D01*
X0333059Y0195389D02*
X0296740Y0195389D01*
X0296740Y0196987D02*
X0333059Y0196987D01*
X0333450Y0198586D02*
X0296740Y0198586D01*
X0296740Y0200184D02*
X0333450Y0200184D01*
X0333450Y0201783D02*
X0296740Y0201783D01*
X0296740Y0203381D02*
X0312244Y0203381D01*
X0312875Y0203120D02*
X0311184Y0203820D01*
X0309890Y0205114D01*
X0309190Y0206805D01*
X0309190Y0208635D01*
X0309890Y0210326D01*
X0311184Y0211620D01*
X0312875Y0212320D01*
X0314705Y0212320D01*
X0316396Y0211620D01*
X0317690Y0210326D01*
X0318390Y0208635D01*
X0318390Y0206805D01*
X0317690Y0205114D01*
X0316396Y0203820D01*
X0314705Y0203120D01*
X0312875Y0203120D01*
X0315336Y0203381D02*
X0333450Y0203381D01*
X0333450Y0204980D02*
X0317555Y0204980D01*
X0318296Y0206578D02*
X0333450Y0206578D01*
X0333450Y0208177D02*
X0318390Y0208177D01*
X0317918Y0209775D02*
X0333450Y0209775D01*
X0333450Y0211374D02*
X0316642Y0211374D01*
X0316396Y0213820D02*
X0317690Y0215114D01*
X0318390Y0216805D01*
X0318390Y0218635D01*
X0317690Y0220326D01*
X0316396Y0221620D01*
X0314705Y0222320D01*
X0312875Y0222320D01*
X0311184Y0221620D01*
X0309890Y0220326D01*
X0309190Y0218635D01*
X0309190Y0216805D01*
X0309890Y0215114D01*
X0311184Y0213820D01*
X0312875Y0213120D01*
X0314705Y0213120D01*
X0316396Y0213820D01*
X0317146Y0214571D02*
X0333450Y0214571D01*
X0333450Y0216169D02*
X0318127Y0216169D01*
X0318390Y0217768D02*
X0333450Y0217768D01*
X0333450Y0219366D02*
X0318087Y0219366D01*
X0317051Y0220965D02*
X0333450Y0220965D01*
X0333450Y0222563D02*
X0297814Y0222563D01*
X0297921Y0220965D02*
X0310529Y0220965D01*
X0309493Y0219366D02*
X0297921Y0219366D01*
X0297921Y0217768D02*
X0309190Y0217768D01*
X0309453Y0216169D02*
X0297087Y0216169D01*
X0296740Y0214571D02*
X0310434Y0214571D01*
X0310938Y0211374D02*
X0296740Y0211374D01*
X0296740Y0212972D02*
X0333450Y0212972D01*
X0333450Y0224162D02*
X0215950Y0224162D01*
X0215950Y0225760D02*
X0333450Y0225760D01*
X0333450Y0227359D02*
X0215950Y0227359D01*
X0215950Y0228957D02*
X0225610Y0228957D01*
X0225610Y0230556D02*
X0215950Y0230556D01*
X0215950Y0232154D02*
X0225610Y0232154D01*
X0225610Y0233753D02*
X0217148Y0233753D01*
X0215950Y0232542D02*
X0223246Y0239921D01*
X0326853Y0239970D01*
X0331472Y0235351D02*
X0266810Y0235351D01*
X0266810Y0233753D02*
X0333070Y0233753D01*
X0333450Y0232154D02*
X0266810Y0232154D01*
X0266810Y0230556D02*
X0333450Y0230556D01*
X0333450Y0228957D02*
X0266810Y0228957D01*
X0266185Y0214571D02*
X0291540Y0214571D01*
X0291540Y0212972D02*
X0266810Y0212972D01*
X0266810Y0211374D02*
X0291540Y0211374D01*
X0291540Y0209775D02*
X0266810Y0209775D01*
X0266810Y0208177D02*
X0291540Y0208177D01*
X0291540Y0206578D02*
X0266810Y0206578D01*
X0266810Y0204980D02*
X0291540Y0204980D01*
X0291540Y0203381D02*
X0266310Y0203381D01*
X0266310Y0201783D02*
X0291540Y0201783D01*
X0291540Y0200184D02*
X0266310Y0200184D01*
X0266310Y0198586D02*
X0291540Y0198586D01*
X0291540Y0196987D02*
X0266310Y0196987D01*
X0266310Y0195389D02*
X0291540Y0195389D01*
X0291540Y0193790D02*
X0266310Y0193790D01*
X0266310Y0192192D02*
X0291014Y0192192D01*
X0290579Y0190593D02*
X0266310Y0190593D01*
X0266310Y0188995D02*
X0290579Y0188995D01*
X0290579Y0187396D02*
X0266310Y0187396D01*
X0266310Y0185798D02*
X0291085Y0185798D01*
X0294360Y0189030D02*
X0294140Y0189250D01*
X0294140Y0219730D01*
X0290359Y0219366D02*
X0245511Y0219366D01*
X0245511Y0217768D02*
X0290359Y0217768D01*
X0291193Y0216169D02*
X0244677Y0216169D01*
X0244457Y0215949D02*
X0245511Y0217003D01*
X0245511Y0222457D01*
X0244457Y0223511D01*
X0239003Y0223511D01*
X0237949Y0222457D01*
X0237949Y0222330D01*
X0233331Y0222330D01*
X0233331Y0222897D01*
X0232277Y0223951D01*
X0226823Y0223951D01*
X0225769Y0222897D01*
X0225769Y0217443D01*
X0226823Y0216389D01*
X0232277Y0216389D01*
X0233018Y0217130D01*
X0237949Y0217130D01*
X0237949Y0217003D01*
X0239003Y0215949D01*
X0244457Y0215949D01*
X0246185Y0214571D02*
X0246235Y0214571D01*
X0241235Y0214571D02*
X0241185Y0214571D01*
X0238783Y0216169D02*
X0215950Y0216169D01*
X0215950Y0214571D02*
X0225669Y0214571D01*
X0225650Y0214551D02*
X0225360Y0214049D01*
X0225210Y0213490D01*
X0225210Y0209200D01*
X0228710Y0209200D01*
X0228710Y0209200D01*
X0228710Y0215400D01*
X0227120Y0215400D01*
X0226561Y0215250D01*
X0226059Y0214960D01*
X0225650Y0214551D01*
X0225210Y0212972D02*
X0216606Y0212972D01*
X0217131Y0212447D02*
X0216077Y0213501D01*
X0215950Y0213501D01*
X0215950Y0232542D01*
X0218728Y0235351D02*
X0225610Y0235351D01*
X0225610Y0236950D02*
X0220309Y0236950D01*
X0221889Y0238548D02*
X0226013Y0238548D01*
X0225769Y0222563D02*
X0215950Y0222563D01*
X0215950Y0220965D02*
X0225769Y0220965D01*
X0225769Y0219366D02*
X0215950Y0219366D01*
X0215950Y0217768D02*
X0225769Y0217768D01*
X0228710Y0214571D02*
X0228710Y0214571D01*
X0228710Y0212972D02*
X0228710Y0212972D01*
X0228710Y0211374D02*
X0228710Y0211374D01*
X0228710Y0209775D02*
X0228710Y0209775D01*
X0228710Y0209200D02*
X0228710Y0209200D01*
X0228710Y0203000D01*
X0230300Y0203000D01*
X0230659Y0203096D01*
X0229913Y0202350D01*
X0214583Y0202350D01*
X0213627Y0201954D01*
X0212896Y0201223D01*
X0208673Y0197000D01*
X0195018Y0197000D01*
X0195184Y0197327D01*
X0195447Y0198135D01*
X0195580Y0198975D01*
X0195580Y0199200D01*
X0187180Y0199200D01*
X0187180Y0199600D01*
X0195580Y0199600D01*
X0195580Y0199825D01*
X0195447Y0200665D01*
X0195184Y0201473D01*
X0194798Y0202230D01*
X0194299Y0202918D01*
X0193698Y0203519D01*
X0193010Y0204018D01*
X0192253Y0204404D01*
X0191654Y0204599D01*
X0193012Y0205161D01*
X0194419Y0206568D01*
X0194515Y0206800D01*
X0209762Y0206800D01*
X0210623Y0205939D01*
X0216077Y0205939D01*
X0217131Y0206993D01*
X0217131Y0212447D01*
X0217131Y0211374D02*
X0225210Y0211374D01*
X0225210Y0209775D02*
X0217131Y0209775D01*
X0217131Y0208177D02*
X0225210Y0208177D01*
X0225210Y0209200D02*
X0225210Y0204910D01*
X0225360Y0204351D01*
X0225650Y0203849D01*
X0226059Y0203440D01*
X0226561Y0203150D01*
X0227120Y0203000D01*
X0228710Y0203000D01*
X0228710Y0209200D01*
X0228710Y0209200D01*
X0225210Y0209200D01*
X0225210Y0206578D02*
X0216716Y0206578D01*
X0213350Y0209720D02*
X0213030Y0209400D01*
X0186980Y0209400D01*
X0182373Y0214571D02*
X0163850Y0214571D01*
X0163850Y0216169D02*
X0179940Y0216169D01*
X0177575Y0217768D02*
X0163850Y0217768D01*
X0163850Y0219366D02*
X0166246Y0219366D01*
X0166700Y0219366D02*
X0167100Y0219366D01*
X0167554Y0219366D02*
X0175977Y0219366D01*
X0174378Y0220965D02*
X0170772Y0220965D01*
X0171857Y0222563D02*
X0173076Y0222563D01*
X0172890Y0224162D02*
X0172277Y0224162D01*
X0172300Y0225760D02*
X0172890Y0225760D01*
X0172890Y0227359D02*
X0172300Y0227359D01*
X0172300Y0228957D02*
X0172890Y0228957D01*
X0172890Y0230556D02*
X0172300Y0230556D01*
X0172205Y0232154D02*
X0172890Y0232154D01*
X0172850Y0233753D02*
X0171624Y0233753D01*
X0172605Y0235351D02*
X0170277Y0235351D01*
X0167100Y0235351D02*
X0166700Y0235351D01*
X0166700Y0233753D02*
X0167100Y0233753D01*
X0167100Y0232154D02*
X0166700Y0232154D01*
X0166700Y0230556D02*
X0167100Y0230556D01*
X0167100Y0228957D02*
X0166700Y0228957D01*
X0166900Y0227930D02*
X0166900Y0224860D01*
X0178390Y0213370D01*
X0178390Y0202460D01*
X0181840Y0199010D01*
X0186590Y0199010D01*
X0186980Y0199400D01*
X0187050Y0199330D01*
X0208260Y0199330D01*
X0212080Y0203150D01*
X0228710Y0203150D01*
X0228710Y0208610D01*
X0228710Y0208177D02*
X0228710Y0208177D01*
X0228710Y0206578D02*
X0228710Y0206578D01*
X0228710Y0204980D02*
X0228710Y0204980D01*
X0228710Y0203381D02*
X0228710Y0203381D01*
X0226160Y0203381D02*
X0193836Y0203381D01*
X0195027Y0201783D02*
X0213456Y0201783D01*
X0211857Y0200184D02*
X0195523Y0200184D01*
X0195518Y0198586D02*
X0210259Y0198586D01*
X0209900Y0194550D02*
X0215100Y0199750D01*
X0230990Y0199750D01*
X0233620Y0202380D01*
X0233620Y0209110D01*
X0233710Y0209200D01*
X0238580Y0209070D02*
X0238710Y0209200D01*
X0238580Y0209070D02*
X0238580Y0190650D01*
X0235560Y0187630D01*
X0216560Y0187630D01*
X0204480Y0175550D01*
X0204480Y0108340D01*
X0212434Y0100386D01*
X0220212Y0100386D01*
X0220212Y0106291D02*
X0211309Y0106291D01*
X0208380Y0109220D01*
X0208380Y0175040D01*
X0217060Y0183720D01*
X0246000Y0183720D01*
X0248900Y0186620D01*
X0248900Y0209010D01*
X0248710Y0209200D01*
X0243740Y0209170D02*
X0243710Y0209200D01*
X0243740Y0209170D02*
X0243740Y0197320D01*
X0253800Y0191530D02*
X0253800Y0209110D01*
X0253710Y0209200D01*
X0258710Y0209200D02*
X0259290Y0208620D01*
X0259290Y0184360D01*
X0254840Y0179910D01*
X0218030Y0179910D01*
X0211670Y0173550D01*
X0211670Y0158570D01*
X0216705Y0153535D01*
X0220212Y0153535D01*
X0228170Y0156920D02*
X0228700Y0156390D01*
X0228700Y0095200D01*
X0222900Y0089400D01*
X0189550Y0089400D01*
X0189500Y0089450D01*
X0178900Y0089450D01*
X0174750Y0085300D01*
X0162598Y0085300D01*
X0146980Y0099400D02*
X0186980Y0099400D01*
X0186980Y0089400D02*
X0189550Y0089400D01*
X0186980Y0089400D02*
X0186980Y0079400D01*
X0194700Y0085091D02*
X0254801Y0085091D01*
X0253872Y0086690D02*
X0194700Y0086690D01*
X0220132Y0094400D02*
X0220212Y0094480D01*
X0220132Y0094400D02*
X0143000Y0094400D01*
X0140900Y0096500D01*
X0140900Y0112940D01*
X0140960Y0113000D01*
X0140960Y0171000D01*
X0137510Y0174400D01*
X0119700Y0174400D01*
X0118670Y0175480D01*
X0118670Y0196710D01*
X0121360Y0199400D01*
X0126980Y0199400D01*
X0126980Y0209400D02*
X0127560Y0209980D01*
X0169680Y0209980D01*
X0173070Y0206590D01*
X0173070Y0198780D01*
X0177450Y0194400D01*
X0209700Y0194400D01*
X0209700Y0194550D01*
X0209900Y0194550D01*
X0215050Y0195430D02*
X0221840Y0195430D01*
X0221970Y0195300D01*
X0215050Y0195430D02*
X0198060Y0178440D01*
X0198060Y0121810D01*
X0195650Y0119400D01*
X0186980Y0119400D01*
X0176980Y0112400D02*
X0176980Y0145340D01*
X0174250Y0142610D01*
X0167170Y0142610D01*
X0174380Y0148050D02*
X0143560Y0148050D01*
X0143560Y0170493D01*
X0143564Y0170502D01*
X0143560Y0171010D01*
X0143560Y0171517D01*
X0143556Y0171526D01*
X0143556Y0171536D01*
X0143358Y0172005D01*
X0143164Y0172473D01*
X0143157Y0172480D01*
X0143153Y0172489D01*
X0142791Y0172846D01*
X0142433Y0173204D01*
X0142424Y0173208D01*
X0139342Y0176245D01*
X0138983Y0176604D01*
X0138974Y0176608D01*
X0138967Y0176615D01*
X0138497Y0176806D01*
X0138027Y0177000D01*
X0138017Y0177000D01*
X0138008Y0177004D01*
X0137500Y0177000D01*
X0135018Y0177000D01*
X0135184Y0177327D01*
X0135447Y0178135D01*
X0135580Y0178975D01*
X0135580Y0179200D01*
X0127180Y0179200D01*
X0127180Y0179600D01*
X0135580Y0179600D01*
X0135580Y0179825D01*
X0135447Y0180665D01*
X0135184Y0181473D01*
X0134798Y0182230D01*
X0134299Y0182918D01*
X0133717Y0183500D01*
X0147769Y0183500D01*
X0148006Y0182927D01*
X0152686Y0178247D01*
X0153417Y0177516D01*
X0154373Y0177120D01*
X0175273Y0177120D01*
X0174776Y0176623D01*
X0174380Y0175667D01*
X0174380Y0148050D01*
X0174380Y0149032D02*
X0143560Y0149032D01*
X0143560Y0150630D02*
X0174380Y0150630D01*
X0174380Y0152229D02*
X0143560Y0152229D01*
X0143560Y0153827D02*
X0174380Y0153827D01*
X0174380Y0155426D02*
X0143560Y0155426D01*
X0143560Y0157024D02*
X0174380Y0157024D01*
X0174380Y0158623D02*
X0143560Y0158623D01*
X0143560Y0160221D02*
X0174380Y0160221D01*
X0174380Y0161820D02*
X0143560Y0161820D01*
X0143560Y0163418D02*
X0174380Y0163418D01*
X0174380Y0165017D02*
X0143560Y0165017D01*
X0143560Y0166615D02*
X0174380Y0166615D01*
X0174380Y0168214D02*
X0143560Y0168214D01*
X0143560Y0169812D02*
X0174380Y0169812D01*
X0174380Y0171411D02*
X0143560Y0171411D01*
X0142627Y0173009D02*
X0174380Y0173009D01*
X0174380Y0174608D02*
X0141003Y0174608D01*
X0139381Y0176206D02*
X0174603Y0176206D01*
X0176980Y0175150D02*
X0176980Y0145340D01*
X0166080Y0174540D02*
X0165960Y0174660D01*
X0154120Y0174660D01*
X0149380Y0179400D01*
X0126980Y0179400D01*
X0127180Y0179403D02*
X0151530Y0179403D01*
X0153128Y0177805D02*
X0135340Y0177805D01*
X0135337Y0181002D02*
X0149931Y0181002D01*
X0148333Y0182601D02*
X0134529Y0182601D01*
X0150210Y0184400D02*
X0154890Y0179720D01*
X0170900Y0179720D01*
X0167120Y0183500D01*
X0167120Y0190290D01*
X0170900Y0179720D02*
X0186660Y0179720D01*
X0186980Y0179400D01*
X0181230Y0179400D01*
X0176980Y0175150D01*
X0201210Y0177060D02*
X0215650Y0191440D01*
X0231000Y0191440D01*
X0225210Y0204980D02*
X0192574Y0204980D01*
X0194423Y0206578D02*
X0209984Y0206578D01*
X0229550Y0220170D02*
X0229990Y0219730D01*
X0241730Y0219730D01*
X0245511Y0220965D02*
X0290359Y0220965D01*
X0290466Y0222563D02*
X0245404Y0222563D01*
X0238056Y0222563D02*
X0233331Y0222563D01*
X0236185Y0214571D02*
X0236235Y0214571D01*
X0251185Y0214571D02*
X0251235Y0214571D01*
X0256185Y0214571D02*
X0256235Y0214571D01*
X0261185Y0214571D02*
X0261235Y0214571D01*
X0263710Y0209200D02*
X0263710Y0184510D01*
X0268400Y0179820D01*
X0284630Y0179820D01*
X0287900Y0176550D01*
X0287900Y0169880D01*
X0284522Y0173009D02*
X0270906Y0173009D01*
X0270906Y0174608D02*
X0285300Y0174608D01*
X0284567Y0176206D02*
X0270843Y0176206D01*
X0278411Y0163418D02*
X0365176Y0163418D01*
X0365176Y0161820D02*
X0300528Y0161820D01*
X0301191Y0160221D02*
X0365176Y0160221D01*
X0365176Y0158623D02*
X0358016Y0158623D01*
X0357876Y0158763D02*
X0357144Y0159295D01*
X0356337Y0159706D01*
X0355476Y0159986D01*
X0354583Y0160128D01*
X0350955Y0160128D01*
X0350955Y0154753D01*
X0350205Y0154753D01*
X0350205Y0160128D01*
X0346577Y0160128D01*
X0345684Y0159986D01*
X0344823Y0159706D01*
X0344016Y0159295D01*
X0343284Y0158763D01*
X0342644Y0158123D01*
X0342112Y0157391D01*
X0341701Y0156585D01*
X0341422Y0155724D01*
X0341280Y0154830D01*
X0341280Y0154753D01*
X0350205Y0154753D01*
X0350205Y0154003D01*
X0341280Y0154003D01*
X0341280Y0153925D01*
X0341422Y0153031D01*
X0341701Y0152170D01*
X0342112Y0151364D01*
X0342644Y0150632D01*
X0343284Y0149992D01*
X0344016Y0149460D01*
X0344823Y0149049D01*
X0345684Y0148769D01*
X0346577Y0148628D01*
X0350205Y0148628D01*
X0350205Y0154002D01*
X0350955Y0154002D01*
X0350955Y0148628D01*
X0354583Y0148628D01*
X0355476Y0148769D01*
X0356337Y0149049D01*
X0357144Y0149460D01*
X0357876Y0149992D01*
X0358516Y0150632D01*
X0359048Y0151364D01*
X0359459Y0152170D01*
X0359738Y0153031D01*
X0359880Y0153925D01*
X0359880Y0154003D01*
X0350955Y0154003D01*
X0350955Y0154753D01*
X0359880Y0154753D01*
X0359880Y0154830D01*
X0359738Y0155724D01*
X0359459Y0156585D01*
X0359048Y0157391D01*
X0358516Y0158123D01*
X0357876Y0158763D01*
X0359235Y0157024D02*
X0365176Y0157024D01*
X0365176Y0155426D02*
X0359786Y0155426D01*
X0359865Y0153827D02*
X0365176Y0153827D01*
X0365176Y0152229D02*
X0359478Y0152229D01*
X0358514Y0150630D02*
X0365176Y0150630D01*
X0365176Y0149032D02*
X0356285Y0149032D01*
X0350955Y0149032D02*
X0350205Y0149032D01*
X0350205Y0150630D02*
X0350955Y0150630D01*
X0350955Y0152229D02*
X0350205Y0152229D01*
X0350205Y0153827D02*
X0350955Y0153827D01*
X0350580Y0154378D02*
X0336802Y0154378D01*
X0325834Y0165346D01*
X0341925Y0157024D02*
X0301191Y0157024D01*
X0301191Y0158623D02*
X0343144Y0158623D01*
X0341374Y0155426D02*
X0300914Y0155426D01*
X0300010Y0153827D02*
X0341295Y0153827D01*
X0341682Y0152229D02*
X0300010Y0152229D01*
X0300010Y0150630D02*
X0342646Y0150630D01*
X0344875Y0149032D02*
X0300010Y0149032D01*
X0300010Y0147433D02*
X0365176Y0147433D01*
X0365176Y0145835D02*
X0300010Y0145835D01*
X0300010Y0144236D02*
X0365176Y0144236D01*
X0365176Y0142638D02*
X0300010Y0142638D01*
X0294810Y0139441D02*
X0294634Y0139441D01*
X0294810Y0137842D02*
X0293036Y0137842D01*
X0291437Y0136244D02*
X0294810Y0136244D01*
X0294810Y0134645D02*
X0278115Y0134645D01*
X0278115Y0136244D02*
X0284583Y0136244D01*
X0282984Y0137842D02*
X0278087Y0137842D01*
X0277827Y0139441D02*
X0281386Y0139441D01*
X0280010Y0141039D02*
X0278115Y0141039D01*
X0278115Y0142638D02*
X0280010Y0142638D01*
X0280010Y0144236D02*
X0277598Y0144236D01*
X0278115Y0145835D02*
X0280010Y0145835D01*
X0280010Y0147433D02*
X0278115Y0147433D01*
X0278115Y0149032D02*
X0281598Y0149032D01*
X0283197Y0150630D02*
X0277205Y0150630D01*
X0278115Y0152229D02*
X0294810Y0152229D01*
X0294810Y0153827D02*
X0278115Y0153827D01*
X0278115Y0155426D02*
X0293906Y0155426D01*
X0293629Y0157024D02*
X0277694Y0157024D01*
X0278115Y0158623D02*
X0293629Y0158623D01*
X0293629Y0160221D02*
X0278115Y0160221D01*
X0277731Y0161820D02*
X0294292Y0161820D01*
X0297410Y0158430D02*
X0297410Y0109500D01*
X0292010Y0104100D01*
X0288040Y0104100D01*
X0288010Y0104130D01*
X0280010Y0104273D02*
X0278093Y0104273D01*
X0278115Y0105872D02*
X0280010Y0105872D01*
X0280037Y0107470D02*
X0278115Y0107470D01*
X0277332Y0109069D02*
X0281635Y0109069D01*
X0283234Y0110668D02*
X0278115Y0110668D01*
X0278115Y0112266D02*
X0294810Y0112266D01*
X0294810Y0110668D02*
X0292786Y0110668D01*
X0294810Y0113865D02*
X0278115Y0113865D01*
X0277471Y0115463D02*
X0294810Y0115463D01*
X0294810Y0117062D02*
X0278115Y0117062D01*
X0278115Y0118660D02*
X0294810Y0118660D01*
X0294810Y0120259D02*
X0277954Y0120259D01*
X0277960Y0121857D02*
X0294810Y0121857D01*
X0294810Y0123456D02*
X0278115Y0123456D01*
X0278115Y0125054D02*
X0294810Y0125054D01*
X0294810Y0126653D02*
X0277465Y0126653D01*
X0278115Y0128251D02*
X0294810Y0128251D01*
X0294810Y0129850D02*
X0278115Y0129850D01*
X0278115Y0131448D02*
X0294810Y0131448D01*
X0294810Y0133047D02*
X0277338Y0133047D01*
X0269386Y0133047D02*
X0231300Y0133047D01*
X0231300Y0134645D02*
X0268609Y0134645D01*
X0268609Y0136244D02*
X0231300Y0136244D01*
X0231300Y0137842D02*
X0268637Y0137842D01*
X0268897Y0139441D02*
X0231300Y0139441D01*
X0231300Y0141039D02*
X0268609Y0141039D01*
X0268609Y0142638D02*
X0231300Y0142638D01*
X0231300Y0144236D02*
X0269126Y0144236D01*
X0268609Y0145835D02*
X0231300Y0145835D01*
X0231300Y0147433D02*
X0268609Y0147433D01*
X0268609Y0149032D02*
X0231300Y0149032D01*
X0231300Y0150630D02*
X0269519Y0150630D01*
X0268609Y0152229D02*
X0231300Y0152229D01*
X0231300Y0153827D02*
X0259945Y0153827D01*
X0266775Y0153827D02*
X0268609Y0153827D01*
X0268609Y0155426D02*
X0267141Y0155426D01*
X0267141Y0157024D02*
X0269030Y0157024D01*
X0268609Y0158623D02*
X0267141Y0158623D01*
X0266566Y0160221D02*
X0268609Y0160221D01*
X0292823Y0150630D02*
X0294810Y0150630D01*
X0294810Y0149032D02*
X0294422Y0149032D01*
X0300010Y0131448D02*
X0302449Y0131448D01*
X0300850Y0129850D02*
X0300010Y0129850D01*
X0306510Y0129850D02*
X0307510Y0129850D01*
X0307510Y0131448D02*
X0306510Y0131448D01*
X0306510Y0128251D02*
X0307510Y0128251D01*
X0307510Y0126653D02*
X0306510Y0126653D01*
X0306510Y0125054D02*
X0307510Y0125054D01*
X0307010Y0124130D02*
X0307020Y0124120D01*
X0307020Y0064170D01*
X0303370Y0060520D01*
X0267140Y0060520D01*
X0265880Y0060520D01*
X0262480Y0063920D01*
X0262480Y0096640D01*
X0260150Y0096281D02*
X0268609Y0096281D01*
X0268609Y0094682D02*
X0260150Y0094682D01*
X0260150Y0093084D02*
X0268609Y0093084D01*
X0269608Y0091485D02*
X0260150Y0091485D01*
X0257550Y0087690D02*
X0257550Y0128690D01*
X0260139Y0131448D02*
X0268609Y0131448D01*
X0268609Y0129850D02*
X0261162Y0129850D01*
X0261331Y0128251D02*
X0268609Y0128251D01*
X0269259Y0126653D02*
X0260799Y0126653D01*
X0260150Y0125054D02*
X0268609Y0125054D01*
X0268609Y0123456D02*
X0260150Y0123456D01*
X0260150Y0121857D02*
X0268764Y0121857D01*
X0268770Y0120259D02*
X0260150Y0120259D01*
X0260150Y0118660D02*
X0268609Y0118660D01*
X0268609Y0117062D02*
X0260150Y0117062D01*
X0260150Y0115463D02*
X0269253Y0115463D01*
X0268609Y0113865D02*
X0260150Y0113865D01*
X0260150Y0112266D02*
X0268609Y0112266D01*
X0268609Y0110668D02*
X0260150Y0110668D01*
X0260150Y0109069D02*
X0269392Y0109069D01*
X0268609Y0107470D02*
X0260150Y0107470D01*
X0260150Y0105872D02*
X0268609Y0105872D01*
X0268631Y0104273D02*
X0260150Y0104273D01*
X0260150Y0102675D02*
X0268903Y0102675D01*
X0268609Y0101076D02*
X0260150Y0101076D01*
X0260150Y0099478D02*
X0268609Y0099478D01*
X0269120Y0097879D02*
X0260150Y0097879D01*
X0254950Y0097879D02*
X0231300Y0097879D01*
X0231300Y0096281D02*
X0254950Y0096281D01*
X0254950Y0094682D02*
X0231300Y0094682D01*
X0230261Y0093084D02*
X0254950Y0093084D01*
X0254950Y0091485D02*
X0228662Y0091485D01*
X0227064Y0089887D02*
X0254400Y0089887D01*
X0253769Y0088288D02*
X0225465Y0088288D01*
X0231300Y0099478D02*
X0254950Y0099478D01*
X0254950Y0101076D02*
X0231300Y0101076D01*
X0231300Y0102675D02*
X0254950Y0102675D01*
X0254950Y0104273D02*
X0231300Y0104273D01*
X0231300Y0105872D02*
X0254950Y0105872D01*
X0254950Y0107470D02*
X0231300Y0107470D01*
X0231300Y0109069D02*
X0254950Y0109069D01*
X0254950Y0110668D02*
X0231300Y0110668D01*
X0231300Y0112266D02*
X0254950Y0112266D01*
X0254950Y0113865D02*
X0231300Y0113865D01*
X0231300Y0115463D02*
X0254950Y0115463D01*
X0254950Y0117062D02*
X0231300Y0117062D01*
X0231300Y0118660D02*
X0254950Y0118660D01*
X0254950Y0120259D02*
X0231300Y0120259D01*
X0231300Y0121857D02*
X0254950Y0121857D01*
X0254950Y0123456D02*
X0231300Y0123456D01*
X0231300Y0125054D02*
X0254950Y0125054D01*
X0254301Y0126653D02*
X0231300Y0126653D01*
X0231300Y0128251D02*
X0253769Y0128251D01*
X0253938Y0129850D02*
X0231300Y0129850D01*
X0231300Y0131448D02*
X0254961Y0131448D01*
X0277821Y0102675D02*
X0280010Y0102675D01*
X0280010Y0101076D02*
X0278115Y0101076D01*
X0278115Y0099478D02*
X0281348Y0099478D01*
X0282947Y0097879D02*
X0277604Y0097879D01*
X0284631Y0085091D02*
X0365176Y0085091D01*
X0365176Y0083493D02*
X0284631Y0083493D01*
X0284631Y0081894D02*
X0365176Y0081894D01*
X0365176Y0080296D02*
X0284631Y0080296D01*
X0280980Y0082620D02*
X0280850Y0082750D01*
X0280980Y0082620D02*
X0280980Y0067570D01*
X0339017Y0061114D02*
X0100459Y0061114D01*
X0100459Y0062712D02*
X0144870Y0062712D01*
X0126980Y0079600D02*
X0126930Y0079650D01*
X0119650Y0079650D01*
X0118200Y0081100D01*
X0118200Y0095850D01*
X0115330Y0098720D01*
X0115330Y0126230D01*
X0113100Y0128460D01*
X0084690Y0128460D01*
X0082150Y0131000D01*
X0082150Y0151150D01*
X0085300Y0154300D01*
X0088280Y0154300D01*
X0088430Y0154150D01*
X0098470Y0144190D02*
X0098430Y0144150D01*
X0098470Y0144190D02*
X0102330Y0144190D01*
X0104220Y0142300D01*
X0104220Y0134500D01*
X0106860Y0131860D01*
X0113280Y0131860D01*
X0113300Y0131840D01*
X0115990Y0131840D01*
X0118360Y0129470D01*
X0118360Y0101530D01*
X0120290Y0099600D01*
X0126980Y0099600D01*
X0115600Y0094682D02*
X0102620Y0094682D01*
X0103220Y0093084D02*
X0115600Y0093084D01*
X0115600Y0091485D02*
X0103220Y0091485D01*
X0103220Y0089887D02*
X0115600Y0089887D01*
X0115600Y0088288D02*
X0103220Y0088288D01*
X0103220Y0086690D02*
X0115600Y0086690D01*
X0115600Y0085091D02*
X0103220Y0085091D01*
X0102660Y0083493D02*
X0115600Y0083493D01*
X0115600Y0081894D02*
X0101345Y0081894D01*
X0095095Y0081894D02*
X0091911Y0081894D01*
X0093085Y0083493D02*
X0093780Y0083493D01*
X0088420Y0083493D02*
X0088020Y0083493D01*
X0088020Y0085091D02*
X0088420Y0085091D01*
X0088420Y0086690D02*
X0088020Y0086690D01*
X0088020Y0088288D02*
X0088420Y0088288D01*
X0088420Y0089887D02*
X0088020Y0089887D01*
X0088020Y0091485D02*
X0088420Y0091485D01*
X0088420Y0093084D02*
X0088020Y0093084D01*
X0088020Y0094682D02*
X0088420Y0094682D01*
X0088420Y0096281D02*
X0088020Y0096281D01*
X0091816Y0096281D02*
X0095190Y0096281D01*
X0093820Y0094682D02*
X0093036Y0094682D01*
X0101250Y0096281D02*
X0114092Y0096281D01*
X0088420Y0081894D02*
X0088020Y0081894D01*
X0100459Y0059515D02*
X0339017Y0059515D01*
X0339017Y0057917D02*
X0100459Y0057917D01*
X0100459Y0056318D02*
X0339017Y0056318D01*
X0339017Y0054720D02*
X0100459Y0054720D01*
X0100459Y0053121D02*
X0339017Y0053121D01*
X0307510Y0117062D02*
X0306510Y0117062D01*
X0306510Y0118660D02*
X0307510Y0118660D01*
X0307510Y0120259D02*
X0306510Y0120259D01*
X0306510Y0121857D02*
X0307510Y0121857D01*
X0307510Y0123456D02*
X0306510Y0123456D01*
X0300601Y0118660D02*
X0300010Y0118660D01*
X0300010Y0117062D02*
X0302199Y0117062D01*
X0350205Y0155426D02*
X0350955Y0155426D01*
X0350955Y0157024D02*
X0350205Y0157024D01*
X0350205Y0158623D02*
X0350955Y0158623D01*
X0310025Y0204980D02*
X0296740Y0204980D01*
X0296740Y0206578D02*
X0309284Y0206578D01*
X0309190Y0208177D02*
X0296740Y0208177D01*
X0296740Y0209775D02*
X0309662Y0209775D01*
X0201210Y0177060D02*
X0201210Y0112240D01*
X0198370Y0109400D01*
X0186980Y0109400D01*
X0140960Y0113000D02*
X0140960Y0098700D01*
X0112200Y0174150D02*
X0098430Y0174150D01*
X0098430Y0184150D02*
X0098530Y0184250D01*
X0103250Y0184250D01*
X0106320Y0187320D01*
X0106320Y0234080D01*
X0111420Y0239180D01*
X0172520Y0239180D01*
X0175450Y0236150D01*
X0175450Y0233200D01*
X0175490Y0233140D01*
X0175490Y0223530D01*
X0179620Y0219400D01*
X0186980Y0219400D01*
X0180281Y0212972D02*
X0163850Y0212972D01*
X0171963Y0211374D02*
X0179186Y0211374D01*
X0178780Y0209775D02*
X0173562Y0209775D01*
X0175160Y0208177D02*
X0178875Y0208177D01*
X0179537Y0206578D02*
X0175670Y0206578D01*
X0175670Y0204980D02*
X0181386Y0204980D01*
X0180124Y0203381D02*
X0175670Y0203381D01*
X0175670Y0201783D02*
X0178933Y0201783D01*
X0178437Y0200184D02*
X0175670Y0200184D01*
X0176941Y0198586D02*
X0178442Y0198586D01*
X0186980Y0199400D02*
X0187380Y0199000D01*
X0186980Y0199400D02*
X0187060Y0199480D01*
X0167100Y0220965D02*
X0166700Y0220965D01*
X0166700Y0222563D02*
X0167100Y0222563D01*
X0167100Y0224162D02*
X0166700Y0224162D01*
X0166700Y0225760D02*
X0167100Y0225760D01*
X0167100Y0227359D02*
X0166700Y0227359D01*
X0179480Y0230420D02*
X0179480Y0237890D01*
X0175500Y0241920D01*
X0110070Y0241920D01*
X0103420Y0235220D01*
X0103450Y0235220D01*
X0103450Y0209350D01*
X0101060Y0205760D01*
X0085240Y0205760D01*
X0082380Y0201950D01*
X0082380Y0186900D01*
X0084980Y0184150D01*
X0088430Y0184150D01*
X0112200Y0174150D02*
X0115380Y0177330D01*
X0115380Y0216870D01*
X0117880Y0219370D01*
X0126950Y0219370D01*
X0126980Y0219400D01*
X0150210Y0190290D02*
X0150210Y0184400D01*
X0180500Y0229400D02*
X0179480Y0230420D01*
X0180500Y0229400D02*
X0186980Y0229400D01*
X0186900Y0229480D01*
D21*
X0213350Y0209720D03*
X0229550Y0220170D03*
X0241730Y0219730D03*
X0243740Y0197320D03*
X0253800Y0191530D03*
X0231000Y0191440D03*
X0221970Y0195300D03*
X0256000Y0165200D03*
X0263360Y0156920D03*
X0287900Y0169880D03*
X0297410Y0158430D03*
X0294360Y0189030D03*
X0329160Y0194300D03*
X0336840Y0194440D03*
X0294140Y0219730D03*
X0167120Y0190290D03*
X0150210Y0190290D03*
X0166080Y0174540D03*
X0167170Y0142610D03*
X0176980Y0112400D03*
X0146980Y0099400D03*
X0262480Y0096640D03*
X0280850Y0082750D03*
X0280980Y0067570D03*
X0267140Y0060520D03*
D22*
X0151402Y0085300D02*
X0141600Y0085300D01*
X0137800Y0089100D01*
X0137800Y0151500D01*
X0134850Y0154450D01*
X0120000Y0154450D01*
X0116900Y0157550D01*
X0116900Y0166500D01*
X0114200Y0169200D01*
X0095200Y0169200D01*
X0093350Y0171050D01*
X0093350Y0180100D01*
X0097400Y0184150D01*
X0098430Y0184150D01*
D23*
X0257550Y0128690D03*
X0257550Y0087690D03*
M02*
