G75*
%MOIN*%
%OFA0B0*%
%FSLAX25Y25*%
%IPPOS*%
%LPD*%
%AMOC8*
5,1,8,0,0,1.08239X$1,22.5*
%
%ADD10R,0.04803X0.02441*%
%ADD11C,0.07100*%
%ADD12R,0.03937X0.05512*%
%ADD13C,0.06400*%
%ADD14R,0.05512X0.08661*%
%ADD15R,0.06299X0.07098*%
%ADD16R,0.07098X0.06299*%
%ADD17R,0.07087X0.06299*%
%ADD18OC8,0.06400*%
%ADD19R,0.08000X0.02600*%
%ADD20R,0.06299X0.07087*%
%ADD21OC8,0.12400*%
%ADD22C,0.05600*%
%ADD23C,0.00000*%
%ADD24C,0.01600*%
%ADD25R,0.03962X0.03962*%
%ADD26C,0.03962*%
D10*
X0211432Y0078700D03*
X0211432Y0082440D03*
X0211432Y0086180D03*
X0221668Y0086180D03*
X0221668Y0082440D03*
X0221668Y0078700D03*
X0221668Y0119200D03*
X0221668Y0122940D03*
X0221668Y0126680D03*
X0211432Y0126680D03*
X0211432Y0122940D03*
X0211432Y0119200D03*
D11*
X0347030Y0115007D02*
X0354130Y0115007D01*
X0354130Y0095322D02*
X0347030Y0095322D01*
X0347030Y0134693D02*
X0354130Y0134693D01*
X0354130Y0154378D02*
X0347030Y0154378D01*
D12*
X0146970Y0125349D03*
X0139490Y0125349D03*
X0143230Y0134011D03*
X0139490Y0091481D03*
X0146970Y0091481D03*
X0143230Y0082819D03*
D13*
X0146980Y0073650D02*
X0146980Y0067250D01*
X0156980Y0067250D02*
X0156980Y0073650D01*
X0166980Y0073650D02*
X0166980Y0067250D01*
X0183780Y0069400D02*
X0190180Y0069400D01*
X0190180Y0079400D02*
X0183780Y0079400D01*
X0183780Y0089400D02*
X0190180Y0089400D01*
X0190180Y0099400D02*
X0183780Y0099400D01*
X0183780Y0109400D02*
X0190180Y0109400D01*
X0190180Y0119400D02*
X0183780Y0119400D01*
X0183780Y0129400D02*
X0190180Y0129400D01*
X0190180Y0139400D02*
X0183780Y0139400D01*
X0183780Y0149400D02*
X0190180Y0149400D01*
X0190180Y0159400D02*
X0183780Y0159400D01*
X0183780Y0169400D02*
X0190180Y0169400D01*
X0190180Y0179400D02*
X0183780Y0179400D01*
X0183780Y0189400D02*
X0190180Y0189400D01*
X0190180Y0199400D02*
X0183780Y0199400D01*
X0183780Y0209400D02*
X0190180Y0209400D01*
X0190180Y0219400D02*
X0183780Y0219400D01*
X0183780Y0229400D02*
X0190180Y0229400D01*
X0166900Y0231130D02*
X0166900Y0224730D01*
X0156900Y0224730D02*
X0156900Y0231130D01*
X0146900Y0231130D02*
X0146900Y0224730D01*
X0130180Y0229400D02*
X0123780Y0229400D01*
X0123780Y0219400D02*
X0130180Y0219400D01*
X0130180Y0209400D02*
X0123780Y0209400D01*
X0123780Y0199400D02*
X0130180Y0199400D01*
X0130180Y0189400D02*
X0123780Y0189400D01*
X0123780Y0179400D02*
X0130180Y0179400D01*
X0130180Y0169400D02*
X0123780Y0169400D01*
X0123780Y0159400D02*
X0130180Y0159400D01*
X0130180Y0149400D02*
X0123780Y0149400D01*
X0123780Y0139400D02*
X0130180Y0139400D01*
X0130180Y0129400D02*
X0123780Y0129400D01*
X0123780Y0119400D02*
X0130180Y0119400D01*
X0130180Y0109600D02*
X0123780Y0109600D01*
X0123780Y0099600D02*
X0130180Y0099600D01*
X0130180Y0089600D02*
X0123780Y0089600D01*
X0123780Y0079600D02*
X0130180Y0079600D01*
X0130180Y0069600D02*
X0123780Y0069600D01*
X0098220Y0085840D02*
X0098220Y0092240D01*
X0088220Y0092240D02*
X0088220Y0085840D01*
D14*
X0319630Y0173291D03*
X0319630Y0185889D03*
D15*
X0250148Y0153690D03*
X0238952Y0153690D03*
X0224398Y0153440D03*
X0213202Y0153440D03*
X0213202Y0137190D03*
X0224398Y0137190D03*
X0238952Y0137190D03*
X0250148Y0137190D03*
X0250148Y0119190D03*
X0238952Y0119190D03*
X0238952Y0108440D03*
X0250148Y0108440D03*
X0250148Y0096690D03*
X0238952Y0096690D03*
X0224398Y0096690D03*
X0213202Y0096690D03*
X0238952Y0078690D03*
X0250148Y0078690D03*
X0250148Y0067690D03*
X0238952Y0067690D03*
D16*
X0170230Y0092052D03*
X0157230Y0092302D03*
X0157230Y0103498D03*
X0170230Y0103248D03*
X0170230Y0124362D03*
X0157230Y0124302D03*
X0157230Y0135498D03*
X0170230Y0135558D03*
X0167150Y0198332D03*
X0167150Y0209528D03*
X0146840Y0209528D03*
X0146840Y0198332D03*
D17*
X0302480Y0194448D03*
X0302480Y0205472D03*
X0302450Y0218638D03*
X0302450Y0229662D03*
X0336980Y0185352D03*
X0351740Y0185772D03*
X0351740Y0174748D03*
X0336980Y0174328D03*
D18*
X0098430Y0174150D03*
X0088430Y0174150D03*
X0088430Y0184150D03*
X0098430Y0184150D03*
X0098430Y0194150D03*
X0088430Y0194150D03*
X0088430Y0164150D03*
X0098430Y0164150D03*
X0098430Y0154150D03*
X0088430Y0154150D03*
X0088430Y0144150D03*
X0098430Y0144150D03*
X0098430Y0134150D03*
X0088430Y0134150D03*
D19*
X0260510Y0209450D03*
X0260510Y0214450D03*
X0260510Y0219450D03*
X0260510Y0224450D03*
X0284710Y0224450D03*
X0284710Y0219450D03*
X0284710Y0214450D03*
X0284710Y0209450D03*
D20*
X0278152Y0194380D03*
X0267128Y0194380D03*
X0267038Y0174900D03*
X0278062Y0174900D03*
D21*
X0288010Y0144130D03*
X0307010Y0124130D03*
X0288010Y0104130D03*
D22*
X0313790Y0207720D03*
X0313790Y0217720D03*
D23*
X0351628Y0050700D02*
X0087848Y0050700D01*
X0081549Y0066448D02*
X0081551Y0066606D01*
X0081557Y0066764D01*
X0081567Y0066922D01*
X0081581Y0067080D01*
X0081599Y0067237D01*
X0081620Y0067394D01*
X0081646Y0067550D01*
X0081676Y0067706D01*
X0081709Y0067861D01*
X0081747Y0068014D01*
X0081788Y0068167D01*
X0081833Y0068319D01*
X0081882Y0068470D01*
X0081935Y0068619D01*
X0081991Y0068767D01*
X0082051Y0068913D01*
X0082115Y0069058D01*
X0082183Y0069201D01*
X0082254Y0069343D01*
X0082328Y0069483D01*
X0082406Y0069620D01*
X0082488Y0069756D01*
X0082572Y0069890D01*
X0082661Y0070021D01*
X0082752Y0070150D01*
X0082847Y0070277D01*
X0082944Y0070402D01*
X0083045Y0070524D01*
X0083149Y0070643D01*
X0083256Y0070760D01*
X0083366Y0070874D01*
X0083479Y0070985D01*
X0083594Y0071094D01*
X0083712Y0071199D01*
X0083833Y0071301D01*
X0083956Y0071401D01*
X0084082Y0071497D01*
X0084210Y0071590D01*
X0084340Y0071680D01*
X0084473Y0071766D01*
X0084608Y0071850D01*
X0084744Y0071929D01*
X0084883Y0072006D01*
X0085024Y0072078D01*
X0085166Y0072148D01*
X0085310Y0072213D01*
X0085456Y0072275D01*
X0085603Y0072333D01*
X0085752Y0072388D01*
X0085902Y0072439D01*
X0086053Y0072486D01*
X0086205Y0072529D01*
X0086358Y0072568D01*
X0086513Y0072604D01*
X0086668Y0072635D01*
X0086824Y0072663D01*
X0086980Y0072687D01*
X0087137Y0072707D01*
X0087295Y0072723D01*
X0087452Y0072735D01*
X0087611Y0072743D01*
X0087769Y0072747D01*
X0087927Y0072747D01*
X0088085Y0072743D01*
X0088244Y0072735D01*
X0088401Y0072723D01*
X0088559Y0072707D01*
X0088716Y0072687D01*
X0088872Y0072663D01*
X0089028Y0072635D01*
X0089183Y0072604D01*
X0089338Y0072568D01*
X0089491Y0072529D01*
X0089643Y0072486D01*
X0089794Y0072439D01*
X0089944Y0072388D01*
X0090093Y0072333D01*
X0090240Y0072275D01*
X0090386Y0072213D01*
X0090530Y0072148D01*
X0090672Y0072078D01*
X0090813Y0072006D01*
X0090952Y0071929D01*
X0091088Y0071850D01*
X0091223Y0071766D01*
X0091356Y0071680D01*
X0091486Y0071590D01*
X0091614Y0071497D01*
X0091740Y0071401D01*
X0091863Y0071301D01*
X0091984Y0071199D01*
X0092102Y0071094D01*
X0092217Y0070985D01*
X0092330Y0070874D01*
X0092440Y0070760D01*
X0092547Y0070643D01*
X0092651Y0070524D01*
X0092752Y0070402D01*
X0092849Y0070277D01*
X0092944Y0070150D01*
X0093035Y0070021D01*
X0093124Y0069890D01*
X0093208Y0069756D01*
X0093290Y0069620D01*
X0093368Y0069483D01*
X0093442Y0069343D01*
X0093513Y0069201D01*
X0093581Y0069058D01*
X0093645Y0068913D01*
X0093705Y0068767D01*
X0093761Y0068619D01*
X0093814Y0068470D01*
X0093863Y0068319D01*
X0093908Y0068167D01*
X0093949Y0068014D01*
X0093987Y0067861D01*
X0094020Y0067706D01*
X0094050Y0067550D01*
X0094076Y0067394D01*
X0094097Y0067237D01*
X0094115Y0067080D01*
X0094129Y0066922D01*
X0094139Y0066764D01*
X0094145Y0066606D01*
X0094147Y0066448D01*
X0094145Y0066290D01*
X0094139Y0066132D01*
X0094129Y0065974D01*
X0094115Y0065816D01*
X0094097Y0065659D01*
X0094076Y0065502D01*
X0094050Y0065346D01*
X0094020Y0065190D01*
X0093987Y0065035D01*
X0093949Y0064882D01*
X0093908Y0064729D01*
X0093863Y0064577D01*
X0093814Y0064426D01*
X0093761Y0064277D01*
X0093705Y0064129D01*
X0093645Y0063983D01*
X0093581Y0063838D01*
X0093513Y0063695D01*
X0093442Y0063553D01*
X0093368Y0063413D01*
X0093290Y0063276D01*
X0093208Y0063140D01*
X0093124Y0063006D01*
X0093035Y0062875D01*
X0092944Y0062746D01*
X0092849Y0062619D01*
X0092752Y0062494D01*
X0092651Y0062372D01*
X0092547Y0062253D01*
X0092440Y0062136D01*
X0092330Y0062022D01*
X0092217Y0061911D01*
X0092102Y0061802D01*
X0091984Y0061697D01*
X0091863Y0061595D01*
X0091740Y0061495D01*
X0091614Y0061399D01*
X0091486Y0061306D01*
X0091356Y0061216D01*
X0091223Y0061130D01*
X0091088Y0061046D01*
X0090952Y0060967D01*
X0090813Y0060890D01*
X0090672Y0060818D01*
X0090530Y0060748D01*
X0090386Y0060683D01*
X0090240Y0060621D01*
X0090093Y0060563D01*
X0089944Y0060508D01*
X0089794Y0060457D01*
X0089643Y0060410D01*
X0089491Y0060367D01*
X0089338Y0060328D01*
X0089183Y0060292D01*
X0089028Y0060261D01*
X0088872Y0060233D01*
X0088716Y0060209D01*
X0088559Y0060189D01*
X0088401Y0060173D01*
X0088244Y0060161D01*
X0088085Y0060153D01*
X0087927Y0060149D01*
X0087769Y0060149D01*
X0087611Y0060153D01*
X0087452Y0060161D01*
X0087295Y0060173D01*
X0087137Y0060189D01*
X0086980Y0060209D01*
X0086824Y0060233D01*
X0086668Y0060261D01*
X0086513Y0060292D01*
X0086358Y0060328D01*
X0086205Y0060367D01*
X0086053Y0060410D01*
X0085902Y0060457D01*
X0085752Y0060508D01*
X0085603Y0060563D01*
X0085456Y0060621D01*
X0085310Y0060683D01*
X0085166Y0060748D01*
X0085024Y0060818D01*
X0084883Y0060890D01*
X0084744Y0060967D01*
X0084608Y0061046D01*
X0084473Y0061130D01*
X0084340Y0061216D01*
X0084210Y0061306D01*
X0084082Y0061399D01*
X0083956Y0061495D01*
X0083833Y0061595D01*
X0083712Y0061697D01*
X0083594Y0061802D01*
X0083479Y0061911D01*
X0083366Y0062022D01*
X0083256Y0062136D01*
X0083149Y0062253D01*
X0083045Y0062372D01*
X0082944Y0062494D01*
X0082847Y0062619D01*
X0082752Y0062746D01*
X0082661Y0062875D01*
X0082572Y0063006D01*
X0082488Y0063140D01*
X0082406Y0063276D01*
X0082328Y0063413D01*
X0082254Y0063553D01*
X0082183Y0063695D01*
X0082115Y0063838D01*
X0082051Y0063983D01*
X0081991Y0064129D01*
X0081935Y0064277D01*
X0081882Y0064426D01*
X0081833Y0064577D01*
X0081788Y0064729D01*
X0081747Y0064882D01*
X0081709Y0065035D01*
X0081676Y0065190D01*
X0081646Y0065346D01*
X0081620Y0065502D01*
X0081599Y0065659D01*
X0081581Y0065816D01*
X0081567Y0065974D01*
X0081557Y0066132D01*
X0081551Y0066290D01*
X0081549Y0066448D01*
X0072100Y0066448D02*
X0072105Y0066067D01*
X0072118Y0065687D01*
X0072141Y0065307D01*
X0072174Y0064928D01*
X0072215Y0064550D01*
X0072265Y0064173D01*
X0072325Y0063797D01*
X0072393Y0063422D01*
X0072471Y0063050D01*
X0072558Y0062679D01*
X0072653Y0062311D01*
X0072758Y0061945D01*
X0072871Y0061582D01*
X0072993Y0061221D01*
X0073123Y0060864D01*
X0073263Y0060510D01*
X0073410Y0060159D01*
X0073567Y0059812D01*
X0073731Y0059469D01*
X0073904Y0059130D01*
X0074085Y0058795D01*
X0074274Y0058464D01*
X0074471Y0058139D01*
X0074675Y0057818D01*
X0074888Y0057502D01*
X0075108Y0057192D01*
X0075335Y0056886D01*
X0075570Y0056587D01*
X0075812Y0056293D01*
X0076060Y0056005D01*
X0076316Y0055723D01*
X0076579Y0055448D01*
X0076848Y0055179D01*
X0077123Y0054916D01*
X0077405Y0054660D01*
X0077693Y0054412D01*
X0077987Y0054170D01*
X0078286Y0053935D01*
X0078592Y0053708D01*
X0078902Y0053488D01*
X0079218Y0053275D01*
X0079539Y0053071D01*
X0079864Y0052874D01*
X0080195Y0052685D01*
X0080530Y0052504D01*
X0080869Y0052331D01*
X0081212Y0052167D01*
X0081559Y0052010D01*
X0081910Y0051863D01*
X0082264Y0051723D01*
X0082621Y0051593D01*
X0082982Y0051471D01*
X0083345Y0051358D01*
X0083711Y0051253D01*
X0084079Y0051158D01*
X0084450Y0051071D01*
X0084822Y0050993D01*
X0085197Y0050925D01*
X0085573Y0050865D01*
X0085950Y0050815D01*
X0086328Y0050774D01*
X0086707Y0050741D01*
X0087087Y0050718D01*
X0087467Y0050705D01*
X0087848Y0050700D01*
X0072100Y0066448D02*
X0072100Y0231802D01*
X0081549Y0231802D02*
X0081551Y0231960D01*
X0081557Y0232118D01*
X0081567Y0232276D01*
X0081581Y0232434D01*
X0081599Y0232591D01*
X0081620Y0232748D01*
X0081646Y0232904D01*
X0081676Y0233060D01*
X0081709Y0233215D01*
X0081747Y0233368D01*
X0081788Y0233521D01*
X0081833Y0233673D01*
X0081882Y0233824D01*
X0081935Y0233973D01*
X0081991Y0234121D01*
X0082051Y0234267D01*
X0082115Y0234412D01*
X0082183Y0234555D01*
X0082254Y0234697D01*
X0082328Y0234837D01*
X0082406Y0234974D01*
X0082488Y0235110D01*
X0082572Y0235244D01*
X0082661Y0235375D01*
X0082752Y0235504D01*
X0082847Y0235631D01*
X0082944Y0235756D01*
X0083045Y0235878D01*
X0083149Y0235997D01*
X0083256Y0236114D01*
X0083366Y0236228D01*
X0083479Y0236339D01*
X0083594Y0236448D01*
X0083712Y0236553D01*
X0083833Y0236655D01*
X0083956Y0236755D01*
X0084082Y0236851D01*
X0084210Y0236944D01*
X0084340Y0237034D01*
X0084473Y0237120D01*
X0084608Y0237204D01*
X0084744Y0237283D01*
X0084883Y0237360D01*
X0085024Y0237432D01*
X0085166Y0237502D01*
X0085310Y0237567D01*
X0085456Y0237629D01*
X0085603Y0237687D01*
X0085752Y0237742D01*
X0085902Y0237793D01*
X0086053Y0237840D01*
X0086205Y0237883D01*
X0086358Y0237922D01*
X0086513Y0237958D01*
X0086668Y0237989D01*
X0086824Y0238017D01*
X0086980Y0238041D01*
X0087137Y0238061D01*
X0087295Y0238077D01*
X0087452Y0238089D01*
X0087611Y0238097D01*
X0087769Y0238101D01*
X0087927Y0238101D01*
X0088085Y0238097D01*
X0088244Y0238089D01*
X0088401Y0238077D01*
X0088559Y0238061D01*
X0088716Y0238041D01*
X0088872Y0238017D01*
X0089028Y0237989D01*
X0089183Y0237958D01*
X0089338Y0237922D01*
X0089491Y0237883D01*
X0089643Y0237840D01*
X0089794Y0237793D01*
X0089944Y0237742D01*
X0090093Y0237687D01*
X0090240Y0237629D01*
X0090386Y0237567D01*
X0090530Y0237502D01*
X0090672Y0237432D01*
X0090813Y0237360D01*
X0090952Y0237283D01*
X0091088Y0237204D01*
X0091223Y0237120D01*
X0091356Y0237034D01*
X0091486Y0236944D01*
X0091614Y0236851D01*
X0091740Y0236755D01*
X0091863Y0236655D01*
X0091984Y0236553D01*
X0092102Y0236448D01*
X0092217Y0236339D01*
X0092330Y0236228D01*
X0092440Y0236114D01*
X0092547Y0235997D01*
X0092651Y0235878D01*
X0092752Y0235756D01*
X0092849Y0235631D01*
X0092944Y0235504D01*
X0093035Y0235375D01*
X0093124Y0235244D01*
X0093208Y0235110D01*
X0093290Y0234974D01*
X0093368Y0234837D01*
X0093442Y0234697D01*
X0093513Y0234555D01*
X0093581Y0234412D01*
X0093645Y0234267D01*
X0093705Y0234121D01*
X0093761Y0233973D01*
X0093814Y0233824D01*
X0093863Y0233673D01*
X0093908Y0233521D01*
X0093949Y0233368D01*
X0093987Y0233215D01*
X0094020Y0233060D01*
X0094050Y0232904D01*
X0094076Y0232748D01*
X0094097Y0232591D01*
X0094115Y0232434D01*
X0094129Y0232276D01*
X0094139Y0232118D01*
X0094145Y0231960D01*
X0094147Y0231802D01*
X0094145Y0231644D01*
X0094139Y0231486D01*
X0094129Y0231328D01*
X0094115Y0231170D01*
X0094097Y0231013D01*
X0094076Y0230856D01*
X0094050Y0230700D01*
X0094020Y0230544D01*
X0093987Y0230389D01*
X0093949Y0230236D01*
X0093908Y0230083D01*
X0093863Y0229931D01*
X0093814Y0229780D01*
X0093761Y0229631D01*
X0093705Y0229483D01*
X0093645Y0229337D01*
X0093581Y0229192D01*
X0093513Y0229049D01*
X0093442Y0228907D01*
X0093368Y0228767D01*
X0093290Y0228630D01*
X0093208Y0228494D01*
X0093124Y0228360D01*
X0093035Y0228229D01*
X0092944Y0228100D01*
X0092849Y0227973D01*
X0092752Y0227848D01*
X0092651Y0227726D01*
X0092547Y0227607D01*
X0092440Y0227490D01*
X0092330Y0227376D01*
X0092217Y0227265D01*
X0092102Y0227156D01*
X0091984Y0227051D01*
X0091863Y0226949D01*
X0091740Y0226849D01*
X0091614Y0226753D01*
X0091486Y0226660D01*
X0091356Y0226570D01*
X0091223Y0226484D01*
X0091088Y0226400D01*
X0090952Y0226321D01*
X0090813Y0226244D01*
X0090672Y0226172D01*
X0090530Y0226102D01*
X0090386Y0226037D01*
X0090240Y0225975D01*
X0090093Y0225917D01*
X0089944Y0225862D01*
X0089794Y0225811D01*
X0089643Y0225764D01*
X0089491Y0225721D01*
X0089338Y0225682D01*
X0089183Y0225646D01*
X0089028Y0225615D01*
X0088872Y0225587D01*
X0088716Y0225563D01*
X0088559Y0225543D01*
X0088401Y0225527D01*
X0088244Y0225515D01*
X0088085Y0225507D01*
X0087927Y0225503D01*
X0087769Y0225503D01*
X0087611Y0225507D01*
X0087452Y0225515D01*
X0087295Y0225527D01*
X0087137Y0225543D01*
X0086980Y0225563D01*
X0086824Y0225587D01*
X0086668Y0225615D01*
X0086513Y0225646D01*
X0086358Y0225682D01*
X0086205Y0225721D01*
X0086053Y0225764D01*
X0085902Y0225811D01*
X0085752Y0225862D01*
X0085603Y0225917D01*
X0085456Y0225975D01*
X0085310Y0226037D01*
X0085166Y0226102D01*
X0085024Y0226172D01*
X0084883Y0226244D01*
X0084744Y0226321D01*
X0084608Y0226400D01*
X0084473Y0226484D01*
X0084340Y0226570D01*
X0084210Y0226660D01*
X0084082Y0226753D01*
X0083956Y0226849D01*
X0083833Y0226949D01*
X0083712Y0227051D01*
X0083594Y0227156D01*
X0083479Y0227265D01*
X0083366Y0227376D01*
X0083256Y0227490D01*
X0083149Y0227607D01*
X0083045Y0227726D01*
X0082944Y0227848D01*
X0082847Y0227973D01*
X0082752Y0228100D01*
X0082661Y0228229D01*
X0082572Y0228360D01*
X0082488Y0228494D01*
X0082406Y0228630D01*
X0082328Y0228767D01*
X0082254Y0228907D01*
X0082183Y0229049D01*
X0082115Y0229192D01*
X0082051Y0229337D01*
X0081991Y0229483D01*
X0081935Y0229631D01*
X0081882Y0229780D01*
X0081833Y0229931D01*
X0081788Y0230083D01*
X0081747Y0230236D01*
X0081709Y0230389D01*
X0081676Y0230544D01*
X0081646Y0230700D01*
X0081620Y0230856D01*
X0081599Y0231013D01*
X0081581Y0231170D01*
X0081567Y0231328D01*
X0081557Y0231486D01*
X0081551Y0231644D01*
X0081549Y0231802D01*
X0072100Y0231802D02*
X0072105Y0232183D01*
X0072118Y0232563D01*
X0072141Y0232943D01*
X0072174Y0233322D01*
X0072215Y0233700D01*
X0072265Y0234077D01*
X0072325Y0234453D01*
X0072393Y0234828D01*
X0072471Y0235200D01*
X0072558Y0235571D01*
X0072653Y0235939D01*
X0072758Y0236305D01*
X0072871Y0236668D01*
X0072993Y0237029D01*
X0073123Y0237386D01*
X0073263Y0237740D01*
X0073410Y0238091D01*
X0073567Y0238438D01*
X0073731Y0238781D01*
X0073904Y0239120D01*
X0074085Y0239455D01*
X0074274Y0239786D01*
X0074471Y0240111D01*
X0074675Y0240432D01*
X0074888Y0240748D01*
X0075108Y0241058D01*
X0075335Y0241364D01*
X0075570Y0241663D01*
X0075812Y0241957D01*
X0076060Y0242245D01*
X0076316Y0242527D01*
X0076579Y0242802D01*
X0076848Y0243071D01*
X0077123Y0243334D01*
X0077405Y0243590D01*
X0077693Y0243838D01*
X0077987Y0244080D01*
X0078286Y0244315D01*
X0078592Y0244542D01*
X0078902Y0244762D01*
X0079218Y0244975D01*
X0079539Y0245179D01*
X0079864Y0245376D01*
X0080195Y0245565D01*
X0080530Y0245746D01*
X0080869Y0245919D01*
X0081212Y0246083D01*
X0081559Y0246240D01*
X0081910Y0246387D01*
X0082264Y0246527D01*
X0082621Y0246657D01*
X0082982Y0246779D01*
X0083345Y0246892D01*
X0083711Y0246997D01*
X0084079Y0247092D01*
X0084450Y0247179D01*
X0084822Y0247257D01*
X0085197Y0247325D01*
X0085573Y0247385D01*
X0085950Y0247435D01*
X0086328Y0247476D01*
X0086707Y0247509D01*
X0087087Y0247532D01*
X0087467Y0247545D01*
X0087848Y0247550D01*
X0351628Y0247550D01*
X0345329Y0231802D02*
X0345331Y0231960D01*
X0345337Y0232118D01*
X0345347Y0232276D01*
X0345361Y0232434D01*
X0345379Y0232591D01*
X0345400Y0232748D01*
X0345426Y0232904D01*
X0345456Y0233060D01*
X0345489Y0233215D01*
X0345527Y0233368D01*
X0345568Y0233521D01*
X0345613Y0233673D01*
X0345662Y0233824D01*
X0345715Y0233973D01*
X0345771Y0234121D01*
X0345831Y0234267D01*
X0345895Y0234412D01*
X0345963Y0234555D01*
X0346034Y0234697D01*
X0346108Y0234837D01*
X0346186Y0234974D01*
X0346268Y0235110D01*
X0346352Y0235244D01*
X0346441Y0235375D01*
X0346532Y0235504D01*
X0346627Y0235631D01*
X0346724Y0235756D01*
X0346825Y0235878D01*
X0346929Y0235997D01*
X0347036Y0236114D01*
X0347146Y0236228D01*
X0347259Y0236339D01*
X0347374Y0236448D01*
X0347492Y0236553D01*
X0347613Y0236655D01*
X0347736Y0236755D01*
X0347862Y0236851D01*
X0347990Y0236944D01*
X0348120Y0237034D01*
X0348253Y0237120D01*
X0348388Y0237204D01*
X0348524Y0237283D01*
X0348663Y0237360D01*
X0348804Y0237432D01*
X0348946Y0237502D01*
X0349090Y0237567D01*
X0349236Y0237629D01*
X0349383Y0237687D01*
X0349532Y0237742D01*
X0349682Y0237793D01*
X0349833Y0237840D01*
X0349985Y0237883D01*
X0350138Y0237922D01*
X0350293Y0237958D01*
X0350448Y0237989D01*
X0350604Y0238017D01*
X0350760Y0238041D01*
X0350917Y0238061D01*
X0351075Y0238077D01*
X0351232Y0238089D01*
X0351391Y0238097D01*
X0351549Y0238101D01*
X0351707Y0238101D01*
X0351865Y0238097D01*
X0352024Y0238089D01*
X0352181Y0238077D01*
X0352339Y0238061D01*
X0352496Y0238041D01*
X0352652Y0238017D01*
X0352808Y0237989D01*
X0352963Y0237958D01*
X0353118Y0237922D01*
X0353271Y0237883D01*
X0353423Y0237840D01*
X0353574Y0237793D01*
X0353724Y0237742D01*
X0353873Y0237687D01*
X0354020Y0237629D01*
X0354166Y0237567D01*
X0354310Y0237502D01*
X0354452Y0237432D01*
X0354593Y0237360D01*
X0354732Y0237283D01*
X0354868Y0237204D01*
X0355003Y0237120D01*
X0355136Y0237034D01*
X0355266Y0236944D01*
X0355394Y0236851D01*
X0355520Y0236755D01*
X0355643Y0236655D01*
X0355764Y0236553D01*
X0355882Y0236448D01*
X0355997Y0236339D01*
X0356110Y0236228D01*
X0356220Y0236114D01*
X0356327Y0235997D01*
X0356431Y0235878D01*
X0356532Y0235756D01*
X0356629Y0235631D01*
X0356724Y0235504D01*
X0356815Y0235375D01*
X0356904Y0235244D01*
X0356988Y0235110D01*
X0357070Y0234974D01*
X0357148Y0234837D01*
X0357222Y0234697D01*
X0357293Y0234555D01*
X0357361Y0234412D01*
X0357425Y0234267D01*
X0357485Y0234121D01*
X0357541Y0233973D01*
X0357594Y0233824D01*
X0357643Y0233673D01*
X0357688Y0233521D01*
X0357729Y0233368D01*
X0357767Y0233215D01*
X0357800Y0233060D01*
X0357830Y0232904D01*
X0357856Y0232748D01*
X0357877Y0232591D01*
X0357895Y0232434D01*
X0357909Y0232276D01*
X0357919Y0232118D01*
X0357925Y0231960D01*
X0357927Y0231802D01*
X0357925Y0231644D01*
X0357919Y0231486D01*
X0357909Y0231328D01*
X0357895Y0231170D01*
X0357877Y0231013D01*
X0357856Y0230856D01*
X0357830Y0230700D01*
X0357800Y0230544D01*
X0357767Y0230389D01*
X0357729Y0230236D01*
X0357688Y0230083D01*
X0357643Y0229931D01*
X0357594Y0229780D01*
X0357541Y0229631D01*
X0357485Y0229483D01*
X0357425Y0229337D01*
X0357361Y0229192D01*
X0357293Y0229049D01*
X0357222Y0228907D01*
X0357148Y0228767D01*
X0357070Y0228630D01*
X0356988Y0228494D01*
X0356904Y0228360D01*
X0356815Y0228229D01*
X0356724Y0228100D01*
X0356629Y0227973D01*
X0356532Y0227848D01*
X0356431Y0227726D01*
X0356327Y0227607D01*
X0356220Y0227490D01*
X0356110Y0227376D01*
X0355997Y0227265D01*
X0355882Y0227156D01*
X0355764Y0227051D01*
X0355643Y0226949D01*
X0355520Y0226849D01*
X0355394Y0226753D01*
X0355266Y0226660D01*
X0355136Y0226570D01*
X0355003Y0226484D01*
X0354868Y0226400D01*
X0354732Y0226321D01*
X0354593Y0226244D01*
X0354452Y0226172D01*
X0354310Y0226102D01*
X0354166Y0226037D01*
X0354020Y0225975D01*
X0353873Y0225917D01*
X0353724Y0225862D01*
X0353574Y0225811D01*
X0353423Y0225764D01*
X0353271Y0225721D01*
X0353118Y0225682D01*
X0352963Y0225646D01*
X0352808Y0225615D01*
X0352652Y0225587D01*
X0352496Y0225563D01*
X0352339Y0225543D01*
X0352181Y0225527D01*
X0352024Y0225515D01*
X0351865Y0225507D01*
X0351707Y0225503D01*
X0351549Y0225503D01*
X0351391Y0225507D01*
X0351232Y0225515D01*
X0351075Y0225527D01*
X0350917Y0225543D01*
X0350760Y0225563D01*
X0350604Y0225587D01*
X0350448Y0225615D01*
X0350293Y0225646D01*
X0350138Y0225682D01*
X0349985Y0225721D01*
X0349833Y0225764D01*
X0349682Y0225811D01*
X0349532Y0225862D01*
X0349383Y0225917D01*
X0349236Y0225975D01*
X0349090Y0226037D01*
X0348946Y0226102D01*
X0348804Y0226172D01*
X0348663Y0226244D01*
X0348524Y0226321D01*
X0348388Y0226400D01*
X0348253Y0226484D01*
X0348120Y0226570D01*
X0347990Y0226660D01*
X0347862Y0226753D01*
X0347736Y0226849D01*
X0347613Y0226949D01*
X0347492Y0227051D01*
X0347374Y0227156D01*
X0347259Y0227265D01*
X0347146Y0227376D01*
X0347036Y0227490D01*
X0346929Y0227607D01*
X0346825Y0227726D01*
X0346724Y0227848D01*
X0346627Y0227973D01*
X0346532Y0228100D01*
X0346441Y0228229D01*
X0346352Y0228360D01*
X0346268Y0228494D01*
X0346186Y0228630D01*
X0346108Y0228767D01*
X0346034Y0228907D01*
X0345963Y0229049D01*
X0345895Y0229192D01*
X0345831Y0229337D01*
X0345771Y0229483D01*
X0345715Y0229631D01*
X0345662Y0229780D01*
X0345613Y0229931D01*
X0345568Y0230083D01*
X0345527Y0230236D01*
X0345489Y0230389D01*
X0345456Y0230544D01*
X0345426Y0230700D01*
X0345400Y0230856D01*
X0345379Y0231013D01*
X0345361Y0231170D01*
X0345347Y0231328D01*
X0345337Y0231486D01*
X0345331Y0231644D01*
X0345329Y0231802D01*
X0351628Y0247550D02*
X0352009Y0247545D01*
X0352389Y0247532D01*
X0352769Y0247509D01*
X0353148Y0247476D01*
X0353526Y0247435D01*
X0353903Y0247385D01*
X0354279Y0247325D01*
X0354654Y0247257D01*
X0355026Y0247179D01*
X0355397Y0247092D01*
X0355765Y0246997D01*
X0356131Y0246892D01*
X0356494Y0246779D01*
X0356855Y0246657D01*
X0357212Y0246527D01*
X0357566Y0246387D01*
X0357917Y0246240D01*
X0358264Y0246083D01*
X0358607Y0245919D01*
X0358946Y0245746D01*
X0359281Y0245565D01*
X0359612Y0245376D01*
X0359937Y0245179D01*
X0360258Y0244975D01*
X0360574Y0244762D01*
X0360884Y0244542D01*
X0361190Y0244315D01*
X0361489Y0244080D01*
X0361783Y0243838D01*
X0362071Y0243590D01*
X0362353Y0243334D01*
X0362628Y0243071D01*
X0362897Y0242802D01*
X0363160Y0242527D01*
X0363416Y0242245D01*
X0363664Y0241957D01*
X0363906Y0241663D01*
X0364141Y0241364D01*
X0364368Y0241058D01*
X0364588Y0240748D01*
X0364801Y0240432D01*
X0365005Y0240111D01*
X0365202Y0239786D01*
X0365391Y0239455D01*
X0365572Y0239120D01*
X0365745Y0238781D01*
X0365909Y0238438D01*
X0366066Y0238091D01*
X0366213Y0237740D01*
X0366353Y0237386D01*
X0366483Y0237029D01*
X0366605Y0236668D01*
X0366718Y0236305D01*
X0366823Y0235939D01*
X0366918Y0235571D01*
X0367005Y0235200D01*
X0367083Y0234828D01*
X0367151Y0234453D01*
X0367211Y0234077D01*
X0367261Y0233700D01*
X0367302Y0233322D01*
X0367335Y0232943D01*
X0367358Y0232563D01*
X0367371Y0232183D01*
X0367376Y0231802D01*
X0367376Y0066448D01*
X0345329Y0066448D02*
X0345331Y0066606D01*
X0345337Y0066764D01*
X0345347Y0066922D01*
X0345361Y0067080D01*
X0345379Y0067237D01*
X0345400Y0067394D01*
X0345426Y0067550D01*
X0345456Y0067706D01*
X0345489Y0067861D01*
X0345527Y0068014D01*
X0345568Y0068167D01*
X0345613Y0068319D01*
X0345662Y0068470D01*
X0345715Y0068619D01*
X0345771Y0068767D01*
X0345831Y0068913D01*
X0345895Y0069058D01*
X0345963Y0069201D01*
X0346034Y0069343D01*
X0346108Y0069483D01*
X0346186Y0069620D01*
X0346268Y0069756D01*
X0346352Y0069890D01*
X0346441Y0070021D01*
X0346532Y0070150D01*
X0346627Y0070277D01*
X0346724Y0070402D01*
X0346825Y0070524D01*
X0346929Y0070643D01*
X0347036Y0070760D01*
X0347146Y0070874D01*
X0347259Y0070985D01*
X0347374Y0071094D01*
X0347492Y0071199D01*
X0347613Y0071301D01*
X0347736Y0071401D01*
X0347862Y0071497D01*
X0347990Y0071590D01*
X0348120Y0071680D01*
X0348253Y0071766D01*
X0348388Y0071850D01*
X0348524Y0071929D01*
X0348663Y0072006D01*
X0348804Y0072078D01*
X0348946Y0072148D01*
X0349090Y0072213D01*
X0349236Y0072275D01*
X0349383Y0072333D01*
X0349532Y0072388D01*
X0349682Y0072439D01*
X0349833Y0072486D01*
X0349985Y0072529D01*
X0350138Y0072568D01*
X0350293Y0072604D01*
X0350448Y0072635D01*
X0350604Y0072663D01*
X0350760Y0072687D01*
X0350917Y0072707D01*
X0351075Y0072723D01*
X0351232Y0072735D01*
X0351391Y0072743D01*
X0351549Y0072747D01*
X0351707Y0072747D01*
X0351865Y0072743D01*
X0352024Y0072735D01*
X0352181Y0072723D01*
X0352339Y0072707D01*
X0352496Y0072687D01*
X0352652Y0072663D01*
X0352808Y0072635D01*
X0352963Y0072604D01*
X0353118Y0072568D01*
X0353271Y0072529D01*
X0353423Y0072486D01*
X0353574Y0072439D01*
X0353724Y0072388D01*
X0353873Y0072333D01*
X0354020Y0072275D01*
X0354166Y0072213D01*
X0354310Y0072148D01*
X0354452Y0072078D01*
X0354593Y0072006D01*
X0354732Y0071929D01*
X0354868Y0071850D01*
X0355003Y0071766D01*
X0355136Y0071680D01*
X0355266Y0071590D01*
X0355394Y0071497D01*
X0355520Y0071401D01*
X0355643Y0071301D01*
X0355764Y0071199D01*
X0355882Y0071094D01*
X0355997Y0070985D01*
X0356110Y0070874D01*
X0356220Y0070760D01*
X0356327Y0070643D01*
X0356431Y0070524D01*
X0356532Y0070402D01*
X0356629Y0070277D01*
X0356724Y0070150D01*
X0356815Y0070021D01*
X0356904Y0069890D01*
X0356988Y0069756D01*
X0357070Y0069620D01*
X0357148Y0069483D01*
X0357222Y0069343D01*
X0357293Y0069201D01*
X0357361Y0069058D01*
X0357425Y0068913D01*
X0357485Y0068767D01*
X0357541Y0068619D01*
X0357594Y0068470D01*
X0357643Y0068319D01*
X0357688Y0068167D01*
X0357729Y0068014D01*
X0357767Y0067861D01*
X0357800Y0067706D01*
X0357830Y0067550D01*
X0357856Y0067394D01*
X0357877Y0067237D01*
X0357895Y0067080D01*
X0357909Y0066922D01*
X0357919Y0066764D01*
X0357925Y0066606D01*
X0357927Y0066448D01*
X0357925Y0066290D01*
X0357919Y0066132D01*
X0357909Y0065974D01*
X0357895Y0065816D01*
X0357877Y0065659D01*
X0357856Y0065502D01*
X0357830Y0065346D01*
X0357800Y0065190D01*
X0357767Y0065035D01*
X0357729Y0064882D01*
X0357688Y0064729D01*
X0357643Y0064577D01*
X0357594Y0064426D01*
X0357541Y0064277D01*
X0357485Y0064129D01*
X0357425Y0063983D01*
X0357361Y0063838D01*
X0357293Y0063695D01*
X0357222Y0063553D01*
X0357148Y0063413D01*
X0357070Y0063276D01*
X0356988Y0063140D01*
X0356904Y0063006D01*
X0356815Y0062875D01*
X0356724Y0062746D01*
X0356629Y0062619D01*
X0356532Y0062494D01*
X0356431Y0062372D01*
X0356327Y0062253D01*
X0356220Y0062136D01*
X0356110Y0062022D01*
X0355997Y0061911D01*
X0355882Y0061802D01*
X0355764Y0061697D01*
X0355643Y0061595D01*
X0355520Y0061495D01*
X0355394Y0061399D01*
X0355266Y0061306D01*
X0355136Y0061216D01*
X0355003Y0061130D01*
X0354868Y0061046D01*
X0354732Y0060967D01*
X0354593Y0060890D01*
X0354452Y0060818D01*
X0354310Y0060748D01*
X0354166Y0060683D01*
X0354020Y0060621D01*
X0353873Y0060563D01*
X0353724Y0060508D01*
X0353574Y0060457D01*
X0353423Y0060410D01*
X0353271Y0060367D01*
X0353118Y0060328D01*
X0352963Y0060292D01*
X0352808Y0060261D01*
X0352652Y0060233D01*
X0352496Y0060209D01*
X0352339Y0060189D01*
X0352181Y0060173D01*
X0352024Y0060161D01*
X0351865Y0060153D01*
X0351707Y0060149D01*
X0351549Y0060149D01*
X0351391Y0060153D01*
X0351232Y0060161D01*
X0351075Y0060173D01*
X0350917Y0060189D01*
X0350760Y0060209D01*
X0350604Y0060233D01*
X0350448Y0060261D01*
X0350293Y0060292D01*
X0350138Y0060328D01*
X0349985Y0060367D01*
X0349833Y0060410D01*
X0349682Y0060457D01*
X0349532Y0060508D01*
X0349383Y0060563D01*
X0349236Y0060621D01*
X0349090Y0060683D01*
X0348946Y0060748D01*
X0348804Y0060818D01*
X0348663Y0060890D01*
X0348524Y0060967D01*
X0348388Y0061046D01*
X0348253Y0061130D01*
X0348120Y0061216D01*
X0347990Y0061306D01*
X0347862Y0061399D01*
X0347736Y0061495D01*
X0347613Y0061595D01*
X0347492Y0061697D01*
X0347374Y0061802D01*
X0347259Y0061911D01*
X0347146Y0062022D01*
X0347036Y0062136D01*
X0346929Y0062253D01*
X0346825Y0062372D01*
X0346724Y0062494D01*
X0346627Y0062619D01*
X0346532Y0062746D01*
X0346441Y0062875D01*
X0346352Y0063006D01*
X0346268Y0063140D01*
X0346186Y0063276D01*
X0346108Y0063413D01*
X0346034Y0063553D01*
X0345963Y0063695D01*
X0345895Y0063838D01*
X0345831Y0063983D01*
X0345771Y0064129D01*
X0345715Y0064277D01*
X0345662Y0064426D01*
X0345613Y0064577D01*
X0345568Y0064729D01*
X0345527Y0064882D01*
X0345489Y0065035D01*
X0345456Y0065190D01*
X0345426Y0065346D01*
X0345400Y0065502D01*
X0345379Y0065659D01*
X0345361Y0065816D01*
X0345347Y0065974D01*
X0345337Y0066132D01*
X0345331Y0066290D01*
X0345329Y0066448D01*
X0351628Y0050700D02*
X0352009Y0050705D01*
X0352389Y0050718D01*
X0352769Y0050741D01*
X0353148Y0050774D01*
X0353526Y0050815D01*
X0353903Y0050865D01*
X0354279Y0050925D01*
X0354654Y0050993D01*
X0355026Y0051071D01*
X0355397Y0051158D01*
X0355765Y0051253D01*
X0356131Y0051358D01*
X0356494Y0051471D01*
X0356855Y0051593D01*
X0357212Y0051723D01*
X0357566Y0051863D01*
X0357917Y0052010D01*
X0358264Y0052167D01*
X0358607Y0052331D01*
X0358946Y0052504D01*
X0359281Y0052685D01*
X0359612Y0052874D01*
X0359937Y0053071D01*
X0360258Y0053275D01*
X0360574Y0053488D01*
X0360884Y0053708D01*
X0361190Y0053935D01*
X0361489Y0054170D01*
X0361783Y0054412D01*
X0362071Y0054660D01*
X0362353Y0054916D01*
X0362628Y0055179D01*
X0362897Y0055448D01*
X0363160Y0055723D01*
X0363416Y0056005D01*
X0363664Y0056293D01*
X0363906Y0056587D01*
X0364141Y0056886D01*
X0364368Y0057192D01*
X0364588Y0057502D01*
X0364801Y0057818D01*
X0365005Y0058139D01*
X0365202Y0058464D01*
X0365391Y0058795D01*
X0365572Y0059130D01*
X0365745Y0059469D01*
X0365909Y0059812D01*
X0366066Y0060159D01*
X0366213Y0060510D01*
X0366353Y0060864D01*
X0366483Y0061221D01*
X0366605Y0061582D01*
X0366718Y0061945D01*
X0366823Y0062311D01*
X0366918Y0062679D01*
X0367005Y0063050D01*
X0367083Y0063422D01*
X0367151Y0063797D01*
X0367211Y0064173D01*
X0367261Y0064550D01*
X0367302Y0064928D01*
X0367335Y0065307D01*
X0367358Y0065687D01*
X0367371Y0066067D01*
X0367376Y0066448D01*
D24*
X0365176Y0079059D02*
X0351926Y0079059D01*
X0351901Y0079081D01*
X0351599Y0079059D01*
X0351296Y0079059D01*
X0351273Y0079036D01*
X0350155Y0078956D01*
X0350100Y0078991D01*
X0349833Y0078933D01*
X0349559Y0078913D01*
X0349516Y0078864D01*
X0348390Y0078619D01*
X0348331Y0078646D01*
X0348074Y0078550D01*
X0347806Y0078492D01*
X0347771Y0078437D01*
X0346691Y0078034D01*
X0346629Y0078053D01*
X0346388Y0077921D01*
X0346131Y0077825D01*
X0346104Y0077766D01*
X0345092Y0077214D01*
X0345028Y0077223D01*
X0344808Y0077059D01*
X0344568Y0076927D01*
X0344549Y0076865D01*
X0343627Y0076174D01*
X0343562Y0076174D01*
X0343368Y0075980D01*
X0343148Y0075816D01*
X0343139Y0075752D01*
X0342324Y0074937D01*
X0342260Y0074927D01*
X0342095Y0074708D01*
X0341901Y0074514D01*
X0341901Y0074449D01*
X0341211Y0073526D01*
X0341148Y0073508D01*
X0341017Y0073267D01*
X0340852Y0073048D01*
X0340862Y0072983D01*
X0340309Y0071972D01*
X0340250Y0071945D01*
X0340154Y0071688D01*
X0340023Y0071447D01*
X0340041Y0071385D01*
X0339638Y0070305D01*
X0339584Y0070269D01*
X0339525Y0070002D01*
X0339430Y0069745D01*
X0339457Y0069685D01*
X0339212Y0068559D01*
X0339162Y0068516D01*
X0339143Y0068243D01*
X0339085Y0067975D01*
X0339120Y0067920D01*
X0339040Y0066803D01*
X0339017Y0066779D01*
X0339017Y0066477D01*
X0338995Y0066175D01*
X0339017Y0066150D01*
X0339017Y0052900D01*
X0100459Y0052900D01*
X0100459Y0066150D01*
X0100481Y0066175D01*
X0100459Y0066477D01*
X0100459Y0066779D01*
X0100436Y0066803D01*
X0100356Y0067920D01*
X0100391Y0067975D01*
X0100333Y0068243D01*
X0100313Y0068516D01*
X0100264Y0068559D01*
X0100019Y0069685D01*
X0100046Y0069745D01*
X0099950Y0070002D01*
X0099892Y0070269D01*
X0099837Y0070305D01*
X0099434Y0071385D01*
X0099453Y0071447D01*
X0099321Y0071688D01*
X0099225Y0071945D01*
X0099166Y0071972D01*
X0098614Y0072983D01*
X0098623Y0073048D01*
X0098459Y0073267D01*
X0098327Y0073508D01*
X0098265Y0073526D01*
X0097574Y0074449D01*
X0097574Y0074514D01*
X0097380Y0074708D01*
X0097216Y0074927D01*
X0097152Y0074937D01*
X0096337Y0075752D01*
X0096327Y0075816D01*
X0096108Y0075980D01*
X0095914Y0076174D01*
X0095849Y0076174D01*
X0094926Y0076865D01*
X0094908Y0076927D01*
X0094667Y0077059D01*
X0094448Y0077223D01*
X0094383Y0077214D01*
X0093372Y0077766D01*
X0093345Y0077825D01*
X0093088Y0077921D01*
X0092847Y0078053D01*
X0092785Y0078034D01*
X0091705Y0078437D01*
X0091669Y0078492D01*
X0091402Y0078550D01*
X0091145Y0078646D01*
X0091085Y0078619D01*
X0089959Y0078864D01*
X0089916Y0078913D01*
X0089643Y0078933D01*
X0089375Y0078991D01*
X0089320Y0078956D01*
X0088203Y0079036D01*
X0088179Y0079059D01*
X0087877Y0079059D01*
X0087575Y0079081D01*
X0087550Y0079059D01*
X0074300Y0079059D01*
X0074300Y0219191D01*
X0087550Y0219191D01*
X0087575Y0219170D01*
X0087877Y0219191D01*
X0088179Y0219191D01*
X0088203Y0219215D01*
X0089320Y0219295D01*
X0089375Y0219259D01*
X0089643Y0219318D01*
X0089916Y0219337D01*
X0089959Y0219386D01*
X0091085Y0219631D01*
X0091145Y0219604D01*
X0091402Y0219700D01*
X0091669Y0219758D01*
X0091705Y0219813D01*
X0092785Y0220216D01*
X0092847Y0220198D01*
X0093088Y0220329D01*
X0093345Y0220425D01*
X0093372Y0220484D01*
X0094383Y0221037D01*
X0094448Y0221027D01*
X0094667Y0221192D01*
X0094908Y0221323D01*
X0094926Y0221385D01*
X0095849Y0222076D01*
X0095914Y0222076D01*
X0096108Y0222270D01*
X0096327Y0222434D01*
X0096337Y0222499D01*
X0097152Y0223314D01*
X0097216Y0223323D01*
X0097380Y0223543D01*
X0097574Y0223736D01*
X0097574Y0223802D01*
X0098265Y0224724D01*
X0098327Y0224743D01*
X0098459Y0224983D01*
X0098623Y0225203D01*
X0098614Y0225267D01*
X0099166Y0226279D01*
X0099225Y0226306D01*
X0099321Y0226563D01*
X0099453Y0226803D01*
X0099434Y0226866D01*
X0099837Y0227946D01*
X0099892Y0227981D01*
X0099950Y0228249D01*
X0100046Y0228506D01*
X0100019Y0228565D01*
X0100264Y0229691D01*
X0100313Y0229734D01*
X0100333Y0230007D01*
X0100391Y0230275D01*
X0100356Y0230330D01*
X0100436Y0231448D01*
X0100459Y0231471D01*
X0100459Y0231774D01*
X0100481Y0232076D01*
X0100459Y0232101D01*
X0100459Y0245350D01*
X0339017Y0245350D01*
X0339017Y0232101D01*
X0338995Y0232076D01*
X0339017Y0231774D01*
X0339017Y0231471D01*
X0339040Y0231448D01*
X0339120Y0230330D01*
X0339085Y0230275D01*
X0339143Y0230007D01*
X0339162Y0229734D01*
X0339212Y0229691D01*
X0339457Y0228565D01*
X0339430Y0228506D01*
X0339525Y0228249D01*
X0339584Y0227981D01*
X0339638Y0227946D01*
X0340041Y0226866D01*
X0340023Y0226803D01*
X0340154Y0226563D01*
X0340250Y0226306D01*
X0340309Y0226279D01*
X0340862Y0225267D01*
X0340852Y0225203D01*
X0341017Y0224983D01*
X0341148Y0224743D01*
X0341211Y0224724D01*
X0341901Y0223802D01*
X0341901Y0223736D01*
X0342095Y0223543D01*
X0342260Y0223323D01*
X0342324Y0223314D01*
X0343139Y0222499D01*
X0343148Y0222434D01*
X0343368Y0222270D01*
X0343562Y0222076D01*
X0343627Y0222076D01*
X0344549Y0221385D01*
X0344568Y0221323D01*
X0344808Y0221192D01*
X0345028Y0221027D01*
X0345092Y0221037D01*
X0346104Y0220484D01*
X0346131Y0220425D01*
X0346388Y0220329D01*
X0346629Y0220198D01*
X0346691Y0220216D01*
X0347771Y0219813D01*
X0347806Y0219758D01*
X0348074Y0219700D01*
X0348331Y0219604D01*
X0348390Y0219631D01*
X0349516Y0219386D01*
X0349559Y0219337D01*
X0349833Y0219318D01*
X0350100Y0219259D01*
X0350155Y0219295D01*
X0351273Y0219215D01*
X0351296Y0219191D01*
X0351599Y0219191D01*
X0351901Y0219170D01*
X0351926Y0219191D01*
X0365176Y0219191D01*
X0365176Y0079059D01*
X0365176Y0080296D02*
X0335503Y0080296D01*
X0337101Y0081894D02*
X0365176Y0081894D01*
X0365176Y0083493D02*
X0338515Y0083493D01*
X0338384Y0083177D02*
X0338780Y0084133D01*
X0338780Y0110043D01*
X0341107Y0112370D01*
X0342332Y0112370D01*
X0342495Y0111977D01*
X0343999Y0110472D01*
X0345966Y0109657D01*
X0355194Y0109657D01*
X0357161Y0110472D01*
X0358666Y0111977D01*
X0359480Y0113943D01*
X0359480Y0116072D01*
X0358666Y0118038D01*
X0357161Y0119543D01*
X0355194Y0120357D01*
X0345966Y0120357D01*
X0343999Y0119543D01*
X0342495Y0118038D01*
X0342301Y0117570D01*
X0339513Y0117570D01*
X0338557Y0117174D01*
X0337826Y0116443D01*
X0334640Y0113257D01*
X0334640Y0128633D01*
X0337967Y0131960D01*
X0342371Y0131960D01*
X0342495Y0131662D01*
X0343999Y0130157D01*
X0345966Y0129343D01*
X0355194Y0129343D01*
X0357161Y0130157D01*
X0358666Y0131662D01*
X0359480Y0133628D01*
X0359480Y0135757D01*
X0358666Y0137723D01*
X0357161Y0139228D01*
X0355194Y0140043D01*
X0345966Y0140043D01*
X0343999Y0139228D01*
X0342495Y0137723D01*
X0342261Y0137160D01*
X0336373Y0137160D01*
X0335417Y0136764D01*
X0334686Y0136033D01*
X0334686Y0136033D01*
X0330567Y0131914D01*
X0329836Y0131183D01*
X0329440Y0130227D01*
X0329440Y0087897D01*
X0326893Y0085350D01*
X0284631Y0085350D01*
X0284631Y0085477D01*
X0283577Y0086531D01*
X0278123Y0086531D01*
X0277069Y0085477D01*
X0277069Y0085350D01*
X0274607Y0085350D01*
X0273200Y0086757D01*
X0273200Y0106419D01*
X0273210Y0106443D01*
X0273210Y0107477D01*
X0272814Y0108433D01*
X0264150Y0117097D01*
X0264150Y0126090D01*
X0294757Y0126090D01*
X0295713Y0126486D01*
X0304053Y0134826D01*
X0304784Y0135557D01*
X0305180Y0136513D01*
X0305180Y0178323D01*
X0309707Y0182850D01*
X0315074Y0182850D01*
X0315074Y0180813D01*
X0316129Y0179759D01*
X0316349Y0179759D01*
X0316025Y0179672D01*
X0315523Y0179382D01*
X0315114Y0178972D01*
X0314824Y0178471D01*
X0314674Y0177911D01*
X0314674Y0173869D01*
X0319052Y0173869D01*
X0319052Y0172713D01*
X0314674Y0172713D01*
X0314674Y0168670D01*
X0314824Y0168111D01*
X0315114Y0167609D01*
X0315523Y0167200D01*
X0316025Y0166910D01*
X0316584Y0166760D01*
X0319052Y0166760D01*
X0319052Y0172713D01*
X0320208Y0172713D01*
X0320208Y0173869D01*
X0324586Y0173869D01*
X0324586Y0177911D01*
X0324436Y0178471D01*
X0324146Y0178972D01*
X0323737Y0179382D01*
X0323235Y0179672D01*
X0322911Y0179759D01*
X0323131Y0179759D01*
X0324186Y0180813D01*
X0324186Y0183289D01*
X0331637Y0183289D01*
X0331637Y0181457D01*
X0332691Y0180402D01*
X0341269Y0180402D01*
X0342323Y0181457D01*
X0342323Y0183172D01*
X0346397Y0183172D01*
X0346397Y0181877D01*
X0347451Y0180822D01*
X0356029Y0180822D01*
X0357083Y0181877D01*
X0357083Y0182850D01*
X0359520Y0180413D01*
X0359520Y0156396D01*
X0359459Y0156585D01*
X0359048Y0157391D01*
X0358516Y0158123D01*
X0357876Y0158763D01*
X0357144Y0159295D01*
X0356337Y0159706D01*
X0355476Y0159986D01*
X0354583Y0160128D01*
X0350955Y0160128D01*
X0350955Y0154753D01*
X0350205Y0154753D01*
X0350205Y0160128D01*
X0346577Y0160128D01*
X0345684Y0159986D01*
X0344823Y0159706D01*
X0344016Y0159295D01*
X0343284Y0158763D01*
X0342644Y0158123D01*
X0342112Y0157391D01*
X0341701Y0156585D01*
X0341422Y0155724D01*
X0341280Y0154830D01*
X0341280Y0154753D01*
X0350205Y0154753D01*
X0350205Y0154003D01*
X0341280Y0154003D01*
X0341280Y0153925D01*
X0341422Y0153031D01*
X0341701Y0152170D01*
X0342112Y0151364D01*
X0342644Y0150632D01*
X0343284Y0149992D01*
X0344016Y0149460D01*
X0344823Y0149049D01*
X0345684Y0148769D01*
X0346577Y0148628D01*
X0350205Y0148628D01*
X0350205Y0154002D01*
X0350955Y0154002D01*
X0350955Y0148628D01*
X0354583Y0148628D01*
X0355476Y0148769D01*
X0356337Y0149049D01*
X0357144Y0149460D01*
X0357876Y0149992D01*
X0358516Y0150632D01*
X0359048Y0151364D01*
X0359459Y0152170D01*
X0359520Y0152359D01*
X0359520Y0102507D01*
X0356956Y0099943D01*
X0355194Y0100672D01*
X0345966Y0100672D01*
X0343999Y0099858D01*
X0342495Y0098353D01*
X0341680Y0096387D01*
X0341680Y0094258D01*
X0342495Y0092292D01*
X0343999Y0090787D01*
X0345966Y0089972D01*
X0355194Y0089972D01*
X0357161Y0090787D01*
X0358666Y0092292D01*
X0359480Y0094258D01*
X0359480Y0095113D01*
X0363593Y0099226D01*
X0364324Y0099957D01*
X0364324Y0099957D01*
X0364344Y0099977D01*
X0364740Y0100933D01*
X0364740Y0101967D01*
X0364720Y0102015D01*
X0364720Y0182007D01*
X0364324Y0182963D01*
X0360204Y0187083D01*
X0359473Y0187814D01*
X0358517Y0188210D01*
X0357083Y0188210D01*
X0357083Y0189667D01*
X0356029Y0190721D01*
X0347451Y0190721D01*
X0346397Y0189667D01*
X0346397Y0188372D01*
X0342323Y0188372D01*
X0342323Y0189247D01*
X0341269Y0190301D01*
X0339440Y0190301D01*
X0339440Y0190659D01*
X0339567Y0190659D01*
X0340621Y0191713D01*
X0340621Y0197167D01*
X0339567Y0198221D01*
X0334113Y0198221D01*
X0333059Y0197167D01*
X0333059Y0191713D01*
X0334113Y0190659D01*
X0334240Y0190659D01*
X0334240Y0190301D01*
X0332691Y0190301D01*
X0331637Y0189247D01*
X0331637Y0188489D01*
X0324186Y0188489D01*
X0324186Y0190966D01*
X0323131Y0192020D01*
X0316129Y0192020D01*
X0315074Y0190966D01*
X0315074Y0188050D01*
X0309950Y0188050D01*
X0309950Y0191063D01*
X0309013Y0192000D01*
X0308223Y0192000D01*
X0308223Y0193673D01*
X0303255Y0193673D01*
X0303255Y0195223D01*
X0308223Y0195223D01*
X0308223Y0197887D01*
X0308073Y0198447D01*
X0307784Y0198949D01*
X0307374Y0199358D01*
X0306872Y0199648D01*
X0306313Y0199798D01*
X0303255Y0199798D01*
X0303255Y0195223D01*
X0301705Y0195223D01*
X0301705Y0193673D01*
X0296737Y0193673D01*
X0296737Y0192811D01*
X0291633Y0192811D01*
X0290579Y0191757D01*
X0290579Y0186303D01*
X0291633Y0185249D01*
X0291760Y0185249D01*
X0291760Y0177467D01*
X0291487Y0177580D01*
X0283011Y0177580D01*
X0283011Y0179189D01*
X0281957Y0180243D01*
X0274167Y0180243D01*
X0273112Y0179189D01*
X0273112Y0170611D01*
X0274167Y0169557D01*
X0281957Y0169557D01*
X0283011Y0170611D01*
X0283011Y0172380D01*
X0284119Y0172380D01*
X0284119Y0167153D01*
X0285173Y0166099D01*
X0285300Y0166099D01*
X0285300Y0161017D01*
X0283803Y0159520D01*
X0267141Y0159520D01*
X0267141Y0159647D01*
X0266087Y0160701D01*
X0260633Y0160701D01*
X0259579Y0159647D01*
X0259579Y0154193D01*
X0260633Y0153139D01*
X0266087Y0153139D01*
X0267141Y0154193D01*
X0267141Y0154320D01*
X0285397Y0154320D01*
X0286353Y0154716D01*
X0286937Y0155300D01*
X0287187Y0155050D01*
X0294282Y0155050D01*
X0294683Y0154649D01*
X0299980Y0154649D01*
X0299980Y0138107D01*
X0293163Y0131290D01*
X0264123Y0131290D01*
X0263213Y0132200D01*
X0258957Y0132200D01*
X0258302Y0132471D01*
X0256798Y0132471D01*
X0256143Y0132200D01*
X0254968Y0132200D01*
X0255058Y0132290D01*
X0255348Y0132792D01*
X0255498Y0133351D01*
X0255498Y0136415D01*
X0254700Y0136415D01*
X0254700Y0137965D01*
X0255498Y0137965D01*
X0255498Y0141029D01*
X0255348Y0141588D01*
X0255058Y0142090D01*
X0254649Y0142500D01*
X0254147Y0142789D01*
X0253588Y0142939D01*
X0250923Y0142939D01*
X0250923Y0139000D01*
X0249374Y0139000D01*
X0249374Y0142939D01*
X0246709Y0142939D01*
X0246150Y0142789D01*
X0245735Y0142550D01*
X0242250Y0142550D01*
X0242250Y0148341D01*
X0242847Y0148341D01*
X0243901Y0149395D01*
X0243901Y0157985D01*
X0242847Y0159039D01*
X0235056Y0159039D01*
X0234002Y0157985D01*
X0234002Y0156040D01*
X0229348Y0156040D01*
X0229348Y0157735D01*
X0228294Y0158789D01*
X0220503Y0158789D01*
X0219449Y0157735D01*
X0219449Y0149145D01*
X0220503Y0148091D01*
X0220774Y0148091D01*
X0219943Y0147260D01*
X0203807Y0147260D01*
X0199463Y0151604D01*
X0198507Y0152000D01*
X0194550Y0152000D01*
X0194550Y0156884D01*
X0195180Y0158405D01*
X0195180Y0160395D01*
X0194550Y0161915D01*
X0194550Y0166884D01*
X0195180Y0168405D01*
X0195180Y0170395D01*
X0194598Y0171800D01*
X0195286Y0171800D01*
X0195790Y0171795D01*
X0195803Y0171800D01*
X0195817Y0171800D01*
X0196282Y0171993D01*
X0196750Y0172181D01*
X0196760Y0172190D01*
X0196773Y0172196D01*
X0197129Y0172552D01*
X0202080Y0177400D01*
X0202093Y0177406D01*
X0202449Y0177762D01*
X0202809Y0178114D01*
X0202814Y0178127D01*
X0202824Y0178137D01*
X0203017Y0178603D01*
X0203214Y0179066D01*
X0203215Y0179080D01*
X0203220Y0179093D01*
X0203220Y0179596D01*
X0203225Y0180100D01*
X0203220Y0180113D01*
X0203220Y0223663D01*
X0204317Y0224760D01*
X0224333Y0224760D01*
X0225983Y0223110D01*
X0225769Y0222897D01*
X0225769Y0217443D01*
X0226823Y0216389D01*
X0232277Y0216389D01*
X0232638Y0216750D01*
X0233690Y0216750D01*
X0233690Y0212463D01*
X0234086Y0211507D01*
X0237566Y0208027D01*
X0238297Y0207296D01*
X0239253Y0206900D01*
X0255214Y0206900D01*
X0255764Y0206350D01*
X0256420Y0206350D01*
X0256420Y0197083D01*
X0256816Y0196127D01*
X0257547Y0195396D01*
X0260767Y0192176D01*
X0261723Y0191780D01*
X0262179Y0191780D01*
X0262179Y0190091D01*
X0263233Y0189037D01*
X0266264Y0189037D01*
X0266556Y0188977D01*
X0266862Y0189037D01*
X0271023Y0189037D01*
X0272078Y0190091D01*
X0272078Y0198669D01*
X0271023Y0199723D01*
X0263233Y0199723D01*
X0262179Y0198669D01*
X0262179Y0198118D01*
X0261620Y0198677D01*
X0261620Y0206350D01*
X0265256Y0206350D01*
X0266310Y0207404D01*
X0266310Y0211496D01*
X0265856Y0211950D01*
X0266310Y0212404D01*
X0266310Y0216496D01*
X0265856Y0216950D01*
X0266310Y0217404D01*
X0266310Y0221496D01*
X0265856Y0221950D01*
X0266310Y0222404D01*
X0266310Y0226496D01*
X0265256Y0227550D01*
X0255764Y0227550D01*
X0255244Y0227030D01*
X0255037Y0227030D01*
X0252380Y0229687D01*
X0252380Y0236157D01*
X0251984Y0237113D01*
X0246903Y0242194D01*
X0245947Y0242590D01*
X0149203Y0242590D01*
X0148247Y0242194D01*
X0144636Y0238583D01*
X0144240Y0237627D01*
X0144240Y0235440D01*
X0144068Y0235369D01*
X0142661Y0233962D01*
X0141900Y0232125D01*
X0141900Y0223735D01*
X0142661Y0221898D01*
X0144068Y0220491D01*
X0144312Y0220390D01*
X0144322Y0214478D01*
X0142545Y0214478D01*
X0141491Y0213424D01*
X0141491Y0211913D01*
X0141056Y0211733D01*
X0136427Y0207104D01*
X0135696Y0206373D01*
X0135300Y0205417D01*
X0135300Y0193921D01*
X0132109Y0194013D01*
X0131175Y0194400D01*
X0133012Y0195161D01*
X0134419Y0196568D01*
X0135180Y0198405D01*
X0135180Y0200395D01*
X0134419Y0202232D01*
X0133012Y0203639D01*
X0131175Y0204400D01*
X0122785Y0204400D01*
X0120948Y0203639D01*
X0119541Y0202232D01*
X0118780Y0200395D01*
X0118780Y0198405D01*
X0119541Y0196568D01*
X0120948Y0195161D01*
X0122785Y0194400D01*
X0131175Y0194400D01*
X0122785Y0194400D01*
X0120948Y0193639D01*
X0119541Y0192232D01*
X0118780Y0190395D01*
X0118780Y0188405D01*
X0119541Y0186568D01*
X0120948Y0185161D01*
X0122305Y0184599D01*
X0121707Y0184404D01*
X0120950Y0184018D01*
X0120262Y0183519D01*
X0119661Y0182918D01*
X0119162Y0182230D01*
X0118776Y0181473D01*
X0118513Y0180665D01*
X0118380Y0179825D01*
X0118380Y0179600D01*
X0126780Y0179600D01*
X0126780Y0179200D01*
X0118380Y0179200D01*
X0118380Y0178975D01*
X0118513Y0178135D01*
X0118776Y0177327D01*
X0118840Y0177200D01*
X0107500Y0177200D01*
X0107500Y0186836D01*
X0107506Y0187339D01*
X0107500Y0187352D01*
X0107500Y0187367D01*
X0107308Y0187832D01*
X0107120Y0188298D01*
X0107110Y0188309D01*
X0107104Y0188323D01*
X0106749Y0188678D01*
X0104860Y0190609D01*
X0104854Y0190623D01*
X0104499Y0190978D01*
X0104147Y0191338D01*
X0104133Y0191344D01*
X0104123Y0191354D01*
X0103658Y0191547D01*
X0103522Y0191605D01*
X0103830Y0191913D01*
X0103830Y0193950D01*
X0098630Y0193950D01*
X0098630Y0194350D01*
X0098300Y0194350D01*
X0098300Y0204640D01*
X0114237Y0204640D01*
X0115193Y0205036D01*
X0118780Y0208623D01*
X0118780Y0208405D01*
X0119541Y0206568D01*
X0120948Y0205161D01*
X0122785Y0204400D01*
X0131175Y0204400D01*
X0133012Y0205161D01*
X0134419Y0206568D01*
X0135180Y0208405D01*
X0135180Y0210395D01*
X0134419Y0212232D01*
X0134200Y0212451D01*
X0134200Y0216349D01*
X0134419Y0216568D01*
X0135180Y0218405D01*
X0135180Y0220395D01*
X0134419Y0222232D01*
X0134200Y0222451D01*
X0134200Y0226349D01*
X0134419Y0226568D01*
X0135180Y0228405D01*
X0135180Y0230395D01*
X0134419Y0232232D01*
X0133012Y0233639D01*
X0131175Y0234400D01*
X0122785Y0234400D01*
X0120948Y0233639D01*
X0119541Y0232232D01*
X0118780Y0230395D01*
X0118780Y0230367D01*
X0116198Y0227785D01*
X0115834Y0227425D01*
X0115831Y0227418D01*
X0115826Y0227413D01*
X0115631Y0226942D01*
X0115433Y0226472D01*
X0115433Y0226464D01*
X0115430Y0226457D01*
X0115430Y0225946D01*
X0115356Y0212553D01*
X0112643Y0209840D01*
X0090403Y0209840D01*
X0089447Y0209444D01*
X0088716Y0208713D01*
X0088716Y0208713D01*
X0079656Y0199653D01*
X0079260Y0198697D01*
X0079260Y0177413D01*
X0079656Y0176457D01*
X0080387Y0175726D01*
X0081550Y0174563D01*
X0081550Y0138987D01*
X0082735Y0137802D01*
X0082915Y0137442D01*
X0083186Y0137352D01*
X0083387Y0137150D01*
X0083487Y0137150D01*
X0083537Y0137100D01*
X0083743Y0137100D01*
X0083030Y0136387D01*
X0083030Y0134350D01*
X0088230Y0134350D01*
X0088230Y0133950D01*
X0088630Y0133950D01*
X0088630Y0134350D01*
X0098230Y0134350D01*
X0098230Y0133950D01*
X0098630Y0133950D01*
X0098630Y0128750D01*
X0100667Y0128750D01*
X0103270Y0131353D01*
X0103270Y0126883D01*
X0103300Y0126810D01*
X0103300Y0111783D01*
X0103696Y0110827D01*
X0104427Y0110096D01*
X0107127Y0107396D01*
X0108083Y0107000D01*
X0118350Y0107000D01*
X0118350Y0079917D01*
X0112694Y0085573D01*
X0111963Y0086304D01*
X0111007Y0086700D01*
X0103220Y0086700D01*
X0103220Y0093235D01*
X0102459Y0095072D01*
X0101052Y0096479D01*
X0099215Y0097240D01*
X0097225Y0097240D01*
X0095388Y0096479D01*
X0093981Y0095072D01*
X0093419Y0093714D01*
X0093224Y0094313D01*
X0092838Y0095070D01*
X0092339Y0095758D01*
X0091738Y0096359D01*
X0091050Y0096858D01*
X0090293Y0097244D01*
X0089485Y0097507D01*
X0088645Y0097640D01*
X0088420Y0097640D01*
X0088420Y0089240D01*
X0088020Y0089240D01*
X0088020Y0097640D01*
X0087795Y0097640D01*
X0086955Y0097507D01*
X0086147Y0097244D01*
X0085390Y0096858D01*
X0084702Y0096359D01*
X0084101Y0095758D01*
X0083602Y0095070D01*
X0083216Y0094313D01*
X0082953Y0093505D01*
X0082820Y0092665D01*
X0082820Y0089240D01*
X0088020Y0089240D01*
X0088020Y0088840D01*
X0088420Y0088840D01*
X0088420Y0080440D01*
X0088645Y0080440D01*
X0089485Y0080573D01*
X0090293Y0080836D01*
X0091050Y0081222D01*
X0091738Y0081721D01*
X0092339Y0082322D01*
X0092838Y0083010D01*
X0093224Y0083767D01*
X0093419Y0084366D01*
X0093981Y0083008D01*
X0095388Y0081601D01*
X0097225Y0080840D01*
X0099215Y0080840D01*
X0100808Y0081500D01*
X0109413Y0081500D01*
X0113780Y0077133D01*
X0113780Y0072853D01*
X0114176Y0071897D01*
X0114907Y0071166D01*
X0117946Y0068127D01*
X0118677Y0067396D01*
X0119406Y0067094D01*
X0119541Y0066768D01*
X0120948Y0065361D01*
X0122785Y0064600D01*
X0131175Y0064600D01*
X0133012Y0065361D01*
X0133401Y0065750D01*
X0142189Y0065750D01*
X0142741Y0064418D01*
X0144148Y0063011D01*
X0145985Y0062250D01*
X0147975Y0062250D01*
X0149812Y0063011D01*
X0150951Y0064150D01*
X0153009Y0064150D01*
X0154148Y0063011D01*
X0155985Y0062250D01*
X0157975Y0062250D01*
X0159812Y0063011D01*
X0160951Y0064150D01*
X0162558Y0064150D01*
X0162861Y0063732D01*
X0163462Y0063131D01*
X0164150Y0062632D01*
X0164907Y0062246D01*
X0165715Y0061983D01*
X0166555Y0061850D01*
X0166780Y0061850D01*
X0166780Y0070250D01*
X0167180Y0070250D01*
X0167180Y0070650D01*
X0172380Y0070650D01*
X0172380Y0074075D01*
X0172247Y0074915D01*
X0171986Y0075717D01*
X0178780Y0068923D01*
X0178780Y0068405D01*
X0179541Y0066568D01*
X0180948Y0065161D01*
X0182785Y0064400D01*
X0191175Y0064400D01*
X0193012Y0065161D01*
X0194419Y0066568D01*
X0195180Y0068405D01*
X0195180Y0070395D01*
X0194419Y0072232D01*
X0194400Y0072251D01*
X0194400Y0076549D01*
X0194419Y0076568D01*
X0195180Y0078405D01*
X0195180Y0080395D01*
X0194419Y0082232D01*
X0194400Y0082251D01*
X0194400Y0086549D01*
X0194419Y0086568D01*
X0195180Y0088405D01*
X0195180Y0090395D01*
X0194419Y0092232D01*
X0194400Y0092251D01*
X0194400Y0096549D01*
X0194419Y0096568D01*
X0195180Y0098405D01*
X0195180Y0098850D01*
X0201643Y0098850D01*
X0206177Y0094316D01*
X0207133Y0093920D01*
X0208252Y0093920D01*
X0208252Y0092395D01*
X0209306Y0091341D01*
X0209774Y0091341D01*
X0209346Y0090913D01*
X0208950Y0089957D01*
X0208950Y0089201D01*
X0208285Y0089201D01*
X0207230Y0088146D01*
X0207230Y0084943D01*
X0206980Y0084510D01*
X0206830Y0083950D01*
X0206830Y0082440D01*
X0206830Y0080930D01*
X0206980Y0080370D01*
X0207230Y0079937D01*
X0207230Y0076734D01*
X0207350Y0076614D01*
X0207350Y0063287D01*
X0208287Y0062350D01*
X0235047Y0062350D01*
X0235056Y0062341D01*
X0242847Y0062341D01*
X0242856Y0062350D01*
X0246244Y0062350D01*
X0246253Y0062341D01*
X0254044Y0062341D01*
X0254053Y0062350D01*
X0283913Y0062350D01*
X0284850Y0063287D01*
X0284850Y0076210D01*
X0330857Y0076210D01*
X0331813Y0076606D01*
X0338384Y0083177D01*
X0338780Y0085091D02*
X0365176Y0085091D01*
X0365176Y0086690D02*
X0338780Y0086690D01*
X0338780Y0088288D02*
X0365176Y0088288D01*
X0365176Y0089887D02*
X0338780Y0089887D01*
X0338780Y0091485D02*
X0343301Y0091485D01*
X0342166Y0093084D02*
X0338780Y0093084D01*
X0338780Y0094682D02*
X0341680Y0094682D01*
X0341680Y0096281D02*
X0338780Y0096281D01*
X0338780Y0097879D02*
X0342298Y0097879D01*
X0343619Y0099478D02*
X0338780Y0099478D01*
X0338780Y0101076D02*
X0358090Y0101076D01*
X0359520Y0102675D02*
X0338780Y0102675D01*
X0338780Y0104273D02*
X0359520Y0104273D01*
X0359520Y0105872D02*
X0338780Y0105872D01*
X0338780Y0107470D02*
X0359520Y0107470D01*
X0359520Y0109069D02*
X0338780Y0109069D01*
X0339404Y0110668D02*
X0343804Y0110668D01*
X0342375Y0112266D02*
X0341003Y0112266D01*
X0340030Y0114970D02*
X0350543Y0114970D01*
X0350580Y0115007D01*
X0345727Y0120259D02*
X0334640Y0120259D01*
X0334640Y0121857D02*
X0359520Y0121857D01*
X0359520Y0120259D02*
X0355433Y0120259D01*
X0358043Y0118660D02*
X0359520Y0118660D01*
X0359520Y0117062D02*
X0359070Y0117062D01*
X0359480Y0115463D02*
X0359520Y0115463D01*
X0359520Y0113865D02*
X0359447Y0113865D01*
X0359520Y0112266D02*
X0358785Y0112266D01*
X0359520Y0110668D02*
X0357356Y0110668D01*
X0364720Y0110668D02*
X0365176Y0110668D01*
X0365176Y0112266D02*
X0364720Y0112266D01*
X0364720Y0113865D02*
X0365176Y0113865D01*
X0365176Y0115463D02*
X0364720Y0115463D01*
X0364720Y0117062D02*
X0365176Y0117062D01*
X0365176Y0118660D02*
X0364720Y0118660D01*
X0364720Y0120259D02*
X0365176Y0120259D01*
X0365176Y0121857D02*
X0364720Y0121857D01*
X0364720Y0123456D02*
X0365176Y0123456D01*
X0365176Y0125054D02*
X0364720Y0125054D01*
X0364720Y0126653D02*
X0365176Y0126653D01*
X0365176Y0128251D02*
X0364720Y0128251D01*
X0364720Y0129850D02*
X0365176Y0129850D01*
X0365176Y0131448D02*
X0364720Y0131448D01*
X0364720Y0133047D02*
X0365176Y0133047D01*
X0365176Y0134645D02*
X0364720Y0134645D01*
X0364720Y0136244D02*
X0365176Y0136244D01*
X0365176Y0137842D02*
X0364720Y0137842D01*
X0364720Y0139441D02*
X0365176Y0139441D01*
X0365176Y0141039D02*
X0364720Y0141039D01*
X0364720Y0142638D02*
X0365176Y0142638D01*
X0365176Y0144236D02*
X0364720Y0144236D01*
X0364720Y0145835D02*
X0365176Y0145835D01*
X0365176Y0147433D02*
X0364720Y0147433D01*
X0364720Y0149032D02*
X0365176Y0149032D01*
X0365176Y0150630D02*
X0364720Y0150630D01*
X0364720Y0152229D02*
X0365176Y0152229D01*
X0365176Y0153827D02*
X0364720Y0153827D01*
X0364720Y0155426D02*
X0365176Y0155426D01*
X0365176Y0157024D02*
X0364720Y0157024D01*
X0364720Y0158623D02*
X0365176Y0158623D01*
X0365176Y0160221D02*
X0364720Y0160221D01*
X0364720Y0161820D02*
X0365176Y0161820D01*
X0365176Y0163418D02*
X0364720Y0163418D01*
X0364720Y0165017D02*
X0365176Y0165017D01*
X0365176Y0166615D02*
X0364720Y0166615D01*
X0364720Y0168214D02*
X0365176Y0168214D01*
X0365176Y0169812D02*
X0364720Y0169812D01*
X0364720Y0171411D02*
X0365176Y0171411D01*
X0365176Y0173009D02*
X0364720Y0173009D01*
X0364720Y0174608D02*
X0365176Y0174608D01*
X0365176Y0176206D02*
X0364720Y0176206D01*
X0364720Y0177805D02*
X0365176Y0177805D01*
X0365176Y0179403D02*
X0364720Y0179403D01*
X0364720Y0181002D02*
X0365176Y0181002D01*
X0365176Y0182601D02*
X0364474Y0182601D01*
X0365176Y0184199D02*
X0363088Y0184199D01*
X0361489Y0185798D02*
X0365176Y0185798D01*
X0365176Y0187396D02*
X0359891Y0187396D01*
X0358000Y0185610D02*
X0349852Y0185610D01*
X0349690Y0185772D01*
X0337400Y0185772D01*
X0336980Y0185352D01*
X0336840Y0185492D01*
X0336840Y0194440D01*
X0340621Y0193790D02*
X0365176Y0193790D01*
X0365176Y0192192D02*
X0340621Y0192192D01*
X0339440Y0190593D02*
X0347323Y0190593D01*
X0346397Y0188995D02*
X0342323Y0188995D01*
X0336980Y0185352D02*
X0336443Y0185889D01*
X0319630Y0185889D01*
X0319191Y0185450D01*
X0308630Y0185450D01*
X0302580Y0179400D01*
X0302580Y0137030D01*
X0294240Y0128690D01*
X0257550Y0128690D01*
X0230640Y0128690D01*
X0228700Y0126750D01*
X0221738Y0126750D01*
X0221668Y0126680D01*
X0223300Y0130940D02*
X0212620Y0130940D01*
X0210800Y0129190D01*
X0210800Y0127312D01*
X0211432Y0126680D01*
X0211432Y0122940D02*
X0211432Y0122940D01*
X0208390Y0122940D01*
X0206750Y0121300D01*
X0206750Y0107960D01*
X0211150Y0103560D01*
X0211280Y0103560D01*
X0212160Y0102680D01*
X0247510Y0102680D01*
X0250150Y0100040D01*
X0250150Y0096692D01*
X0250148Y0096690D01*
X0262430Y0096690D01*
X0262480Y0096640D01*
X0264940Y0096281D02*
X0257600Y0096281D01*
X0257600Y0096663D02*
X0256663Y0097600D01*
X0255498Y0097600D01*
X0255498Y0100529D01*
X0255348Y0101088D01*
X0255058Y0101590D01*
X0254649Y0102000D01*
X0254147Y0102289D01*
X0253588Y0102439D01*
X0250923Y0102439D01*
X0250923Y0097600D01*
X0249374Y0097600D01*
X0249374Y0102439D01*
X0246709Y0102439D01*
X0246150Y0102289D01*
X0245648Y0102000D01*
X0245238Y0101590D01*
X0245100Y0101350D01*
X0243536Y0101350D01*
X0242847Y0102039D01*
X0235056Y0102039D01*
X0234002Y0100985D01*
X0234002Y0099290D01*
X0229348Y0099290D01*
X0229348Y0100985D01*
X0228294Y0102039D01*
X0220503Y0102039D01*
X0219864Y0101400D01*
X0217736Y0101400D01*
X0217097Y0102039D01*
X0209306Y0102039D01*
X0208252Y0100985D01*
X0208252Y0099595D01*
X0206040Y0101807D01*
X0206040Y0124250D01*
X0206830Y0124250D01*
X0206830Y0122940D01*
X0206830Y0121430D01*
X0206980Y0120870D01*
X0207230Y0120437D01*
X0207230Y0117234D01*
X0208285Y0116179D01*
X0208878Y0116179D01*
X0209228Y0115335D01*
X0212400Y0112163D01*
X0212400Y0112137D01*
X0213337Y0111200D01*
X0213363Y0111200D01*
X0213827Y0110736D01*
X0214783Y0110340D01*
X0228223Y0110340D01*
X0231596Y0106967D01*
X0232327Y0106236D01*
X0233283Y0105840D01*
X0234002Y0105840D01*
X0234002Y0104145D01*
X0235056Y0103091D01*
X0242847Y0103091D01*
X0243156Y0103400D01*
X0245944Y0103400D01*
X0246253Y0103091D01*
X0254044Y0103091D01*
X0255098Y0104145D01*
X0255098Y0105866D01*
X0262509Y0105904D01*
X0264940Y0103473D01*
X0264940Y0093650D01*
X0257600Y0093650D01*
X0257600Y0096663D01*
X0257600Y0094682D02*
X0264940Y0094682D01*
X0264940Y0097879D02*
X0255498Y0097879D01*
X0255498Y0099478D02*
X0264940Y0099478D01*
X0264940Y0101076D02*
X0255351Y0101076D01*
X0255098Y0104273D02*
X0264140Y0104273D01*
X0264940Y0102675D02*
X0206040Y0102675D01*
X0206040Y0104273D02*
X0234002Y0104273D01*
X0233206Y0105872D02*
X0206040Y0105872D01*
X0206040Y0107470D02*
X0231093Y0107470D01*
X0229494Y0109069D02*
X0206040Y0109069D01*
X0206040Y0110668D02*
X0213992Y0110668D01*
X0212297Y0112266D02*
X0206040Y0112266D01*
X0206040Y0113865D02*
X0210699Y0113865D01*
X0209175Y0115463D02*
X0206040Y0115463D01*
X0206040Y0117062D02*
X0207403Y0117062D01*
X0207230Y0118660D02*
X0206040Y0118660D01*
X0206040Y0120259D02*
X0207230Y0120259D01*
X0206830Y0121857D02*
X0206040Y0121857D01*
X0206830Y0122940D02*
X0211432Y0122940D01*
X0206830Y0122940D01*
X0206830Y0123456D02*
X0206040Y0123456D01*
X0203440Y0124170D02*
X0203440Y0100730D01*
X0207650Y0096520D01*
X0213032Y0096520D01*
X0213202Y0096690D01*
X0208252Y0093084D02*
X0194400Y0093084D01*
X0194400Y0094682D02*
X0205811Y0094682D01*
X0204212Y0096281D02*
X0194400Y0096281D01*
X0194962Y0097879D02*
X0202614Y0097879D01*
X0206770Y0101076D02*
X0208344Y0101076D01*
X0209162Y0091485D02*
X0194728Y0091485D01*
X0195180Y0089887D02*
X0208950Y0089887D01*
X0207372Y0088288D02*
X0195131Y0088288D01*
X0194469Y0086690D02*
X0207230Y0086690D01*
X0207230Y0085091D02*
X0194400Y0085091D01*
X0194400Y0083493D02*
X0206830Y0083493D01*
X0206830Y0082440D02*
X0211432Y0082440D01*
X0208280Y0082440D01*
X0204860Y0079020D01*
X0204860Y0063290D01*
X0202220Y0060650D01*
X0267010Y0060650D01*
X0267140Y0060520D01*
X0280860Y0067690D02*
X0280980Y0067570D01*
X0280860Y0067690D02*
X0250148Y0067690D01*
X0238952Y0067690D02*
X0233550Y0067690D01*
X0229840Y0071440D01*
X0215800Y0071440D01*
X0211550Y0075690D01*
X0211550Y0078582D01*
X0211432Y0078700D01*
X0211432Y0082440D02*
X0206830Y0082440D01*
X0206830Y0081894D02*
X0194559Y0081894D01*
X0195180Y0080296D02*
X0207023Y0080296D01*
X0207230Y0078697D02*
X0195180Y0078697D01*
X0194639Y0077099D02*
X0207230Y0077099D01*
X0207350Y0075500D02*
X0194400Y0075500D01*
X0194400Y0073902D02*
X0207350Y0073902D01*
X0207350Y0072303D02*
X0194400Y0072303D01*
X0195052Y0070705D02*
X0207350Y0070705D01*
X0207350Y0069106D02*
X0195180Y0069106D01*
X0194808Y0067508D02*
X0207350Y0067508D01*
X0207350Y0065909D02*
X0193760Y0065909D01*
X0186980Y0069400D02*
X0181980Y0069400D01*
X0170480Y0080900D01*
X0160480Y0080900D01*
X0156980Y0084400D01*
X0156980Y0070450D01*
X0159090Y0062712D02*
X0164039Y0062712D01*
X0166780Y0062712D02*
X0167180Y0062712D01*
X0167180Y0061850D02*
X0167405Y0061850D01*
X0168245Y0061983D01*
X0169053Y0062246D01*
X0169810Y0062632D01*
X0170498Y0063131D01*
X0171099Y0063732D01*
X0171598Y0064420D01*
X0171984Y0065177D01*
X0172247Y0065985D01*
X0172380Y0066825D01*
X0172380Y0070250D01*
X0167180Y0070250D01*
X0167180Y0061850D01*
X0167110Y0064300D02*
X0167110Y0070320D01*
X0166980Y0070450D01*
X0166780Y0069106D02*
X0167180Y0069106D01*
X0167180Y0067508D02*
X0166780Y0067508D01*
X0166780Y0065909D02*
X0167180Y0065909D01*
X0167180Y0064311D02*
X0166780Y0064311D01*
X0167110Y0064300D02*
X0170760Y0060650D01*
X0122070Y0060650D01*
X0112510Y0070210D01*
X0112510Y0075750D01*
X0108610Y0079650D01*
X0095310Y0079650D01*
X0088220Y0086740D01*
X0088220Y0089040D01*
X0088510Y0089330D01*
X0088430Y0134150D01*
X0098430Y0134150D01*
X0098230Y0133950D02*
X0098230Y0128750D01*
X0096193Y0128750D01*
X0093430Y0131513D01*
X0090667Y0128750D01*
X0088630Y0128750D01*
X0088630Y0133950D01*
X0093030Y0133950D01*
X0098230Y0133950D01*
X0098230Y0133047D02*
X0098630Y0133047D01*
X0098630Y0131448D02*
X0098230Y0131448D01*
X0098230Y0129850D02*
X0098630Y0129850D01*
X0101766Y0129850D02*
X0103270Y0129850D01*
X0103270Y0128251D02*
X0074300Y0128251D01*
X0074300Y0126653D02*
X0103300Y0126653D01*
X0103300Y0125054D02*
X0074300Y0125054D01*
X0074300Y0123456D02*
X0103300Y0123456D01*
X0103300Y0121857D02*
X0074300Y0121857D01*
X0074300Y0120259D02*
X0103300Y0120259D01*
X0103300Y0118660D02*
X0074300Y0118660D01*
X0074300Y0117062D02*
X0103300Y0117062D01*
X0103300Y0115463D02*
X0074300Y0115463D01*
X0074300Y0113865D02*
X0103300Y0113865D01*
X0103300Y0112266D02*
X0074300Y0112266D01*
X0074300Y0110668D02*
X0103856Y0110668D01*
X0105454Y0109069D02*
X0074300Y0109069D01*
X0074300Y0107470D02*
X0107053Y0107470D01*
X0108600Y0109600D02*
X0105900Y0112300D01*
X0105900Y0127370D01*
X0105870Y0127400D01*
X0105870Y0136490D01*
X0103340Y0139150D01*
X0093540Y0139150D01*
X0088430Y0144130D01*
X0088430Y0144150D01*
X0081550Y0144236D02*
X0074300Y0144236D01*
X0074300Y0142638D02*
X0081550Y0142638D01*
X0081550Y0141039D02*
X0074300Y0141039D01*
X0074300Y0139441D02*
X0081550Y0139441D01*
X0082695Y0137842D02*
X0074300Y0137842D01*
X0074300Y0136244D02*
X0083030Y0136244D01*
X0083030Y0134645D02*
X0074300Y0134645D01*
X0074300Y0133047D02*
X0083030Y0133047D01*
X0083030Y0133950D02*
X0083030Y0131913D01*
X0086193Y0128750D01*
X0088230Y0128750D01*
X0088230Y0133950D01*
X0083030Y0133950D01*
X0083495Y0131448D02*
X0074300Y0131448D01*
X0074300Y0129850D02*
X0085094Y0129850D01*
X0088230Y0129850D02*
X0088630Y0129850D01*
X0088630Y0131448D02*
X0088230Y0131448D01*
X0088230Y0133047D02*
X0088630Y0133047D01*
X0091766Y0129850D02*
X0095094Y0129850D01*
X0093495Y0131448D02*
X0093365Y0131448D01*
X0108650Y0122100D02*
X0108650Y0151500D01*
X0106220Y0153930D01*
X0098650Y0153930D01*
X0098430Y0154150D01*
X0098540Y0164040D02*
X0098430Y0164150D01*
X0098540Y0164040D02*
X0108600Y0164040D01*
X0111270Y0161370D01*
X0111270Y0147110D01*
X0111300Y0147080D01*
X0111300Y0132200D01*
X0114100Y0129400D01*
X0126980Y0129400D01*
X0135230Y0122670D02*
X0138430Y0119470D01*
X0138430Y0119370D01*
X0139230Y0119370D01*
X0139490Y0119630D01*
X0139490Y0125349D01*
X0139540Y0125299D01*
X0139490Y0125349D02*
X0139479Y0125360D01*
X0135230Y0122670D02*
X0135230Y0144980D01*
X0135250Y0145000D01*
X0135250Y0147550D01*
X0133450Y0149350D01*
X0127030Y0149350D01*
X0126980Y0149400D01*
X0132900Y0154400D02*
X0119950Y0154400D01*
X0117100Y0157250D01*
X0117100Y0169100D01*
X0114250Y0171950D01*
X0106700Y0171950D01*
X0104900Y0173750D01*
X0104900Y0186850D01*
X0102650Y0189150D01*
X0093480Y0189150D01*
X0088430Y0194150D01*
X0081860Y0198180D02*
X0090920Y0207240D01*
X0113720Y0207240D01*
X0117950Y0211470D01*
X0118030Y0225940D01*
X0121350Y0229260D01*
X0126840Y0229260D01*
X0126980Y0229400D01*
X0121223Y0233753D02*
X0100459Y0233753D01*
X0100459Y0235351D02*
X0144050Y0235351D01*
X0144240Y0236950D02*
X0100459Y0236950D01*
X0100459Y0238548D02*
X0144622Y0238548D01*
X0146200Y0240147D02*
X0100459Y0240147D01*
X0100459Y0241745D02*
X0147798Y0241745D01*
X0149720Y0239990D02*
X0146840Y0237110D01*
X0146840Y0229590D01*
X0146900Y0227930D01*
X0146930Y0209618D01*
X0146840Y0209528D01*
X0142528Y0209528D01*
X0137900Y0204900D01*
X0137900Y0173700D01*
X0133600Y0169400D01*
X0126980Y0169400D01*
X0118620Y0177805D02*
X0107500Y0177805D01*
X0107500Y0179403D02*
X0126780Y0179403D01*
X0126880Y0179500D02*
X0126980Y0179400D01*
X0126880Y0179500D02*
X0111250Y0179500D01*
X0108600Y0182150D01*
X0108600Y0187350D01*
X0101800Y0194150D01*
X0098430Y0194150D01*
X0098630Y0194350D02*
X0098630Y0199550D01*
X0100667Y0199550D01*
X0103830Y0196387D01*
X0103830Y0194350D01*
X0098630Y0194350D01*
X0098630Y0195389D02*
X0098300Y0195389D01*
X0098300Y0196987D02*
X0098630Y0196987D01*
X0098630Y0198586D02*
X0098300Y0198586D01*
X0098300Y0200184D02*
X0118780Y0200184D01*
X0118780Y0198586D02*
X0101631Y0198586D01*
X0103230Y0196987D02*
X0119367Y0196987D01*
X0120720Y0195389D02*
X0103830Y0195389D01*
X0103830Y0193790D02*
X0121313Y0193790D01*
X0119524Y0192192D02*
X0103830Y0192192D01*
X0104875Y0190593D02*
X0118862Y0190593D01*
X0118780Y0188995D02*
X0106439Y0188995D01*
X0107488Y0187396D02*
X0119198Y0187396D01*
X0120311Y0185798D02*
X0107500Y0185798D01*
X0107500Y0184199D02*
X0121304Y0184199D01*
X0119431Y0182601D02*
X0107500Y0182601D01*
X0107500Y0181002D02*
X0118623Y0181002D01*
X0112030Y0169150D02*
X0113940Y0167130D01*
X0113940Y0156520D01*
X0113950Y0156510D01*
X0113950Y0141500D01*
X0116050Y0139400D01*
X0126980Y0139400D01*
X0138100Y0136250D02*
X0138100Y0149180D01*
X0132900Y0154400D01*
X0133920Y0159480D02*
X0127060Y0159480D01*
X0126980Y0159400D01*
X0133920Y0159480D02*
X0142330Y0167890D01*
X0142330Y0178590D01*
X0147040Y0183300D01*
X0153750Y0183300D01*
X0153790Y0183260D01*
X0155860Y0183260D01*
X0158040Y0185440D01*
X0158040Y0206150D01*
X0160490Y0208600D01*
X0166222Y0208600D01*
X0167150Y0209528D01*
X0156930Y0219748D01*
X0156900Y0227930D01*
X0157050Y0228080D01*
X0157050Y0234440D01*
X0159190Y0236580D01*
X0241800Y0236580D01*
X0245430Y0232950D01*
X0245430Y0224790D01*
X0250860Y0219360D01*
X0260420Y0219360D01*
X0260510Y0219450D01*
X0260490Y0224430D02*
X0253960Y0224430D01*
X0249780Y0228610D01*
X0249780Y0235640D01*
X0245430Y0239990D01*
X0149720Y0239990D01*
X0142574Y0233753D02*
X0132737Y0233753D01*
X0134451Y0232154D02*
X0141912Y0232154D01*
X0141900Y0230556D02*
X0135113Y0230556D01*
X0135180Y0228957D02*
X0141900Y0228957D01*
X0141900Y0227359D02*
X0134746Y0227359D01*
X0134200Y0225760D02*
X0141900Y0225760D01*
X0141900Y0224162D02*
X0134200Y0224162D01*
X0134200Y0222563D02*
X0142385Y0222563D01*
X0143594Y0220965D02*
X0134944Y0220965D01*
X0135180Y0219366D02*
X0144314Y0219366D01*
X0144317Y0217768D02*
X0134916Y0217768D01*
X0134200Y0216169D02*
X0144319Y0216169D01*
X0144322Y0214571D02*
X0134200Y0214571D01*
X0134200Y0212972D02*
X0141491Y0212972D01*
X0140697Y0211374D02*
X0134774Y0211374D01*
X0135180Y0209775D02*
X0139098Y0209775D01*
X0137500Y0208177D02*
X0135085Y0208177D01*
X0136427Y0207104D02*
X0136427Y0207104D01*
X0135901Y0206578D02*
X0134423Y0206578D01*
X0135300Y0204980D02*
X0132574Y0204980D01*
X0133270Y0203381D02*
X0135300Y0203381D01*
X0135300Y0201783D02*
X0134605Y0201783D01*
X0135180Y0200184D02*
X0135300Y0200184D01*
X0135300Y0198586D02*
X0135180Y0198586D01*
X0135300Y0196987D02*
X0134592Y0196987D01*
X0135300Y0195389D02*
X0133240Y0195389D01*
X0146840Y0198332D02*
X0150068Y0198332D01*
X0150068Y0190432D01*
X0150210Y0190290D01*
X0160640Y0185840D02*
X0171009Y0185950D01*
X0171663Y0185950D01*
X0171670Y0185957D01*
X0171680Y0185957D01*
X0172138Y0186425D01*
X0172600Y0186887D01*
X0172600Y0186897D01*
X0172607Y0186904D01*
X0172600Y0187559D01*
X0172600Y0208947D01*
X0172607Y0208954D01*
X0172600Y0209609D01*
X0172600Y0210263D01*
X0172593Y0210270D01*
X0172593Y0210280D01*
X0172499Y0210371D01*
X0172499Y0213424D01*
X0171445Y0214478D01*
X0165877Y0214478D01*
X0159798Y0220557D01*
X0161139Y0221898D01*
X0161701Y0223255D01*
X0161896Y0222657D01*
X0162281Y0221900D01*
X0162781Y0221212D01*
X0163382Y0220611D01*
X0164070Y0220112D01*
X0164827Y0219726D01*
X0165635Y0219463D01*
X0166475Y0219330D01*
X0166700Y0219330D01*
X0166700Y0227730D01*
X0167100Y0227730D01*
X0167100Y0228130D01*
X0172300Y0228130D01*
X0172300Y0231555D01*
X0172167Y0232395D01*
X0171904Y0233203D01*
X0171518Y0233960D01*
X0171504Y0233980D01*
X0181771Y0233980D01*
X0180948Y0233639D01*
X0179541Y0232232D01*
X0178780Y0230395D01*
X0178780Y0228405D01*
X0179541Y0226568D01*
X0180400Y0225709D01*
X0180400Y0223091D01*
X0179541Y0222232D01*
X0178780Y0220395D01*
X0178780Y0218405D01*
X0179541Y0216568D01*
X0180400Y0215709D01*
X0180400Y0213091D01*
X0179541Y0212232D01*
X0178780Y0210395D01*
X0178780Y0208405D01*
X0179541Y0206568D01*
X0180948Y0205161D01*
X0182305Y0204599D01*
X0181707Y0204404D01*
X0180950Y0204018D01*
X0180262Y0203519D01*
X0179661Y0202918D01*
X0179162Y0202230D01*
X0178776Y0201473D01*
X0178513Y0200665D01*
X0178380Y0199825D01*
X0178380Y0199600D01*
X0186780Y0199600D01*
X0186780Y0199200D01*
X0178380Y0199200D01*
X0178380Y0198975D01*
X0178513Y0198135D01*
X0178776Y0197327D01*
X0179162Y0196570D01*
X0179661Y0195882D01*
X0180262Y0195281D01*
X0180950Y0194782D01*
X0181707Y0194396D01*
X0182305Y0194201D01*
X0180948Y0193639D01*
X0179541Y0192232D01*
X0178780Y0190395D01*
X0178780Y0188405D01*
X0179541Y0186568D01*
X0179650Y0186459D01*
X0179650Y0182341D01*
X0179541Y0182232D01*
X0178780Y0180395D01*
X0178780Y0178405D01*
X0179541Y0176568D01*
X0179682Y0176427D01*
X0179484Y0176221D01*
X0179136Y0175873D01*
X0179126Y0175850D01*
X0176584Y0173211D01*
X0176236Y0172863D01*
X0176226Y0172840D01*
X0176209Y0172821D01*
X0176161Y0172700D01*
X0144930Y0172700D01*
X0144930Y0177513D01*
X0148117Y0180700D01*
X0153176Y0180700D01*
X0153273Y0180660D01*
X0156377Y0180660D01*
X0157333Y0181056D01*
X0158064Y0181787D01*
X0160244Y0183967D01*
X0160640Y0184923D01*
X0160640Y0185840D01*
X0160640Y0185798D02*
X0179650Y0185798D01*
X0179650Y0184199D02*
X0160340Y0184199D01*
X0158877Y0182601D02*
X0179650Y0182601D01*
X0179032Y0181002D02*
X0157203Y0181002D01*
X0146820Y0179403D02*
X0178780Y0179403D01*
X0179029Y0177805D02*
X0145222Y0177805D01*
X0144930Y0176206D02*
X0179470Y0176206D01*
X0178030Y0177680D02*
X0174890Y0174540D01*
X0166080Y0174540D01*
X0176383Y0173009D02*
X0144930Y0173009D01*
X0144930Y0174608D02*
X0177930Y0174608D01*
X0178030Y0177680D02*
X0178030Y0195200D01*
X0181840Y0199010D01*
X0186590Y0199010D01*
X0186980Y0199400D01*
X0181313Y0193790D02*
X0172600Y0193790D01*
X0172600Y0192192D02*
X0179524Y0192192D01*
X0178862Y0190593D02*
X0172600Y0190593D01*
X0172600Y0188995D02*
X0178780Y0188995D01*
X0179198Y0187396D02*
X0172602Y0187396D01*
X0167150Y0190320D02*
X0167120Y0190290D01*
X0167150Y0190320D02*
X0167150Y0198332D01*
X0172600Y0198586D02*
X0178442Y0198586D01*
X0178437Y0200184D02*
X0172600Y0200184D01*
X0172600Y0201783D02*
X0178933Y0201783D01*
X0180124Y0203381D02*
X0172600Y0203381D01*
X0172600Y0204980D02*
X0181386Y0204980D01*
X0179537Y0206578D02*
X0172600Y0206578D01*
X0172600Y0208177D02*
X0178875Y0208177D01*
X0178780Y0209775D02*
X0172600Y0209775D01*
X0172499Y0211374D02*
X0179186Y0211374D01*
X0180281Y0212972D02*
X0172499Y0212972D01*
X0165785Y0214571D02*
X0180400Y0214571D01*
X0179940Y0216169D02*
X0164186Y0216169D01*
X0162588Y0217768D02*
X0179044Y0217768D01*
X0178780Y0219366D02*
X0167554Y0219366D01*
X0167325Y0219330D02*
X0168164Y0219463D01*
X0168973Y0219726D01*
X0169730Y0220112D01*
X0170418Y0220611D01*
X0171019Y0221212D01*
X0171518Y0221900D01*
X0171904Y0222657D01*
X0172167Y0223465D01*
X0172300Y0224305D01*
X0172300Y0227730D01*
X0167100Y0227730D01*
X0167100Y0219330D01*
X0167325Y0219330D01*
X0167100Y0219366D02*
X0166700Y0219366D01*
X0166246Y0219366D02*
X0160989Y0219366D01*
X0160206Y0220965D02*
X0163028Y0220965D01*
X0161943Y0222563D02*
X0161414Y0222563D01*
X0166700Y0222563D02*
X0167100Y0222563D01*
X0167100Y0220965D02*
X0166700Y0220965D01*
X0166700Y0224162D02*
X0167100Y0224162D01*
X0167100Y0225760D02*
X0166700Y0225760D01*
X0166700Y0227359D02*
X0167100Y0227359D01*
X0172300Y0227359D02*
X0179214Y0227359D01*
X0178780Y0228957D02*
X0172300Y0228957D01*
X0172300Y0230556D02*
X0178847Y0230556D01*
X0179509Y0232154D02*
X0172205Y0232154D01*
X0171624Y0233753D02*
X0181223Y0233753D01*
X0180349Y0225760D02*
X0172300Y0225760D01*
X0172277Y0224162D02*
X0180400Y0224162D01*
X0179872Y0222563D02*
X0171857Y0222563D01*
X0170772Y0220965D02*
X0179016Y0220965D01*
X0196700Y0228230D02*
X0196700Y0182480D01*
X0193660Y0179440D01*
X0187020Y0179440D01*
X0186980Y0179400D01*
X0187150Y0179570D01*
X0186980Y0179400D02*
X0187110Y0179270D01*
X0181340Y0174400D02*
X0178440Y0171390D01*
X0178440Y0140810D01*
X0172780Y0135150D01*
X0170638Y0135150D01*
X0170230Y0135558D01*
X0166398Y0135558D01*
X0163750Y0132910D01*
X0163750Y0119620D01*
X0160540Y0116410D01*
X0143860Y0116410D01*
X0135650Y0108200D01*
X0135650Y0092650D01*
X0132600Y0089600D01*
X0126980Y0089600D01*
X0118350Y0089887D02*
X0103220Y0089887D01*
X0103220Y0091485D02*
X0118350Y0091485D01*
X0118350Y0093084D02*
X0103220Y0093084D01*
X0102620Y0094682D02*
X0118350Y0094682D01*
X0118350Y0096281D02*
X0101250Y0096281D01*
X0095190Y0096281D02*
X0091816Y0096281D01*
X0093036Y0094682D02*
X0093820Y0094682D01*
X0088420Y0094682D02*
X0088020Y0094682D01*
X0088020Y0093084D02*
X0088420Y0093084D01*
X0088420Y0091485D02*
X0088020Y0091485D01*
X0088020Y0089887D02*
X0088420Y0089887D01*
X0088020Y0088840D02*
X0082820Y0088840D01*
X0082820Y0085415D01*
X0082953Y0084575D01*
X0083216Y0083767D01*
X0083602Y0083010D01*
X0084101Y0082322D01*
X0084702Y0081721D01*
X0085390Y0081222D01*
X0086147Y0080836D01*
X0086955Y0080573D01*
X0087795Y0080440D01*
X0088020Y0080440D01*
X0088020Y0088840D01*
X0088020Y0088288D02*
X0088420Y0088288D01*
X0088420Y0086690D02*
X0088020Y0086690D01*
X0088020Y0085091D02*
X0088420Y0085091D01*
X0088420Y0083493D02*
X0088020Y0083493D01*
X0088020Y0081894D02*
X0088420Y0081894D01*
X0091911Y0081894D02*
X0095095Y0081894D01*
X0093780Y0083493D02*
X0093085Y0083493D01*
X0090725Y0078697D02*
X0112216Y0078697D01*
X0113780Y0077099D02*
X0094614Y0077099D01*
X0096588Y0075500D02*
X0113780Y0075500D01*
X0113780Y0073902D02*
X0097984Y0073902D01*
X0098985Y0072303D02*
X0114008Y0072303D01*
X0115368Y0070705D02*
X0099688Y0070705D01*
X0100145Y0069106D02*
X0116967Y0069106D01*
X0118565Y0067508D02*
X0100385Y0067508D01*
X0100459Y0065909D02*
X0120400Y0065909D01*
X0120150Y0069600D02*
X0126980Y0069600D01*
X0120150Y0069600D02*
X0116380Y0073370D01*
X0116380Y0078210D01*
X0110490Y0084100D01*
X0100530Y0084100D01*
X0098410Y0086220D01*
X0098410Y0088850D01*
X0098220Y0089040D01*
X0103220Y0088288D02*
X0118350Y0088288D01*
X0118350Y0086690D02*
X0111032Y0086690D01*
X0113176Y0085091D02*
X0118350Y0085091D01*
X0118350Y0083493D02*
X0114774Y0083493D01*
X0116373Y0081894D02*
X0118350Y0081894D01*
X0118350Y0080296D02*
X0117971Y0080296D01*
X0110617Y0080296D02*
X0074300Y0080296D01*
X0074300Y0081894D02*
X0084529Y0081894D01*
X0083355Y0083493D02*
X0074300Y0083493D01*
X0074300Y0085091D02*
X0082871Y0085091D01*
X0082820Y0086690D02*
X0074300Y0086690D01*
X0074300Y0088288D02*
X0082820Y0088288D01*
X0082820Y0089887D02*
X0074300Y0089887D01*
X0074300Y0091485D02*
X0082820Y0091485D01*
X0082886Y0093084D02*
X0074300Y0093084D01*
X0074300Y0094682D02*
X0083404Y0094682D01*
X0084624Y0096281D02*
X0074300Y0096281D01*
X0074300Y0097879D02*
X0118350Y0097879D01*
X0118350Y0099478D02*
X0074300Y0099478D01*
X0074300Y0101076D02*
X0118350Y0101076D01*
X0118350Y0102675D02*
X0074300Y0102675D01*
X0074300Y0104273D02*
X0118350Y0104273D01*
X0118350Y0105872D02*
X0074300Y0105872D01*
X0088020Y0096281D02*
X0088420Y0096281D01*
X0108600Y0109600D02*
X0126980Y0109600D01*
X0126980Y0119400D02*
X0111350Y0119400D01*
X0108650Y0122100D01*
X0139230Y0119370D02*
X0152298Y0119370D01*
X0157230Y0124302D01*
X0149620Y0130220D02*
X0149620Y0139390D01*
X0152770Y0142540D01*
X0161000Y0142540D01*
X0161070Y0142610D01*
X0167170Y0142610D01*
X0161070Y0142610D02*
X0160900Y0142610D01*
X0157230Y0138940D01*
X0157230Y0135498D01*
X0149620Y0130220D02*
X0146970Y0127570D01*
X0146970Y0125349D01*
X0143230Y0134011D02*
X0140339Y0134011D01*
X0138100Y0136250D01*
X0144980Y0112400D02*
X0139490Y0106910D01*
X0139490Y0091481D01*
X0146970Y0091481D02*
X0146970Y0099390D01*
X0146980Y0099400D01*
X0157230Y0103498D02*
X0157230Y0108650D01*
X0160980Y0112400D01*
X0144980Y0112400D01*
X0160980Y0112400D02*
X0173940Y0112400D01*
X0170230Y0116110D01*
X0170230Y0124362D01*
X0173940Y0112400D02*
X0174230Y0112400D01*
X0170230Y0108400D01*
X0170230Y0103248D01*
X0174230Y0112400D02*
X0176980Y0112400D01*
X0182230Y0099400D02*
X0186980Y0099400D01*
X0182230Y0099400D02*
X0174802Y0092052D01*
X0170230Y0092052D01*
X0158480Y0091802D02*
X0157230Y0092302D01*
X0156980Y0092052D01*
X0156980Y0084400D01*
X0143230Y0082819D02*
X0143230Y0073650D01*
X0146980Y0070450D01*
X0142848Y0064311D02*
X0100459Y0064311D01*
X0100459Y0062712D02*
X0144870Y0062712D01*
X0149090Y0062712D02*
X0154870Y0062712D01*
X0169921Y0062712D02*
X0207925Y0062712D01*
X0207350Y0064311D02*
X0171519Y0064311D01*
X0172222Y0065909D02*
X0180200Y0065909D01*
X0179152Y0067508D02*
X0172380Y0067508D01*
X0172380Y0069106D02*
X0178597Y0069106D01*
X0176998Y0070705D02*
X0172380Y0070705D01*
X0172380Y0072303D02*
X0175400Y0072303D01*
X0173801Y0073902D02*
X0172380Y0073902D01*
X0172203Y0075500D02*
X0172057Y0075500D01*
X0170760Y0060650D02*
X0202220Y0060650D01*
X0221668Y0078700D02*
X0221678Y0078690D01*
X0238952Y0078690D01*
X0250148Y0078690D02*
X0263750Y0078690D01*
X0263870Y0078810D01*
X0330340Y0078810D01*
X0336180Y0084650D01*
X0336180Y0111120D01*
X0340030Y0114970D01*
X0338445Y0117062D02*
X0334640Y0117062D01*
X0334640Y0118660D02*
X0343117Y0118660D01*
X0334640Y0123456D02*
X0359520Y0123456D01*
X0359520Y0125054D02*
X0334640Y0125054D01*
X0334640Y0126653D02*
X0359520Y0126653D01*
X0359520Y0128251D02*
X0334640Y0128251D01*
X0335857Y0129850D02*
X0344742Y0129850D01*
X0342708Y0131448D02*
X0337455Y0131448D01*
X0336890Y0134560D02*
X0332040Y0129710D01*
X0332040Y0086820D01*
X0327970Y0082750D01*
X0280850Y0082750D01*
X0280350Y0082750D01*
X0273530Y0082750D01*
X0270600Y0085680D01*
X0270600Y0106950D01*
X0270610Y0106960D01*
X0258380Y0119190D01*
X0250148Y0119190D01*
X0238952Y0119190D02*
X0221678Y0119190D01*
X0221668Y0119200D01*
X0215300Y0112940D02*
X0229300Y0112940D01*
X0233800Y0108440D01*
X0238952Y0108440D01*
X0234094Y0101076D02*
X0229256Y0101076D01*
X0229348Y0099478D02*
X0234002Y0099478D01*
X0238952Y0096690D02*
X0224398Y0096690D01*
X0224398Y0092038D01*
X0222800Y0090440D01*
X0212550Y0090440D01*
X0211550Y0089440D01*
X0211550Y0086298D01*
X0211432Y0086180D01*
X0211432Y0082440D02*
X0211432Y0082440D01*
X0221668Y0086180D02*
X0221688Y0086200D01*
X0229500Y0086200D01*
X0230990Y0087690D01*
X0257550Y0087690D01*
X0263870Y0078810D02*
X0267540Y0082480D01*
X0267540Y0104550D01*
X0263580Y0108510D01*
X0250148Y0108440D01*
X0256290Y0105872D02*
X0262541Y0105872D01*
X0268981Y0112266D02*
X0329440Y0112266D01*
X0329440Y0110668D02*
X0292786Y0110668D01*
X0291324Y0112130D02*
X0284696Y0112130D01*
X0280010Y0107444D01*
X0280010Y0100816D01*
X0284696Y0096130D01*
X0291324Y0096130D01*
X0296010Y0100816D01*
X0296010Y0107444D01*
X0291324Y0112130D01*
X0294385Y0109069D02*
X0329440Y0109069D01*
X0329440Y0107470D02*
X0295983Y0107470D01*
X0296010Y0105872D02*
X0329440Y0105872D01*
X0329440Y0104273D02*
X0296010Y0104273D01*
X0296010Y0102675D02*
X0329440Y0102675D01*
X0329440Y0101076D02*
X0296010Y0101076D01*
X0294672Y0099478D02*
X0329440Y0099478D01*
X0329440Y0097879D02*
X0293073Y0097879D01*
X0291475Y0096281D02*
X0329440Y0096281D01*
X0329440Y0094682D02*
X0273200Y0094682D01*
X0273200Y0093084D02*
X0329440Y0093084D01*
X0329440Y0091485D02*
X0273200Y0091485D01*
X0273200Y0089887D02*
X0329440Y0089887D01*
X0329440Y0088288D02*
X0273200Y0088288D01*
X0273267Y0086690D02*
X0328233Y0086690D01*
X0333904Y0078697D02*
X0348750Y0078697D01*
X0344862Y0077099D02*
X0332306Y0077099D01*
X0340490Y0072303D02*
X0284850Y0072303D01*
X0284850Y0070705D02*
X0339788Y0070705D01*
X0339331Y0069106D02*
X0284850Y0069106D01*
X0284850Y0067508D02*
X0339090Y0067508D01*
X0339017Y0065909D02*
X0284850Y0065909D01*
X0284850Y0064311D02*
X0339017Y0064311D01*
X0339017Y0062712D02*
X0284275Y0062712D01*
X0284850Y0073902D02*
X0341492Y0073902D01*
X0342888Y0075500D02*
X0284850Y0075500D01*
X0284545Y0096281D02*
X0273200Y0096281D01*
X0273200Y0097879D02*
X0282947Y0097879D01*
X0281348Y0099478D02*
X0273200Y0099478D01*
X0273200Y0101076D02*
X0280010Y0101076D01*
X0280010Y0102675D02*
X0273200Y0102675D01*
X0273200Y0104273D02*
X0280010Y0104273D01*
X0280010Y0105872D02*
X0273200Y0105872D01*
X0273210Y0107470D02*
X0280037Y0107470D01*
X0281635Y0109069D02*
X0272178Y0109069D01*
X0270579Y0110668D02*
X0283234Y0110668D01*
X0298610Y0120651D02*
X0303531Y0115730D01*
X0306510Y0115730D01*
X0306510Y0123630D01*
X0307510Y0123630D01*
X0307510Y0124630D01*
X0315410Y0124630D01*
X0315410Y0127609D01*
X0310489Y0132530D01*
X0307510Y0132530D01*
X0307510Y0124630D01*
X0306510Y0124630D01*
X0306510Y0132530D01*
X0303531Y0132530D01*
X0298610Y0127609D01*
X0298610Y0124630D01*
X0306510Y0124630D01*
X0306510Y0123630D01*
X0298610Y0123630D01*
X0298610Y0120651D01*
X0299002Y0120259D02*
X0264150Y0120259D01*
X0264150Y0121857D02*
X0298610Y0121857D01*
X0298610Y0123456D02*
X0264150Y0123456D01*
X0264150Y0125054D02*
X0298610Y0125054D01*
X0298610Y0126653D02*
X0295880Y0126653D01*
X0297478Y0128251D02*
X0299252Y0128251D01*
X0299077Y0129850D02*
X0300850Y0129850D01*
X0300675Y0131448D02*
X0302449Y0131448D01*
X0302274Y0133047D02*
X0331700Y0133047D01*
X0330567Y0131914D02*
X0330567Y0131914D01*
X0330101Y0131448D02*
X0311571Y0131448D01*
X0313170Y0129850D02*
X0329440Y0129850D01*
X0329440Y0128251D02*
X0314768Y0128251D01*
X0315410Y0126653D02*
X0329440Y0126653D01*
X0329440Y0125054D02*
X0315410Y0125054D01*
X0315410Y0123630D02*
X0307510Y0123630D01*
X0307510Y0115730D01*
X0310489Y0115730D01*
X0315410Y0120651D01*
X0315410Y0123630D01*
X0315410Y0123456D02*
X0329440Y0123456D01*
X0329440Y0121857D02*
X0315410Y0121857D01*
X0315018Y0120259D02*
X0329440Y0120259D01*
X0329440Y0118660D02*
X0313419Y0118660D01*
X0311821Y0117062D02*
X0329440Y0117062D01*
X0329440Y0115463D02*
X0265784Y0115463D01*
X0267382Y0113865D02*
X0329440Y0113865D01*
X0334640Y0113865D02*
X0335248Y0113865D01*
X0334640Y0115463D02*
X0336846Y0115463D01*
X0356418Y0129850D02*
X0359520Y0129850D01*
X0359520Y0131448D02*
X0358452Y0131448D01*
X0359239Y0133047D02*
X0359520Y0133047D01*
X0359480Y0134645D02*
X0359520Y0134645D01*
X0359520Y0136244D02*
X0359278Y0136244D01*
X0359520Y0137842D02*
X0358546Y0137842D01*
X0359520Y0139441D02*
X0356647Y0139441D01*
X0359520Y0141039D02*
X0305180Y0141039D01*
X0305180Y0139441D02*
X0344513Y0139441D01*
X0342614Y0137842D02*
X0305180Y0137842D01*
X0305069Y0136244D02*
X0334897Y0136244D01*
X0333298Y0134645D02*
X0303872Y0134645D01*
X0306510Y0131448D02*
X0307510Y0131448D01*
X0307510Y0129850D02*
X0306510Y0129850D01*
X0306510Y0128251D02*
X0307510Y0128251D01*
X0307510Y0126653D02*
X0306510Y0126653D01*
X0306510Y0125054D02*
X0307510Y0125054D01*
X0307010Y0124130D02*
X0307010Y0145870D01*
X0315490Y0154350D01*
X0350552Y0154350D01*
X0350580Y0154378D01*
X0351770Y0155568D01*
X0351770Y0174718D01*
X0351740Y0174748D01*
X0351320Y0174328D01*
X0336980Y0174328D01*
X0335943Y0173291D01*
X0319630Y0173291D01*
X0319052Y0173009D02*
X0305180Y0173009D01*
X0305180Y0171411D02*
X0314674Y0171411D01*
X0314674Y0169812D02*
X0305180Y0169812D01*
X0305180Y0168214D02*
X0314796Y0168214D01*
X0319052Y0168214D02*
X0320208Y0168214D01*
X0320208Y0166760D02*
X0322676Y0166760D01*
X0323235Y0166910D01*
X0323737Y0167200D01*
X0324146Y0167609D01*
X0324436Y0168111D01*
X0324586Y0168670D01*
X0324586Y0172713D01*
X0320208Y0172713D01*
X0320208Y0166760D01*
X0320208Y0169812D02*
X0319052Y0169812D01*
X0319052Y0171411D02*
X0320208Y0171411D01*
X0320208Y0173009D02*
X0331237Y0173009D01*
X0331237Y0173553D02*
X0331237Y0170889D01*
X0331387Y0170329D01*
X0331676Y0169828D01*
X0332086Y0169418D01*
X0332588Y0169129D01*
X0333147Y0168979D01*
X0336205Y0168979D01*
X0336205Y0173553D01*
X0337755Y0173553D01*
X0337755Y0168979D01*
X0340813Y0168979D01*
X0341372Y0169129D01*
X0341874Y0169418D01*
X0342284Y0169828D01*
X0342573Y0170329D01*
X0342723Y0170889D01*
X0342723Y0173553D01*
X0337755Y0173553D01*
X0337755Y0175103D01*
X0342723Y0175103D01*
X0342723Y0177767D01*
X0342573Y0178327D01*
X0342284Y0178829D01*
X0341874Y0179238D01*
X0341372Y0179528D01*
X0340813Y0179678D01*
X0337755Y0179678D01*
X0337755Y0175103D01*
X0336205Y0175103D01*
X0336205Y0173553D01*
X0331237Y0173553D01*
X0331237Y0175103D02*
X0331237Y0177767D01*
X0331387Y0178327D01*
X0331676Y0178829D01*
X0332086Y0179238D01*
X0332588Y0179528D01*
X0333147Y0179678D01*
X0336205Y0179678D01*
X0336205Y0175103D01*
X0331237Y0175103D01*
X0331237Y0176206D02*
X0324586Y0176206D01*
X0324586Y0174608D02*
X0336205Y0174608D01*
X0337755Y0174608D02*
X0350965Y0174608D01*
X0350965Y0173973D02*
X0345997Y0173973D01*
X0345997Y0171309D01*
X0346147Y0170749D01*
X0346436Y0170248D01*
X0346846Y0169838D01*
X0347348Y0169549D01*
X0347907Y0169399D01*
X0350965Y0169399D01*
X0350965Y0173973D01*
X0352515Y0173973D01*
X0352515Y0169399D01*
X0355573Y0169399D01*
X0356132Y0169549D01*
X0356634Y0169838D01*
X0357044Y0170248D01*
X0357333Y0170749D01*
X0357483Y0171309D01*
X0357483Y0173973D01*
X0352515Y0173973D01*
X0352515Y0175523D01*
X0357483Y0175523D01*
X0357483Y0178187D01*
X0357333Y0178747D01*
X0357044Y0179249D01*
X0356634Y0179658D01*
X0356132Y0179948D01*
X0355573Y0180098D01*
X0352515Y0180098D01*
X0352515Y0175523D01*
X0350965Y0175523D01*
X0350965Y0173973D01*
X0350965Y0173009D02*
X0352515Y0173009D01*
X0352515Y0171411D02*
X0350965Y0171411D01*
X0350965Y0169812D02*
X0352515Y0169812D01*
X0356590Y0169812D02*
X0359520Y0169812D01*
X0359520Y0168214D02*
X0324464Y0168214D01*
X0324586Y0169812D02*
X0331692Y0169812D01*
X0331237Y0171411D02*
X0324586Y0171411D01*
X0324586Y0177805D02*
X0331247Y0177805D01*
X0332372Y0179403D02*
X0323699Y0179403D01*
X0324186Y0181002D02*
X0332091Y0181002D01*
X0331637Y0182601D02*
X0324186Y0182601D01*
X0324186Y0188995D02*
X0331637Y0188995D01*
X0334240Y0190593D02*
X0324186Y0190593D01*
X0323450Y0194300D02*
X0329160Y0194300D01*
X0333059Y0193790D02*
X0303255Y0193790D01*
X0302532Y0194500D02*
X0302480Y0194448D01*
X0302412Y0194380D01*
X0278152Y0194380D01*
X0278152Y0186612D01*
X0275580Y0184040D01*
X0269410Y0184040D01*
X0266990Y0181620D01*
X0266990Y0174948D01*
X0267038Y0174900D01*
X0266918Y0175020D01*
X0260170Y0175020D01*
X0256000Y0170850D01*
X0256000Y0165200D01*
X0256000Y0159542D01*
X0250148Y0153690D01*
X0250148Y0137190D01*
X0249374Y0139441D02*
X0250923Y0139441D01*
X0250923Y0141039D02*
X0249374Y0141039D01*
X0249374Y0142638D02*
X0250923Y0142638D01*
X0254410Y0142638D02*
X0280010Y0142638D01*
X0280010Y0144236D02*
X0242250Y0144236D01*
X0242250Y0142638D02*
X0245887Y0142638D01*
X0242250Y0145835D02*
X0280010Y0145835D01*
X0280010Y0147433D02*
X0242250Y0147433D01*
X0243538Y0149032D02*
X0245099Y0149032D01*
X0245238Y0148790D02*
X0245648Y0148380D01*
X0246150Y0148091D01*
X0246709Y0147941D01*
X0249374Y0147941D01*
X0249374Y0152915D01*
X0250923Y0152915D01*
X0250923Y0147941D01*
X0253588Y0147941D01*
X0254147Y0148091D01*
X0254649Y0148380D01*
X0255058Y0148790D01*
X0255348Y0149292D01*
X0255498Y0149851D01*
X0255498Y0152915D01*
X0250923Y0152915D01*
X0250923Y0154465D01*
X0249374Y0154465D01*
X0249374Y0159439D01*
X0246709Y0159439D01*
X0246150Y0159289D01*
X0245648Y0159000D01*
X0245238Y0158590D01*
X0244949Y0158088D01*
X0244799Y0157529D01*
X0244799Y0154465D01*
X0249374Y0154465D01*
X0249374Y0152915D01*
X0244799Y0152915D01*
X0244799Y0149851D01*
X0244949Y0149292D01*
X0245238Y0148790D01*
X0244799Y0150630D02*
X0243901Y0150630D01*
X0243901Y0152229D02*
X0244799Y0152229D01*
X0243901Y0153827D02*
X0249374Y0153827D01*
X0250923Y0153827D02*
X0259945Y0153827D01*
X0259579Y0155426D02*
X0255498Y0155426D01*
X0255498Y0154465D02*
X0255498Y0157529D01*
X0255348Y0158088D01*
X0255058Y0158590D01*
X0254649Y0159000D01*
X0254147Y0159289D01*
X0253588Y0159439D01*
X0250923Y0159439D01*
X0250923Y0154465D01*
X0255498Y0154465D01*
X0255498Y0152229D02*
X0299980Y0152229D01*
X0299980Y0153827D02*
X0266775Y0153827D01*
X0263360Y0156920D02*
X0284880Y0156920D01*
X0287900Y0159940D01*
X0287900Y0169880D01*
X0284119Y0169812D02*
X0282213Y0169812D01*
X0283011Y0171411D02*
X0284119Y0171411D01*
X0284119Y0168214D02*
X0215950Y0168214D01*
X0215950Y0169812D02*
X0262322Y0169812D01*
X0262128Y0170006D02*
X0262538Y0169596D01*
X0263039Y0169307D01*
X0263599Y0169157D01*
X0266263Y0169157D01*
X0266263Y0174125D01*
X0261689Y0174125D01*
X0261689Y0171067D01*
X0261839Y0170508D01*
X0262128Y0170006D01*
X0261689Y0171411D02*
X0215950Y0171411D01*
X0215950Y0173009D02*
X0261689Y0173009D01*
X0261689Y0175675D02*
X0266263Y0175675D01*
X0266263Y0174125D01*
X0267813Y0174125D01*
X0267813Y0169157D01*
X0270477Y0169157D01*
X0271037Y0169307D01*
X0271539Y0169596D01*
X0271948Y0170006D01*
X0272238Y0170508D01*
X0272388Y0171067D01*
X0272388Y0174125D01*
X0267813Y0174125D01*
X0267813Y0175675D01*
X0266263Y0175675D01*
X0266263Y0180643D01*
X0263599Y0180643D01*
X0263039Y0180493D01*
X0262538Y0180204D01*
X0262128Y0179794D01*
X0261839Y0179292D01*
X0261689Y0178733D01*
X0261689Y0175675D01*
X0261689Y0176206D02*
X0215950Y0176206D01*
X0215950Y0174608D02*
X0266263Y0174608D01*
X0267813Y0174608D02*
X0273112Y0174608D01*
X0272388Y0175675D02*
X0272388Y0178733D01*
X0272238Y0179292D01*
X0271948Y0179794D01*
X0271539Y0180204D01*
X0271037Y0180493D01*
X0270477Y0180643D01*
X0267813Y0180643D01*
X0267813Y0175675D01*
X0272388Y0175675D01*
X0272388Y0176206D02*
X0273112Y0176206D01*
X0273112Y0177805D02*
X0272388Y0177805D01*
X0272174Y0179403D02*
X0273327Y0179403D01*
X0278062Y0174900D02*
X0278142Y0174980D01*
X0290970Y0174980D01*
X0294360Y0171590D01*
X0294785Y0171165D01*
X0296940Y0169010D01*
X0296940Y0158900D01*
X0297410Y0158430D01*
X0305180Y0158623D02*
X0343144Y0158623D01*
X0341925Y0157024D02*
X0305180Y0157024D01*
X0305180Y0155426D02*
X0341374Y0155426D01*
X0341295Y0153827D02*
X0305180Y0153827D01*
X0305180Y0152229D02*
X0341682Y0152229D01*
X0342646Y0150630D02*
X0305180Y0150630D01*
X0305180Y0149032D02*
X0344875Y0149032D01*
X0350205Y0149032D02*
X0350955Y0149032D01*
X0350955Y0150630D02*
X0350205Y0150630D01*
X0350205Y0152229D02*
X0350955Y0152229D01*
X0350955Y0153827D02*
X0350205Y0153827D01*
X0350205Y0155426D02*
X0350955Y0155426D01*
X0350955Y0157024D02*
X0350205Y0157024D01*
X0350205Y0158623D02*
X0350955Y0158623D01*
X0358016Y0158623D02*
X0359520Y0158623D01*
X0359520Y0160221D02*
X0305180Y0160221D01*
X0305180Y0161820D02*
X0359520Y0161820D01*
X0359520Y0163418D02*
X0305180Y0163418D01*
X0305180Y0165017D02*
X0359520Y0165017D01*
X0359520Y0166615D02*
X0305180Y0166615D01*
X0305180Y0174608D02*
X0314674Y0174608D01*
X0314674Y0176206D02*
X0305180Y0176206D01*
X0305180Y0177805D02*
X0314674Y0177805D01*
X0315561Y0179403D02*
X0306260Y0179403D01*
X0307859Y0181002D02*
X0315074Y0181002D01*
X0315074Y0182601D02*
X0309457Y0182601D01*
X0309950Y0188995D02*
X0315074Y0188995D01*
X0315074Y0190593D02*
X0309950Y0190593D01*
X0308223Y0192192D02*
X0333059Y0192192D01*
X0333059Y0195389D02*
X0308223Y0195389D01*
X0308223Y0196987D02*
X0333059Y0196987D01*
X0340621Y0196987D02*
X0365176Y0196987D01*
X0365176Y0195389D02*
X0340621Y0195389D01*
X0350529Y0186983D02*
X0351740Y0185772D01*
X0349690Y0185772D01*
X0351740Y0185772D02*
X0352142Y0185370D01*
X0346397Y0182601D02*
X0342323Y0182601D01*
X0341869Y0181002D02*
X0347271Y0181002D01*
X0347348Y0179948D02*
X0346846Y0179658D01*
X0346436Y0179249D01*
X0346147Y0178747D01*
X0345997Y0178187D01*
X0345997Y0175523D01*
X0350965Y0175523D01*
X0350965Y0180098D01*
X0347907Y0180098D01*
X0347348Y0179948D01*
X0346591Y0179403D02*
X0341588Y0179403D01*
X0342713Y0177805D02*
X0345997Y0177805D01*
X0345997Y0176206D02*
X0342723Y0176206D01*
X0342723Y0173009D02*
X0345997Y0173009D01*
X0345997Y0171411D02*
X0342723Y0171411D01*
X0342268Y0169812D02*
X0346890Y0169812D01*
X0352515Y0174608D02*
X0359520Y0174608D01*
X0359520Y0176206D02*
X0357483Y0176206D01*
X0357483Y0177805D02*
X0359520Y0177805D01*
X0359520Y0179403D02*
X0356889Y0179403D01*
X0356209Y0181002D02*
X0358931Y0181002D01*
X0357333Y0182601D02*
X0357083Y0182601D01*
X0358000Y0185610D02*
X0362120Y0181490D01*
X0362120Y0101430D01*
X0362140Y0101450D01*
X0362120Y0101430D02*
X0356012Y0095322D01*
X0350580Y0095322D01*
X0357859Y0091485D02*
X0365176Y0091485D01*
X0365176Y0093084D02*
X0358994Y0093084D01*
X0359480Y0094682D02*
X0365176Y0094682D01*
X0365176Y0096281D02*
X0360648Y0096281D01*
X0362246Y0097879D02*
X0365176Y0097879D01*
X0365176Y0099478D02*
X0363845Y0099478D01*
X0363593Y0099226D02*
X0363593Y0099226D01*
X0364740Y0101076D02*
X0365176Y0101076D01*
X0365176Y0102675D02*
X0364720Y0102675D01*
X0364720Y0104273D02*
X0365176Y0104273D01*
X0365176Y0105872D02*
X0364720Y0105872D01*
X0364720Y0107470D02*
X0365176Y0107470D01*
X0365176Y0109069D02*
X0364720Y0109069D01*
X0350447Y0134560D02*
X0336890Y0134560D01*
X0350447Y0134560D02*
X0350580Y0134693D01*
X0359520Y0142638D02*
X0305180Y0142638D01*
X0305180Y0144236D02*
X0359520Y0144236D01*
X0359520Y0145835D02*
X0305180Y0145835D01*
X0305180Y0147433D02*
X0359520Y0147433D01*
X0359520Y0149032D02*
X0356285Y0149032D01*
X0358514Y0150630D02*
X0359520Y0150630D01*
X0359478Y0152229D02*
X0359520Y0152229D01*
X0359520Y0157024D02*
X0359235Y0157024D01*
X0359520Y0171411D02*
X0357483Y0171411D01*
X0357483Y0173009D02*
X0359520Y0173009D01*
X0352515Y0176206D02*
X0350965Y0176206D01*
X0350965Y0177805D02*
X0352515Y0177805D01*
X0352515Y0179403D02*
X0350965Y0179403D01*
X0357083Y0188995D02*
X0365176Y0188995D01*
X0365176Y0190593D02*
X0356157Y0190593D01*
X0365176Y0198586D02*
X0307993Y0198586D01*
X0306769Y0200522D02*
X0307823Y0201577D01*
X0307823Y0204450D01*
X0310555Y0204450D01*
X0311184Y0203820D01*
X0312875Y0203120D01*
X0314705Y0203120D01*
X0316396Y0203820D01*
X0317690Y0205114D01*
X0318390Y0206805D01*
X0318390Y0208635D01*
X0317800Y0210059D01*
X0317800Y0215381D01*
X0318390Y0216805D01*
X0318390Y0218635D01*
X0317690Y0220326D01*
X0316396Y0221620D01*
X0314705Y0222320D01*
X0312875Y0222320D01*
X0311184Y0221620D01*
X0310015Y0220450D01*
X0307793Y0220450D01*
X0307793Y0222533D01*
X0306739Y0223588D01*
X0298161Y0223588D01*
X0297476Y0222902D01*
X0296867Y0223511D01*
X0291413Y0223511D01*
X0290910Y0223008D01*
X0290910Y0224450D01*
X0290910Y0226040D01*
X0290760Y0226599D01*
X0290470Y0227101D01*
X0290061Y0227510D01*
X0289559Y0227800D01*
X0289000Y0227950D01*
X0284710Y0227950D01*
X0280420Y0227950D01*
X0279861Y0227800D01*
X0279359Y0227510D01*
X0278950Y0227101D01*
X0278660Y0226599D01*
X0278510Y0226040D01*
X0278510Y0224450D01*
X0284710Y0224450D01*
X0290030Y0224450D01*
X0295270Y0229690D01*
X0302422Y0229690D01*
X0302450Y0229662D01*
X0302538Y0229750D01*
X0317400Y0229750D01*
X0320800Y0226350D01*
X0320800Y0197700D01*
X0320800Y0196950D01*
X0323450Y0194300D01*
X0320650Y0197350D02*
X0320650Y0197550D01*
X0317600Y0194500D01*
X0302532Y0194500D01*
X0301705Y0193790D02*
X0278927Y0193790D01*
X0278927Y0193605D02*
X0278927Y0195155D01*
X0283501Y0195155D01*
X0283501Y0198213D01*
X0283351Y0198772D01*
X0283062Y0199274D01*
X0282652Y0199684D01*
X0282151Y0199973D01*
X0281591Y0200123D01*
X0278927Y0200123D01*
X0278927Y0195155D01*
X0277377Y0195155D01*
X0277377Y0200123D01*
X0274713Y0200123D01*
X0274153Y0199973D01*
X0273651Y0199684D01*
X0273242Y0199274D01*
X0272952Y0198772D01*
X0272802Y0198213D01*
X0272802Y0195155D01*
X0277377Y0195155D01*
X0277377Y0193605D01*
X0278927Y0193605D01*
X0283501Y0193605D01*
X0283501Y0190547D01*
X0283351Y0189988D01*
X0283062Y0189486D01*
X0282652Y0189076D01*
X0282151Y0188787D01*
X0281591Y0188637D01*
X0278927Y0188637D01*
X0278927Y0193605D01*
X0278927Y0192192D02*
X0277377Y0192192D01*
X0277377Y0193605D02*
X0277377Y0188637D01*
X0274713Y0188637D01*
X0274153Y0188787D01*
X0273651Y0189076D01*
X0273242Y0189486D01*
X0272952Y0189988D01*
X0272802Y0190547D01*
X0272802Y0193605D01*
X0277377Y0193605D01*
X0277377Y0193790D02*
X0272078Y0193790D01*
X0272078Y0192192D02*
X0272802Y0192192D01*
X0272802Y0190593D02*
X0272078Y0190593D01*
X0273793Y0188995D02*
X0266645Y0188995D01*
X0266472Y0188995D02*
X0257581Y0188995D01*
X0257581Y0188803D02*
X0257581Y0194257D01*
X0256527Y0195311D01*
X0251073Y0195311D01*
X0250019Y0194257D01*
X0250019Y0194032D01*
X0246961Y0194033D01*
X0247521Y0194593D01*
X0247521Y0200047D01*
X0246467Y0201101D01*
X0241013Y0201101D01*
X0239959Y0200047D01*
X0239959Y0197900D01*
X0225751Y0197900D01*
X0225751Y0198027D01*
X0224697Y0199081D01*
X0219243Y0199081D01*
X0218189Y0198027D01*
X0218189Y0192573D01*
X0219243Y0191519D01*
X0224697Y0191519D01*
X0225751Y0192573D01*
X0225751Y0192700D01*
X0227219Y0192700D01*
X0227219Y0188713D01*
X0228273Y0187659D01*
X0233727Y0187659D01*
X0234781Y0188713D01*
X0234781Y0188838D01*
X0250019Y0188832D01*
X0250019Y0188803D01*
X0251073Y0187749D01*
X0256527Y0187749D01*
X0257581Y0188803D01*
X0257581Y0190593D02*
X0262179Y0190593D01*
X0260751Y0192192D02*
X0257581Y0192192D01*
X0257581Y0193790D02*
X0259153Y0193790D01*
X0257554Y0195389D02*
X0247521Y0195389D01*
X0247521Y0196987D02*
X0256460Y0196987D01*
X0256420Y0198586D02*
X0247521Y0198586D01*
X0247384Y0200184D02*
X0256420Y0200184D01*
X0256420Y0201783D02*
X0215950Y0201783D01*
X0215950Y0203381D02*
X0256420Y0203381D01*
X0256420Y0204980D02*
X0215950Y0204980D01*
X0215950Y0205939D02*
X0216077Y0205939D01*
X0217131Y0206993D01*
X0217131Y0212447D01*
X0216077Y0213501D01*
X0210623Y0213501D01*
X0209569Y0212447D01*
X0209569Y0206993D01*
X0210623Y0205939D01*
X0210750Y0205939D01*
X0210750Y0158789D01*
X0209306Y0158789D01*
X0208252Y0157735D01*
X0208252Y0149145D01*
X0209306Y0148091D01*
X0217097Y0148091D01*
X0218151Y0149145D01*
X0218151Y0157735D01*
X0217097Y0158789D01*
X0215950Y0158789D01*
X0215950Y0205939D01*
X0216716Y0206578D02*
X0255536Y0206578D01*
X0259020Y0207960D02*
X0260510Y0209450D01*
X0260460Y0209500D01*
X0239770Y0209500D01*
X0236290Y0212980D01*
X0236290Y0228230D01*
X0232650Y0231870D01*
X0200340Y0231870D01*
X0196700Y0228230D01*
X0200620Y0224740D02*
X0200620Y0179610D01*
X0195300Y0174400D01*
X0181340Y0174400D01*
X0194759Y0171411D02*
X0210750Y0171411D01*
X0210750Y0173009D02*
X0197596Y0173009D01*
X0199228Y0174608D02*
X0210750Y0174608D01*
X0210750Y0176206D02*
X0200861Y0176206D01*
X0202493Y0177805D02*
X0210750Y0177805D01*
X0210750Y0179403D02*
X0203220Y0179403D01*
X0203220Y0181002D02*
X0210750Y0181002D01*
X0210750Y0182601D02*
X0203220Y0182601D01*
X0203220Y0184199D02*
X0210750Y0184199D01*
X0210750Y0185798D02*
X0203220Y0185798D01*
X0203220Y0187396D02*
X0210750Y0187396D01*
X0210750Y0188995D02*
X0203220Y0188995D01*
X0203220Y0190593D02*
X0210750Y0190593D01*
X0210750Y0192192D02*
X0203220Y0192192D01*
X0203220Y0193790D02*
X0210750Y0193790D01*
X0210750Y0195389D02*
X0203220Y0195389D01*
X0203220Y0196987D02*
X0210750Y0196987D01*
X0210750Y0198586D02*
X0203220Y0198586D01*
X0203220Y0200184D02*
X0210750Y0200184D01*
X0210750Y0201783D02*
X0203220Y0201783D01*
X0203220Y0203381D02*
X0210750Y0203381D01*
X0210750Y0204980D02*
X0203220Y0204980D01*
X0203220Y0206578D02*
X0209984Y0206578D01*
X0209569Y0208177D02*
X0203220Y0208177D01*
X0203220Y0209775D02*
X0209569Y0209775D01*
X0209569Y0211374D02*
X0203220Y0211374D01*
X0203220Y0212972D02*
X0210094Y0212972D01*
X0213350Y0209720D02*
X0213350Y0153588D01*
X0213202Y0153440D01*
X0218151Y0153827D02*
X0219449Y0153827D01*
X0219449Y0152229D02*
X0218151Y0152229D01*
X0218151Y0150630D02*
X0219449Y0150630D01*
X0219562Y0149032D02*
X0218038Y0149032D01*
X0220116Y0147433D02*
X0203634Y0147433D01*
X0202035Y0149032D02*
X0208365Y0149032D01*
X0208252Y0150630D02*
X0200437Y0150630D01*
X0197990Y0149400D02*
X0202730Y0144660D01*
X0221020Y0144660D01*
X0224300Y0147940D01*
X0224300Y0153342D01*
X0224398Y0153440D01*
X0238702Y0153440D01*
X0238952Y0153690D01*
X0243901Y0155426D02*
X0244799Y0155426D01*
X0244799Y0157024D02*
X0243901Y0157024D01*
X0243263Y0158623D02*
X0245271Y0158623D01*
X0249374Y0158623D02*
X0250923Y0158623D01*
X0250923Y0157024D02*
X0249374Y0157024D01*
X0249374Y0155426D02*
X0250923Y0155426D01*
X0250923Y0152229D02*
X0249374Y0152229D01*
X0249374Y0150630D02*
X0250923Y0150630D01*
X0250923Y0149032D02*
X0249374Y0149032D01*
X0255198Y0149032D02*
X0281598Y0149032D01*
X0280010Y0147444D02*
X0280010Y0140816D01*
X0284696Y0136130D01*
X0291324Y0136130D01*
X0296010Y0140816D01*
X0296010Y0147444D01*
X0291324Y0152130D01*
X0284696Y0152130D01*
X0280010Y0147444D01*
X0283197Y0150630D02*
X0255498Y0150630D01*
X0255498Y0157024D02*
X0259579Y0157024D01*
X0259579Y0158623D02*
X0255026Y0158623D01*
X0260154Y0160221D02*
X0215950Y0160221D01*
X0215950Y0161820D02*
X0285300Y0161820D01*
X0285300Y0163418D02*
X0215950Y0163418D01*
X0215950Y0165017D02*
X0285300Y0165017D01*
X0284657Y0166615D02*
X0215950Y0166615D01*
X0210750Y0166615D02*
X0194550Y0166615D01*
X0194550Y0165017D02*
X0210750Y0165017D01*
X0210750Y0163418D02*
X0194550Y0163418D01*
X0194590Y0161820D02*
X0210750Y0161820D01*
X0210750Y0160221D02*
X0195180Y0160221D01*
X0195180Y0158623D02*
X0209140Y0158623D01*
X0208252Y0157024D02*
X0194608Y0157024D01*
X0194550Y0155426D02*
X0208252Y0155426D01*
X0208252Y0153827D02*
X0194550Y0153827D01*
X0194550Y0152229D02*
X0208252Y0152229D01*
X0218151Y0155426D02*
X0219449Y0155426D01*
X0219449Y0157024D02*
X0218151Y0157024D01*
X0217263Y0158623D02*
X0220337Y0158623D01*
X0228460Y0158623D02*
X0234640Y0158623D01*
X0234002Y0157024D02*
X0229348Y0157024D01*
X0210750Y0168214D02*
X0195101Y0168214D01*
X0195180Y0169812D02*
X0210750Y0169812D01*
X0215950Y0177805D02*
X0261689Y0177805D01*
X0261903Y0179403D02*
X0215950Y0179403D01*
X0215950Y0181002D02*
X0291760Y0181002D01*
X0291760Y0179403D02*
X0282797Y0179403D01*
X0283011Y0177805D02*
X0291760Y0177805D01*
X0291760Y0182601D02*
X0215950Y0182601D01*
X0215950Y0184199D02*
X0291760Y0184199D01*
X0291085Y0185798D02*
X0215950Y0185798D01*
X0215950Y0187396D02*
X0290579Y0187396D01*
X0290579Y0188995D02*
X0282511Y0188995D01*
X0283501Y0190593D02*
X0290579Y0190593D01*
X0291014Y0192192D02*
X0283501Y0192192D01*
X0283501Y0195389D02*
X0296737Y0195389D01*
X0296737Y0195223D02*
X0301705Y0195223D01*
X0301705Y0199798D01*
X0298647Y0199798D01*
X0298088Y0199648D01*
X0297586Y0199358D01*
X0297176Y0198949D01*
X0296887Y0198447D01*
X0296737Y0197887D01*
X0296737Y0195223D01*
X0296737Y0196987D02*
X0283501Y0196987D01*
X0283402Y0198586D02*
X0296967Y0198586D01*
X0298191Y0200522D02*
X0306769Y0200522D01*
X0307823Y0201783D02*
X0365176Y0201783D01*
X0365176Y0203381D02*
X0315336Y0203381D01*
X0317555Y0204980D02*
X0365176Y0204980D01*
X0365176Y0206578D02*
X0318296Y0206578D01*
X0318390Y0208177D02*
X0365176Y0208177D01*
X0365176Y0209775D02*
X0317918Y0209775D01*
X0317800Y0211374D02*
X0365176Y0211374D01*
X0365176Y0212972D02*
X0317800Y0212972D01*
X0317800Y0214571D02*
X0365176Y0214571D01*
X0365176Y0216169D02*
X0318127Y0216169D01*
X0318390Y0217768D02*
X0365176Y0217768D01*
X0349534Y0219366D02*
X0318087Y0219366D01*
X0317051Y0220965D02*
X0345224Y0220965D01*
X0343074Y0222563D02*
X0307763Y0222563D01*
X0307793Y0220965D02*
X0310529Y0220965D01*
X0313790Y0217720D02*
X0313300Y0217230D01*
X0303858Y0217230D01*
X0302450Y0218638D01*
X0298262Y0214450D01*
X0284710Y0214450D01*
X0284710Y0209450D02*
X0298502Y0209450D01*
X0302480Y0205472D01*
X0304728Y0207720D01*
X0313790Y0207720D01*
X0312244Y0203381D02*
X0307823Y0203381D01*
X0303255Y0198586D02*
X0301705Y0198586D01*
X0301705Y0196987D02*
X0303255Y0196987D01*
X0303255Y0195389D02*
X0301705Y0195389D01*
X0298191Y0200522D02*
X0297137Y0201577D01*
X0297137Y0206850D01*
X0289956Y0206850D01*
X0289456Y0206350D01*
X0279964Y0206350D01*
X0278910Y0207404D01*
X0278910Y0211496D01*
X0279364Y0211950D01*
X0278910Y0212404D01*
X0278910Y0216496D01*
X0279364Y0216950D01*
X0278910Y0217404D01*
X0278910Y0221496D01*
X0279082Y0221667D01*
X0278950Y0221799D01*
X0278660Y0222301D01*
X0278510Y0222860D01*
X0278510Y0224450D01*
X0284710Y0224450D01*
X0284440Y0224720D01*
X0284710Y0224450D02*
X0284710Y0227950D01*
X0284710Y0224450D01*
X0284710Y0224450D01*
X0284710Y0224450D01*
X0290910Y0224450D01*
X0284710Y0224450D01*
X0284710Y0224450D01*
X0284710Y0225760D02*
X0284710Y0225760D01*
X0284710Y0227359D02*
X0284710Y0227359D01*
X0279208Y0227359D02*
X0265447Y0227359D01*
X0266310Y0225760D02*
X0278510Y0225760D01*
X0278510Y0224162D02*
X0266310Y0224162D01*
X0266310Y0222563D02*
X0278590Y0222563D01*
X0278910Y0220965D02*
X0266310Y0220965D01*
X0266310Y0219366D02*
X0278910Y0219366D01*
X0278910Y0217768D02*
X0266310Y0217768D01*
X0266310Y0216169D02*
X0278910Y0216169D01*
X0278910Y0214571D02*
X0266310Y0214571D01*
X0266310Y0212972D02*
X0278910Y0212972D01*
X0278910Y0211374D02*
X0266310Y0211374D01*
X0266310Y0209775D02*
X0278910Y0209775D01*
X0278910Y0208177D02*
X0266310Y0208177D01*
X0265484Y0206578D02*
X0279736Y0206578D01*
X0289684Y0206578D02*
X0297137Y0206578D01*
X0297137Y0204980D02*
X0261620Y0204980D01*
X0261620Y0203381D02*
X0297137Y0203381D01*
X0297137Y0201783D02*
X0261620Y0201783D01*
X0261620Y0200184D02*
X0365176Y0200184D01*
X0341632Y0224162D02*
X0290910Y0224162D01*
X0290910Y0225760D02*
X0296831Y0225760D01*
X0296857Y0225663D02*
X0297146Y0225161D01*
X0297556Y0224752D01*
X0298058Y0224462D01*
X0298617Y0224312D01*
X0301675Y0224312D01*
X0301675Y0228887D01*
X0296707Y0228887D01*
X0296707Y0226223D01*
X0296857Y0225663D01*
X0296707Y0227359D02*
X0290212Y0227359D01*
X0296707Y0230437D02*
X0296707Y0233101D01*
X0296857Y0233661D01*
X0297146Y0234162D01*
X0297556Y0234572D01*
X0298058Y0234861D01*
X0298617Y0235011D01*
X0301675Y0235011D01*
X0301675Y0230437D01*
X0303225Y0230437D01*
X0303225Y0235011D01*
X0306283Y0235011D01*
X0306842Y0234861D01*
X0307344Y0234572D01*
X0307754Y0234162D01*
X0308043Y0233661D01*
X0308193Y0233101D01*
X0308193Y0230437D01*
X0303225Y0230437D01*
X0303225Y0228887D01*
X0308193Y0228887D01*
X0308193Y0226223D01*
X0308043Y0225663D01*
X0307754Y0225161D01*
X0307344Y0224752D01*
X0306842Y0224462D01*
X0306283Y0224312D01*
X0303225Y0224312D01*
X0303225Y0228887D01*
X0301675Y0228887D01*
X0301675Y0230437D01*
X0296707Y0230437D01*
X0296707Y0230556D02*
X0252380Y0230556D01*
X0252380Y0232154D02*
X0296707Y0232154D01*
X0296910Y0233753D02*
X0252380Y0233753D01*
X0252380Y0235351D02*
X0339017Y0235351D01*
X0339017Y0233753D02*
X0307990Y0233753D01*
X0308193Y0232154D02*
X0339017Y0232154D01*
X0339104Y0230556D02*
X0308193Y0230556D01*
X0308193Y0227359D02*
X0339857Y0227359D01*
X0339371Y0228957D02*
X0303225Y0228957D01*
X0302682Y0229430D02*
X0302450Y0229662D01*
X0301675Y0228957D02*
X0253110Y0228957D01*
X0254708Y0227359D02*
X0255573Y0227359D01*
X0260490Y0224430D02*
X0260510Y0224450D01*
X0260510Y0214450D02*
X0247010Y0214450D01*
X0241730Y0219730D01*
X0233690Y0216169D02*
X0203220Y0216169D01*
X0203220Y0214571D02*
X0233690Y0214571D01*
X0233690Y0212972D02*
X0216606Y0212972D01*
X0217131Y0211374D02*
X0234219Y0211374D01*
X0235818Y0209775D02*
X0217131Y0209775D01*
X0217131Y0208177D02*
X0237416Y0208177D01*
X0240096Y0200184D02*
X0215950Y0200184D01*
X0215950Y0198586D02*
X0218748Y0198586D01*
X0218189Y0196987D02*
X0215950Y0196987D01*
X0215950Y0195389D02*
X0218189Y0195389D01*
X0218189Y0193790D02*
X0215950Y0193790D01*
X0215950Y0192192D02*
X0218571Y0192192D01*
X0215950Y0190593D02*
X0227219Y0190593D01*
X0227219Y0188995D02*
X0215950Y0188995D01*
X0221970Y0195300D02*
X0241720Y0195300D01*
X0243740Y0197320D01*
X0239959Y0198586D02*
X0225192Y0198586D01*
X0225369Y0192192D02*
X0227219Y0192192D01*
X0231000Y0191440D02*
X0253530Y0191430D01*
X0253800Y0191530D01*
X0259020Y0197600D02*
X0259020Y0207960D01*
X0261711Y0198586D02*
X0262179Y0198586D01*
X0259020Y0197600D02*
X0262240Y0194380D01*
X0267128Y0194380D01*
X0266568Y0191628D01*
X0272078Y0195389D02*
X0272802Y0195389D01*
X0272802Y0196987D02*
X0272078Y0196987D01*
X0272078Y0198586D02*
X0272902Y0198586D01*
X0277377Y0198586D02*
X0278927Y0198586D01*
X0278927Y0196987D02*
X0277377Y0196987D01*
X0277377Y0195389D02*
X0278927Y0195389D01*
X0278927Y0190593D02*
X0277377Y0190593D01*
X0277377Y0188995D02*
X0278927Y0188995D01*
X0267813Y0179403D02*
X0266263Y0179403D01*
X0266263Y0177805D02*
X0267813Y0177805D01*
X0267813Y0176206D02*
X0266263Y0176206D01*
X0266263Y0173009D02*
X0267813Y0173009D01*
X0267813Y0171411D02*
X0266263Y0171411D01*
X0266263Y0169812D02*
X0267813Y0169812D01*
X0271755Y0169812D02*
X0273911Y0169812D01*
X0273112Y0171411D02*
X0272388Y0171411D01*
X0272388Y0173009D02*
X0273112Y0173009D01*
X0266566Y0160221D02*
X0284504Y0160221D01*
X0292823Y0150630D02*
X0299980Y0150630D01*
X0299980Y0149032D02*
X0294422Y0149032D01*
X0296010Y0147433D02*
X0299980Y0147433D01*
X0299980Y0145835D02*
X0296010Y0145835D01*
X0296010Y0144236D02*
X0299980Y0144236D01*
X0299980Y0142638D02*
X0296010Y0142638D01*
X0296010Y0141039D02*
X0299980Y0141039D01*
X0299980Y0139441D02*
X0294634Y0139441D01*
X0293036Y0137842D02*
X0299715Y0137842D01*
X0298117Y0136244D02*
X0291437Y0136244D01*
X0294920Y0133047D02*
X0255416Y0133047D01*
X0255498Y0134645D02*
X0296518Y0134645D01*
X0293321Y0131448D02*
X0263965Y0131448D01*
X0255498Y0136244D02*
X0284583Y0136244D01*
X0282984Y0137842D02*
X0254700Y0137842D01*
X0255498Y0139441D02*
X0281386Y0139441D01*
X0280010Y0141039D02*
X0255495Y0141039D01*
X0238952Y0137190D02*
X0224398Y0137190D01*
X0224398Y0132038D01*
X0223300Y0130940D01*
X0213202Y0137190D02*
X0212512Y0136500D01*
X0209120Y0136500D01*
X0206220Y0139400D01*
X0186980Y0139400D01*
X0186980Y0129400D02*
X0198210Y0129400D01*
X0203440Y0124170D01*
X0211422Y0119190D02*
X0211432Y0119200D01*
X0211432Y0116808D01*
X0215300Y0112940D01*
X0210952Y0134940D02*
X0213202Y0137190D01*
X0197990Y0149400D02*
X0186980Y0149400D01*
X0180155Y0195389D02*
X0172600Y0195389D01*
X0172600Y0196987D02*
X0178949Y0196987D01*
X0203220Y0217768D02*
X0225769Y0217768D01*
X0225769Y0219366D02*
X0203220Y0219366D01*
X0203220Y0220965D02*
X0225769Y0220965D01*
X0225769Y0222563D02*
X0203220Y0222563D01*
X0203719Y0224162D02*
X0224931Y0224162D01*
X0225410Y0227360D02*
X0203240Y0227360D01*
X0200620Y0224740D01*
X0225410Y0227360D02*
X0229550Y0223220D01*
X0229550Y0220170D01*
X0252052Y0236950D02*
X0339017Y0236950D01*
X0339017Y0238548D02*
X0250549Y0238548D01*
X0248950Y0240147D02*
X0339017Y0240147D01*
X0339017Y0241745D02*
X0247351Y0241745D01*
X0284520Y0219640D02*
X0284710Y0219450D01*
X0293860Y0219450D01*
X0294140Y0219730D01*
X0301675Y0225760D02*
X0303225Y0225760D01*
X0303225Y0227359D02*
X0301675Y0227359D01*
X0301675Y0230556D02*
X0303225Y0230556D01*
X0303225Y0232154D02*
X0301675Y0232154D01*
X0301675Y0233753D02*
X0303225Y0233753D01*
X0308069Y0225760D02*
X0340592Y0225760D01*
X0339017Y0243344D02*
X0100459Y0243344D01*
X0100459Y0244942D02*
X0339017Y0244942D01*
X0320800Y0197700D02*
X0320650Y0197550D01*
X0336205Y0179403D02*
X0337755Y0179403D01*
X0337755Y0177805D02*
X0336205Y0177805D01*
X0336205Y0176206D02*
X0337755Y0176206D01*
X0337755Y0173009D02*
X0336205Y0173009D01*
X0336205Y0171411D02*
X0337755Y0171411D01*
X0337755Y0169812D02*
X0336205Y0169812D01*
X0294360Y0171590D02*
X0294360Y0189030D01*
X0306510Y0123456D02*
X0307510Y0123456D01*
X0307510Y0121857D02*
X0306510Y0121857D01*
X0306510Y0120259D02*
X0307510Y0120259D01*
X0307510Y0118660D02*
X0306510Y0118660D01*
X0306510Y0117062D02*
X0307510Y0117062D01*
X0302199Y0117062D02*
X0264185Y0117062D01*
X0264150Y0118660D02*
X0300601Y0118660D01*
X0250923Y0101076D02*
X0249374Y0101076D01*
X0249374Y0099478D02*
X0250923Y0099478D01*
X0250923Y0097879D02*
X0249374Y0097879D01*
X0339017Y0061114D02*
X0100459Y0061114D01*
X0100459Y0059515D02*
X0339017Y0059515D01*
X0339017Y0057917D02*
X0100459Y0057917D01*
X0100459Y0056318D02*
X0339017Y0056318D01*
X0339017Y0054720D02*
X0100459Y0054720D01*
X0100459Y0053121D02*
X0339017Y0053121D01*
X0120690Y0203381D02*
X0098300Y0203381D01*
X0098300Y0201783D02*
X0119355Y0201783D01*
X0121386Y0204980D02*
X0115057Y0204980D01*
X0116735Y0206578D02*
X0119537Y0206578D01*
X0118875Y0208177D02*
X0118334Y0208177D01*
X0114177Y0211374D02*
X0074300Y0211374D01*
X0074300Y0212972D02*
X0115358Y0212972D01*
X0115367Y0214571D02*
X0074300Y0214571D01*
X0074300Y0216169D02*
X0115376Y0216169D01*
X0115385Y0217768D02*
X0074300Y0217768D01*
X0074300Y0209775D02*
X0090246Y0209775D01*
X0088180Y0208177D02*
X0074300Y0208177D01*
X0074300Y0206578D02*
X0086581Y0206578D01*
X0084983Y0204980D02*
X0074300Y0204980D01*
X0074300Y0203381D02*
X0083384Y0203381D01*
X0081786Y0201783D02*
X0074300Y0201783D01*
X0074300Y0200184D02*
X0080187Y0200184D01*
X0079260Y0198586D02*
X0074300Y0198586D01*
X0074300Y0196987D02*
X0079260Y0196987D01*
X0079260Y0195389D02*
X0074300Y0195389D01*
X0074300Y0193790D02*
X0079260Y0193790D01*
X0079260Y0192192D02*
X0074300Y0192192D01*
X0074300Y0190593D02*
X0079260Y0190593D01*
X0079260Y0188995D02*
X0074300Y0188995D01*
X0074300Y0187396D02*
X0079260Y0187396D01*
X0079260Y0185798D02*
X0074300Y0185798D01*
X0074300Y0184199D02*
X0079260Y0184199D01*
X0079260Y0182601D02*
X0074300Y0182601D01*
X0074300Y0181002D02*
X0079260Y0181002D01*
X0079260Y0179403D02*
X0074300Y0179403D01*
X0074300Y0177805D02*
X0079260Y0177805D01*
X0079907Y0176206D02*
X0074300Y0176206D01*
X0074300Y0174608D02*
X0081505Y0174608D01*
X0080387Y0175726D02*
X0080387Y0175726D01*
X0081860Y0177930D02*
X0081860Y0198180D01*
X0081860Y0177930D02*
X0085640Y0174150D01*
X0088430Y0174150D01*
X0090310Y0169150D02*
X0112030Y0169150D01*
X0090310Y0169150D02*
X0088370Y0167100D01*
X0088370Y0164210D01*
X0088430Y0164150D01*
X0081550Y0163418D02*
X0074300Y0163418D01*
X0074300Y0161820D02*
X0081550Y0161820D01*
X0081550Y0160221D02*
X0074300Y0160221D01*
X0074300Y0158623D02*
X0081550Y0158623D01*
X0081550Y0157024D02*
X0074300Y0157024D01*
X0074300Y0155426D02*
X0081550Y0155426D01*
X0081550Y0153827D02*
X0074300Y0153827D01*
X0074300Y0152229D02*
X0081550Y0152229D01*
X0081550Y0150630D02*
X0074300Y0150630D01*
X0074300Y0149032D02*
X0081550Y0149032D01*
X0081550Y0147433D02*
X0074300Y0147433D01*
X0074300Y0145835D02*
X0081550Y0145835D01*
X0081550Y0165017D02*
X0074300Y0165017D01*
X0074300Y0166615D02*
X0081550Y0166615D01*
X0081550Y0168214D02*
X0074300Y0168214D01*
X0074300Y0169812D02*
X0081550Y0169812D01*
X0081550Y0171411D02*
X0074300Y0171411D01*
X0074300Y0173009D02*
X0081550Y0173009D01*
X0089942Y0219366D02*
X0115394Y0219366D01*
X0115402Y0220965D02*
X0094252Y0220965D01*
X0096401Y0222563D02*
X0115411Y0222563D01*
X0115420Y0224162D02*
X0097844Y0224162D01*
X0098883Y0225760D02*
X0115429Y0225760D01*
X0115803Y0227359D02*
X0099618Y0227359D01*
X0100104Y0228957D02*
X0117370Y0228957D01*
X0118847Y0230556D02*
X0100372Y0230556D01*
X0100459Y0232154D02*
X0119509Y0232154D01*
X0156870Y0229560D02*
X0156900Y0227930D01*
D25*
X0150210Y0190290D03*
X0167120Y0190290D03*
X0166080Y0174540D03*
X0167170Y0142610D03*
X0176980Y0112400D03*
X0146980Y0099400D03*
X0256000Y0165200D03*
X0263360Y0156920D03*
X0287900Y0169880D03*
X0297410Y0158430D03*
X0294360Y0189030D03*
X0329160Y0194300D03*
X0336840Y0194440D03*
X0294140Y0219730D03*
X0253800Y0191530D03*
X0243740Y0197320D03*
X0231000Y0191440D03*
X0221970Y0195300D03*
X0213350Y0209720D03*
X0229550Y0220170D03*
X0241730Y0219730D03*
X0262480Y0096640D03*
X0280850Y0082750D03*
X0280980Y0067570D03*
X0267140Y0060520D03*
D26*
X0257550Y0087690D03*
X0257550Y0128690D03*
M02*
